0
SECTION
2
HEADER
9
$INSUNITS
70
4
9
$ACADVER
1
AC1014
9
$HANDSEED
5
FFFF
0
ENDSEC
0
SECTION
2
TABLES
0
TABLE
2
VPORT
5
8
100
AcDbSymbolTable
0
ENDTAB
0
TABLE
2
LTYPE
5
5
100
AcDbSymbolTable
0
LTYPE
5
14
100
AcDbSymbolTableRecord
100
AcDbLinetypeTableRecord
2
BYBLOCK
70
0
0
LTYPE
5
15
100
AcDbSymbolTableRecord
100
AcDbLinetypeTableRecord
2
BYLAYER
70
0
0
ENDTAB
0
TABLE
2
LAYER
5
2
100
AcDbSymbolTable
70
2
0
LAYER
5
50
100
AcDbSymbolTableRecord
100
AcDbLayerTableRecord
2
0
70
0
6
CONTINUOUS
0
ENDTAB
0
TABLE
2
STYLE
5
3
100
AcDbSymbolTable
70
1
0
STYLE
5
11
100
AcDbSymbolTableRecord
100
AcDbTextStyleTableRecord
2
STANDARD
70
0
0
ENDTAB
0
TABLE
2
VIEW
5
6
100
AcDbSymbolTable
70
0
0
ENDTAB
0
TABLE
2
UCS
5
7
100
AcDbSymbolTable
70
0
0
ENDTAB
0
TABLE
2
APPID
5
9
100
AcDbSymbolTable
70
2
0
APPID
5
12
100
AcDbSymbolTableRecord
100
AcDbRegAppTableRecord
2
ACAD
70
0
0
ENDTAB
0
TABLE
2
DIMSTYLE
5
A
100
AcDbSymbolTable
70
1
0
ENDTAB
0
TABLE
2
BLOCK_RECORD
5
1
100
AcDbSymbolTable
70
1
0
BLOCK_RECORD
5
1F
100
AcDbSymbolTableRecord
100
AcDbBlockTableRecord
2
*MODEL_SPACE
0
BLOCK_RECORD
5
1B
100
AcDbSymbolTableRecord
100
AcDbBlockTableRecord
2
*PAPER_SPACE
0
ENDTAB
0
ENDSEC
0
SECTION
2
BLOCKS
0
BLOCK
5
20
100
AcDbEntity
100
AcDbBlockBegin
2
*MODEL_SPACE
0
ENDBLK
5
21
100
AcDbEntity
100
AcDbBlockEnd
0
BLOCK
5
1C
100
AcDbEntity
100
AcDbBlockBegin
2
*PAPER_SPACE
0
ENDBLK
5
1D
100
AcDbEntity
100
AcDbBlockEnd
0
ENDSEC
0
SECTION
2
ENTITIES
0
LWPOLYLINE
5
100
100
AcDbEntity
8
0
100
AcDbPolyline
90
18
70
1
43
0.0
10
-53.250000000001677
20
55.138956130325269
42
0.41421356237309681
10
-56.25000000000167
20
52.138956130325262
10
-56.25000000000167
20
14.138956130325266
10
-39.375000000001663
20
14.138956130325271
10
-39.375000000001663
20
20.138956130325273
10
-24.375000000001666
20
20.138956130325276
10
-24.375000000001666
20
14.138956130325273
10
-7.5000000000016653
20
14.138956130325278
10
-7.5000000000016653
20
20.138956130325276
10
7.4999999999983347
20
20.13895613032528
10
7.4999999999983347
20
14.138956130325282
10
24.374999999998334
20
14.138956130325283
10
24.374999999998334
20
20.138956130325283
10
39.374999999998337
20
20.13895613032529
10
39.374999999998337
20
14.138956130325289
10
56.24999999999833
20
14.138956130325294
10
56.249999999998323
20
52.138956130325298
42
0.41421356237309764
10
53.249999999998316
20
55.138956130325298
0
CIRCLE
5
101
100
AcDbEntity
8
0
100
AcDbCircle
10
-8.9999999999552038
20
46.570956130325783
30
0
40
3.0000000000000004
210
5.0670242630485126e-78
220
1.9721522630525295e-31
230
1
0
CIRCLE
5
102
100
AcDbEntity
8
0
100
AcDbCircle
10
18.00000000004459
20
46.570956130325818
30
0
40
3.0000000000000004
210
5.0670242630485126e-78
220
1.9721522630525295e-31
230
1
0
CIRCLE
5
103
100
AcDbEntity
8
0
100
AcDbCircle
10
-8.9999999999552163
20
28.670956130325834
30
0
40
3.0000000000000004
210
5.0670242630485126e-78
220
1.9721522630525295e-31
230
1
0
CIRCLE
5
104
100
AcDbEntity
8
0
100
AcDbCircle
10
9.0000000000446505
20
28.670956130325852
30
0
40
3.0000000000000004
210
5.0670242630485126e-78
220
1.9721522630525295e-31
230
1
0
CIRCLE
5
105
100
AcDbEntity
8
0
100
AcDbCircle
10
18.000000000044579
20
28.670956130325859
30
0
40
3.0000000000000004
210
5.0670242630485126e-78
220
1.9721522630525295e-31
230
1
0
CIRCLE
5
106
100
AcDbEntity
8
0
100
AcDbCircle
10
4.4717557542498954e-11
20
28.670956130325841
30
0
40
3.0000000000000004
210
5.0670242630485126e-78
220
1.9721522630525295e-31
230
1
0
CIRCLE
5
107
100
AcDbEntity
8
0
100
AcDbCircle
10
-17.999999999955143
20
28.670956130325806
30
0
40
3.0000000000000004
210
5.0670242630485126e-78
220
1.9721522630525295e-31
230
1
0
CIRCLE
5
108
100
AcDbEntity
8
0
100
AcDbCircle
10
9.0000000000446629
20
46.570956130325804
30
0
40
3.0000000000000004
210
5.0670242630485126e-78
220
1.9721522630525295e-31
230
1
0
CIRCLE
5
109
100
AcDbEntity
8
0
100
AcDbCircle
10
-17.999999999955133
20
46.570956130325769
30
0
40
3.0000000000000004
210
5.0670242630485126e-78
220
1.9721522630525295e-31
230
1
0
CIRCLE
5
110
100
AcDbEntity
8
0
100
AcDbCircle
10
27.000000000044544
20
46.57095613032584
30
0
40
4.5
210
0
220
-0
230
1
0
CIRCLE
5
111
100
AcDbEntity
8
0
100
AcDbCircle
10
-26.999999999955083
20
46.570956130325769
30
0
40
4.5
210
0
220
-0
230
1
0
CIRCLE
5
112
100
AcDbEntity
8
0
100
AcDbCircle
10
27.00000000004453
20
28.67095613032587
30
0
40
4.5
210
0
220
-0
230
1
0
CIRCLE
5
113
100
AcDbEntity
8
0
100
AcDbCircle
10
4.4729481337835246e-11
20
46.570956130325783
30
0
40
4.5
210
0
220
-0
230
1
0
CIRCLE
5
114
100
AcDbEntity
8
0
100
AcDbCircle
10
-26.999999999955094
20
28.670956130325798
30
0
40
4.5
210
0
220
-0
230
1
0
ENDSEC
0
SECTION
2
OBJECTS
0
DICTIONARY
5
C
100
AcDbDictionary
3
ACAD_GROUP
350
D
3
ACAD_MLINESTYLE
350
17
0
DICTIONARY
5
D
100
AcDbDictionary
0
DICTIONARY
5
1A
330
C
100
AcDbDictionary
0
DICTIONARY
5
17
100
AcDbDictionary
0
ENDSEC
0
EOF
