0
SECTION
2
HEADER
9
$INSUNITS
70
4
9
$ACADVER
1
AC1014
9
$HANDSEED
5
FFFF
0
ENDSEC
0
SECTION
2
TABLES
0
TABLE
2
VPORT
5
8
100
AcDbSymbolTable
0
ENDTAB
0
TABLE
2
LTYPE
5
5
100
AcDbSymbolTable
0
LTYPE
5
14
100
AcDbSymbolTableRecord
100
AcDbLinetypeTableRecord
2
BYBLOCK
70
0
0
LTYPE
5
15
100
AcDbSymbolTableRecord
100
AcDbLinetypeTableRecord
2
BYLAYER
70
0
0
ENDTAB
0
TABLE
2
LAYER
5
2
100
AcDbSymbolTable
70
2
0
LAYER
5
50
100
AcDbSymbolTableRecord
100
AcDbLayerTableRecord
2
0
70
0
6
CONTINUOUS
0
ENDTAB
0
TABLE
2
STYLE
5
3
100
AcDbSymbolTable
70
1
0
STYLE
5
11
100
AcDbSymbolTableRecord
100
AcDbTextStyleTableRecord
2
STANDARD
70
0
0
ENDTAB
0
TABLE
2
VIEW
5
6
100
AcDbSymbolTable
70
0
0
ENDTAB
0
TABLE
2
UCS
5
7
100
AcDbSymbolTable
70
0
0
ENDTAB
0
TABLE
2
APPID
5
9
100
AcDbSymbolTable
70
2
0
APPID
5
12
100
AcDbSymbolTableRecord
100
AcDbRegAppTableRecord
2
ACAD
70
0
0
ENDTAB
0
TABLE
2
DIMSTYLE
5
A
100
AcDbSymbolTable
70
1
0
ENDTAB
0
TABLE
2
BLOCK_RECORD
5
1
100
AcDbSymbolTable
70
1
0
BLOCK_RECORD
5
1F
100
AcDbSymbolTableRecord
100
AcDbBlockTableRecord
2
*MODEL_SPACE
0
BLOCK_RECORD
5
1B
100
AcDbSymbolTableRecord
100
AcDbBlockTableRecord
2
*PAPER_SPACE
0
ENDTAB
0
ENDSEC
0
SECTION
2
BLOCKS
0
BLOCK
5
20
100
AcDbEntity
100
AcDbBlockBegin
2
*MODEL_SPACE
0
ENDBLK
5
21
100
AcDbEntity
100
AcDbBlockEnd
0
BLOCK
5
1C
100
AcDbEntity
100
AcDbBlockBegin
2
*PAPER_SPACE
0
ENDBLK
5
1D
100
AcDbEntity
100
AcDbBlockEnd
0
ENDSEC
0
SECTION
2
ENTITIES
0
LWPOLYLINE
5
100
100
AcDbEntity
8
0
100
AcDbPolyline
90
6
70
1
43
0.0
10
0
20
0
10
95
20
0
42
0.41421356237309503
10
100
20
4.9999999999999956
10
100
20
75
42
0.41421356237309503
10
95
20
80
10
-3.0814879110195774e-31
20
80
0
CIRCLE
5
101
100
AcDbEntity
8
0
100
AcDbCircle
10
42.143000000000001
20
49.028906250000006
30
0
40
3.3000000000000003
210
0
220
0
230
1
0
LINE
5
102
100
AcDbEntity
8
0
100
AcDbLine
10
42.143000000000001
20
80
30
0
11
42.143000000000001
21
0
31
0
0
CIRCLE
5
103
100
AcDbEntity
8
0
100
AcDbCircle
10
42.143000000000001
20
30.971093749999994
30
0
40
3.3000000000000003
210
0
220
0
230
1
0
LINE
5
104
100
AcDbEntity
8
0
100
AcDbLine
10
47.5
20
80
30
0
11
47.5
21
-3.0814879110195774e-31
31
0
0
LINE
5
105
100
AcDbEntity
8
0
100
AcDbLine
10
1.4791141972893974e-31
20
40
30
0
11
100
21
40
31
0
0
LINE
5
106
100
AcDbEntity
8
0
100
AcDbLine
10
1.8129837827986464e-31
20
49.028906249999991
30
0
11
100
21
49.02890625000002
31
0
0
LINE
5
107
100
AcDbEntity
8
0
100
AcDbLine
10
1.1452446117801483e-31
20
30.971093750000005
30
0
11
100
21
30.971093749999991
31
0
0
LINE
5
108
100
AcDbEntity
8
0
100
AcDbLine
10
15
20
80
30
0
11
15
21
0
31
0
0
CIRCLE
5
109
100
AcDbEntity
8
0
100
AcDbCircle
10
15
20
49.028906249999991
30
0
40
3.1349999999999998
210
0
220
0
230
1
0
CIRCLE
5
110
100
AcDbEntity
8
0
100
AcDbCircle
10
15
20
30.971093750000005
30
0
40
3.1349999999999998
210
0
220
0
230
1
0
CIRCLE
5
111
100
AcDbEntity
8
0
100
AcDbCircle
10
60.042999999999999
20
49.028906250000006
30
0
40
3.3000000000000003
210
0
220
0
230
1
0
CIRCLE
5
112
100
AcDbEntity
8
0
100
AcDbCircle
10
60.042999999999999
20
30.971093749999994
30
0
40
3.3000000000000003
210
0
220
0
230
1
0
CIRCLE
5
113
100
AcDbEntity
8
0
100
AcDbCircle
10
77.942999999999998
20
49.028906250000006
30
0
40
3.3000000000000003
210
0
220
0
230
1
0
CIRCLE
5
114
100
AcDbEntity
8
0
100
AcDbCircle
10
77.942999999999998
20
30.971093749999994
30
0
40
3.3000000000000003
210
0
220
0
230
1
0
LINE
5
115
100
AcDbEntity
8
0
100
AcDbLine
10
-4.9740150079338493e-32
20
12.913281250000006
30
0
11
100
21
12.913281250000006
31
0
0
LINE
5
116
100
AcDbEntity
8
0
100
AcDbLine
10
-2.5840864102261927e-31
20
67.086718749999989
30
0
11
100
21
67.086718749999989
31
0
0
LINE
5
117
100
AcDbEntity
8
0
100
AcDbLine
10
77.942999999999984
20
80
30
0
11
77.942999999999998
21
-3.0814879110195774e-31
31
0
0
LINE
5
118
100
AcDbEntity
8
0
100
AcDbLine
10
60.042999999999992
20
80
30
0
11
60.042999999999999
21
-3.0814879110195774e-31
31
0
0
CIRCLE
5
119
100
AcDbEntity
8
0
100
AcDbCircle
10
15
20
67.086718749999989
30
0
40
3.1349999999999998
210
0
220
0
230
1
0
CIRCLE
5
120
100
AcDbEntity
8
0
100
AcDbCircle
10
15
20
12.913281250000006
30
0
40
3.1349999999999998
210
0
220
0
230
1
0
CIRCLE
5
121
100
AcDbEntity
8
0
100
AcDbCircle
10
77.942999999999984
20
67.086718749999989
30
0
40
5.1593750000000007
210
0
220
0
230
1
0
CIRCLE
5
122
100
AcDbEntity
8
0
100
AcDbCircle
10
77.942999999999998
20
12.913281250000006
30
0
40
5.1593750000000007
210
0
220
0
230
1
0
CIRCLE
5
123
100
AcDbEntity
8
0
100
AcDbCircle
10
77.942999999999998
20
40
30
0
40
5.1593749999999972
210
0
220
0
230
1
0
CIRCLE
5
124
100
AcDbEntity
8
0
100
AcDbCircle
10
42.143000000000001
20
67.086718749999989
30
0
40
5.159374999999998
210
0
220
0
230
1
0
CIRCLE
5
125
100
AcDbEntity
8
0
100
AcDbCircle
10
42.143000000000001
20
12.913281250000006
30
0
40
5.1593750000000025
210
0
220
0
230
1
0
CIRCLE
5
126
100
AcDbEntity
8
0
100
AcDbCircle
10
60.042999999999992
20
67.086718749999989
30
0
40
3.3000000000000016
210
0
220
0
230
1
0
CIRCLE
5
127
100
AcDbEntity
8
0
100
AcDbCircle
10
60.042999999999999
20
12.913281250000006
30
0
40
3.3000000000000016
210
0
220
0
230
1
0
ENDSEC
0
SECTION
2
OBJECTS
0
DICTIONARY
5
C
100
AcDbDictionary
3
ACAD_GROUP
350
D
3
ACAD_MLINESTYLE
350
17
0
DICTIONARY
5
D
100
AcDbDictionary
0
DICTIONARY
5
1A
330
C
100
AcDbDictionary
0
DICTIONARY
5
17
100
AcDbDictionary
0
ENDSEC
0
EOF
