  0
SECTION
  2
HEADER
  9
$ACADVER
  1
AC1009
  9
$FILLMODE
 70
 0
  9
$SPLFRAME
 70
 1
  9
$EXTMIN
 10
0
 20
0
 30
0.0
  9
$EXTMAX
 10
1058.33
 20
1058.33
 30
0.0
  0
ENDSEC
  0
SECTION
  2
TABLES
  0
TABLE
  2
LAYER
 70
1
  0
LAYER
  2
0
 70
     0
 62
     7
  6
CONTINUOUS
  0
ENDTAB
  0
ENDSEC
  0
SECTION
  2
ENTITIES
  0
POLYLINE
  8
0
 62
     5
 66
     1
 10
0
 20
0
 30
0.0
 70
     1
 40
0.510236
 41
0.510236
  0
VERTEX
  8
0
 10
23.0904
 20
43.1793
 30
0.0
 40
0.18
 41
0.18
  0
VERTEX
  8
0
 10
20.18
 20
43.1793
 30
0.0
 40
0.18
 41
0.18
  0
VERTEX
  8
0
 10
20.1704
 20
43.1793
 30
0.0
 40
0.18
 41
0.18
  0
VERTEX
  8
0
 10
20.1414
 20
43.1669
 30
0.0
 40
0.18
 41
0.18
  0
VERTEX
  8
0
 10
20.1456
 20
43.1465
 30
0.0
 40
0.18
 41
0.18
  0
VERTEX
  8
0
 10
20.1662
 20
43.1423
 30
0.0
 40
0.18
 41
0.18
  0
VERTEX
  8
0
 10
20.18
 20
43.1712
 30
0.0
 40
0.18
 41
0.18
  0
VERTEX
  8
0
 10
20.18
 20
43.1793
 30
0.0
 40
0.18
 41
0.18
  0
VERTEX
  8
0
 10
20.18
 20
46.0005
 30
0.0
 40
0.18
 41
0.18
  0
VERTEX
  8
0
 10
20.18
 20
46.01
 30
0.0
 40
0.18
 41
0.18
  0
VERTEX
  8
0
 10
20.1662
 20
46.0389
 30
0.0
 40
0.18
 41
0.18
  0
VERTEX
  8
0
 10
20.1456
 20
46.0347
 30
0.0
 40
0.18
 41
0.18
  0
VERTEX
  8
0
 10
20.1414
 20
46.0142
 30
0.0
 40
0.18
 41
0.18
  0
VERTEX
  8
0
 10
20.1704
 20
46.0005
 30
0.0
 40
0.18
 41
0.18
  0
VERTEX
  8
0
 10
20.18
 20
46.0005
 30
0.0
 40
0.18
 41
0.18
  0
VERTEX
  8
0
 10
25.9994
 20
46.0005
 30
0.0
 40
0.18
 41
0.18
  0
VERTEX
  8
0
 10
26.0077
 20
46.0005
 30
0.0
 40
0.18
 41
0.18
  0
VERTEX
  8
0
 10
26.0367
 20
46.0142
 30
0.0
 40
0.18
 41
0.18
  0
VERTEX
  8
0
 10
26.0325
 20
46.0347
 30
0.0
 40
0.18
 41
0.18
  0
VERTEX
  8
0
 10
26.0119
 20
46.0389
 30
0.0
 40
0.18
 41
0.18
  0
VERTEX
  8
0
 10
25.9994
 20
46.01
 30
0.0
 40
0.18
 41
0.18
  0
VERTEX
  8
0
 10
25.9994
 20
46.0005
 30
0.0
 40
0.18
 41
0.18
  0
VERTEX
  8
0
 10
25.9994
 20
43.1793
 30
0.0
 40
0.18
 41
0.18
  0
VERTEX
  8
0
 10
25.9994
 20
43.1712
 30
0.0
 40
0.18
 41
0.18
  0
VERTEX
  8
0
 10
26.0119
 20
43.1423
 30
0.0
 40
0.18
 41
0.18
  0
VERTEX
  8
0
 10
26.0325
 20
43.1465
 30
0.0
 40
0.18
 41
0.18
  0
VERTEX
  8
0
 10
26.0367
 20
43.1669
 30
0.0
 40
0.18
 41
0.18
  0
VERTEX
  8
0
 10
26.0077
 20
43.1793
 30
0.0
 40
0.18
 41
0.18
  0
VERTEX
  8
0
 10
25.9994
 20
43.1793
 30
0.0
 40
0.18
 41
0.18
  0
VERTEX
  8
0
 10
23.0904
 20
43.1793
 30
0.0
 40
0.18
 41
0.18
  0
SEQEND
 8
0
  0
POLYLINE
  8
0
 62
     5
 66
     1
 10
0
 20
0
 30
0.0
 70
     1
 40
0.510236
 41
0.510236
  0
VERTEX
  8
0
 10
63.0908
 20
46.0005
 30
0.0
 40
0.18
 41
0.18
  0
VERTEX
  8
0
 10
65.9998
 20
46.0005
 30
0.0
 40
0.18
 41
0.18
  0
VERTEX
  8
0
 10
66.0079
 20
46.0005
 30
0.0
 40
0.18
 41
0.18
  0
VERTEX
  8
0
 10
66.0368
 20
46.0142
 30
0.0
 40
0.18
 41
0.18
  0
VERTEX
  8
0
 10
66.0329
 20
46.0347
 30
0.0
 40
0.18
 41
0.18
  0
VERTEX
  8
0
 10
66.0121
 20
46.0389
 30
0.0
 40
0.18
 41
0.18
  0
VERTEX
  8
0
 10
65.9998
 20
46.01
 30
0.0
 40
0.18
 41
0.18
  0
VERTEX
  8
0
 10
65.9998
 20
46.0005
 30
0.0
 40
0.18
 41
0.18
  0
VERTEX
  8
0
 10
65.9998
 20
43.1793
 30
0.0
 40
0.18
 41
0.18
  0
VERTEX
  8
0
 10
65.9998
 20
43.1712
 30
0.0
 40
0.18
 41
0.18
  0
VERTEX
  8
0
 10
66.0121
 20
43.1423
 30
0.0
 40
0.18
 41
0.18
  0
VERTEX
  8
0
 10
66.0329
 20
43.1465
 30
0.0
 40
0.18
 41
0.18
  0
VERTEX
  8
0
 10
66.0368
 20
43.1669
 30
0.0
 40
0.18
 41
0.18
  0
VERTEX
  8
0
 10
66.0079
 20
43.1793
 30
0.0
 40
0.18
 41
0.18
  0
VERTEX
  8
0
 10
65.9998
 20
43.1793
 30
0.0
 40
0.18
 41
0.18
  0
VERTEX
  8
0
 10
60.1804
 20
43.1793
 30
0.0
 40
0.18
 41
0.18
  0
VERTEX
  8
0
 10
60.1708
 20
43.1793
 30
0.0
 40
0.18
 41
0.18
  0
VERTEX
  8
0
 10
60.1416
 20
43.1669
 30
0.0
 40
0.18
 41
0.18
  0
VERTEX
  8
0
 10
60.1458
 20
43.1465
 30
0.0
 40
0.18
 41
0.18
  0
VERTEX
  8
0
 10
60.1666
 20
43.1423
 30
0.0
 40
0.18
 41
0.18
  0
VERTEX
  8
0
 10
60.1804
 20
43.1712
 30
0.0
 40
0.18
 41
0.18
  0
VERTEX
  8
0
 10
60.1804
 20
43.1793
 30
0.0
 40
0.18
 41
0.18
  0
VERTEX
  8
0
 10
60.1804
 20
46.0005
 30
0.0
 40
0.18
 41
0.18
  0
VERTEX
  8
0
 10
60.1804
 20
46.01
 30
0.0
 40
0.18
 41
0.18
  0
VERTEX
  8
0
 10
60.1666
 20
46.0389
 30
0.0
 40
0.18
 41
0.18
  0
VERTEX
  8
0
 10
60.1458
 20
46.0347
 30
0.0
 40
0.18
 41
0.18
  0
VERTEX
  8
0
 10
60.1416
 20
46.0142
 30
0.0
 40
0.18
 41
0.18
  0
VERTEX
  8
0
 10
60.1708
 20
46.0005
 30
0.0
 40
0.18
 41
0.18
  0
VERTEX
  8
0
 10
60.1804
 20
46.0005
 30
0.0
 40
0.18
 41
0.18
  0
VERTEX
  8
0
 10
63.0908
 20
46.0005
 30
0.0
 40
0.18
 41
0.18
  0
SEQEND
 8
0
  0
TEXT
  8
0
 62
     1
 10
37.5345
 20
28.6962
 30
0.0
 40
4.0005
  1
Wall 1
 50
0
  0
POLYLINE
  8
0
 62
     0
 66
     1
 10
0
 20
0
 30
0.0
 70
     1
 40
0.510236
 41
0.510236
  0
VERTEX
  8
0
 10
13.09
 20
13.0004
 30
0.0
 40
0.18
 41
0.18
  0
VERTEX
  8
0
 10
22.0004
 20
13.0004
 30
0.0
 40
0.18
 41
0.18
  0
VERTEX
  8
0
 10
22.0086
 20
13.0004
 30
0.0
 40
0.18
 41
0.18
  0
VERTEX
  8
0
 10
22.0376
 20
13.0142
 30
0.0
 40
0.18
 41
0.18
  0
VERTEX
  8
0
 10
22.0334
 20
13.0349
 30
0.0
 40
0.18
 41
0.18
  0
VERTEX
  8
0
 10
22.0128
 20
13.039
 30
0.0
 40
0.18
 41
0.18
  0
VERTEX
  8
0
 10
22.0004
 20
13.0101
 30
0.0
 40
0.18
 41
0.18
  0
VERTEX
  8
0
 10
22.0004
 20
13.0004
 30
0.0
 40
0.18
 41
0.18
  0
VERTEX
  8
0
 10
22.0004
 20
10.09
 30
0.0
 40
0.18
 41
0.18
  0
VERTEX
  8
0
 10
22.0004
 20
10.0748
 30
0.0
 40
0.18
 41
0.18
  0
VERTEX
  8
0
 10
22.0266
 20
10.0266
 30
0.0
 40
0.18
 41
0.18
  0
VERTEX
  8
0
 10
22.0734
 20
10.0004
 30
0.0
 40
0.18
 41
0.18
  0
VERTEX
  8
0
 10
22.09
 20
10.0004
 30
0.0
 40
0.18
 41
0.18
  0
VERTEX
  8
0
 10
28.0899
 20
10.0004
 30
0.0
 40
0.18
 41
0.18
  0
VERTEX
  8
0
 10
28.1051
 20
10.0004
 30
0.0
 40
0.18
 41
0.18
  0
VERTEX
  8
0
 10
28.1533
 20
10.0266
 30
0.0
 40
0.18
 41
0.18
  0
VERTEX
  8
0
 10
28.1795
 20
10.0748
 30
0.0
 40
0.18
 41
0.18
  0
VERTEX
  8
0
 10
28.1795
 20
10.09
 30
0.0
 40
0.18
 41
0.18
  0
VERTEX
  8
0
 10
28.1795
 20
13.0004
 30
0.0
 40
0.18
 41
0.18
  0
VERTEX
  8
0
 10
28.1795
 20
13.0101
 30
0.0
 40
0.18
 41
0.18
  0
VERTEX
  8
0
 10
28.1657
 20
13.039
 30
0.0
 40
0.18
 41
0.18
  0
VERTEX
  8
0
 10
28.1451
 20
13.0349
 30
0.0
 40
0.18
 41
0.18
  0
VERTEX
  8
0
 10
28.1409
 20
13.0142
 30
0.0
 40
0.18
 41
0.18
  0
VERTEX
  8
0
 10
28.1699
 20
13.0004
 30
0.0
 40
0.18
 41
0.18
  0
VERTEX
  8
0
 10
28.1795
 20
13.0004
 30
0.0
 40
0.18
 41
0.18
  0
VERTEX
  8
0
 10
34.0003
 20
13.0004
 30
0.0
 40
0.18
 41
0.18
  0
VERTEX
  8
0
 10
34.0086
 20
13.0004
 30
0.0
 40
0.18
 41
0.18
  0
VERTEX
  8
0
 10
34.0376
 20
13.0142
 30
0.0
 40
0.18
 41
0.18
  0
VERTEX
  8
0
 10
34.0334
 20
13.0349
 30
0.0
 40
0.18
 41
0.18
  0
VERTEX
  8
0
 10
34.0128
 20
13.039
 30
0.0
 40
0.18
 41
0.18
  0
VERTEX
  8
0
 10
34.0003
 20
13.0101
 30
0.0
 40
0.18
 41
0.18
  0
VERTEX
  8
0
 10
34.0003
 20
13.0004
 30
0.0
 40
0.18
 41
0.18
  0
VERTEX
  8
0
 10
34.0003
 20
10.09
 30
0.0
 40
0.18
 41
0.18
  0
VERTEX
  8
0
 10
34.0003
 20
10.0748
 30
0.0
 40
0.18
 41
0.18
  0
VERTEX
  8
0
 10
34.0265
 20
10.0266
 30
0.0
 40
0.18
 41
0.18
  0
VERTEX
  8
0
 10
34.0734
 20
10.0004
 30
0.0
 40
0.18
 41
0.18
  0
VERTEX
  8
0
 10
34.0899
 20
10.0004
 30
0.0
 40
0.18
 41
0.18
  0
VERTEX
  8
0
 10
40.09
 20
10.0004
 30
0.0
 40
0.18
 41
0.18
  0
VERTEX
  8
0
 10
40.1052
 20
10.0004
 30
0.0
 40
0.18
 41
0.18
  0
VERTEX
  8
0
 10
40.1532
 20
10.0266
 30
0.0
 40
0.18
 41
0.18
  0
VERTEX
  8
0
 10
40.1796
 20
10.0748
 30
0.0
 40
0.18
 41
0.18
  0
VERTEX
  8
0
 10
40.1796
 20
10.09
 30
0.0
 40
0.18
 41
0.18
  0
VERTEX
  8
0
 10
40.1796
 20
13.0004
 30
0.0
 40
0.18
 41
0.18
  0
VERTEX
  8
0
 10
40.1796
 20
13.0101
 30
0.0
 40
0.18
 41
0.18
  0
VERTEX
  8
0
 10
40.1655
 20
13.039
 30
0.0
 40
0.18
 41
0.18
  0
VERTEX
  8
0
 10
40.1451
 20
13.0349
 30
0.0
 40
0.18
 41
0.18
  0
VERTEX
  8
0
 10
40.1408
 20
13.0142
 30
0.0
 40
0.18
 41
0.18
  0
VERTEX
  8
0
 10
40.1697
 20
13.0004
 30
0.0
 40
0.18
 41
0.18
  0
VERTEX
  8
0
 10
40.1796
 20
13.0004
 30
0.0
 40
0.18
 41
0.18
  0
VERTEX
  8
0
 10
46.0005
 20
13.0004
 30
0.0
 40
0.18
 41
0.18
  0
VERTEX
  8
0
 10
46.0086
 20
13.0004
 30
0.0
 40
0.18
 41
0.18
  0
VERTEX
  8
0
 10
46.0375
 20
13.0142
 30
0.0
 40
0.18
 41
0.18
  0
VERTEX
  8
0
 10
46.0333
 20
13.0349
 30
0.0
 40
0.18
 41
0.18
  0
VERTEX
  8
0
 10
46.0128
 20
13.039
 30
0.0
 40
0.18
 41
0.18
  0
VERTEX
  8
0
 10
46.0005
 20
13.0101
 30
0.0
 40
0.18
 41
0.18
  0
VERTEX
  8
0
 10
46.0005
 20
13.0004
 30
0.0
 40
0.18
 41
0.18
  0
VERTEX
  8
0
 10
46.0005
 20
10.09
 30
0.0
 40
0.18
 41
0.18
  0
VERTEX
  8
0
 10
46.0005
 20
10.0748
 30
0.0
 40
0.18
 41
0.18
  0
VERTEX
  8
0
 10
46.0266
 20
10.0266
 30
0.0
 40
0.18
 41
0.18
  0
VERTEX
  8
0
 10
46.0735
 20
10.0004
 30
0.0
 40
0.18
 41
0.18
  0
VERTEX
  8
0
 10
46.0897
 20
10.0004
 30
0.0
 40
0.18
 41
0.18
  0
VERTEX
  8
0
 10
52.0898
 20
10.0004
 30
0.0
 40
0.18
 41
0.18
  0
VERTEX
  8
0
 10
52.1049
 20
10.0004
 30
0.0
 40
0.18
 41
0.18
  0
VERTEX
  8
0
 10
52.1533
 20
10.0266
 30
0.0
 40
0.18
 41
0.18
  0
VERTEX
  8
0
 10
52.1794
 20
10.0748
 30
0.0
 40
0.18
 41
0.18
  0
VERTEX
  8
0
 10
52.1794
 20
10.09
 30
0.0
 40
0.18
 41
0.18
  0
VERTEX
  8
0
 10
52.1794
 20
13.0004
 30
0.0
 40
0.18
 41
0.18
  0
VERTEX
  8
0
 10
52.1794
 20
13.0101
 30
0.0
 40
0.18
 41
0.18
  0
VERTEX
  8
0
 10
52.1656
 20
13.039
 30
0.0
 40
0.18
 41
0.18
  0
VERTEX
  8
0
 10
52.1451
 20
13.0349
 30
0.0
 40
0.18
 41
0.18
  0
VERTEX
  8
0
 10
52.1409
 20
13.0142
 30
0.0
 40
0.18
 41
0.18
  0
VERTEX
  8
0
 10
52.1698
 20
13.0004
 30
0.0
 40
0.18
 41
0.18
  0
VERTEX
  8
0
 10
52.1794
 20
13.0004
 30
0.0
 40
0.18
 41
0.18
  0
VERTEX
  8
0
 10
58.0002
 20
13.0004
 30
0.0
 40
0.18
 41
0.18
  0
VERTEX
  8
0
 10
58.0087
 20
13.0004
 30
0.0
 40
0.18
 41
0.18
  0
VERTEX
  8
0
 10
58.0376
 20
13.0142
 30
0.0
 40
0.18
 41
0.18
  0
VERTEX
  8
0
 10
58.0334
 20
13.0349
 30
0.0
 40
0.18
 41
0.18
  0
VERTEX
  8
0
 10
58.0125
 20
13.039
 30
0.0
 40
0.18
 41
0.18
  0
VERTEX
  8
0
 10
58.0002
 20
13.0101
 30
0.0
 40
0.18
 41
0.18
  0
VERTEX
  8
0
 10
58.0002
 20
13.0004
 30
0.0
 40
0.18
 41
0.18
  0
VERTEX
  8
0
 10
58.0002
 20
10.09
 30
0.0
 40
0.18
 41
0.18
  0
VERTEX
  8
0
 10
58.0002
 20
10.0748
 30
0.0
 40
0.18
 41
0.18
  0
VERTEX
  8
0
 10
58.0263
 20
10.0266
 30
0.0
 40
0.18
 41
0.18
  0
VERTEX
  8
0
 10
58.0732
 20
10.0004
 30
0.0
 40
0.18
 41
0.18
  0
VERTEX
  8
0
 10
58.0898
 20
10.0004
 30
0.0
 40
0.18
 41
0.18
  0
VERTEX
  8
0
 10
64.0898
 20
10.0004
 30
0.0
 40
0.18
 41
0.18
  0
VERTEX
  8
0
 10
64.105
 20
10.0004
 30
0.0
 40
0.18
 41
0.18
  0
VERTEX
  8
0
 10
64.1533
 20
10.0266
 30
0.0
 40
0.18
 41
0.18
  0
VERTEX
  8
0
 10
64.1809
 20
10.0748
 30
0.0
 40
0.18
 41
0.18
  0
VERTEX
  8
0
 10
64.1809
 20
10.09
 30
0.0
 40
0.18
 41
0.18
  0
VERTEX
  8
0
 10
64.1809
 20
13.0004
 30
0.0
 40
0.18
 41
0.18
  0
VERTEX
  8
0
 10
64.1809
 20
13.0101
 30
0.0
 40
0.18
 41
0.18
  0
VERTEX
  8
0
 10
64.1671
 20
13.039
 30
0.0
 40
0.18
 41
0.18
  0
VERTEX
  8
0
 10
64.1463
 20
13.0349
 30
0.0
 40
0.18
 41
0.18
  0
VERTEX
  8
0
 10
64.1421
 20
13.0142
 30
0.0
 40
0.18
 41
0.18
  0
VERTEX
  8
0
 10
64.171
 20
13.0004
 30
0.0
 40
0.18
 41
0.18
  0
VERTEX
  8
0
 10
64.1809
 20
13.0004
 30
0.0
 40
0.18
 41
0.18
  0
VERTEX
  8
0
 10
73.0899
 20
13.0004
 30
0.0
 40
0.18
 41
0.18
  0
VERTEX
  8
0
 10
76.0899
 20
13.0004
 30
0.0
 40
0.18
 41
0.18
  0
VERTEX
  8
0
 10
76.1047
 20
13.0004
 30
0.0
 40
0.18
 41
0.18
  0
VERTEX
  8
0
 10
76.1531
 20
13.0266
 30
0.0
 40
0.18
 41
0.18
  0
VERTEX
  8
0
 10
76.1792
 20
13.0748
 30
0.0
 40
0.18
 41
0.18
  0
VERTEX
  8
0
 10
76.1792
 20
13.09
 30
0.0
 40
0.18
 41
0.18
  0
VERTEX
  8
0
 10
76.1792
 20
22.09
 30
0.0
 40
0.18
 41
0.18
  0
VERTEX
  8
0
 10
76.1792
 20
22.1065
 30
0.0
 40
0.18
 41
0.18
  0
VERTEX
  8
0
 10
76.1531
 20
22.1534
 30
0.0
 40
0.18
 41
0.18
  0
VERTEX
  8
0
 10
76.1047
 20
22.1795
 30
0.0
 40
0.18
 41
0.18
  0
VERTEX
  8
0
 10
76.0899
 20
22.1795
 30
0.0
 40
0.18
 41
0.18
  0
VERTEX
  8
0
 10
73.1795
 20
22.1795
 30
0.0
 40
0.18
 41
0.18
  0
VERTEX
  8
0
 10
73.1696
 20
22.1795
 30
0.0
 40
0.18
 41
0.18
  0
VERTEX
  8
0
 10
73.1407
 20
22.1671
 30
0.0
 40
0.18
 41
0.18
  0
VERTEX
  8
0
 10
73.1449
 20
22.1464
 30
0.0
 40
0.18
 41
0.18
  0
VERTEX
  8
0
 10
73.1654
 20
22.1423
 30
0.0
 40
0.18
 41
0.18
  0
VERTEX
  8
0
 10
73.1795
 20
22.1713
 30
0.0
 40
0.18
 41
0.18
  0
VERTEX
  8
0
 10
73.1795
 20
22.1795
 30
0.0
 40
0.18
 41
0.18
  0
VERTEX
  8
0
 10
73.1795
 20
28.0004
 30
0.0
 40
0.18
 41
0.18
  0
VERTEX
  8
0
 10
73.1795
 20
28.01
 30
0.0
 40
0.18
 41
0.18
  0
VERTEX
  8
0
 10
73.1654
 20
28.039
 30
0.0
 40
0.18
 41
0.18
  0
VERTEX
  8
0
 10
73.1449
 20
28.0348
 30
0.0
 40
0.18
 41
0.18
  0
VERTEX
  8
0
 10
73.1407
 20
28.0142
 30
0.0
 40
0.18
 41
0.18
  0
VERTEX
  8
0
 10
73.1696
 20
28.0004
 30
0.0
 40
0.18
 41
0.18
  0
VERTEX
  8
0
 10
73.1795
 20
28.0004
 30
0.0
 40
0.18
 41
0.18
  0
VERTEX
  8
0
 10
76.0899
 20
28.0004
 30
0.0
 40
0.18
 41
0.18
  0
VERTEX
  8
0
 10
76.1047
 20
28.0004
 30
0.0
 40
0.18
 41
0.18
  0
VERTEX
  8
0
 10
76.1531
 20
28.0265
 30
0.0
 40
0.18
 41
0.18
  0
VERTEX
  8
0
 10
76.1792
 20
28.0748
 30
0.0
 40
0.18
 41
0.18
  0
VERTEX
  8
0
 10
76.1792
 20
28.0899
 30
0.0
 40
0.18
 41
0.18
  0
VERTEX
  8
0
 10
76.1792
 20
34.0899
 30
0.0
 40
0.18
 41
0.18
  0
VERTEX
  8
0
 10
76.1792
 20
34.1065
 30
0.0
 40
0.18
 41
0.18
  0
VERTEX
  8
0
 10
76.1531
 20
34.1533
 30
0.0
 40
0.18
 41
0.18
  0
VERTEX
  8
0
 10
76.1047
 20
34.1795
 30
0.0
 40
0.18
 41
0.18
  0
VERTEX
  8
0
 10
76.0899
 20
34.1795
 30
0.0
 40
0.18
 41
0.18
  0
VERTEX
  8
0
 10
73.1795
 20
34.1795
 30
0.0
 40
0.18
 41
0.18
  0
VERTEX
  8
0
 10
73.1696
 20
34.1795
 30
0.0
 40
0.18
 41
0.18
  0
VERTEX
  8
0
 10
73.1407
 20
34.1671
 30
0.0
 40
0.18
 41
0.18
  0
VERTEX
  8
0
 10
73.1449
 20
34.1464
 30
0.0
 40
0.18
 41
0.18
  0
VERTEX
  8
0
 10
73.1654
 20
34.1423
 30
0.0
 40
0.18
 41
0.18
  0
VERTEX
  8
0
 10
73.1795
 20
34.1712
 30
0.0
 40
0.18
 41
0.18
  0
VERTEX
  8
0
 10
73.1795
 20
34.1795
 30
0.0
 40
0.18
 41
0.18
  0
VERTEX
  8
0
 10
73.1795
 20
40.0004
 30
0.0
 40
0.18
 41
0.18
  0
VERTEX
  8
0
 10
73.1795
 20
40.0099
 30
0.0
 40
0.18
 41
0.18
  0
VERTEX
  8
0
 10
73.1654
 20
40.0389
 30
0.0
 40
0.18
 41
0.18
  0
VERTEX
  8
0
 10
73.1449
 20
40.0346
 30
0.0
 40
0.18
 41
0.18
  0
VERTEX
  8
0
 10
73.1407
 20
40.0142
 30
0.0
 40
0.18
 41
0.18
  0
VERTEX
  8
0
 10
73.1696
 20
40.0004
 30
0.0
 40
0.18
 41
0.18
  0
VERTEX
  8
0
 10
73.1795
 20
40.0004
 30
0.0
 40
0.18
 41
0.18
  0
VERTEX
  8
0
 10
76.0899
 20
40.0004
 30
0.0
 40
0.18
 41
0.18
  0
VERTEX
  8
0
 10
76.1047
 20
40.0004
 30
0.0
 40
0.18
 41
0.18
  0
VERTEX
  8
0
 10
76.1531
 20
40.0265
 30
0.0
 40
0.18
 41
0.18
  0
VERTEX
  8
0
 10
76.1792
 20
40.0748
 30
0.0
 40
0.18
 41
0.18
  0
VERTEX
  8
0
 10
76.1792
 20
40.09
 30
0.0
 40
0.18
 41
0.18
  0
VERTEX
  8
0
 10
76.1792
 20
49.0897
 30
0.0
 40
0.18
 41
0.18
  0
VERTEX
  8
0
 10
76.1792
 20
49.1063
 30
0.0
 40
0.18
 41
0.18
  0
VERTEX
  8
0
 10
76.1531
 20
49.1532
 30
0.0
 40
0.18
 41
0.18
  0
VERTEX
  8
0
 10
76.1047
 20
49.1793
 30
0.0
 40
0.18
 41
0.18
  0
VERTEX
  8
0
 10
76.0899
 20
49.1793
 30
0.0
 40
0.18
 41
0.18
  0
VERTEX
  8
0
 10
73.0899
 20
49.1793
 30
0.0
 40
0.18
 41
0.18
  0
VERTEX
  8
0
 10
13.09
 20
49.1793
 30
0.0
 40
0.18
 41
0.18
  0
VERTEX
  8
0
 10
10.09
 20
49.1793
 30
0.0
 40
0.18
 41
0.18
  0
VERTEX
  8
0
 10
10.0735
 20
49.1793
 30
0.0
 40
0.18
 41
0.18
  0
VERTEX
  8
0
 10
10.0266
 20
49.1532
 30
0.0
 40
0.18
 41
0.18
  0
VERTEX
  8
0
 10
10.0004
 20
49.1063
 30
0.0
 40
0.18
 41
0.18
  0
VERTEX
  8
0
 10
10.0004
 20
49.0897
 30
0.0
 40
0.18
 41
0.18
  0
VERTEX
  8
0
 10
10.0004
 20
40.09
 30
0.0
 40
0.18
 41
0.18
  0
VERTEX
  8
0
 10
10.0004
 20
40.0748
 30
0.0
 40
0.18
 41
0.18
  0
VERTEX
  8
0
 10
10.0266
 20
40.0265
 30
0.0
 40
0.18
 41
0.18
  0
VERTEX
  8
0
 10
10.0735
 20
40.0004
 30
0.0
 40
0.18
 41
0.18
  0
VERTEX
  8
0
 10
10.09
 20
40.0004
 30
0.0
 40
0.18
 41
0.18
  0
VERTEX
  8
0
 10
13.0004
 20
40.0004
 30
0.0
 40
0.18
 41
0.18
  0
VERTEX
  8
0
 10
13.0087
 20
40.0004
 30
0.0
 40
0.18
 41
0.18
  0
VERTEX
  8
0
 10
13.0376
 20
40.0142
 30
0.0
 40
0.18
 41
0.18
  0
VERTEX
  8
0
 10
13.0335
 20
40.0346
 30
0.0
 40
0.18
 41
0.18
  0
VERTEX
  8
0
 10
13.0128
 20
40.0389
 30
0.0
 40
0.18
 41
0.18
  0
VERTEX
  8
0
 10
13.0004
 20
40.0099
 30
0.0
 40
0.18
 41
0.18
  0
VERTEX
  8
0
 10
13.0004
 20
40.0004
 30
0.0
 40
0.18
 41
0.18
  0
VERTEX
  8
0
 10
13.0004
 20
34.1795
 30
0.0
 40
0.18
 41
0.18
  0
VERTEX
  8
0
 10
13.0004
 20
34.1712
 30
0.0
 40
0.18
 41
0.18
  0
VERTEX
  8
0
 10
13.0128
 20
34.1423
 30
0.0
 40
0.18
 41
0.18
  0
VERTEX
  8
0
 10
13.0335
 20
34.1464
 30
0.0
 40
0.18
 41
0.18
  0
VERTEX
  8
0
 10
13.0376
 20
34.1671
 30
0.0
 40
0.18
 41
0.18
  0
VERTEX
  8
0
 10
13.0087
 20
34.1795
 30
0.0
 40
0.18
 41
0.18
  0
VERTEX
  8
0
 10
13.0004
 20
34.1795
 30
0.0
 40
0.18
 41
0.18
  0
VERTEX
  8
0
 10
10.09
 20
34.1795
 30
0.0
 40
0.18
 41
0.18
  0
VERTEX
  8
0
 10
10.0735
 20
34.1795
 30
0.0
 40
0.18
 41
0.18
  0
VERTEX
  8
0
 10
10.0266
 20
34.1533
 30
0.0
 40
0.18
 41
0.18
  0
VERTEX
  8
0
 10
10.0004
 20
34.1065
 30
0.0
 40
0.18
 41
0.18
  0
VERTEX
  8
0
 10
10.0004
 20
34.0899
 30
0.0
 40
0.18
 41
0.18
  0
VERTEX
  8
0
 10
10.0004
 20
28.0899
 30
0.0
 40
0.18
 41
0.18
  0
VERTEX
  8
0
 10
10.0004
 20
28.0748
 30
0.0
 40
0.18
 41
0.18
  0
VERTEX
  8
0
 10
10.0266
 20
28.0265
 30
0.0
 40
0.18
 41
0.18
  0
VERTEX
  8
0
 10
10.0735
 20
28.0004
 30
0.0
 40
0.18
 41
0.18
  0
VERTEX
  8
0
 10
10.09
 20
28.0004
 30
0.0
 40
0.18
 41
0.18
  0
VERTEX
  8
0
 10
13.0004
 20
28.0004
 30
0.0
 40
0.18
 41
0.18
  0
VERTEX
  8
0
 10
13.0087
 20
28.0004
 30
0.0
 40
0.18
 41
0.18
  0
VERTEX
  8
0
 10
13.0376
 20
28.0142
 30
0.0
 40
0.18
 41
0.18
  0
VERTEX
  8
0
 10
13.0335
 20
28.0348
 30
0.0
 40
0.18
 41
0.18
  0
VERTEX
  8
0
 10
13.0128
 20
28.039
 30
0.0
 40
0.18
 41
0.18
  0
VERTEX
  8
0
 10
13.0004
 20
28.01
 30
0.0
 40
0.18
 41
0.18
  0
VERTEX
  8
0
 10
13.0004
 20
28.0004
 30
0.0
 40
0.18
 41
0.18
  0
VERTEX
  8
0
 10
13.0004
 20
22.1795
 30
0.0
 40
0.18
 41
0.18
  0
VERTEX
  8
0
 10
13.0004
 20
22.1713
 30
0.0
 40
0.18
 41
0.18
  0
VERTEX
  8
0
 10
13.0128
 20
22.1423
 30
0.0
 40
0.18
 41
0.18
  0
VERTEX
  8
0
 10
13.0335
 20
22.1464
 30
0.0
 40
0.18
 41
0.18
  0
VERTEX
  8
0
 10
13.0376
 20
22.1671
 30
0.0
 40
0.18
 41
0.18
  0
VERTEX
  8
0
 10
13.0087
 20
22.1795
 30
0.0
 40
0.18
 41
0.18
  0
VERTEX
  8
0
 10
13.0004
 20
22.1795
 30
0.0
 40
0.18
 41
0.18
  0
VERTEX
  8
0
 10
10.09
 20
22.1795
 30
0.0
 40
0.18
 41
0.18
  0
VERTEX
  8
0
 10
10.0735
 20
22.1795
 30
0.0
 40
0.18
 41
0.18
  0
VERTEX
  8
0
 10
10.0266
 20
22.1534
 30
0.0
 40
0.18
 41
0.18
  0
VERTEX
  8
0
 10
10.0004
 20
22.1065
 30
0.0
 40
0.18
 41
0.18
  0
VERTEX
  8
0
 10
10.0004
 20
22.09
 30
0.0
 40
0.18
 41
0.18
  0
VERTEX
  8
0
 10
10.0004
 20
13.09
 30
0.0
 40
0.18
 41
0.18
  0
VERTEX
  8
0
 10
10.0004
 20
13.0748
 30
0.0
 40
0.18
 41
0.18
  0
VERTEX
  8
0
 10
10.0266
 20
13.0266
 30
0.0
 40
0.18
 41
0.18
  0
VERTEX
  8
0
 10
10.0735
 20
13.0004
 30
0.0
 40
0.18
 41
0.18
  0
VERTEX
  8
0
 10
10.09
 20
13.0004
 30
0.0
 40
0.18
 41
0.18
  0
VERTEX
  8
0
 10
13.09
 20
13.0004
 30
0.0
 40
0.18
 41
0.18
  0
SEQEND
 8
0
  0
POLYLINE
  8
0
 62
     5
 66
     1
 10
0
 20
0
 30
0.0
 70
     1
 40
0.510236
 41
0.510236
  0
VERTEX
  8
0
 10
90.7701
 20
43.1793
 30
0.0
 40
0.18
 41
0.18
  0
VERTEX
  8
0
 10
87.8597
 20
43.1793
 30
0.0
 40
0.18
 41
0.18
  0
VERTEX
  8
0
 10
87.8498
 20
43.1793
 30
0.0
 40
0.18
 41
0.18
  0
VERTEX
  8
0
 10
87.8209
 20
43.1669
 30
0.0
 40
0.18
 41
0.18
  0
VERTEX
  8
0
 10
87.8251
 20
43.1465
 30
0.0
 40
0.18
 41
0.18
  0
VERTEX
  8
0
 10
87.8459
 20
43.1423
 30
0.0
 40
0.18
 41
0.18
  0
VERTEX
  8
0
 10
87.8597
 20
43.1712
 30
0.0
 40
0.18
 41
0.18
  0
VERTEX
  8
0
 10
87.8597
 20
43.1793
 30
0.0
 40
0.18
 41
0.18
  0
VERTEX
  8
0
 10
87.8597
 20
46.0005
 30
0.0
 40
0.18
 41
0.18
  0
VERTEX
  8
0
 10
87.8597
 20
46.01
 30
0.0
 40
0.18
 41
0.18
  0
VERTEX
  8
0
 10
87.8459
 20
46.0389
 30
0.0
 40
0.18
 41
0.18
  0
VERTEX
  8
0
 10
87.8251
 20
46.0347
 30
0.0
 40
0.18
 41
0.18
  0
VERTEX
  8
0
 10
87.8209
 20
46.0142
 30
0.0
 40
0.18
 41
0.18
  0
VERTEX
  8
0
 10
87.8498
 20
46.0005
 30
0.0
 40
0.18
 41
0.18
  0
VERTEX
  8
0
 10
87.8597
 20
46.0005
 30
0.0
 40
0.18
 41
0.18
  0
VERTEX
  8
0
 10
93.6805
 20
46.0005
 30
0.0
 40
0.18
 41
0.18
  0
VERTEX
  8
0
 10
93.6886
 20
46.0005
 30
0.0
 40
0.18
 41
0.18
  0
VERTEX
  8
0
 10
93.7175
 20
46.0142
 30
0.0
 40
0.18
 41
0.18
  0
VERTEX
  8
0
 10
93.7136
 20
46.0347
 30
0.0
 40
0.18
 41
0.18
  0
VERTEX
  8
0
 10
93.6928
 20
46.0389
 30
0.0
 40
0.18
 41
0.18
  0
VERTEX
  8
0
 10
93.6805
 20
46.01
 30
0.0
 40
0.18
 41
0.18
  0
VERTEX
  8
0
 10
93.6805
 20
46.0005
 30
0.0
 40
0.18
 41
0.18
  0
VERTEX
  8
0
 10
93.6805
 20
43.1793
 30
0.0
 40
0.18
 41
0.18
  0
VERTEX
  8
0
 10
93.6805
 20
43.1712
 30
0.0
 40
0.18
 41
0.18
  0
VERTEX
  8
0
 10
93.6928
 20
43.1423
 30
0.0
 40
0.18
 41
0.18
  0
VERTEX
  8
0
 10
93.7136
 20
43.1465
 30
0.0
 40
0.18
 41
0.18
  0
VERTEX
  8
0
 10
93.7175
 20
43.1669
 30
0.0
 40
0.18
 41
0.18
  0
VERTEX
  8
0
 10
93.6886
 20
43.1793
 30
0.0
 40
0.18
 41
0.18
  0
VERTEX
  8
0
 10
93.6805
 20
43.1793
 30
0.0
 40
0.18
 41
0.18
  0
VERTEX
  8
0
 10
90.7701
 20
43.1793
 30
0.0
 40
0.18
 41
0.18
  0
SEQEND
 8
0
  0
POLYLINE
  8
0
 62
     5
 66
     1
 10
0
 20
0
 30
0.0
 70
     1
 40
0.510236
 41
0.510236
  0
VERTEX
  8
0
 10
165.77
 20
46.0005
 30
0.0
 40
0.18
 41
0.18
  0
VERTEX
  8
0
 10
168.68
 20
46.0005
 30
0.0
 40
0.18
 41
0.18
  0
VERTEX
  8
0
 10
168.688
 20
46.0005
 30
0.0
 40
0.18
 41
0.18
  0
VERTEX
  8
0
 10
168.717
 20
46.0142
 30
0.0
 40
0.18
 41
0.18
  0
VERTEX
  8
0
 10
168.713
 20
46.0347
 30
0.0
 40
0.18
 41
0.18
  0
VERTEX
  8
0
 10
168.693
 20
46.0389
 30
0.0
 40
0.18
 41
0.18
  0
VERTEX
  8
0
 10
168.68
 20
46.01
 30
0.0
 40
0.18
 41
0.18
  0
VERTEX
  8
0
 10
168.68
 20
46.0005
 30
0.0
 40
0.18
 41
0.18
  0
VERTEX
  8
0
 10
168.68
 20
43.1793
 30
0.0
 40
0.18
 41
0.18
  0
VERTEX
  8
0
 10
168.68
 20
43.1712
 30
0.0
 40
0.18
 41
0.18
  0
VERTEX
  8
0
 10
168.693
 20
43.1423
 30
0.0
 40
0.18
 41
0.18
  0
VERTEX
  8
0
 10
168.713
 20
43.1465
 30
0.0
 40
0.18
 41
0.18
  0
VERTEX
  8
0
 10
168.717
 20
43.1669
 30
0.0
 40
0.18
 41
0.18
  0
VERTEX
  8
0
 10
168.688
 20
43.1793
 30
0.0
 40
0.18
 41
0.18
  0
VERTEX
  8
0
 10
168.68
 20
43.1793
 30
0.0
 40
0.18
 41
0.18
  0
VERTEX
  8
0
 10
162.859
 20
43.1793
 30
0.0
 40
0.18
 41
0.18
  0
VERTEX
  8
0
 10
162.85
 20
43.1793
 30
0.0
 40
0.18
 41
0.18
  0
VERTEX
  8
0
 10
162.821
 20
43.1669
 30
0.0
 40
0.18
 41
0.18
  0
VERTEX
  8
0
 10
162.825
 20
43.1465
 30
0.0
 40
0.18
 41
0.18
  0
VERTEX
  8
0
 10
162.845
 20
43.1423
 30
0.0
 40
0.18
 41
0.18
  0
VERTEX
  8
0
 10
162.859
 20
43.1712
 30
0.0
 40
0.18
 41
0.18
  0
VERTEX
  8
0
 10
162.859
 20
43.1793
 30
0.0
 40
0.18
 41
0.18
  0
VERTEX
  8
0
 10
162.859
 20
46.0005
 30
0.0
 40
0.18
 41
0.18
  0
VERTEX
  8
0
 10
162.859
 20
46.01
 30
0.0
 40
0.18
 41
0.18
  0
VERTEX
  8
0
 10
162.845
 20
46.0389
 30
0.0
 40
0.18
 41
0.18
  0
VERTEX
  8
0
 10
162.825
 20
46.0347
 30
0.0
 40
0.18
 41
0.18
  0
VERTEX
  8
0
 10
162.821
 20
46.0142
 30
0.0
 40
0.18
 41
0.18
  0
VERTEX
  8
0
 10
162.85
 20
46.0005
 30
0.0
 40
0.18
 41
0.18
  0
VERTEX
  8
0
 10
162.859
 20
46.0005
 30
0.0
 40
0.18
 41
0.18
  0
VERTEX
  8
0
 10
165.77
 20
46.0005
 30
0.0
 40
0.18
 41
0.18
  0
SEQEND
 8
0
  0
TEXT
  8
0
 62
     1
 10
122.714
 20
28.6962
 30
0.0
 40
4.0005
  1
Wall 2
 50
0
  0
POLYLINE
  8
0
 62
     0
 66
     1
 10
0
 20
0
 30
0.0
 70
     1
 40
0.510236
 41
0.510236
  0
VERTEX
  8
0
 10
80.7695
 20
13.0004
 30
0.0
 40
0.18
 41
0.18
  0
VERTEX
  8
0
 10
89.1798
 20
13.0004
 30
0.0
 40
0.18
 41
0.18
  0
VERTEX
  8
0
 10
89.1879
 20
13.0004
 30
0.0
 40
0.18
 41
0.18
  0
VERTEX
  8
0
 10
89.2168
 20
13.0142
 30
0.0
 40
0.18
 41
0.18
  0
VERTEX
  8
0
 10
89.2129
 20
13.0349
 30
0.0
 40
0.18
 41
0.18
  0
VERTEX
  8
0
 10
89.1921
 20
13.039
 30
0.0
 40
0.18
 41
0.18
  0
VERTEX
  8
0
 10
89.1798
 20
13.0101
 30
0.0
 40
0.18
 41
0.18
  0
VERTEX
  8
0
 10
89.1798
 20
13.0004
 30
0.0
 40
0.18
 41
0.18
  0
VERTEX
  8
0
 10
89.1798
 20
10.09
 30
0.0
 40
0.18
 41
0.18
  0
VERTEX
  8
0
 10
89.1798
 20
10.0748
 30
0.0
 40
0.18
 41
0.18
  0
VERTEX
  8
0
 10
89.2059
 20
10.0266
 30
0.0
 40
0.18
 41
0.18
  0
VERTEX
  8
0
 10
89.2542
 20
10.0004
 30
0.0
 40
0.18
 41
0.18
  0
VERTEX
  8
0
 10
89.2708
 20
10.0004
 30
0.0
 40
0.18
 41
0.18
  0
VERTEX
  8
0
 10
95.2708
 20
10.0004
 30
0.0
 40
0.18
 41
0.18
  0
VERTEX
  8
0
 10
95.286
 20
10.0004
 30
0.0
 40
0.18
 41
0.18
  0
VERTEX
  8
0
 10
95.334
 20
10.0266
 30
0.0
 40
0.18
 41
0.18
  0
VERTEX
  8
0
 10
95.3604
 20
10.0748
 30
0.0
 40
0.18
 41
0.18
  0
VERTEX
  8
0
 10
95.3604
 20
10.09
 30
0.0
 40
0.18
 41
0.18
  0
VERTEX
  8
0
 10
95.3604
 20
13.0004
 30
0.0
 40
0.18
 41
0.18
  0
VERTEX
  8
0
 10
95.3604
 20
13.0101
 30
0.0
 40
0.18
 41
0.18
  0
VERTEX
  8
0
 10
95.3463
 20
13.039
 30
0.0
 40
0.18
 41
0.18
  0
VERTEX
  8
0
 10
95.3258
 20
13.0349
 30
0.0
 40
0.18
 41
0.18
  0
VERTEX
  8
0
 10
95.3216
 20
13.0142
 30
0.0
 40
0.18
 41
0.18
  0
VERTEX
  8
0
 10
95.3505
 20
13.0004
 30
0.0
 40
0.18
 41
0.18
  0
VERTEX
  8
0
 10
95.3604
 20
13.0004
 30
0.0
 40
0.18
 41
0.18
  0
VERTEX
  8
0
 10
101.18
 20
13.0004
 30
0.0
 40
0.18
 41
0.18
  0
VERTEX
  8
0
 10
101.188
 20
13.0004
 30
0.0
 40
0.18
 41
0.18
  0
VERTEX
  8
0
 10
101.217
 20
13.0142
 30
0.0
 40
0.18
 41
0.18
  0
VERTEX
  8
0
 10
101.213
 20
13.0349
 30
0.0
 40
0.18
 41
0.18
  0
VERTEX
  8
0
 10
101.192
 20
13.039
 30
0.0
 40
0.18
 41
0.18
  0
VERTEX
  8
0
 10
101.18
 20
13.0101
 30
0.0
 40
0.18
 41
0.18
  0
VERTEX
  8
0
 10
101.18
 20
13.0004
 30
0.0
 40
0.18
 41
0.18
  0
VERTEX
  8
0
 10
101.18
 20
10.09
 30
0.0
 40
0.18
 41
0.18
  0
VERTEX
  8
0
 10
101.18
 20
10.0748
 30
0.0
 40
0.18
 41
0.18
  0
VERTEX
  8
0
 10
101.206
 20
10.0266
 30
0.0
 40
0.18
 41
0.18
  0
VERTEX
  8
0
 10
101.254
 20
10.0004
 30
0.0
 40
0.18
 41
0.18
  0
VERTEX
  8
0
 10
101.271
 20
10.0004
 30
0.0
 40
0.18
 41
0.18
  0
VERTEX
  8
0
 10
107.269
 20
10.0004
 30
0.0
 40
0.18
 41
0.18
  0
VERTEX
  8
0
 10
107.284
 20
10.0004
 30
0.0
 40
0.18
 41
0.18
  0
VERTEX
  8
0
 10
107.333
 20
10.0266
 30
0.0
 40
0.18
 41
0.18
  0
VERTEX
  8
0
 10
107.36
 20
10.0748
 30
0.0
 40
0.18
 41
0.18
  0
VERTEX
  8
0
 10
107.36
 20
10.09
 30
0.0
 40
0.18
 41
0.18
  0
VERTEX
  8
0
 10
107.36
 20
13.0004
 30
0.0
 40
0.18
 41
0.18
  0
VERTEX
  8
0
 10
107.36
 20
13.0101
 30
0.0
 40
0.18
 41
0.18
  0
VERTEX
  8
0
 10
107.346
 20
13.039
 30
0.0
 40
0.18
 41
0.18
  0
VERTEX
  8
0
 10
107.326
 20
13.0349
 30
0.0
 40
0.18
 41
0.18
  0
VERTEX
  8
0
 10
107.322
 20
13.0142
 30
0.0
 40
0.18
 41
0.18
  0
VERTEX
  8
0
 10
107.351
 20
13.0004
 30
0.0
 40
0.18
 41
0.18
  0
VERTEX
  8
0
 10
107.36
 20
13.0004
 30
0.0
 40
0.18
 41
0.18
  0
VERTEX
  8
0
 10
113.18
 20
13.0004
 30
0.0
 40
0.18
 41
0.18
  0
VERTEX
  8
0
 10
113.188
 20
13.0004
 30
0.0
 40
0.18
 41
0.18
  0
VERTEX
  8
0
 10
113.217
 20
13.0142
 30
0.0
 40
0.18
 41
0.18
  0
VERTEX
  8
0
 10
113.213
 20
13.0349
 30
0.0
 40
0.18
 41
0.18
  0
VERTEX
  8
0
 10
113.192
 20
13.039
 30
0.0
 40
0.18
 41
0.18
  0
VERTEX
  8
0
 10
113.18
 20
13.0101
 30
0.0
 40
0.18
 41
0.18
  0
VERTEX
  8
0
 10
113.18
 20
13.0004
 30
0.0
 40
0.18
 41
0.18
  0
VERTEX
  8
0
 10
113.18
 20
10.09
 30
0.0
 40
0.18
 41
0.18
  0
VERTEX
  8
0
 10
113.18
 20
10.0748
 30
0.0
 40
0.18
 41
0.18
  0
VERTEX
  8
0
 10
113.206
 20
10.0266
 30
0.0
 40
0.18
 41
0.18
  0
VERTEX
  8
0
 10
113.253
 20
10.0004
 30
0.0
 40
0.18
 41
0.18
  0
VERTEX
  8
0
 10
113.269
 20
10.0004
 30
0.0
 40
0.18
 41
0.18
  0
VERTEX
  8
0
 10
119.271
 20
10.0004
 30
0.0
 40
0.18
 41
0.18
  0
VERTEX
  8
0
 10
119.286
 20
10.0004
 30
0.0
 40
0.18
 41
0.18
  0
VERTEX
  8
0
 10
119.334
 20
10.0266
 30
0.0
 40
0.18
 41
0.18
  0
VERTEX
  8
0
 10
119.36
 20
10.0748
 30
0.0
 40
0.18
 41
0.18
  0
VERTEX
  8
0
 10
119.36
 20
10.09
 30
0.0
 40
0.18
 41
0.18
  0
VERTEX
  8
0
 10
119.36
 20
13.0004
 30
0.0
 40
0.18
 41
0.18
  0
VERTEX
  8
0
 10
119.36
 20
13.0101
 30
0.0
 40
0.18
 41
0.18
  0
VERTEX
  8
0
 10
119.346
 20
13.039
 30
0.0
 40
0.18
 41
0.18
  0
VERTEX
  8
0
 10
119.326
 20
13.0349
 30
0.0
 40
0.18
 41
0.18
  0
VERTEX
  8
0
 10
119.321
 20
13.0142
 30
0.0
 40
0.18
 41
0.18
  0
VERTEX
  8
0
 10
119.35
 20
13.0004
 30
0.0
 40
0.18
 41
0.18
  0
VERTEX
  8
0
 10
119.36
 20
13.0004
 30
0.0
 40
0.18
 41
0.18
  0
VERTEX
  8
0
 10
125.18
 20
13.0004
 30
0.0
 40
0.18
 41
0.18
  0
VERTEX
  8
0
 10
125.188
 20
13.0004
 30
0.0
 40
0.18
 41
0.18
  0
VERTEX
  8
0
 10
125.217
 20
13.0142
 30
0.0
 40
0.18
 41
0.18
  0
VERTEX
  8
0
 10
125.213
 20
13.0349
 30
0.0
 40
0.18
 41
0.18
  0
VERTEX
  8
0
 10
125.192
 20
13.039
 30
0.0
 40
0.18
 41
0.18
  0
VERTEX
  8
0
 10
125.18
 20
13.0101
 30
0.0
 40
0.18
 41
0.18
  0
VERTEX
  8
0
 10
125.18
 20
13.0004
 30
0.0
 40
0.18
 41
0.18
  0
VERTEX
  8
0
 10
125.18
 20
10.09
 30
0.0
 40
0.18
 41
0.18
  0
VERTEX
  8
0
 10
125.18
 20
10.0748
 30
0.0
 40
0.18
 41
0.18
  0
VERTEX
  8
0
 10
125.206
 20
10.0266
 30
0.0
 40
0.18
 41
0.18
  0
VERTEX
  8
0
 10
125.254
 20
10.0004
 30
0.0
 40
0.18
 41
0.18
  0
VERTEX
  8
0
 10
125.271
 20
10.0004
 30
0.0
 40
0.18
 41
0.18
  0
VERTEX
  8
0
 10
131.27
 20
10.0004
 30
0.0
 40
0.18
 41
0.18
  0
VERTEX
  8
0
 10
131.286
 20
10.0004
 30
0.0
 40
0.18
 41
0.18
  0
VERTEX
  8
0
 10
131.334
 20
10.0266
 30
0.0
 40
0.18
 41
0.18
  0
VERTEX
  8
0
 10
131.36
 20
10.0748
 30
0.0
 40
0.18
 41
0.18
  0
VERTEX
  8
0
 10
131.36
 20
10.09
 30
0.0
 40
0.18
 41
0.18
  0
VERTEX
  8
0
 10
131.36
 20
13.0004
 30
0.0
 40
0.18
 41
0.18
  0
VERTEX
  8
0
 10
131.36
 20
13.0101
 30
0.0
 40
0.18
 41
0.18
  0
VERTEX
  8
0
 10
131.346
 20
13.039
 30
0.0
 40
0.18
 41
0.18
  0
VERTEX
  8
0
 10
131.326
 20
13.0349
 30
0.0
 40
0.18
 41
0.18
  0
VERTEX
  8
0
 10
131.322
 20
13.0142
 30
0.0
 40
0.18
 41
0.18
  0
VERTEX
  8
0
 10
131.35
 20
13.0004
 30
0.0
 40
0.18
 41
0.18
  0
VERTEX
  8
0
 10
131.36
 20
13.0004
 30
0.0
 40
0.18
 41
0.18
  0
VERTEX
  8
0
 10
137.179
 20
13.0004
 30
0.0
 40
0.18
 41
0.18
  0
VERTEX
  8
0
 10
137.188
 20
13.0004
 30
0.0
 40
0.18
 41
0.18
  0
VERTEX
  8
0
 10
137.217
 20
13.0142
 30
0.0
 40
0.18
 41
0.18
  0
VERTEX
  8
0
 10
137.213
 20
13.0349
 30
0.0
 40
0.18
 41
0.18
  0
VERTEX
  8
0
 10
137.192
 20
13.039
 30
0.0
 40
0.18
 41
0.18
  0
VERTEX
  8
0
 10
137.179
 20
13.0101
 30
0.0
 40
0.18
 41
0.18
  0
VERTEX
  8
0
 10
137.179
 20
13.0004
 30
0.0
 40
0.18
 41
0.18
  0
VERTEX
  8
0
 10
137.179
 20
10.09
 30
0.0
 40
0.18
 41
0.18
  0
VERTEX
  8
0
 10
137.179
 20
10.0748
 30
0.0
 40
0.18
 41
0.18
  0
VERTEX
  8
0
 10
137.206
 20
10.0266
 30
0.0
 40
0.18
 41
0.18
  0
VERTEX
  8
0
 10
137.254
 20
10.0004
 30
0.0
 40
0.18
 41
0.18
  0
VERTEX
  8
0
 10
137.27
 20
10.0004
 30
0.0
 40
0.18
 41
0.18
  0
VERTEX
  8
0
 10
143.27
 20
10.0004
 30
0.0
 40
0.18
 41
0.18
  0
VERTEX
  8
0
 10
143.286
 20
10.0004
 30
0.0
 40
0.18
 41
0.18
  0
VERTEX
  8
0
 10
143.334
 20
10.0266
 30
0.0
 40
0.18
 41
0.18
  0
VERTEX
  8
0
 10
143.36
 20
10.0748
 30
0.0
 40
0.18
 41
0.18
  0
VERTEX
  8
0
 10
143.36
 20
10.09
 30
0.0
 40
0.18
 41
0.18
  0
VERTEX
  8
0
 10
143.36
 20
13.0004
 30
0.0
 40
0.18
 41
0.18
  0
VERTEX
  8
0
 10
143.36
 20
13.0101
 30
0.0
 40
0.18
 41
0.18
  0
VERTEX
  8
0
 10
143.346
 20
13.039
 30
0.0
 40
0.18
 41
0.18
  0
VERTEX
  8
0
 10
143.326
 20
13.0349
 30
0.0
 40
0.18
 41
0.18
  0
VERTEX
  8
0
 10
143.322
 20
13.0142
 30
0.0
 40
0.18
 41
0.18
  0
VERTEX
  8
0
 10
143.351
 20
13.0004
 30
0.0
 40
0.18
 41
0.18
  0
VERTEX
  8
0
 10
143.36
 20
13.0004
 30
0.0
 40
0.18
 41
0.18
  0
VERTEX
  8
0
 10
149.179
 20
13.0004
 30
0.0
 40
0.18
 41
0.18
  0
VERTEX
  8
0
 10
149.188
 20
13.0004
 30
0.0
 40
0.18
 41
0.18
  0
VERTEX
  8
0
 10
149.217
 20
13.0142
 30
0.0
 40
0.18
 41
0.18
  0
VERTEX
  8
0
 10
149.213
 20
13.0349
 30
0.0
 40
0.18
 41
0.18
  0
VERTEX
  8
0
 10
149.192
 20
13.039
 30
0.0
 40
0.18
 41
0.18
  0
VERTEX
  8
0
 10
149.179
 20
13.0101
 30
0.0
 40
0.18
 41
0.18
  0
VERTEX
  8
0
 10
149.179
 20
13.0004
 30
0.0
 40
0.18
 41
0.18
  0
VERTEX
  8
0
 10
149.179
 20
10.09
 30
0.0
 40
0.18
 41
0.18
  0
VERTEX
  8
0
 10
149.179
 20
10.0748
 30
0.0
 40
0.18
 41
0.18
  0
VERTEX
  8
0
 10
149.206
 20
10.0266
 30
0.0
 40
0.18
 41
0.18
  0
VERTEX
  8
0
 10
149.254
 20
10.0004
 30
0.0
 40
0.18
 41
0.18
  0
VERTEX
  8
0
 10
149.271
 20
10.0004
 30
0.0
 40
0.18
 41
0.18
  0
VERTEX
  8
0
 10
155.271
 20
10.0004
 30
0.0
 40
0.18
 41
0.18
  0
VERTEX
  8
0
 10
155.286
 20
10.0004
 30
0.0
 40
0.18
 41
0.18
  0
VERTEX
  8
0
 10
155.334
 20
10.0266
 30
0.0
 40
0.18
 41
0.18
  0
VERTEX
  8
0
 10
155.36
 20
10.0748
 30
0.0
 40
0.18
 41
0.18
  0
VERTEX
  8
0
 10
155.36
 20
10.09
 30
0.0
 40
0.18
 41
0.18
  0
VERTEX
  8
0
 10
155.36
 20
13.0004
 30
0.0
 40
0.18
 41
0.18
  0
VERTEX
  8
0
 10
155.36
 20
13.0101
 30
0.0
 40
0.18
 41
0.18
  0
VERTEX
  8
0
 10
155.346
 20
13.039
 30
0.0
 40
0.18
 41
0.18
  0
VERTEX
  8
0
 10
155.326
 20
13.0349
 30
0.0
 40
0.18
 41
0.18
  0
VERTEX
  8
0
 10
155.321
 20
13.0142
 30
0.0
 40
0.18
 41
0.18
  0
VERTEX
  8
0
 10
155.35
 20
13.0004
 30
0.0
 40
0.18
 41
0.18
  0
VERTEX
  8
0
 10
155.36
 20
13.0004
 30
0.0
 40
0.18
 41
0.18
  0
VERTEX
  8
0
 10
161.18
 20
13.0004
 30
0.0
 40
0.18
 41
0.18
  0
VERTEX
  8
0
 10
161.188
 20
13.0004
 30
0.0
 40
0.18
 41
0.18
  0
VERTEX
  8
0
 10
161.217
 20
13.0142
 30
0.0
 40
0.18
 41
0.18
  0
VERTEX
  8
0
 10
161.212
 20
13.0349
 30
0.0
 40
0.18
 41
0.18
  0
VERTEX
  8
0
 10
161.192
 20
13.039
 30
0.0
 40
0.18
 41
0.18
  0
VERTEX
  8
0
 10
161.18
 20
13.0101
 30
0.0
 40
0.18
 41
0.18
  0
VERTEX
  8
0
 10
161.18
 20
13.0004
 30
0.0
 40
0.18
 41
0.18
  0
VERTEX
  8
0
 10
161.18
 20
10.09
 30
0.0
 40
0.18
 41
0.18
  0
VERTEX
  8
0
 10
161.18
 20
10.0748
 30
0.0
 40
0.18
 41
0.18
  0
VERTEX
  8
0
 10
161.206
 20
10.0266
 30
0.0
 40
0.18
 41
0.18
  0
VERTEX
  8
0
 10
161.254
 20
10.0004
 30
0.0
 40
0.18
 41
0.18
  0
VERTEX
  8
0
 10
161.271
 20
10.0004
 30
0.0
 40
0.18
 41
0.18
  0
VERTEX
  8
0
 10
167.27
 20
10.0004
 30
0.0
 40
0.18
 41
0.18
  0
VERTEX
  8
0
 10
167.285
 20
10.0004
 30
0.0
 40
0.18
 41
0.18
  0
VERTEX
  8
0
 10
167.334
 20
10.0266
 30
0.0
 40
0.18
 41
0.18
  0
VERTEX
  8
0
 10
167.36
 20
10.0748
 30
0.0
 40
0.18
 41
0.18
  0
VERTEX
  8
0
 10
167.36
 20
10.09
 30
0.0
 40
0.18
 41
0.18
  0
VERTEX
  8
0
 10
167.36
 20
13.0004
 30
0.0
 40
0.18
 41
0.18
  0
VERTEX
  8
0
 10
167.36
 20
13.0101
 30
0.0
 40
0.18
 41
0.18
  0
VERTEX
  8
0
 10
167.346
 20
13.039
 30
0.0
 40
0.18
 41
0.18
  0
VERTEX
  8
0
 10
167.326
 20
13.0349
 30
0.0
 40
0.18
 41
0.18
  0
VERTEX
  8
0
 10
167.321
 20
13.0142
 30
0.0
 40
0.18
 41
0.18
  0
VERTEX
  8
0
 10
167.35
 20
13.0004
 30
0.0
 40
0.18
 41
0.18
  0
VERTEX
  8
0
 10
167.36
 20
13.0004
 30
0.0
 40
0.18
 41
0.18
  0
VERTEX
  8
0
 10
175.77
 20
13.0004
 30
0.0
 40
0.18
 41
0.18
  0
VERTEX
  8
0
 10
175.785
 20
13.0004
 30
0.0
 40
0.18
 41
0.18
  0
VERTEX
  8
0
 10
175.834
 20
13.0266
 30
0.0
 40
0.18
 41
0.18
  0
VERTEX
  8
0
 10
175.86
 20
13.0748
 30
0.0
 40
0.18
 41
0.18
  0
VERTEX
  8
0
 10
175.86
 20
13.09
 30
0.0
 40
0.18
 41
0.18
  0
VERTEX
  8
0
 10
175.86
 20
22.0004
 30
0.0
 40
0.18
 41
0.18
  0
VERTEX
  8
0
 10
175.86
 20
22.01
 30
0.0
 40
0.18
 41
0.18
  0
VERTEX
  8
0
 10
175.846
 20
22.039
 30
0.0
 40
0.18
 41
0.18
  0
VERTEX
  8
0
 10
175.825
 20
22.0348
 30
0.0
 40
0.18
 41
0.18
  0
VERTEX
  8
0
 10
175.821
 20
22.0141
 30
0.0
 40
0.18
 41
0.18
  0
VERTEX
  8
0
 10
175.85
 20
22.0004
 30
0.0
 40
0.18
 41
0.18
  0
VERTEX
  8
0
 10
175.86
 20
22.0004
 30
0.0
 40
0.18
 41
0.18
  0
VERTEX
  8
0
 10
178.77
 20
22.0004
 30
0.0
 40
0.18
 41
0.18
  0
VERTEX
  8
0
 10
178.785
 20
22.0004
 30
0.0
 40
0.18
 41
0.18
  0
VERTEX
  8
0
 10
178.834
 20
22.0266
 30
0.0
 40
0.18
 41
0.18
  0
VERTEX
  8
0
 10
178.86
 20
22.0748
 30
0.0
 40
0.18
 41
0.18
  0
VERTEX
  8
0
 10
178.86
 20
22.09
 30
0.0
 40
0.18
 41
0.18
  0
VERTEX
  8
0
 10
178.86
 20
28.0899
 30
0.0
 40
0.18
 41
0.18
  0
VERTEX
  8
0
 10
178.86
 20
28.1065
 30
0.0
 40
0.18
 41
0.18
  0
VERTEX
  8
0
 10
178.834
 20
28.1533
 30
0.0
 40
0.18
 41
0.18
  0
VERTEX
  8
0
 10
178.785
 20
28.1795
 30
0.0
 40
0.18
 41
0.18
  0
VERTEX
  8
0
 10
178.77
 20
28.1795
 30
0.0
 40
0.18
 41
0.18
  0
VERTEX
  8
0
 10
175.86
 20
28.1795
 30
0.0
 40
0.18
 41
0.18
  0
VERTEX
  8
0
 10
175.85
 20
28.1795
 30
0.0
 40
0.18
 41
0.18
  0
VERTEX
  8
0
 10
175.821
 20
28.1671
 30
0.0
 40
0.18
 41
0.18
  0
VERTEX
  8
0
 10
175.825
 20
28.1464
 30
0.0
 40
0.18
 41
0.18
  0
VERTEX
  8
0
 10
175.846
 20
28.1423
 30
0.0
 40
0.18
 41
0.18
  0
VERTEX
  8
0
 10
175.86
 20
28.1712
 30
0.0
 40
0.18
 41
0.18
  0
VERTEX
  8
0
 10
175.86
 20
28.1795
 30
0.0
 40
0.18
 41
0.18
  0
VERTEX
  8
0
 10
175.86
 20
34.0003
 30
0.0
 40
0.18
 41
0.18
  0
VERTEX
  8
0
 10
175.86
 20
34.01
 30
0.0
 40
0.18
 41
0.18
  0
VERTEX
  8
0
 10
175.846
 20
34.0389
 30
0.0
 40
0.18
 41
0.18
  0
VERTEX
  8
0
 10
175.825
 20
34.0348
 30
0.0
 40
0.18
 41
0.18
  0
VERTEX
  8
0
 10
175.821
 20
34.0141
 30
0.0
 40
0.18
 41
0.18
  0
VERTEX
  8
0
 10
175.85
 20
34.0003
 30
0.0
 40
0.18
 41
0.18
  0
VERTEX
  8
0
 10
175.86
 20
34.0003
 30
0.0
 40
0.18
 41
0.18
  0
VERTEX
  8
0
 10
178.77
 20
34.0003
 30
0.0
 40
0.18
 41
0.18
  0
VERTEX
  8
0
 10
178.785
 20
34.0003
 30
0.0
 40
0.18
 41
0.18
  0
VERTEX
  8
0
 10
178.834
 20
34.0265
 30
0.0
 40
0.18
 41
0.18
  0
VERTEX
  8
0
 10
178.86
 20
34.0747
 30
0.0
 40
0.18
 41
0.18
  0
VERTEX
  8
0
 10
178.86
 20
34.0899
 30
0.0
 40
0.18
 41
0.18
  0
VERTEX
  8
0
 10
178.86
 20
40.09
 30
0.0
 40
0.18
 41
0.18
  0
VERTEX
  8
0
 10
178.86
 20
40.1066
 30
0.0
 40
0.18
 41
0.18
  0
VERTEX
  8
0
 10
178.834
 20
40.1532
 30
0.0
 40
0.18
 41
0.18
  0
VERTEX
  8
0
 10
178.785
 20
40.1796
 30
0.0
 40
0.18
 41
0.18
  0
VERTEX
  8
0
 10
178.77
 20
40.1796
 30
0.0
 40
0.18
 41
0.18
  0
VERTEX
  8
0
 10
175.86
 20
40.1796
 30
0.0
 40
0.18
 41
0.18
  0
VERTEX
  8
0
 10
175.85
 20
40.1796
 30
0.0
 40
0.18
 41
0.18
  0
VERTEX
  8
0
 10
175.821
 20
40.1669
 30
0.0
 40
0.18
 41
0.18
  0
VERTEX
  8
0
 10
175.825
 20
40.1465
 30
0.0
 40
0.18
 41
0.18
  0
VERTEX
  8
0
 10
175.846
 20
40.1422
 30
0.0
 40
0.18
 41
0.18
  0
VERTEX
  8
0
 10
175.86
 20
40.1712
 30
0.0
 40
0.18
 41
0.18
  0
VERTEX
  8
0
 10
175.86
 20
40.1796
 30
0.0
 40
0.18
 41
0.18
  0
VERTEX
  8
0
 10
175.86
 20
49.0897
 30
0.0
 40
0.18
 41
0.18
  0
VERTEX
  8
0
 10
175.86
 20
49.1063
 30
0.0
 40
0.18
 41
0.18
  0
VERTEX
  8
0
 10
175.834
 20
49.1532
 30
0.0
 40
0.18
 41
0.18
  0
VERTEX
  8
0
 10
175.785
 20
49.1793
 30
0.0
 40
0.18
 41
0.18
  0
VERTEX
  8
0
 10
175.77
 20
49.1793
 30
0.0
 40
0.18
 41
0.18
  0
VERTEX
  8
0
 10
80.7695
 20
49.1793
 30
0.0
 40
0.18
 41
0.18
  0
VERTEX
  8
0
 10
80.753
 20
49.1793
 30
0.0
 40
0.18
 41
0.18
  0
VERTEX
  8
0
 10
80.706
 20
49.1532
 30
0.0
 40
0.18
 41
0.18
  0
VERTEX
  8
0
 10
80.6799
 20
49.1063
 30
0.0
 40
0.18
 41
0.18
  0
VERTEX
  8
0
 10
80.6799
 20
49.0897
 30
0.0
 40
0.18
 41
0.18
  0
VERTEX
  8
0
 10
80.6799
 20
40.1796
 30
0.0
 40
0.18
 41
0.18
  0
VERTEX
  8
0
 10
80.6799
 20
40.1712
 30
0.0
 40
0.18
 41
0.18
  0
VERTEX
  8
0
 10
80.6923
 20
40.1422
 30
0.0
 40
0.18
 41
0.18
  0
VERTEX
  8
0
 10
80.7131
 20
40.1465
 30
0.0
 40
0.18
 41
0.18
  0
VERTEX
  8
0
 10
80.7173
 20
40.1669
 30
0.0
 40
0.18
 41
0.18
  0
VERTEX
  8
0
 10
80.6884
 20
40.1796
 30
0.0
 40
0.18
 41
0.18
  0
VERTEX
  8
0
 10
80.6799
 20
40.1796
 30
0.0
 40
0.18
 41
0.18
  0
VERTEX
  8
0
 10
77.7695
 20
40.1796
 30
0.0
 40
0.18
 41
0.18
  0
VERTEX
  8
0
 10
77.7529
 20
40.1796
 30
0.0
 40
0.18
 41
0.18
  0
VERTEX
  8
0
 10
77.7064
 20
40.1532
 30
0.0
 40
0.18
 41
0.18
  0
VERTEX
  8
0
 10
77.6799
 20
40.1066
 30
0.0
 40
0.18
 41
0.18
  0
VERTEX
  8
0
 10
77.6799
 20
40.09
 30
0.0
 40
0.18
 41
0.18
  0
VERTEX
  8
0
 10
77.6799
 20
34.0899
 30
0.0
 40
0.18
 41
0.18
  0
VERTEX
  8
0
 10
77.6799
 20
34.0747
 30
0.0
 40
0.18
 41
0.18
  0
VERTEX
  8
0
 10
77.7064
 20
34.0265
 30
0.0
 40
0.18
 41
0.18
  0
VERTEX
  8
0
 10
77.7529
 20
34.0003
 30
0.0
 40
0.18
 41
0.18
  0
VERTEX
  8
0
 10
77.7695
 20
34.0003
 30
0.0
 40
0.18
 41
0.18
  0
VERTEX
  8
0
 10
80.6799
 20
34.0003
 30
0.0
 40
0.18
 41
0.18
  0
VERTEX
  8
0
 10
80.6884
 20
34.0003
 30
0.0
 40
0.18
 41
0.18
  0
VERTEX
  8
0
 10
80.7173
 20
34.0141
 30
0.0
 40
0.18
 41
0.18
  0
VERTEX
  8
0
 10
80.7131
 20
34.0348
 30
0.0
 40
0.18
 41
0.18
  0
VERTEX
  8
0
 10
80.6923
 20
34.0389
 30
0.0
 40
0.18
 41
0.18
  0
VERTEX
  8
0
 10
80.6799
 20
34.01
 30
0.0
 40
0.18
 41
0.18
  0
VERTEX
  8
0
 10
80.6799
 20
34.0003
 30
0.0
 40
0.18
 41
0.18
  0
VERTEX
  8
0
 10
80.6799
 20
28.1795
 30
0.0
 40
0.18
 41
0.18
  0
VERTEX
  8
0
 10
80.6799
 20
28.1712
 30
0.0
 40
0.18
 41
0.18
  0
VERTEX
  8
0
 10
80.6923
 20
28.1423
 30
0.0
 40
0.18
 41
0.18
  0
VERTEX
  8
0
 10
80.7131
 20
28.1464
 30
0.0
 40
0.18
 41
0.18
  0
VERTEX
  8
0
 10
80.7173
 20
28.1671
 30
0.0
 40
0.18
 41
0.18
  0
VERTEX
  8
0
 10
80.6884
 20
28.1795
 30
0.0
 40
0.18
 41
0.18
  0
VERTEX
  8
0
 10
80.6799
 20
28.1795
 30
0.0
 40
0.18
 41
0.18
  0
VERTEX
  8
0
 10
77.7695
 20
28.1795
 30
0.0
 40
0.18
 41
0.18
  0
VERTEX
  8
0
 10
77.7529
 20
28.1795
 30
0.0
 40
0.18
 41
0.18
  0
VERTEX
  8
0
 10
77.7064
 20
28.1533
 30
0.0
 40
0.18
 41
0.18
  0
VERTEX
  8
0
 10
77.6799
 20
28.1065
 30
0.0
 40
0.18
 41
0.18
  0
VERTEX
  8
0
 10
77.6799
 20
28.0899
 30
0.0
 40
0.18
 41
0.18
  0
VERTEX
  8
0
 10
77.6799
 20
22.09
 30
0.0
 40
0.18
 41
0.18
  0
VERTEX
  8
0
 10
77.6799
 20
22.0748
 30
0.0
 40
0.18
 41
0.18
  0
VERTEX
  8
0
 10
77.7064
 20
22.0266
 30
0.0
 40
0.18
 41
0.18
  0
VERTEX
  8
0
 10
77.7529
 20
22.0004
 30
0.0
 40
0.18
 41
0.18
  0
VERTEX
  8
0
 10
77.7695
 20
22.0004
 30
0.0
 40
0.18
 41
0.18
  0
VERTEX
  8
0
 10
80.6799
 20
22.0004
 30
0.0
 40
0.18
 41
0.18
  0
VERTEX
  8
0
 10
80.6884
 20
22.0004
 30
0.0
 40
0.18
 41
0.18
  0
VERTEX
  8
0
 10
80.7173
 20
22.0141
 30
0.0
 40
0.18
 41
0.18
  0
VERTEX
  8
0
 10
80.7131
 20
22.0348
 30
0.0
 40
0.18
 41
0.18
  0
VERTEX
  8
0
 10
80.6923
 20
22.039
 30
0.0
 40
0.18
 41
0.18
  0
VERTEX
  8
0
 10
80.6799
 20
22.01
 30
0.0
 40
0.18
 41
0.18
  0
VERTEX
  8
0
 10
80.6799
 20
22.0004
 30
0.0
 40
0.18
 41
0.18
  0
VERTEX
  8
0
 10
80.6799
 20
13.09
 30
0.0
 40
0.18
 41
0.18
  0
VERTEX
  8
0
 10
80.6799
 20
13.0748
 30
0.0
 40
0.18
 41
0.18
  0
VERTEX
  8
0
 10
80.706
 20
13.0266
 30
0.0
 40
0.18
 41
0.18
  0
VERTEX
  8
0
 10
80.753
 20
13.0004
 30
0.0
 40
0.18
 41
0.18
  0
VERTEX
  8
0
 10
80.7695
 20
13.0004
 30
0.0
 40
0.18
 41
0.18
  0
SEQEND
 8
0
  0
POLYLINE
  8
0
 62
     5
 66
     1
 10
0
 20
0
 30
0.0
 70
     1
 40
0.510236
 41
0.510236
  0
VERTEX
  8
0
 10
90.7701
 20
83.8606
 30
0.0
 40
0.18
 41
0.18
  0
VERTEX
  8
0
 10
87.8597
 20
83.8606
 30
0.0
 40
0.18
 41
0.18
  0
VERTEX
  8
0
 10
87.8498
 20
83.8606
 30
0.0
 40
0.18
 41
0.18
  0
VERTEX
  8
0
 10
87.8209
 20
83.8482
 30
0.0
 40
0.18
 41
0.18
  0
VERTEX
  8
0
 10
87.8251
 20
83.8274
 30
0.0
 40
0.18
 41
0.18
  0
VERTEX
  8
0
 10
87.8459
 20
83.8232
 30
0.0
 40
0.18
 41
0.18
  0
VERTEX
  8
0
 10
87.8597
 20
83.8521
 30
0.0
 40
0.18
 41
0.18
  0
VERTEX
  8
0
 10
87.8597
 20
83.8606
 30
0.0
 40
0.18
 41
0.18
  0
VERTEX
  8
0
 10
87.8597
 20
86.68
 30
0.0
 40
0.18
 41
0.18
  0
VERTEX
  8
0
 10
87.8597
 20
86.6895
 30
0.0
 40
0.18
 41
0.18
  0
VERTEX
  8
0
 10
87.8459
 20
86.7184
 30
0.0
 40
0.18
 41
0.18
  0
VERTEX
  8
0
 10
87.8251
 20
86.7145
 30
0.0
 40
0.18
 41
0.18
  0
VERTEX
  8
0
 10
87.8209
 20
86.6937
 30
0.0
 40
0.18
 41
0.18
  0
VERTEX
  8
0
 10
87.8498
 20
86.68
 30
0.0
 40
0.18
 41
0.18
  0
VERTEX
  8
0
 10
87.8597
 20
86.68
 30
0.0
 40
0.18
 41
0.18
  0
VERTEX
  8
0
 10
93.6805
 20
86.68
 30
0.0
 40
0.18
 41
0.18
  0
VERTEX
  8
0
 10
93.6886
 20
86.68
 30
0.0
 40
0.18
 41
0.18
  0
VERTEX
  8
0
 10
93.7175
 20
86.6937
 30
0.0
 40
0.18
 41
0.18
  0
VERTEX
  8
0
 10
93.7136
 20
86.7145
 30
0.0
 40
0.18
 41
0.18
  0
VERTEX
  8
0
 10
93.6928
 20
86.7184
 30
0.0
 40
0.18
 41
0.18
  0
VERTEX
  8
0
 10
93.6805
 20
86.6895
 30
0.0
 40
0.18
 41
0.18
  0
VERTEX
  8
0
 10
93.6805
 20
86.68
 30
0.0
 40
0.18
 41
0.18
  0
VERTEX
  8
0
 10
93.6805
 20
83.8606
 30
0.0
 40
0.18
 41
0.18
  0
VERTEX
  8
0
 10
93.6805
 20
83.8521
 30
0.0
 40
0.18
 41
0.18
  0
VERTEX
  8
0
 10
93.6928
 20
83.8232
 30
0.0
 40
0.18
 41
0.18
  0
VERTEX
  8
0
 10
93.7136
 20
83.8274
 30
0.0
 40
0.18
 41
0.18
  0
VERTEX
  8
0
 10
93.7175
 20
83.8482
 30
0.0
 40
0.18
 41
0.18
  0
VERTEX
  8
0
 10
93.6886
 20
83.8606
 30
0.0
 40
0.18
 41
0.18
  0
VERTEX
  8
0
 10
93.6805
 20
83.8606
 30
0.0
 40
0.18
 41
0.18
  0
VERTEX
  8
0
 10
90.7701
 20
83.8606
 30
0.0
 40
0.18
 41
0.18
  0
SEQEND
 8
0
  0
POLYLINE
  8
0
 62
     5
 66
     1
 10
0
 20
0
 30
0.0
 70
     1
 40
0.510236
 41
0.510236
  0
VERTEX
  8
0
 10
165.77
 20
86.68
 30
0.0
 40
0.18
 41
0.18
  0
VERTEX
  8
0
 10
168.68
 20
86.68
 30
0.0
 40
0.18
 41
0.18
  0
VERTEX
  8
0
 10
168.688
 20
86.68
 30
0.0
 40
0.18
 41
0.18
  0
VERTEX
  8
0
 10
168.717
 20
86.6937
 30
0.0
 40
0.18
 41
0.18
  0
VERTEX
  8
0
 10
168.713
 20
86.7145
 30
0.0
 40
0.18
 41
0.18
  0
VERTEX
  8
0
 10
168.693
 20
86.7184
 30
0.0
 40
0.18
 41
0.18
  0
VERTEX
  8
0
 10
168.68
 20
86.6895
 30
0.0
 40
0.18
 41
0.18
  0
VERTEX
  8
0
 10
168.68
 20
86.68
 30
0.0
 40
0.18
 41
0.18
  0
VERTEX
  8
0
 10
168.68
 20
83.8606
 30
0.0
 40
0.18
 41
0.18
  0
VERTEX
  8
0
 10
168.68
 20
83.8521
 30
0.0
 40
0.18
 41
0.18
  0
VERTEX
  8
0
 10
168.693
 20
83.8232
 30
0.0
 40
0.18
 41
0.18
  0
VERTEX
  8
0
 10
168.713
 20
83.8274
 30
0.0
 40
0.18
 41
0.18
  0
VERTEX
  8
0
 10
168.717
 20
83.8482
 30
0.0
 40
0.18
 41
0.18
  0
VERTEX
  8
0
 10
168.688
 20
83.8606
 30
0.0
 40
0.18
 41
0.18
  0
VERTEX
  8
0
 10
168.68
 20
83.8606
 30
0.0
 40
0.18
 41
0.18
  0
VERTEX
  8
0
 10
162.859
 20
83.8606
 30
0.0
 40
0.18
 41
0.18
  0
VERTEX
  8
0
 10
162.85
 20
83.8606
 30
0.0
 40
0.18
 41
0.18
  0
VERTEX
  8
0
 10
162.821
 20
83.8482
 30
0.0
 40
0.18
 41
0.18
  0
VERTEX
  8
0
 10
162.825
 20
83.8274
 30
0.0
 40
0.18
 41
0.18
  0
VERTEX
  8
0
 10
162.845
 20
83.8232
 30
0.0
 40
0.18
 41
0.18
  0
VERTEX
  8
0
 10
162.859
 20
83.8521
 30
0.0
 40
0.18
 41
0.18
  0
VERTEX
  8
0
 10
162.859
 20
83.8606
 30
0.0
 40
0.18
 41
0.18
  0
VERTEX
  8
0
 10
162.859
 20
86.68
 30
0.0
 40
0.18
 41
0.18
  0
VERTEX
  8
0
 10
162.859
 20
86.6895
 30
0.0
 40
0.18
 41
0.18
  0
VERTEX
  8
0
 10
162.845
 20
86.7184
 30
0.0
 40
0.18
 41
0.18
  0
VERTEX
  8
0
 10
162.825
 20
86.7145
 30
0.0
 40
0.18
 41
0.18
  0
VERTEX
  8
0
 10
162.821
 20
86.6937
 30
0.0
 40
0.18
 41
0.18
  0
VERTEX
  8
0
 10
162.85
 20
86.68
 30
0.0
 40
0.18
 41
0.18
  0
VERTEX
  8
0
 10
162.859
 20
86.68
 30
0.0
 40
0.18
 41
0.18
  0
VERTEX
  8
0
 10
165.77
 20
86.68
 30
0.0
 40
0.18
 41
0.18
  0
SEQEND
 8
0
  0
TEXT
  8
0
 62
     1
 10
122.714
 20
69.3762
 30
0.0
 40
4.0005
  1
Wall 4
 50
0
  0
POLYLINE
  8
0
 62
     0
 66
     1
 10
0
 20
0
 30
0.0
 70
     1
 40
0.510236
 41
0.510236
  0
VERTEX
  8
0
 10
80.7695
 20
53.6801
 30
0.0
 40
0.18
 41
0.18
  0
VERTEX
  8
0
 10
89.1798
 20
53.6801
 30
0.0
 40
0.18
 41
0.18
  0
VERTEX
  8
0
 10
89.1879
 20
53.6801
 30
0.0
 40
0.18
 41
0.18
  0
VERTEX
  8
0
 10
89.2168
 20
53.6938
 30
0.0
 40
0.18
 41
0.18
  0
VERTEX
  8
0
 10
89.2129
 20
53.7146
 30
0.0
 40
0.18
 41
0.18
  0
VERTEX
  8
0
 10
89.1921
 20
53.7185
 30
0.0
 40
0.18
 41
0.18
  0
VERTEX
  8
0
 10
89.1798
 20
53.6896
 30
0.0
 40
0.18
 41
0.18
  0
VERTEX
  8
0
 10
89.1798
 20
53.6801
 30
0.0
 40
0.18
 41
0.18
  0
VERTEX
  8
0
 10
89.1798
 20
50.7697
 30
0.0
 40
0.18
 41
0.18
  0
VERTEX
  8
0
 10
89.1798
 20
50.7545
 30
0.0
 40
0.18
 41
0.18
  0
VERTEX
  8
0
 10
89.2059
 20
50.7062
 30
0.0
 40
0.18
 41
0.18
  0
VERTEX
  8
0
 10
89.2542
 20
50.6801
 30
0.0
 40
0.18
 41
0.18
  0
VERTEX
  8
0
 10
89.2708
 20
50.6801
 30
0.0
 40
0.18
 41
0.18
  0
VERTEX
  8
0
 10
95.2708
 20
50.6801
 30
0.0
 40
0.18
 41
0.18
  0
VERTEX
  8
0
 10
95.286
 20
50.6801
 30
0.0
 40
0.18
 41
0.18
  0
VERTEX
  8
0
 10
95.334
 20
50.7062
 30
0.0
 40
0.18
 41
0.18
  0
VERTEX
  8
0
 10
95.3604
 20
50.7545
 30
0.0
 40
0.18
 41
0.18
  0
VERTEX
  8
0
 10
95.3604
 20
50.7697
 30
0.0
 40
0.18
 41
0.18
  0
VERTEX
  8
0
 10
95.3604
 20
53.6801
 30
0.0
 40
0.18
 41
0.18
  0
VERTEX
  8
0
 10
95.3604
 20
53.6896
 30
0.0
 40
0.18
 41
0.18
  0
VERTEX
  8
0
 10
95.3463
 20
53.7185
 30
0.0
 40
0.18
 41
0.18
  0
VERTEX
  8
0
 10
95.3258
 20
53.7146
 30
0.0
 40
0.18
 41
0.18
  0
VERTEX
  8
0
 10
95.3216
 20
53.6938
 30
0.0
 40
0.18
 41
0.18
  0
VERTEX
  8
0
 10
95.3505
 20
53.6801
 30
0.0
 40
0.18
 41
0.18
  0
VERTEX
  8
0
 10
95.3604
 20
53.6801
 30
0.0
 40
0.18
 41
0.18
  0
VERTEX
  8
0
 10
101.18
 20
53.6801
 30
0.0
 40
0.18
 41
0.18
  0
VERTEX
  8
0
 10
101.188
 20
53.6801
 30
0.0
 40
0.18
 41
0.18
  0
VERTEX
  8
0
 10
101.217
 20
53.6938
 30
0.0
 40
0.18
 41
0.18
  0
VERTEX
  8
0
 10
101.213
 20
53.7146
 30
0.0
 40
0.18
 41
0.18
  0
VERTEX
  8
0
 10
101.192
 20
53.7185
 30
0.0
 40
0.18
 41
0.18
  0
VERTEX
  8
0
 10
101.18
 20
53.6896
 30
0.0
 40
0.18
 41
0.18
  0
VERTEX
  8
0
 10
101.18
 20
53.6801
 30
0.0
 40
0.18
 41
0.18
  0
VERTEX
  8
0
 10
101.18
 20
50.7697
 30
0.0
 40
0.18
 41
0.18
  0
VERTEX
  8
0
 10
101.18
 20
50.7545
 30
0.0
 40
0.18
 41
0.18
  0
VERTEX
  8
0
 10
101.206
 20
50.7062
 30
0.0
 40
0.18
 41
0.18
  0
VERTEX
  8
0
 10
101.254
 20
50.6801
 30
0.0
 40
0.18
 41
0.18
  0
VERTEX
  8
0
 10
101.271
 20
50.6801
 30
0.0
 40
0.18
 41
0.18
  0
VERTEX
  8
0
 10
107.269
 20
50.6801
 30
0.0
 40
0.18
 41
0.18
  0
VERTEX
  8
0
 10
107.284
 20
50.6801
 30
0.0
 40
0.18
 41
0.18
  0
VERTEX
  8
0
 10
107.333
 20
50.7062
 30
0.0
 40
0.18
 41
0.18
  0
VERTEX
  8
0
 10
107.36
 20
50.7545
 30
0.0
 40
0.18
 41
0.18
  0
VERTEX
  8
0
 10
107.36
 20
50.7697
 30
0.0
 40
0.18
 41
0.18
  0
VERTEX
  8
0
 10
107.36
 20
53.6801
 30
0.0
 40
0.18
 41
0.18
  0
VERTEX
  8
0
 10
107.36
 20
53.6896
 30
0.0
 40
0.18
 41
0.18
  0
VERTEX
  8
0
 10
107.346
 20
53.7185
 30
0.0
 40
0.18
 41
0.18
  0
VERTEX
  8
0
 10
107.326
 20
53.7146
 30
0.0
 40
0.18
 41
0.18
  0
VERTEX
  8
0
 10
107.322
 20
53.6938
 30
0.0
 40
0.18
 41
0.18
  0
VERTEX
  8
0
 10
107.351
 20
53.6801
 30
0.0
 40
0.18
 41
0.18
  0
VERTEX
  8
0
 10
107.36
 20
53.6801
 30
0.0
 40
0.18
 41
0.18
  0
VERTEX
  8
0
 10
113.18
 20
53.6801
 30
0.0
 40
0.18
 41
0.18
  0
VERTEX
  8
0
 10
113.188
 20
53.6801
 30
0.0
 40
0.18
 41
0.18
  0
VERTEX
  8
0
 10
113.217
 20
53.6938
 30
0.0
 40
0.18
 41
0.18
  0
VERTEX
  8
0
 10
113.213
 20
53.7146
 30
0.0
 40
0.18
 41
0.18
  0
VERTEX
  8
0
 10
113.192
 20
53.7185
 30
0.0
 40
0.18
 41
0.18
  0
VERTEX
  8
0
 10
113.18
 20
53.6896
 30
0.0
 40
0.18
 41
0.18
  0
VERTEX
  8
0
 10
113.18
 20
53.6801
 30
0.0
 40
0.18
 41
0.18
  0
VERTEX
  8
0
 10
113.18
 20
50.7697
 30
0.0
 40
0.18
 41
0.18
  0
VERTEX
  8
0
 10
113.18
 20
50.7545
 30
0.0
 40
0.18
 41
0.18
  0
VERTEX
  8
0
 10
113.206
 20
50.7062
 30
0.0
 40
0.18
 41
0.18
  0
VERTEX
  8
0
 10
113.253
 20
50.6801
 30
0.0
 40
0.18
 41
0.18
  0
VERTEX
  8
0
 10
113.269
 20
50.6801
 30
0.0
 40
0.18
 41
0.18
  0
VERTEX
  8
0
 10
119.271
 20
50.6801
 30
0.0
 40
0.18
 41
0.18
  0
VERTEX
  8
0
 10
119.286
 20
50.6801
 30
0.0
 40
0.18
 41
0.18
  0
VERTEX
  8
0
 10
119.334
 20
50.7062
 30
0.0
 40
0.18
 41
0.18
  0
VERTEX
  8
0
 10
119.36
 20
50.7545
 30
0.0
 40
0.18
 41
0.18
  0
VERTEX
  8
0
 10
119.36
 20
50.7697
 30
0.0
 40
0.18
 41
0.18
  0
VERTEX
  8
0
 10
119.36
 20
53.6801
 30
0.0
 40
0.18
 41
0.18
  0
VERTEX
  8
0
 10
119.36
 20
53.6896
 30
0.0
 40
0.18
 41
0.18
  0
VERTEX
  8
0
 10
119.346
 20
53.7185
 30
0.0
 40
0.18
 41
0.18
  0
VERTEX
  8
0
 10
119.326
 20
53.7146
 30
0.0
 40
0.18
 41
0.18
  0
VERTEX
  8
0
 10
119.321
 20
53.6938
 30
0.0
 40
0.18
 41
0.18
  0
VERTEX
  8
0
 10
119.35
 20
53.6801
 30
0.0
 40
0.18
 41
0.18
  0
VERTEX
  8
0
 10
119.36
 20
53.6801
 30
0.0
 40
0.18
 41
0.18
  0
VERTEX
  8
0
 10
125.18
 20
53.6801
 30
0.0
 40
0.18
 41
0.18
  0
VERTEX
  8
0
 10
125.188
 20
53.6801
 30
0.0
 40
0.18
 41
0.18
  0
VERTEX
  8
0
 10
125.217
 20
53.6938
 30
0.0
 40
0.18
 41
0.18
  0
VERTEX
  8
0
 10
125.213
 20
53.7146
 30
0.0
 40
0.18
 41
0.18
  0
VERTEX
  8
0
 10
125.192
 20
53.7185
 30
0.0
 40
0.18
 41
0.18
  0
VERTEX
  8
0
 10
125.18
 20
53.6896
 30
0.0
 40
0.18
 41
0.18
  0
VERTEX
  8
0
 10
125.18
 20
53.6801
 30
0.0
 40
0.18
 41
0.18
  0
VERTEX
  8
0
 10
125.18
 20
50.7697
 30
0.0
 40
0.18
 41
0.18
  0
VERTEX
  8
0
 10
125.18
 20
50.7545
 30
0.0
 40
0.18
 41
0.18
  0
VERTEX
  8
0
 10
125.206
 20
50.7062
 30
0.0
 40
0.18
 41
0.18
  0
VERTEX
  8
0
 10
125.254
 20
50.6801
 30
0.0
 40
0.18
 41
0.18
  0
VERTEX
  8
0
 10
125.271
 20
50.6801
 30
0.0
 40
0.18
 41
0.18
  0
VERTEX
  8
0
 10
131.27
 20
50.6801
 30
0.0
 40
0.18
 41
0.18
  0
VERTEX
  8
0
 10
131.286
 20
50.6801
 30
0.0
 40
0.18
 41
0.18
  0
VERTEX
  8
0
 10
131.334
 20
50.7062
 30
0.0
 40
0.18
 41
0.18
  0
VERTEX
  8
0
 10
131.36
 20
50.7545
 30
0.0
 40
0.18
 41
0.18
  0
VERTEX
  8
0
 10
131.36
 20
50.7697
 30
0.0
 40
0.18
 41
0.18
  0
VERTEX
  8
0
 10
131.36
 20
53.6801
 30
0.0
 40
0.18
 41
0.18
  0
VERTEX
  8
0
 10
131.36
 20
53.6896
 30
0.0
 40
0.18
 41
0.18
  0
VERTEX
  8
0
 10
131.346
 20
53.7185
 30
0.0
 40
0.18
 41
0.18
  0
VERTEX
  8
0
 10
131.326
 20
53.7146
 30
0.0
 40
0.18
 41
0.18
  0
VERTEX
  8
0
 10
131.322
 20
53.6938
 30
0.0
 40
0.18
 41
0.18
  0
VERTEX
  8
0
 10
131.35
 20
53.6801
 30
0.0
 40
0.18
 41
0.18
  0
VERTEX
  8
0
 10
131.36
 20
53.6801
 30
0.0
 40
0.18
 41
0.18
  0
VERTEX
  8
0
 10
137.179
 20
53.6801
 30
0.0
 40
0.18
 41
0.18
  0
VERTEX
  8
0
 10
137.188
 20
53.6801
 30
0.0
 40
0.18
 41
0.18
  0
VERTEX
  8
0
 10
137.217
 20
53.6938
 30
0.0
 40
0.18
 41
0.18
  0
VERTEX
  8
0
 10
137.213
 20
53.7146
 30
0.0
 40
0.18
 41
0.18
  0
VERTEX
  8
0
 10
137.192
 20
53.7185
 30
0.0
 40
0.18
 41
0.18
  0
VERTEX
  8
0
 10
137.179
 20
53.6896
 30
0.0
 40
0.18
 41
0.18
  0
VERTEX
  8
0
 10
137.179
 20
53.6801
 30
0.0
 40
0.18
 41
0.18
  0
VERTEX
  8
0
 10
137.179
 20
50.7697
 30
0.0
 40
0.18
 41
0.18
  0
VERTEX
  8
0
 10
137.179
 20
50.7545
 30
0.0
 40
0.18
 41
0.18
  0
VERTEX
  8
0
 10
137.206
 20
50.7062
 30
0.0
 40
0.18
 41
0.18
  0
VERTEX
  8
0
 10
137.254
 20
50.6801
 30
0.0
 40
0.18
 41
0.18
  0
VERTEX
  8
0
 10
137.27
 20
50.6801
 30
0.0
 40
0.18
 41
0.18
  0
VERTEX
  8
0
 10
143.27
 20
50.6801
 30
0.0
 40
0.18
 41
0.18
  0
VERTEX
  8
0
 10
143.286
 20
50.6801
 30
0.0
 40
0.18
 41
0.18
  0
VERTEX
  8
0
 10
143.334
 20
50.7062
 30
0.0
 40
0.18
 41
0.18
  0
VERTEX
  8
0
 10
143.36
 20
50.7545
 30
0.0
 40
0.18
 41
0.18
  0
VERTEX
  8
0
 10
143.36
 20
50.7697
 30
0.0
 40
0.18
 41
0.18
  0
VERTEX
  8
0
 10
143.36
 20
53.6801
 30
0.0
 40
0.18
 41
0.18
  0
VERTEX
  8
0
 10
143.36
 20
53.6896
 30
0.0
 40
0.18
 41
0.18
  0
VERTEX
  8
0
 10
143.346
 20
53.7185
 30
0.0
 40
0.18
 41
0.18
  0
VERTEX
  8
0
 10
143.326
 20
53.7146
 30
0.0
 40
0.18
 41
0.18
  0
VERTEX
  8
0
 10
143.322
 20
53.6938
 30
0.0
 40
0.18
 41
0.18
  0
VERTEX
  8
0
 10
143.351
 20
53.6801
 30
0.0
 40
0.18
 41
0.18
  0
VERTEX
  8
0
 10
143.36
 20
53.6801
 30
0.0
 40
0.18
 41
0.18
  0
VERTEX
  8
0
 10
149.179
 20
53.6801
 30
0.0
 40
0.18
 41
0.18
  0
VERTEX
  8
0
 10
149.188
 20
53.6801
 30
0.0
 40
0.18
 41
0.18
  0
VERTEX
  8
0
 10
149.217
 20
53.6938
 30
0.0
 40
0.18
 41
0.18
  0
VERTEX
  8
0
 10
149.213
 20
53.7146
 30
0.0
 40
0.18
 41
0.18
  0
VERTEX
  8
0
 10
149.192
 20
53.7185
 30
0.0
 40
0.18
 41
0.18
  0
VERTEX
  8
0
 10
149.179
 20
53.6896
 30
0.0
 40
0.18
 41
0.18
  0
VERTEX
  8
0
 10
149.179
 20
53.6801
 30
0.0
 40
0.18
 41
0.18
  0
VERTEX
  8
0
 10
149.179
 20
50.7697
 30
0.0
 40
0.18
 41
0.18
  0
VERTEX
  8
0
 10
149.179
 20
50.7545
 30
0.0
 40
0.18
 41
0.18
  0
VERTEX
  8
0
 10
149.206
 20
50.7062
 30
0.0
 40
0.18
 41
0.18
  0
VERTEX
  8
0
 10
149.254
 20
50.6801
 30
0.0
 40
0.18
 41
0.18
  0
VERTEX
  8
0
 10
149.271
 20
50.6801
 30
0.0
 40
0.18
 41
0.18
  0
VERTEX
  8
0
 10
155.271
 20
50.6801
 30
0.0
 40
0.18
 41
0.18
  0
VERTEX
  8
0
 10
155.286
 20
50.6801
 30
0.0
 40
0.18
 41
0.18
  0
VERTEX
  8
0
 10
155.334
 20
50.7062
 30
0.0
 40
0.18
 41
0.18
  0
VERTEX
  8
0
 10
155.36
 20
50.7545
 30
0.0
 40
0.18
 41
0.18
  0
VERTEX
  8
0
 10
155.36
 20
50.7697
 30
0.0
 40
0.18
 41
0.18
  0
VERTEX
  8
0
 10
155.36
 20
53.6801
 30
0.0
 40
0.18
 41
0.18
  0
VERTEX
  8
0
 10
155.36
 20
53.6896
 30
0.0
 40
0.18
 41
0.18
  0
VERTEX
  8
0
 10
155.346
 20
53.7185
 30
0.0
 40
0.18
 41
0.18
  0
VERTEX
  8
0
 10
155.326
 20
53.7146
 30
0.0
 40
0.18
 41
0.18
  0
VERTEX
  8
0
 10
155.321
 20
53.6938
 30
0.0
 40
0.18
 41
0.18
  0
VERTEX
  8
0
 10
155.35
 20
53.6801
 30
0.0
 40
0.18
 41
0.18
  0
VERTEX
  8
0
 10
155.36
 20
53.6801
 30
0.0
 40
0.18
 41
0.18
  0
VERTEX
  8
0
 10
161.18
 20
53.6801
 30
0.0
 40
0.18
 41
0.18
  0
VERTEX
  8
0
 10
161.188
 20
53.6801
 30
0.0
 40
0.18
 41
0.18
  0
VERTEX
  8
0
 10
161.217
 20
53.6938
 30
0.0
 40
0.18
 41
0.18
  0
VERTEX
  8
0
 10
161.212
 20
53.7146
 30
0.0
 40
0.18
 41
0.18
  0
VERTEX
  8
0
 10
161.192
 20
53.7185
 30
0.0
 40
0.18
 41
0.18
  0
VERTEX
  8
0
 10
161.18
 20
53.6896
 30
0.0
 40
0.18
 41
0.18
  0
VERTEX
  8
0
 10
161.18
 20
53.6801
 30
0.0
 40
0.18
 41
0.18
  0
VERTEX
  8
0
 10
161.18
 20
50.7697
 30
0.0
 40
0.18
 41
0.18
  0
VERTEX
  8
0
 10
161.18
 20
50.7545
 30
0.0
 40
0.18
 41
0.18
  0
VERTEX
  8
0
 10
161.206
 20
50.7062
 30
0.0
 40
0.18
 41
0.18
  0
VERTEX
  8
0
 10
161.254
 20
50.6801
 30
0.0
 40
0.18
 41
0.18
  0
VERTEX
  8
0
 10
161.271
 20
50.6801
 30
0.0
 40
0.18
 41
0.18
  0
VERTEX
  8
0
 10
167.27
 20
50.6801
 30
0.0
 40
0.18
 41
0.18
  0
VERTEX
  8
0
 10
167.285
 20
50.6801
 30
0.0
 40
0.18
 41
0.18
  0
VERTEX
  8
0
 10
167.334
 20
50.7062
 30
0.0
 40
0.18
 41
0.18
  0
VERTEX
  8
0
 10
167.36
 20
50.7545
 30
0.0
 40
0.18
 41
0.18
  0
VERTEX
  8
0
 10
167.36
 20
50.7697
 30
0.0
 40
0.18
 41
0.18
  0
VERTEX
  8
0
 10
167.36
 20
53.6801
 30
0.0
 40
0.18
 41
0.18
  0
VERTEX
  8
0
 10
167.36
 20
53.6896
 30
0.0
 40
0.18
 41
0.18
  0
VERTEX
  8
0
 10
167.346
 20
53.7185
 30
0.0
 40
0.18
 41
0.18
  0
VERTEX
  8
0
 10
167.326
 20
53.7146
 30
0.0
 40
0.18
 41
0.18
  0
VERTEX
  8
0
 10
167.321
 20
53.6938
 30
0.0
 40
0.18
 41
0.18
  0
VERTEX
  8
0
 10
167.35
 20
53.6801
 30
0.0
 40
0.18
 41
0.18
  0
VERTEX
  8
0
 10
167.36
 20
53.6801
 30
0.0
 40
0.18
 41
0.18
  0
VERTEX
  8
0
 10
175.77
 20
53.6801
 30
0.0
 40
0.18
 41
0.18
  0
VERTEX
  8
0
 10
175.785
 20
53.6801
 30
0.0
 40
0.18
 41
0.18
  0
VERTEX
  8
0
 10
175.834
 20
53.7062
 30
0.0
 40
0.18
 41
0.18
  0
VERTEX
  8
0
 10
175.86
 20
53.7545
 30
0.0
 40
0.18
 41
0.18
  0
VERTEX
  8
0
 10
175.86
 20
53.7697
 30
0.0
 40
0.18
 41
0.18
  0
VERTEX
  8
0
 10
175.86
 20
62.6801
 30
0.0
 40
0.18
 41
0.18
  0
VERTEX
  8
0
 10
175.86
 20
62.6897
 30
0.0
 40
0.18
 41
0.18
  0
VERTEX
  8
0
 10
175.846
 20
62.7186
 30
0.0
 40
0.18
 41
0.18
  0
VERTEX
  8
0
 10
175.825
 20
62.7144
 30
0.0
 40
0.18
 41
0.18
  0
VERTEX
  8
0
 10
175.821
 20
62.6939
 30
0.0
 40
0.18
 41
0.18
  0
VERTEX
  8
0
 10
175.85
 20
62.6801
 30
0.0
 40
0.18
 41
0.18
  0
VERTEX
  8
0
 10
175.86
 20
62.6801
 30
0.0
 40
0.18
 41
0.18
  0
VERTEX
  8
0
 10
178.77
 20
62.6801
 30
0.0
 40
0.18
 41
0.18
  0
VERTEX
  8
0
 10
178.785
 20
62.6801
 30
0.0
 40
0.18
 41
0.18
  0
VERTEX
  8
0
 10
178.834
 20
62.7063
 30
0.0
 40
0.18
 41
0.18
  0
VERTEX
  8
0
 10
178.86
 20
62.7546
 30
0.0
 40
0.18
 41
0.18
  0
VERTEX
  8
0
 10
178.86
 20
62.7697
 30
0.0
 40
0.18
 41
0.18
  0
VERTEX
  8
0
 10
178.86
 20
68.7698
 30
0.0
 40
0.18
 41
0.18
  0
VERTEX
  8
0
 10
178.86
 20
68.786
 30
0.0
 40
0.18
 41
0.18
  0
VERTEX
  8
0
 10
178.834
 20
68.8344
 30
0.0
 40
0.18
 41
0.18
  0
VERTEX
  8
0
 10
178.785
 20
68.8605
 30
0.0
 40
0.18
 41
0.18
  0
VERTEX
  8
0
 10
178.77
 20
68.8605
 30
0.0
 40
0.18
 41
0.18
  0
VERTEX
  8
0
 10
175.86
 20
68.8605
 30
0.0
 40
0.18
 41
0.18
  0
VERTEX
  8
0
 10
175.85
 20
68.8605
 30
0.0
 40
0.18
 41
0.18
  0
VERTEX
  8
0
 10
175.821
 20
68.8481
 30
0.0
 40
0.18
 41
0.18
  0
VERTEX
  8
0
 10
175.825
 20
68.8277
 30
0.0
 40
0.18
 41
0.18
  0
VERTEX
  8
0
 10
175.846
 20
68.8234
 30
0.0
 40
0.18
 41
0.18
  0
VERTEX
  8
0
 10
175.86
 20
68.8523
 30
0.0
 40
0.18
 41
0.18
  0
VERTEX
  8
0
 10
175.86
 20
68.8605
 30
0.0
 40
0.18
 41
0.18
  0
VERTEX
  8
0
 10
175.86
 20
74.6799
 30
0.0
 40
0.18
 41
0.18
  0
VERTEX
  8
0
 10
175.86
 20
74.6898
 30
0.0
 40
0.18
 41
0.18
  0
VERTEX
  8
0
 10
175.846
 20
74.7187
 30
0.0
 40
0.18
 41
0.18
  0
VERTEX
  8
0
 10
175.825
 20
74.7145
 30
0.0
 40
0.18
 41
0.18
  0
VERTEX
  8
0
 10
175.821
 20
74.6936
 30
0.0
 40
0.18
 41
0.18
  0
VERTEX
  8
0
 10
175.85
 20
74.6799
 30
0.0
 40
0.18
 41
0.18
  0
VERTEX
  8
0
 10
175.86
 20
74.6799
 30
0.0
 40
0.18
 41
0.18
  0
VERTEX
  8
0
 10
178.77
 20
74.6799
 30
0.0
 40
0.18
 41
0.18
  0
VERTEX
  8
0
 10
178.785
 20
74.6799
 30
0.0
 40
0.18
 41
0.18
  0
VERTEX
  8
0
 10
178.834
 20
74.7063
 30
0.0
 40
0.18
 41
0.18
  0
VERTEX
  8
0
 10
178.86
 20
74.7543
 30
0.0
 40
0.18
 41
0.18
  0
VERTEX
  8
0
 10
178.86
 20
74.7695
 30
0.0
 40
0.18
 41
0.18
  0
VERTEX
  8
0
 10
178.86
 20
80.7695
 30
0.0
 40
0.18
 41
0.18
  0
VERTEX
  8
0
 10
178.86
 20
80.7861
 30
0.0
 40
0.18
 41
0.18
  0
VERTEX
  8
0
 10
178.834
 20
80.833
 30
0.0
 40
0.18
 41
0.18
  0
VERTEX
  8
0
 10
178.785
 20
80.8591
 30
0.0
 40
0.18
 41
0.18
  0
VERTEX
  8
0
 10
178.77
 20
80.8591
 30
0.0
 40
0.18
 41
0.18
  0
VERTEX
  8
0
 10
175.86
 20
80.8591
 30
0.0
 40
0.18
 41
0.18
  0
VERTEX
  8
0
 10
175.85
 20
80.8591
 30
0.0
 40
0.18
 41
0.18
  0
VERTEX
  8
0
 10
175.821
 20
80.8468
 30
0.0
 40
0.18
 41
0.18
  0
VERTEX
  8
0
 10
175.825
 20
80.826
 30
0.0
 40
0.18
 41
0.18
  0
VERTEX
  8
0
 10
175.846
 20
80.8221
 30
0.0
 40
0.18
 41
0.18
  0
VERTEX
  8
0
 10
175.86
 20
80.851
 30
0.0
 40
0.18
 41
0.18
  0
VERTEX
  8
0
 10
175.86
 20
80.8591
 30
0.0
 40
0.18
 41
0.18
  0
VERTEX
  8
0
 10
175.86
 20
89.7696
 30
0.0
 40
0.18
 41
0.18
  0
VERTEX
  8
0
 10
175.86
 20
89.7862
 30
0.0
 40
0.18
 41
0.18
  0
VERTEX
  8
0
 10
175.834
 20
89.8342
 30
0.0
 40
0.18
 41
0.18
  0
VERTEX
  8
0
 10
175.785
 20
89.8606
 30
0.0
 40
0.18
 41
0.18
  0
VERTEX
  8
0
 10
175.77
 20
89.8606
 30
0.0
 40
0.18
 41
0.18
  0
VERTEX
  8
0
 10
80.7695
 20
89.8606
 30
0.0
 40
0.18
 41
0.18
  0
VERTEX
  8
0
 10
80.753
 20
89.8606
 30
0.0
 40
0.18
 41
0.18
  0
VERTEX
  8
0
 10
80.706
 20
89.8342
 30
0.0
 40
0.18
 41
0.18
  0
VERTEX
  8
0
 10
80.6799
 20
89.7862
 30
0.0
 40
0.18
 41
0.18
  0
VERTEX
  8
0
 10
80.6799
 20
89.7696
 30
0.0
 40
0.18
 41
0.18
  0
VERTEX
  8
0
 10
80.6799
 20
80.8591
 30
0.0
 40
0.18
 41
0.18
  0
VERTEX
  8
0
 10
80.6799
 20
80.851
 30
0.0
 40
0.18
 41
0.18
  0
VERTEX
  8
0
 10
80.6923
 20
80.8221
 30
0.0
 40
0.18
 41
0.18
  0
VERTEX
  8
0
 10
80.7131
 20
80.826
 30
0.0
 40
0.18
 41
0.18
  0
VERTEX
  8
0
 10
80.7173
 20
80.8468
 30
0.0
 40
0.18
 41
0.18
  0
VERTEX
  8
0
 10
80.6884
 20
80.8591
 30
0.0
 40
0.18
 41
0.18
  0
VERTEX
  8
0
 10
80.6799
 20
80.8591
 30
0.0
 40
0.18
 41
0.18
  0
VERTEX
  8
0
 10
77.7695
 20
80.8591
 30
0.0
 40
0.18
 41
0.18
  0
VERTEX
  8
0
 10
77.7529
 20
80.8591
 30
0.0
 40
0.18
 41
0.18
  0
VERTEX
  8
0
 10
77.7064
 20
80.833
 30
0.0
 40
0.18
 41
0.18
  0
VERTEX
  8
0
 10
77.6799
 20
80.7861
 30
0.0
 40
0.18
 41
0.18
  0
VERTEX
  8
0
 10
77.6799
 20
80.7695
 30
0.0
 40
0.18
 41
0.18
  0
VERTEX
  8
0
 10
77.6799
 20
74.7695
 30
0.0
 40
0.18
 41
0.18
  0
VERTEX
  8
0
 10
77.6799
 20
74.7543
 30
0.0
 40
0.18
 41
0.18
  0
VERTEX
  8
0
 10
77.7064
 20
74.7063
 30
0.0
 40
0.18
 41
0.18
  0
VERTEX
  8
0
 10
77.7529
 20
74.6799
 30
0.0
 40
0.18
 41
0.18
  0
VERTEX
  8
0
 10
77.7695
 20
74.6799
 30
0.0
 40
0.18
 41
0.18
  0
VERTEX
  8
0
 10
80.6799
 20
74.6799
 30
0.0
 40
0.18
 41
0.18
  0
VERTEX
  8
0
 10
80.6884
 20
74.6799
 30
0.0
 40
0.18
 41
0.18
  0
VERTEX
  8
0
 10
80.7173
 20
74.6936
 30
0.0
 40
0.18
 41
0.18
  0
VERTEX
  8
0
 10
80.7131
 20
74.7145
 30
0.0
 40
0.18
 41
0.18
  0
VERTEX
  8
0
 10
80.6923
 20
74.7187
 30
0.0
 40
0.18
 41
0.18
  0
VERTEX
  8
0
 10
80.6799
 20
74.6898
 30
0.0
 40
0.18
 41
0.18
  0
VERTEX
  8
0
 10
80.6799
 20
74.6799
 30
0.0
 40
0.18
 41
0.18
  0
VERTEX
  8
0
 10
80.6799
 20
68.8605
 30
0.0
 40
0.18
 41
0.18
  0
VERTEX
  8
0
 10
80.6799
 20
68.8523
 30
0.0
 40
0.18
 41
0.18
  0
VERTEX
  8
0
 10
80.6923
 20
68.8234
 30
0.0
 40
0.18
 41
0.18
  0
VERTEX
  8
0
 10
80.7131
 20
68.8277
 30
0.0
 40
0.18
 41
0.18
  0
VERTEX
  8
0
 10
80.7173
 20
68.8481
 30
0.0
 40
0.18
 41
0.18
  0
VERTEX
  8
0
 10
80.6884
 20
68.8605
 30
0.0
 40
0.18
 41
0.18
  0
VERTEX
  8
0
 10
80.6799
 20
68.8605
 30
0.0
 40
0.18
 41
0.18
  0
VERTEX
  8
0
 10
77.7695
 20
68.8605
 30
0.0
 40
0.18
 41
0.18
  0
VERTEX
  8
0
 10
77.7529
 20
68.8605
 30
0.0
 40
0.18
 41
0.18
  0
VERTEX
  8
0
 10
77.7064
 20
68.8344
 30
0.0
 40
0.18
 41
0.18
  0
VERTEX
  8
0
 10
77.6799
 20
68.786
 30
0.0
 40
0.18
 41
0.18
  0
VERTEX
  8
0
 10
77.6799
 20
68.7698
 30
0.0
 40
0.18
 41
0.18
  0
VERTEX
  8
0
 10
77.6799
 20
62.7697
 30
0.0
 40
0.18
 41
0.18
  0
VERTEX
  8
0
 10
77.6799
 20
62.7546
 30
0.0
 40
0.18
 41
0.18
  0
VERTEX
  8
0
 10
77.7064
 20
62.7063
 30
0.0
 40
0.18
 41
0.18
  0
VERTEX
  8
0
 10
77.7529
 20
62.6801
 30
0.0
 40
0.18
 41
0.18
  0
VERTEX
  8
0
 10
77.7695
 20
62.6801
 30
0.0
 40
0.18
 41
0.18
  0
VERTEX
  8
0
 10
80.6799
 20
62.6801
 30
0.0
 40
0.18
 41
0.18
  0
VERTEX
  8
0
 10
80.6884
 20
62.6801
 30
0.0
 40
0.18
 41
0.18
  0
VERTEX
  8
0
 10
80.7173
 20
62.6939
 30
0.0
 40
0.18
 41
0.18
  0
VERTEX
  8
0
 10
80.7131
 20
62.7144
 30
0.0
 40
0.18
 41
0.18
  0
VERTEX
  8
0
 10
80.6923
 20
62.7186
 30
0.0
 40
0.18
 41
0.18
  0
VERTEX
  8
0
 10
80.6799
 20
62.6897
 30
0.0
 40
0.18
 41
0.18
  0
VERTEX
  8
0
 10
80.6799
 20
62.6801
 30
0.0
 40
0.18
 41
0.18
  0
VERTEX
  8
0
 10
80.6799
 20
53.7697
 30
0.0
 40
0.18
 41
0.18
  0
VERTEX
  8
0
 10
80.6799
 20
53.7545
 30
0.0
 40
0.18
 41
0.18
  0
VERTEX
  8
0
 10
80.706
 20
53.7062
 30
0.0
 40
0.18
 41
0.18
  0
VERTEX
  8
0
 10
80.753
 20
53.6801
 30
0.0
 40
0.18
 41
0.18
  0
VERTEX
  8
0
 10
80.7695
 20
53.6801
 30
0.0
 40
0.18
 41
0.18
  0
SEQEND
 8
0
  0
POLYLINE
  8
0
 62
     5
 66
     1
 10
0
 20
0
 30
0.0
 70
     1
 40
0.510236
 41
0.510236
  0
VERTEX
  8
0
 10
23.0904
 20
83.8606
 30
0.0
 40
0.18
 41
0.18
  0
VERTEX
  8
0
 10
20.18
 20
83.8606
 30
0.0
 40
0.18
 41
0.18
  0
VERTEX
  8
0
 10
20.1704
 20
83.8606
 30
0.0
 40
0.18
 41
0.18
  0
VERTEX
  8
0
 10
20.1414
 20
83.8482
 30
0.0
 40
0.18
 41
0.18
  0
VERTEX
  8
0
 10
20.1456
 20
83.8274
 30
0.0
 40
0.18
 41
0.18
  0
VERTEX
  8
0
 10
20.1662
 20
83.8232
 30
0.0
 40
0.18
 41
0.18
  0
VERTEX
  8
0
 10
20.18
 20
83.8521
 30
0.0
 40
0.18
 41
0.18
  0
VERTEX
  8
0
 10
20.18
 20
83.8606
 30
0.0
 40
0.18
 41
0.18
  0
VERTEX
  8
0
 10
20.18
 20
86.68
 30
0.0
 40
0.18
 41
0.18
  0
VERTEX
  8
0
 10
20.18
 20
86.6895
 30
0.0
 40
0.18
 41
0.18
  0
VERTEX
  8
0
 10
20.1662
 20
86.7184
 30
0.0
 40
0.18
 41
0.18
  0
VERTEX
  8
0
 10
20.1456
 20
86.7145
 30
0.0
 40
0.18
 41
0.18
  0
VERTEX
  8
0
 10
20.1414
 20
86.6937
 30
0.0
 40
0.18
 41
0.18
  0
VERTEX
  8
0
 10
20.1704
 20
86.68
 30
0.0
 40
0.18
 41
0.18
  0
VERTEX
  8
0
 10
20.18
 20
86.68
 30
0.0
 40
0.18
 41
0.18
  0
VERTEX
  8
0
 10
25.9994
 20
86.68
 30
0.0
 40
0.18
 41
0.18
  0
VERTEX
  8
0
 10
26.0077
 20
86.68
 30
0.0
 40
0.18
 41
0.18
  0
VERTEX
  8
0
 10
26.0367
 20
86.6937
 30
0.0
 40
0.18
 41
0.18
  0
VERTEX
  8
0
 10
26.0325
 20
86.7145
 30
0.0
 40
0.18
 41
0.18
  0
VERTEX
  8
0
 10
26.0119
 20
86.7184
 30
0.0
 40
0.18
 41
0.18
  0
VERTEX
  8
0
 10
25.9994
 20
86.6895
 30
0.0
 40
0.18
 41
0.18
  0
VERTEX
  8
0
 10
25.9994
 20
86.68
 30
0.0
 40
0.18
 41
0.18
  0
VERTEX
  8
0
 10
25.9994
 20
83.8606
 30
0.0
 40
0.18
 41
0.18
  0
VERTEX
  8
0
 10
25.9994
 20
83.8521
 30
0.0
 40
0.18
 41
0.18
  0
VERTEX
  8
0
 10
26.0119
 20
83.8232
 30
0.0
 40
0.18
 41
0.18
  0
VERTEX
  8
0
 10
26.0325
 20
83.8274
 30
0.0
 40
0.18
 41
0.18
  0
VERTEX
  8
0
 10
26.0367
 20
83.8482
 30
0.0
 40
0.18
 41
0.18
  0
VERTEX
  8
0
 10
26.0077
 20
83.8606
 30
0.0
 40
0.18
 41
0.18
  0
VERTEX
  8
0
 10
25.9994
 20
83.8606
 30
0.0
 40
0.18
 41
0.18
  0
VERTEX
  8
0
 10
23.0904
 20
83.8606
 30
0.0
 40
0.18
 41
0.18
  0
SEQEND
 8
0
  0
POLYLINE
  8
0
 62
     5
 66
     1
 10
0
 20
0
 30
0.0
 70
     1
 40
0.510236
 41
0.510236
  0
VERTEX
  8
0
 10
63.0908
 20
86.68
 30
0.0
 40
0.18
 41
0.18
  0
VERTEX
  8
0
 10
65.9998
 20
86.68
 30
0.0
 40
0.18
 41
0.18
  0
VERTEX
  8
0
 10
66.0079
 20
86.68
 30
0.0
 40
0.18
 41
0.18
  0
VERTEX
  8
0
 10
66.0368
 20
86.6937
 30
0.0
 40
0.18
 41
0.18
  0
VERTEX
  8
0
 10
66.0329
 20
86.7145
 30
0.0
 40
0.18
 41
0.18
  0
VERTEX
  8
0
 10
66.0121
 20
86.7184
 30
0.0
 40
0.18
 41
0.18
  0
VERTEX
  8
0
 10
65.9998
 20
86.6895
 30
0.0
 40
0.18
 41
0.18
  0
VERTEX
  8
0
 10
65.9998
 20
86.68
 30
0.0
 40
0.18
 41
0.18
  0
VERTEX
  8
0
 10
65.9998
 20
83.8606
 30
0.0
 40
0.18
 41
0.18
  0
VERTEX
  8
0
 10
65.9998
 20
83.8521
 30
0.0
 40
0.18
 41
0.18
  0
VERTEX
  8
0
 10
66.0121
 20
83.8232
 30
0.0
 40
0.18
 41
0.18
  0
VERTEX
  8
0
 10
66.0329
 20
83.8274
 30
0.0
 40
0.18
 41
0.18
  0
VERTEX
  8
0
 10
66.0368
 20
83.8482
 30
0.0
 40
0.18
 41
0.18
  0
VERTEX
  8
0
 10
66.0079
 20
83.8606
 30
0.0
 40
0.18
 41
0.18
  0
VERTEX
  8
0
 10
65.9998
 20
83.8606
 30
0.0
 40
0.18
 41
0.18
  0
VERTEX
  8
0
 10
60.1804
 20
83.8606
 30
0.0
 40
0.18
 41
0.18
  0
VERTEX
  8
0
 10
60.1708
 20
83.8606
 30
0.0
 40
0.18
 41
0.18
  0
VERTEX
  8
0
 10
60.1416
 20
83.8482
 30
0.0
 40
0.18
 41
0.18
  0
VERTEX
  8
0
 10
60.1458
 20
83.8274
 30
0.0
 40
0.18
 41
0.18
  0
VERTEX
  8
0
 10
60.1666
 20
83.8232
 30
0.0
 40
0.18
 41
0.18
  0
VERTEX
  8
0
 10
60.1804
 20
83.8521
 30
0.0
 40
0.18
 41
0.18
  0
VERTEX
  8
0
 10
60.1804
 20
83.8606
 30
0.0
 40
0.18
 41
0.18
  0
VERTEX
  8
0
 10
60.1804
 20
86.68
 30
0.0
 40
0.18
 41
0.18
  0
VERTEX
  8
0
 10
60.1804
 20
86.6895
 30
0.0
 40
0.18
 41
0.18
  0
VERTEX
  8
0
 10
60.1666
 20
86.7184
 30
0.0
 40
0.18
 41
0.18
  0
VERTEX
  8
0
 10
60.1458
 20
86.7145
 30
0.0
 40
0.18
 41
0.18
  0
VERTEX
  8
0
 10
60.1416
 20
86.6937
 30
0.0
 40
0.18
 41
0.18
  0
VERTEX
  8
0
 10
60.1708
 20
86.68
 30
0.0
 40
0.18
 41
0.18
  0
VERTEX
  8
0
 10
60.1804
 20
86.68
 30
0.0
 40
0.18
 41
0.18
  0
VERTEX
  8
0
 10
63.0908
 20
86.68
 30
0.0
 40
0.18
 41
0.18
  0
SEQEND
 8
0
  0
TEXT
  8
0
 62
     1
 10
37.5345
 20
69.3762
 30
0.0
 40
4.0005
  1
Wall 3
 50
0
  0
POLYLINE
  8
0
 62
     0
 66
     1
 10
0
 20
0
 30
0.0
 70
     1
 40
0.510236
 41
0.510236
  0
VERTEX
  8
0
 10
13.09
 20
53.6801
 30
0.0
 40
0.18
 41
0.18
  0
VERTEX
  8
0
 10
22.0004
 20
53.6801
 30
0.0
 40
0.18
 41
0.18
  0
VERTEX
  8
0
 10
22.0086
 20
53.6801
 30
0.0
 40
0.18
 41
0.18
  0
VERTEX
  8
0
 10
22.0376
 20
53.6938
 30
0.0
 40
0.18
 41
0.18
  0
VERTEX
  8
0
 10
22.0334
 20
53.7146
 30
0.0
 40
0.18
 41
0.18
  0
VERTEX
  8
0
 10
22.0128
 20
53.7185
 30
0.0
 40
0.18
 41
0.18
  0
VERTEX
  8
0
 10
22.0004
 20
53.6896
 30
0.0
 40
0.18
 41
0.18
  0
VERTEX
  8
0
 10
22.0004
 20
53.6801
 30
0.0
 40
0.18
 41
0.18
  0
VERTEX
  8
0
 10
22.0004
 20
50.7697
 30
0.0
 40
0.18
 41
0.18
  0
VERTEX
  8
0
 10
22.0004
 20
50.7545
 30
0.0
 40
0.18
 41
0.18
  0
VERTEX
  8
0
 10
22.0266
 20
50.7062
 30
0.0
 40
0.18
 41
0.18
  0
VERTEX
  8
0
 10
22.0734
 20
50.6801
 30
0.0
 40
0.18
 41
0.18
  0
VERTEX
  8
0
 10
22.09
 20
50.6801
 30
0.0
 40
0.18
 41
0.18
  0
VERTEX
  8
0
 10
28.0899
 20
50.6801
 30
0.0
 40
0.18
 41
0.18
  0
VERTEX
  8
0
 10
28.1051
 20
50.6801
 30
0.0
 40
0.18
 41
0.18
  0
VERTEX
  8
0
 10
28.1533
 20
50.7062
 30
0.0
 40
0.18
 41
0.18
  0
VERTEX
  8
0
 10
28.1795
 20
50.7545
 30
0.0
 40
0.18
 41
0.18
  0
VERTEX
  8
0
 10
28.1795
 20
50.7697
 30
0.0
 40
0.18
 41
0.18
  0
VERTEX
  8
0
 10
28.1795
 20
53.6801
 30
0.0
 40
0.18
 41
0.18
  0
VERTEX
  8
0
 10
28.1795
 20
53.6896
 30
0.0
 40
0.18
 41
0.18
  0
VERTEX
  8
0
 10
28.1657
 20
53.7185
 30
0.0
 40
0.18
 41
0.18
  0
VERTEX
  8
0
 10
28.1451
 20
53.7146
 30
0.0
 40
0.18
 41
0.18
  0
VERTEX
  8
0
 10
28.1409
 20
53.6938
 30
0.0
 40
0.18
 41
0.18
  0
VERTEX
  8
0
 10
28.1699
 20
53.6801
 30
0.0
 40
0.18
 41
0.18
  0
VERTEX
  8
0
 10
28.1795
 20
53.6801
 30
0.0
 40
0.18
 41
0.18
  0
VERTEX
  8
0
 10
34.0003
 20
53.6801
 30
0.0
 40
0.18
 41
0.18
  0
VERTEX
  8
0
 10
34.0086
 20
53.6801
 30
0.0
 40
0.18
 41
0.18
  0
VERTEX
  8
0
 10
34.0376
 20
53.6938
 30
0.0
 40
0.18
 41
0.18
  0
VERTEX
  8
0
 10
34.0334
 20
53.7146
 30
0.0
 40
0.18
 41
0.18
  0
VERTEX
  8
0
 10
34.0128
 20
53.7185
 30
0.0
 40
0.18
 41
0.18
  0
VERTEX
  8
0
 10
34.0003
 20
53.6896
 30
0.0
 40
0.18
 41
0.18
  0
VERTEX
  8
0
 10
34.0003
 20
53.6801
 30
0.0
 40
0.18
 41
0.18
  0
VERTEX
  8
0
 10
34.0003
 20
50.7697
 30
0.0
 40
0.18
 41
0.18
  0
VERTEX
  8
0
 10
34.0003
 20
50.7545
 30
0.0
 40
0.18
 41
0.18
  0
VERTEX
  8
0
 10
34.0265
 20
50.7062
 30
0.0
 40
0.18
 41
0.18
  0
VERTEX
  8
0
 10
34.0734
 20
50.6801
 30
0.0
 40
0.18
 41
0.18
  0
VERTEX
  8
0
 10
34.0899
 20
50.6801
 30
0.0
 40
0.18
 41
0.18
  0
VERTEX
  8
0
 10
40.09
 20
50.6801
 30
0.0
 40
0.18
 41
0.18
  0
VERTEX
  8
0
 10
40.1052
 20
50.6801
 30
0.0
 40
0.18
 41
0.18
  0
VERTEX
  8
0
 10
40.1532
 20
50.7062
 30
0.0
 40
0.18
 41
0.18
  0
VERTEX
  8
0
 10
40.1796
 20
50.7545
 30
0.0
 40
0.18
 41
0.18
  0
VERTEX
  8
0
 10
40.1796
 20
50.7697
 30
0.0
 40
0.18
 41
0.18
  0
VERTEX
  8
0
 10
40.1796
 20
53.6801
 30
0.0
 40
0.18
 41
0.18
  0
VERTEX
  8
0
 10
40.1796
 20
53.6896
 30
0.0
 40
0.18
 41
0.18
  0
VERTEX
  8
0
 10
40.1655
 20
53.7185
 30
0.0
 40
0.18
 41
0.18
  0
VERTEX
  8
0
 10
40.1451
 20
53.7146
 30
0.0
 40
0.18
 41
0.18
  0
VERTEX
  8
0
 10
40.1408
 20
53.6938
 30
0.0
 40
0.18
 41
0.18
  0
VERTEX
  8
0
 10
40.1697
 20
53.6801
 30
0.0
 40
0.18
 41
0.18
  0
VERTEX
  8
0
 10
40.1796
 20
53.6801
 30
0.0
 40
0.18
 41
0.18
  0
VERTEX
  8
0
 10
46.0005
 20
53.6801
 30
0.0
 40
0.18
 41
0.18
  0
VERTEX
  8
0
 10
46.0086
 20
53.6801
 30
0.0
 40
0.18
 41
0.18
  0
VERTEX
  8
0
 10
46.0375
 20
53.6938
 30
0.0
 40
0.18
 41
0.18
  0
VERTEX
  8
0
 10
46.0333
 20
53.7146
 30
0.0
 40
0.18
 41
0.18
  0
VERTEX
  8
0
 10
46.0128
 20
53.7185
 30
0.0
 40
0.18
 41
0.18
  0
VERTEX
  8
0
 10
46.0005
 20
53.6896
 30
0.0
 40
0.18
 41
0.18
  0
VERTEX
  8
0
 10
46.0005
 20
53.6801
 30
0.0
 40
0.18
 41
0.18
  0
VERTEX
  8
0
 10
46.0005
 20
50.7697
 30
0.0
 40
0.18
 41
0.18
  0
VERTEX
  8
0
 10
46.0005
 20
50.7545
 30
0.0
 40
0.18
 41
0.18
  0
VERTEX
  8
0
 10
46.0266
 20
50.7062
 30
0.0
 40
0.18
 41
0.18
  0
VERTEX
  8
0
 10
46.0735
 20
50.6801
 30
0.0
 40
0.18
 41
0.18
  0
VERTEX
  8
0
 10
46.0897
 20
50.6801
 30
0.0
 40
0.18
 41
0.18
  0
VERTEX
  8
0
 10
52.0898
 20
50.6801
 30
0.0
 40
0.18
 41
0.18
  0
VERTEX
  8
0
 10
52.1049
 20
50.6801
 30
0.0
 40
0.18
 41
0.18
  0
VERTEX
  8
0
 10
52.1533
 20
50.7062
 30
0.0
 40
0.18
 41
0.18
  0
VERTEX
  8
0
 10
52.1794
 20
50.7545
 30
0.0
 40
0.18
 41
0.18
  0
VERTEX
  8
0
 10
52.1794
 20
50.7697
 30
0.0
 40
0.18
 41
0.18
  0
VERTEX
  8
0
 10
52.1794
 20
53.6801
 30
0.0
 40
0.18
 41
0.18
  0
VERTEX
  8
0
 10
52.1794
 20
53.6896
 30
0.0
 40
0.18
 41
0.18
  0
VERTEX
  8
0
 10
52.1656
 20
53.7185
 30
0.0
 40
0.18
 41
0.18
  0
VERTEX
  8
0
 10
52.1451
 20
53.7146
 30
0.0
 40
0.18
 41
0.18
  0
VERTEX
  8
0
 10
52.1409
 20
53.6938
 30
0.0
 40
0.18
 41
0.18
  0
VERTEX
  8
0
 10
52.1698
 20
53.6801
 30
0.0
 40
0.18
 41
0.18
  0
VERTEX
  8
0
 10
52.1794
 20
53.6801
 30
0.0
 40
0.18
 41
0.18
  0
VERTEX
  8
0
 10
58.0002
 20
53.6801
 30
0.0
 40
0.18
 41
0.18
  0
VERTEX
  8
0
 10
58.0087
 20
53.6801
 30
0.0
 40
0.18
 41
0.18
  0
VERTEX
  8
0
 10
58.0376
 20
53.6938
 30
0.0
 40
0.18
 41
0.18
  0
VERTEX
  8
0
 10
58.0334
 20
53.7146
 30
0.0
 40
0.18
 41
0.18
  0
VERTEX
  8
0
 10
58.0125
 20
53.7185
 30
0.0
 40
0.18
 41
0.18
  0
VERTEX
  8
0
 10
58.0002
 20
53.6896
 30
0.0
 40
0.18
 41
0.18
  0
VERTEX
  8
0
 10
58.0002
 20
53.6801
 30
0.0
 40
0.18
 41
0.18
  0
VERTEX
  8
0
 10
58.0002
 20
50.7697
 30
0.0
 40
0.18
 41
0.18
  0
VERTEX
  8
0
 10
58.0002
 20
50.7545
 30
0.0
 40
0.18
 41
0.18
  0
VERTEX
  8
0
 10
58.0263
 20
50.7062
 30
0.0
 40
0.18
 41
0.18
  0
VERTEX
  8
0
 10
58.0732
 20
50.6801
 30
0.0
 40
0.18
 41
0.18
  0
VERTEX
  8
0
 10
58.0898
 20
50.6801
 30
0.0
 40
0.18
 41
0.18
  0
VERTEX
  8
0
 10
64.0898
 20
50.6801
 30
0.0
 40
0.18
 41
0.18
  0
VERTEX
  8
0
 10
64.105
 20
50.6801
 30
0.0
 40
0.18
 41
0.18
  0
VERTEX
  8
0
 10
64.1533
 20
50.7062
 30
0.0
 40
0.18
 41
0.18
  0
VERTEX
  8
0
 10
64.1809
 20
50.7545
 30
0.0
 40
0.18
 41
0.18
  0
VERTEX
  8
0
 10
64.1809
 20
50.7697
 30
0.0
 40
0.18
 41
0.18
  0
VERTEX
  8
0
 10
64.1809
 20
53.6801
 30
0.0
 40
0.18
 41
0.18
  0
VERTEX
  8
0
 10
64.1809
 20
53.6896
 30
0.0
 40
0.18
 41
0.18
  0
VERTEX
  8
0
 10
64.1671
 20
53.7185
 30
0.0
 40
0.18
 41
0.18
  0
VERTEX
  8
0
 10
64.1463
 20
53.7146
 30
0.0
 40
0.18
 41
0.18
  0
VERTEX
  8
0
 10
64.1421
 20
53.6938
 30
0.0
 40
0.18
 41
0.18
  0
VERTEX
  8
0
 10
64.171
 20
53.6801
 30
0.0
 40
0.18
 41
0.18
  0
VERTEX
  8
0
 10
64.1809
 20
53.6801
 30
0.0
 40
0.18
 41
0.18
  0
VERTEX
  8
0
 10
73.0899
 20
53.6801
 30
0.0
 40
0.18
 41
0.18
  0
VERTEX
  8
0
 10
76.0899
 20
53.6801
 30
0.0
 40
0.18
 41
0.18
  0
VERTEX
  8
0
 10
76.1047
 20
53.6801
 30
0.0
 40
0.18
 41
0.18
  0
VERTEX
  8
0
 10
76.1531
 20
53.7062
 30
0.0
 40
0.18
 41
0.18
  0
VERTEX
  8
0
 10
76.1792
 20
53.7545
 30
0.0
 40
0.18
 41
0.18
  0
VERTEX
  8
0
 10
76.1792
 20
53.7697
 30
0.0
 40
0.18
 41
0.18
  0
VERTEX
  8
0
 10
76.1792
 20
62.7697
 30
0.0
 40
0.18
 41
0.18
  0
VERTEX
  8
0
 10
76.1792
 20
62.7863
 30
0.0
 40
0.18
 41
0.18
  0
VERTEX
  8
0
 10
76.1531
 20
62.8343
 30
0.0
 40
0.18
 41
0.18
  0
VERTEX
  8
0
 10
76.1047
 20
62.8608
 30
0.0
 40
0.18
 41
0.18
  0
VERTEX
  8
0
 10
76.0899
 20
62.8608
 30
0.0
 40
0.18
 41
0.18
  0
VERTEX
  8
0
 10
73.1795
 20
62.8608
 30
0.0
 40
0.18
 41
0.18
  0
VERTEX
  8
0
 10
73.1696
 20
62.8608
 30
0.0
 40
0.18
 41
0.18
  0
VERTEX
  8
0
 10
73.1407
 20
62.8481
 30
0.0
 40
0.18
 41
0.18
  0
VERTEX
  8
0
 10
73.1449
 20
62.8276
 30
0.0
 40
0.18
 41
0.18
  0
VERTEX
  8
0
 10
73.1654
 20
62.8234
 30
0.0
 40
0.18
 41
0.18
  0
VERTEX
  8
0
 10
73.1795
 20
62.8523
 30
0.0
 40
0.18
 41
0.18
  0
VERTEX
  8
0
 10
73.1795
 20
62.8608
 30
0.0
 40
0.18
 41
0.18
  0
VERTEX
  8
0
 10
73.1795
 20
68.6802
 30
0.0
 40
0.18
 41
0.18
  0
VERTEX
  8
0
 10
73.1795
 20
68.6897
 30
0.0
 40
0.18
 41
0.18
  0
VERTEX
  8
0
 10
73.1654
 20
68.7186
 30
0.0
 40
0.18
 41
0.18
  0
VERTEX
  8
0
 10
73.1449
 20
68.7144
 30
0.0
 40
0.18
 41
0.18
  0
VERTEX
  8
0
 10
73.1407
 20
68.694
 30
0.0
 40
0.18
 41
0.18
  0
VERTEX
  8
0
 10
73.1696
 20
68.6802
 30
0.0
 40
0.18
 41
0.18
  0
VERTEX
  8
0
 10
73.1795
 20
68.6802
 30
0.0
 40
0.18
 41
0.18
  0
VERTEX
  8
0
 10
76.0899
 20
68.6802
 30
0.0
 40
0.18
 41
0.18
  0
VERTEX
  8
0
 10
76.1047
 20
68.6802
 30
0.0
 40
0.18
 41
0.18
  0
VERTEX
  8
0
 10
76.1531
 20
68.7063
 30
0.0
 40
0.18
 41
0.18
  0
VERTEX
  8
0
 10
76.1792
 20
68.7546
 30
0.0
 40
0.18
 41
0.18
  0
VERTEX
  8
0
 10
76.1792
 20
68.7698
 30
0.0
 40
0.18
 41
0.18
  0
VERTEX
  8
0
 10
76.1792
 20
74.7695
 30
0.0
 40
0.18
 41
0.18
  0
VERTEX
  8
0
 10
76.1792
 20
74.7861
 30
0.0
 40
0.18
 41
0.18
  0
VERTEX
  8
0
 10
76.1531
 20
74.8344
 30
0.0
 40
0.18
 41
0.18
  0
VERTEX
  8
0
 10
76.1047
 20
74.8605
 30
0.0
 40
0.18
 41
0.18
  0
VERTEX
  8
0
 10
76.0899
 20
74.8605
 30
0.0
 40
0.18
 41
0.18
  0
VERTEX
  8
0
 10
73.1795
 20
74.8605
 30
0.0
 40
0.18
 41
0.18
  0
VERTEX
  8
0
 10
73.1696
 20
74.8605
 30
0.0
 40
0.18
 41
0.18
  0
VERTEX
  8
0
 10
73.1407
 20
74.8482
 30
0.0
 40
0.18
 41
0.18
  0
VERTEX
  8
0
 10
73.1449
 20
74.8273
 30
0.0
 40
0.18
 41
0.18
  0
VERTEX
  8
0
 10
73.1654
 20
74.8235
 30
0.0
 40
0.18
 41
0.18
  0
VERTEX
  8
0
 10
73.1795
 20
74.8524
 30
0.0
 40
0.18
 41
0.18
  0
VERTEX
  8
0
 10
73.1795
 20
74.8605
 30
0.0
 40
0.18
 41
0.18
  0
VERTEX
  8
0
 10
73.1795
 20
80.6799
 30
0.0
 40
0.18
 41
0.18
  0
VERTEX
  8
0
 10
73.1795
 20
80.6898
 30
0.0
 40
0.18
 41
0.18
  0
VERTEX
  8
0
 10
73.1654
 20
80.7187
 30
0.0
 40
0.18
 41
0.18
  0
VERTEX
  8
0
 10
73.1449
 20
80.7145
 30
0.0
 40
0.18
 41
0.18
  0
VERTEX
  8
0
 10
73.1407
 20
80.6937
 30
0.0
 40
0.18
 41
0.18
  0
VERTEX
  8
0
 10
73.1696
 20
80.6799
 30
0.0
 40
0.18
 41
0.18
  0
VERTEX
  8
0
 10
73.1795
 20
80.6799
 30
0.0
 40
0.18
 41
0.18
  0
VERTEX
  8
0
 10
76.0899
 20
80.6799
 30
0.0
 40
0.18
 41
0.18
  0
VERTEX
  8
0
 10
76.1047
 20
80.6799
 30
0.0
 40
0.18
 41
0.18
  0
VERTEX
  8
0
 10
76.1531
 20
80.706
 30
0.0
 40
0.18
 41
0.18
  0
VERTEX
  8
0
 10
76.1792
 20
80.7544
 30
0.0
 40
0.18
 41
0.18
  0
VERTEX
  8
0
 10
76.1792
 20
80.7695
 30
0.0
 40
0.18
 41
0.18
  0
VERTEX
  8
0
 10
76.1792
 20
89.7696
 30
0.0
 40
0.18
 41
0.18
  0
VERTEX
  8
0
 10
76.1792
 20
89.7862
 30
0.0
 40
0.18
 41
0.18
  0
VERTEX
  8
0
 10
76.1531
 20
89.8342
 30
0.0
 40
0.18
 41
0.18
  0
VERTEX
  8
0
 10
76.1047
 20
89.8606
 30
0.0
 40
0.18
 41
0.18
  0
VERTEX
  8
0
 10
76.0899
 20
89.8606
 30
0.0
 40
0.18
 41
0.18
  0
VERTEX
  8
0
 10
73.0899
 20
89.8606
 30
0.0
 40
0.18
 41
0.18
  0
VERTEX
  8
0
 10
13.09
 20
89.8606
 30
0.0
 40
0.18
 41
0.18
  0
VERTEX
  8
0
 10
10.09
 20
89.8606
 30
0.0
 40
0.18
 41
0.18
  0
VERTEX
  8
0
 10
10.0735
 20
89.8606
 30
0.0
 40
0.18
 41
0.18
  0
VERTEX
  8
0
 10
10.0266
 20
89.8342
 30
0.0
 40
0.18
 41
0.18
  0
VERTEX
  8
0
 10
10.0004
 20
89.7862
 30
0.0
 40
0.18
 41
0.18
  0
VERTEX
  8
0
 10
10.0004
 20
89.7696
 30
0.0
 40
0.18
 41
0.18
  0
VERTEX
  8
0
 10
10.0004
 20
80.7695
 30
0.0
 40
0.18
 41
0.18
  0
VERTEX
  8
0
 10
10.0004
 20
80.7544
 30
0.0
 40
0.18
 41
0.18
  0
VERTEX
  8
0
 10
10.0266
 20
80.706
 30
0.0
 40
0.18
 41
0.18
  0
VERTEX
  8
0
 10
10.0735
 20
80.6799
 30
0.0
 40
0.18
 41
0.18
  0
VERTEX
  8
0
 10
10.09
 20
80.6799
 30
0.0
 40
0.18
 41
0.18
  0
VERTEX
  8
0
 10
13.0004
 20
80.6799
 30
0.0
 40
0.18
 41
0.18
  0
VERTEX
  8
0
 10
13.0087
 20
80.6799
 30
0.0
 40
0.18
 41
0.18
  0
VERTEX
  8
0
 10
13.0376
 20
80.6937
 30
0.0
 40
0.18
 41
0.18
  0
VERTEX
  8
0
 10
13.0335
 20
80.7145
 30
0.0
 40
0.18
 41
0.18
  0
VERTEX
  8
0
 10
13.0128
 20
80.7187
 30
0.0
 40
0.18
 41
0.18
  0
VERTEX
  8
0
 10
13.0004
 20
80.6898
 30
0.0
 40
0.18
 41
0.18
  0
VERTEX
  8
0
 10
13.0004
 20
80.6799
 30
0.0
 40
0.18
 41
0.18
  0
VERTEX
  8
0
 10
13.0004
 20
74.8605
 30
0.0
 40
0.18
 41
0.18
  0
VERTEX
  8
0
 10
13.0004
 20
74.8524
 30
0.0
 40
0.18
 41
0.18
  0
VERTEX
  8
0
 10
13.0128
 20
74.8235
 30
0.0
 40
0.18
 41
0.18
  0
VERTEX
  8
0
 10
13.0335
 20
74.8273
 30
0.0
 40
0.18
 41
0.18
  0
VERTEX
  8
0
 10
13.0376
 20
74.8482
 30
0.0
 40
0.18
 41
0.18
  0
VERTEX
  8
0
 10
13.0087
 20
74.8605
 30
0.0
 40
0.18
 41
0.18
  0
VERTEX
  8
0
 10
13.0004
 20
74.8605
 30
0.0
 40
0.18
 41
0.18
  0
VERTEX
  8
0
 10
10.09
 20
74.8605
 30
0.0
 40
0.18
 41
0.18
  0
VERTEX
  8
0
 10
10.0735
 20
74.8605
 30
0.0
 40
0.18
 41
0.18
  0
VERTEX
  8
0
 10
10.0266
 20
74.8344
 30
0.0
 40
0.18
 41
0.18
  0
VERTEX
  8
0
 10
10.0004
 20
74.7861
 30
0.0
 40
0.18
 41
0.18
  0
VERTEX
  8
0
 10
10.0004
 20
74.7695
 30
0.0
 40
0.18
 41
0.18
  0
VERTEX
  8
0
 10
10.0004
 20
68.7698
 30
0.0
 40
0.18
 41
0.18
  0
VERTEX
  8
0
 10
10.0004
 20
68.7546
 30
0.0
 40
0.18
 41
0.18
  0
VERTEX
  8
0
 10
10.0266
 20
68.7063
 30
0.0
 40
0.18
 41
0.18
  0
VERTEX
  8
0
 10
10.0735
 20
68.6802
 30
0.0
 40
0.18
 41
0.18
  0
VERTEX
  8
0
 10
10.09
 20
68.6802
 30
0.0
 40
0.18
 41
0.18
  0
VERTEX
  8
0
 10
13.0004
 20
68.6802
 30
0.0
 40
0.18
 41
0.18
  0
VERTEX
  8
0
 10
13.0087
 20
68.6802
 30
0.0
 40
0.18
 41
0.18
  0
VERTEX
  8
0
 10
13.0376
 20
68.694
 30
0.0
 40
0.18
 41
0.18
  0
VERTEX
  8
0
 10
13.0335
 20
68.7144
 30
0.0
 40
0.18
 41
0.18
  0
VERTEX
  8
0
 10
13.0128
 20
68.7186
 30
0.0
 40
0.18
 41
0.18
  0
VERTEX
  8
0
 10
13.0004
 20
68.6897
 30
0.0
 40
0.18
 41
0.18
  0
VERTEX
  8
0
 10
13.0004
 20
68.6802
 30
0.0
 40
0.18
 41
0.18
  0
VERTEX
  8
0
 10
13.0004
 20
62.8608
 30
0.0
 40
0.18
 41
0.18
  0
VERTEX
  8
0
 10
13.0004
 20
62.8523
 30
0.0
 40
0.18
 41
0.18
  0
VERTEX
  8
0
 10
13.0128
 20
62.8234
 30
0.0
 40
0.18
 41
0.18
  0
VERTEX
  8
0
 10
13.0335
 20
62.8276
 30
0.0
 40
0.18
 41
0.18
  0
VERTEX
  8
0
 10
13.0376
 20
62.8481
 30
0.0
 40
0.18
 41
0.18
  0
VERTEX
  8
0
 10
13.0087
 20
62.8608
 30
0.0
 40
0.18
 41
0.18
  0
VERTEX
  8
0
 10
13.0004
 20
62.8608
 30
0.0
 40
0.18
 41
0.18
  0
VERTEX
  8
0
 10
10.09
 20
62.8608
 30
0.0
 40
0.18
 41
0.18
  0
VERTEX
  8
0
 10
10.0735
 20
62.8608
 30
0.0
 40
0.18
 41
0.18
  0
VERTEX
  8
0
 10
10.0266
 20
62.8343
 30
0.0
 40
0.18
 41
0.18
  0
VERTEX
  8
0
 10
10.0004
 20
62.7863
 30
0.0
 40
0.18
 41
0.18
  0
VERTEX
  8
0
 10
10.0004
 20
62.7697
 30
0.0
 40
0.18
 41
0.18
  0
VERTEX
  8
0
 10
10.0004
 20
53.7697
 30
0.0
 40
0.18
 41
0.18
  0
VERTEX
  8
0
 10
10.0004
 20
53.7545
 30
0.0
 40
0.18
 41
0.18
  0
VERTEX
  8
0
 10
10.0266
 20
53.7062
 30
0.0
 40
0.18
 41
0.18
  0
VERTEX
  8
0
 10
10.0735
 20
53.6801
 30
0.0
 40
0.18
 41
0.18
  0
VERTEX
  8
0
 10
10.09
 20
53.6801
 30
0.0
 40
0.18
 41
0.18
  0
VERTEX
  8
0
 10
13.09
 20
53.6801
 30
0.0
 40
0.18
 41
0.18
  0
SEQEND
 8
0
  0
POLYLINE
  8
0
 62
     5
 66
     1
 10
0
 20
0
 30
0.0
 70
     1
 40
0.510236
 41
0.510236
  0
VERTEX
  8
0
 10
16.5006
 20
96.4502
 30
0.0
 40
0.18
 41
0.18
  0
VERTEX
  8
0
 10
16.5006
 20
96.351
 30
0.0
 40
0.18
 41
0.18
  0
VERTEX
  8
0
 10
16.4428
 20
96.0533
 30
0.0
 40
0.18
 41
0.18
  0
VERTEX
  8
0
 10
16.3118
 20
95.746
 30
0.0
 40
0.18
 41
0.18
  0
VERTEX
  8
0
 10
16.276
 20
95.6882
 30
0.0
 40
0.18
 41
0.18
  0
VERTEX
  8
0
 10
16.2388
 20
95.6317
 30
0.0
 40
0.18
 41
0.18
  0
VERTEX
  8
0
 10
16.0128
 20
95.3851
 30
0.0
 40
0.18
 41
0.18
  0
VERTEX
  8
0
 10
15.7358
 20
95.1964
 30
0.0
 40
0.18
 41
0.18
  0
VERTEX
  8
0
 10
15.6752
 20
95.1674
 30
0.0
 40
0.18
 41
0.18
  0
VERTEX
  8
0
 10
15.6132
 20
95.1399
 30
0.0
 40
0.18
 41
0.18
  0
VERTEX
  8
0
 10
15.2907
 20
95.0556
 30
0.0
 40
0.18
 41
0.18
  0
VERTEX
  8
0
 10
14.9558
 20
95.0447
 30
0.0
 40
0.18
 41
0.18
  0
VERTEX
  8
0
 10
14.8897
 20
95.0542
 30
0.0
 40
0.18
 41
0.18
  0
VERTEX
  8
0
 10
14.8222
 20
95.0641
 30
0.0
 40
0.18
 41
0.18
  0
VERTEX
  8
0
 10
14.5039
 20
95.1689
 30
0.0
 40
0.18
 41
0.18
  0
VERTEX
  8
0
 10
14.2172
 20
95.341
 30
0.0
 40
0.18
 41
0.18
  0
VERTEX
  8
0
 10
14.1663
 20
95.3851
 30
0.0
 40
0.18
 41
0.18
  0
VERTEX
  8
0
 10
14.1152
 20
95.4292
 30
0.0
 40
0.18
 41
0.18
  0
VERTEX
  8
0
 10
13.903
 20
95.6882
 30
0.0
 40
0.18
 41
0.18
  0
VERTEX
  8
0
 10
13.7556
 20
95.9887
 30
0.0
 40
0.18
 41
0.18
  0
VERTEX
  8
0
 10
13.7377
 20
96.0533
 30
0.0
 40
0.18
 41
0.18
  0
VERTEX
  8
0
 10
13.7184
 20
96.1182
 30
0.0
 40
0.18
 41
0.18
  0
VERTEX
  8
0
 10
13.6798
 20
96.4502
 30
0.0
 40
0.18
 41
0.18
  0
VERTEX
  8
0
 10
13.7184
 20
96.7825
 30
0.0
 40
0.18
 41
0.18
  0
VERTEX
  8
0
 10
13.7377
 20
96.847
 30
0.0
 40
0.18
 41
0.18
  0
VERTEX
  8
0
 10
13.7556
 20
96.9119
 30
0.0
 40
0.18
 41
0.18
  0
VERTEX
  8
0
 10
13.903
 20
97.2125
 30
0.0
 40
0.18
 41
0.18
  0
VERTEX
  8
0
 10
14.1152
 20
97.4714
 30
0.0
 40
0.18
 41
0.18
  0
VERTEX
  8
0
 10
14.1663
 20
97.5155
 30
0.0
 40
0.18
 41
0.18
  0
VERTEX
  8
0
 10
14.2172
 20
97.561
 30
0.0
 40
0.18
 41
0.18
  0
VERTEX
  8
0
 10
14.5039
 20
97.7332
 30
0.0
 40
0.18
 41
0.18
  0
VERTEX
  8
0
 10
14.8222
 20
97.8366
 30
0.0
 40
0.18
 41
0.18
  0
VERTEX
  8
0
 10
14.8897
 20
97.8461
 30
0.0
 40
0.18
 41
0.18
  0
VERTEX
  8
0
 10
14.9558
 20
97.856
 30
0.0
 40
0.18
 41
0.18
  0
VERTEX
  8
0
 10
15.2907
 20
97.8461
 30
0.0
 40
0.18
 41
0.18
  0
VERTEX
  8
0
 10
15.6132
 20
97.7607
 30
0.0
 40
0.18
 41
0.18
  0
VERTEX
  8
0
 10
15.6752
 20
97.7318
 30
0.0
 40
0.18
 41
0.18
  0
VERTEX
  8
0
 10
15.7358
 20
97.7043
 30
0.0
 40
0.18
 41
0.18
  0
VERTEX
  8
0
 10
16.0128
 20
97.5155
 30
0.0
 40
0.18
 41
0.18
  0
VERTEX
  8
0
 10
16.2388
 20
97.2704
 30
0.0
 40
0.18
 41
0.18
  0
VERTEX
  8
0
 10
16.276
 20
97.2125
 30
0.0
 40
0.18
 41
0.18
  0
VERTEX
  8
0
 10
16.3118
 20
97.1557
 30
0.0
 40
0.18
 41
0.18
  0
VERTEX
  8
0
 10
16.4428
 20
96.8484
 30
0.0
 40
0.18
 41
0.18
  0
VERTEX
  8
0
 10
16.5006
 20
96.551
 30
0.0
 40
0.18
 41
0.18
  0
VERTEX
  8
0
 10
16.5006
 20
96.4502
 30
0.0
 40
0.18
 41
0.18
  0
SEQEND
 8
0
  0
TEXT
  8
0
 62
     1
 10
46.7536
 20
141.056
 30
0.0
 40
4.0005
  1
Bottom
 50
0
  0
POLYLINE
  8
0
 62
     0
 66
     1
 10
0
 20
0
 30
0.0
 70
     1
 40
0.510236
 41
0.510236
  0
VERTEX
  8
0
 10
15.0895
 20
91.3599
 30
0.0
 40
0.18
 41
0.18
  0
VERTEX
  8
0
 10
23.0904
 20
91.3599
 30
0.0
 40
0.18
 41
0.18
  0
VERTEX
  8
0
 10
32.0904
 20
91.3599
 30
0.0
 40
0.18
 41
0.18
  0
VERTEX
  8
0
 10
32.1055
 20
91.3599
 30
0.0
 40
0.18
 41
0.18
  0
VERTEX
  8
0
 10
32.1538
 20
91.386
 30
0.0
 40
0.18
 41
0.18
  0
VERTEX
  8
0
 10
32.18
 20
91.4344
 30
0.0
 40
0.18
 41
0.18
  0
VERTEX
  8
0
 10
32.18
 20
91.4495
 30
0.0
 40
0.18
 41
0.18
  0
VERTEX
  8
0
 10
32.18
 20
94.3599
 30
0.0
 40
0.18
 41
0.18
  0
VERTEX
  8
0
 10
32.18
 20
94.3695
 30
0.0
 40
0.18
 41
0.18
  0
VERTEX
  8
0
 10
32.1662
 20
94.3984
 30
0.0
 40
0.18
 41
0.18
  0
VERTEX
  8
0
 10
32.1455
 20
94.3942
 30
0.0
 40
0.18
 41
0.18
  0
VERTEX
  8
0
 10
32.1414
 20
94.3737
 30
0.0
 40
0.18
 41
0.18
  0
VERTEX
  8
0
 10
32.1703
 20
94.3599
 30
0.0
 40
0.18
 41
0.18
  0
VERTEX
  8
0
 10
32.18
 20
94.3599
 30
0.0
 40
0.18
 41
0.18
  0
VERTEX
  8
0
 10
38.0009
 20
94.3599
 30
0.0
 40
0.18
 41
0.18
  0
VERTEX
  8
0
 10
38.009
 20
94.3599
 30
0.0
 40
0.18
 41
0.18
  0
VERTEX
  8
0
 10
38.0379
 20
94.3737
 30
0.0
 40
0.18
 41
0.18
  0
VERTEX
  8
0
 10
38.034
 20
94.3942
 30
0.0
 40
0.18
 41
0.18
  0
VERTEX
  8
0
 10
38.0132
 20
94.3984
 30
0.0
 40
0.18
 41
0.18
  0
VERTEX
  8
0
 10
38.0009
 20
94.3695
 30
0.0
 40
0.18
 41
0.18
  0
VERTEX
  8
0
 10
38.0009
 20
94.3599
 30
0.0
 40
0.18
 41
0.18
  0
VERTEX
  8
0
 10
38.0009
 20
91.4495
 30
0.0
 40
0.18
 41
0.18
  0
VERTEX
  8
0
 10
38.0009
 20
91.4344
 30
0.0
 40
0.18
 41
0.18
  0
VERTEX
  8
0
 10
38.027
 20
91.386
 30
0.0
 40
0.18
 41
0.18
  0
VERTEX
  8
0
 10
38.0739
 20
91.3599
 30
0.0
 40
0.18
 41
0.18
  0
VERTEX
  8
0
 10
38.0905
 20
91.3599
 30
0.0
 40
0.18
 41
0.18
  0
VERTEX
  8
0
 10
44.0902
 20
91.3599
 30
0.0
 40
0.18
 41
0.18
  0
VERTEX
  8
0
 10
44.1053
 20
91.3599
 30
0.0
 40
0.18
 41
0.18
  0
VERTEX
  8
0
 10
44.1537
 20
91.386
 30
0.0
 40
0.18
 41
0.18
  0
VERTEX
  8
0
 10
44.1798
 20
91.4344
 30
0.0
 40
0.18
 41
0.18
  0
VERTEX
  8
0
 10
44.1798
 20
91.4495
 30
0.0
 40
0.18
 41
0.18
  0
VERTEX
  8
0
 10
44.1798
 20
94.3599
 30
0.0
 40
0.18
 41
0.18
  0
VERTEX
  8
0
 10
44.1798
 20
94.3695
 30
0.0
 40
0.18
 41
0.18
  0
VERTEX
  8
0
 10
44.166
 20
94.3984
 30
0.0
 40
0.18
 41
0.18
  0
VERTEX
  8
0
 10
44.1456
 20
94.3942
 30
0.0
 40
0.18
 41
0.18
  0
VERTEX
  8
0
 10
44.1413
 20
94.3737
 30
0.0
 40
0.18
 41
0.18
  0
VERTEX
  8
0
 10
44.1702
 20
94.3599
 30
0.0
 40
0.18
 41
0.18
  0
VERTEX
  8
0
 10
44.1798
 20
94.3599
 30
0.0
 40
0.18
 41
0.18
  0
VERTEX
  8
0
 10
49.9992
 20
94.3599
 30
0.0
 40
0.18
 41
0.18
  0
VERTEX
  8
0
 10
50.0077
 20
94.3599
 30
0.0
 40
0.18
 41
0.18
  0
VERTEX
  8
0
 10
50.0366
 20
94.3737
 30
0.0
 40
0.18
 41
0.18
  0
VERTEX
  8
0
 10
50.0324
 20
94.3942
 30
0.0
 40
0.18
 41
0.18
  0
VERTEX
  8
0
 10
50.0119
 20
94.3984
 30
0.0
 40
0.18
 41
0.18
  0
VERTEX
  8
0
 10
49.9992
 20
94.3695
 30
0.0
 40
0.18
 41
0.18
  0
VERTEX
  8
0
 10
49.9992
 20
94.3599
 30
0.0
 40
0.18
 41
0.18
  0
VERTEX
  8
0
 10
49.9992
 20
91.4495
 30
0.0
 40
0.18
 41
0.18
  0
VERTEX
  8
0
 10
49.9992
 20
91.4344
 30
0.0
 40
0.18
 41
0.18
  0
VERTEX
  8
0
 10
50.0257
 20
91.386
 30
0.0
 40
0.18
 41
0.18
  0
VERTEX
  8
0
 10
50.0736
 20
91.3599
 30
0.0
 40
0.18
 41
0.18
  0
VERTEX
  8
0
 10
50.0902
 20
91.3599
 30
0.0
 40
0.18
 41
0.18
  0
VERTEX
  8
0
 10
56.0903
 20
91.3599
 30
0.0
 40
0.18
 41
0.18
  0
VERTEX
  8
0
 10
56.1054
 20
91.3599
 30
0.0
 40
0.18
 41
0.18
  0
VERTEX
  8
0
 10
56.1538
 20
91.386
 30
0.0
 40
0.18
 41
0.18
  0
VERTEX
  8
0
 10
56.1799
 20
91.4344
 30
0.0
 40
0.18
 41
0.18
  0
VERTEX
  8
0
 10
56.1799
 20
91.4495
 30
0.0
 40
0.18
 41
0.18
  0
VERTEX
  8
0
 10
56.1799
 20
94.3599
 30
0.0
 40
0.18
 41
0.18
  0
VERTEX
  8
0
 10
56.1799
 20
94.3695
 30
0.0
 40
0.18
 41
0.18
  0
VERTEX
  8
0
 10
56.1661
 20
94.3984
 30
0.0
 40
0.18
 41
0.18
  0
VERTEX
  8
0
 10
56.1453
 20
94.3942
 30
0.0
 40
0.18
 41
0.18
  0
VERTEX
  8
0
 10
56.1414
 20
94.3737
 30
0.0
 40
0.18
 41
0.18
  0
VERTEX
  8
0
 10
56.1703
 20
94.3599
 30
0.0
 40
0.18
 41
0.18
  0
VERTEX
  8
0
 10
56.1799
 20
94.3599
 30
0.0
 40
0.18
 41
0.18
  0
VERTEX
  8
0
 10
61.9993
 20
94.3599
 30
0.0
 40
0.18
 41
0.18
  0
VERTEX
  8
0
 10
62.0078
 20
94.3599
 30
0.0
 40
0.18
 41
0.18
  0
VERTEX
  8
0
 10
62.0367
 20
94.3737
 30
0.0
 40
0.18
 41
0.18
  0
VERTEX
  8
0
 10
62.0324
 20
94.3942
 30
0.0
 40
0.18
 41
0.18
  0
VERTEX
  8
0
 10
62.0116
 20
94.3984
 30
0.0
 40
0.18
 41
0.18
  0
VERTEX
  8
0
 10
61.9993
 20
94.3695
 30
0.0
 40
0.18
 41
0.18
  0
VERTEX
  8
0
 10
61.9993
 20
94.3599
 30
0.0
 40
0.18
 41
0.18
  0
VERTEX
  8
0
 10
61.9993
 20
91.4495
 30
0.0
 40
0.18
 41
0.18
  0
VERTEX
  8
0
 10
61.9993
 20
91.4344
 30
0.0
 40
0.18
 41
0.18
  0
VERTEX
  8
0
 10
62.0254
 20
91.386
 30
0.0
 40
0.18
 41
0.18
  0
VERTEX
  8
0
 10
62.0737
 20
91.3599
 30
0.0
 40
0.18
 41
0.18
  0
VERTEX
  8
0
 10
62.0903
 20
91.3599
 30
0.0
 40
0.18
 41
0.18
  0
VERTEX
  8
0
 10
68.0903
 20
91.3599
 30
0.0
 40
0.18
 41
0.18
  0
VERTEX
  8
0
 10
68.1055
 20
91.3599
 30
0.0
 40
0.18
 41
0.18
  0
VERTEX
  8
0
 10
68.1535
 20
91.386
 30
0.0
 40
0.18
 41
0.18
  0
VERTEX
  8
0
 10
68.18
 20
91.4344
 30
0.0
 40
0.18
 41
0.18
  0
VERTEX
  8
0
 10
68.18
 20
91.4495
 30
0.0
 40
0.18
 41
0.18
  0
VERTEX
  8
0
 10
68.18
 20
94.3599
 30
0.0
 40
0.18
 41
0.18
  0
VERTEX
  8
0
 10
68.18
 20
94.3695
 30
0.0
 40
0.18
 41
0.18
  0
VERTEX
  8
0
 10
68.1662
 20
94.3984
 30
0.0
 40
0.18
 41
0.18
  0
VERTEX
  8
0
 10
68.1454
 20
94.3942
 30
0.0
 40
0.18
 41
0.18
  0
VERTEX
  8
0
 10
68.1411
 20
94.3737
 30
0.0
 40
0.18
 41
0.18
  0
VERTEX
  8
0
 10
68.1701
 20
94.3599
 30
0.0
 40
0.18
 41
0.18
  0
VERTEX
  8
0
 10
68.18
 20
94.3599
 30
0.0
 40
0.18
 41
0.18
  0
VERTEX
  8
0
 10
74.0008
 20
94.3599
 30
0.0
 40
0.18
 41
0.18
  0
VERTEX
  8
0
 10
74.0089
 20
94.3599
 30
0.0
 40
0.18
 41
0.18
  0
VERTEX
  8
0
 10
74.0378
 20
94.3737
 30
0.0
 40
0.18
 41
0.18
  0
VERTEX
  8
0
 10
74.0336
 20
94.3942
 30
0.0
 40
0.18
 41
0.18
  0
VERTEX
  8
0
 10
74.0131
 20
94.3984
 30
0.0
 40
0.18
 41
0.18
  0
VERTEX
  8
0
 10
74.0008
 20
94.3695
 30
0.0
 40
0.18
 41
0.18
  0
VERTEX
  8
0
 10
74.0008
 20
94.3599
 30
0.0
 40
0.18
 41
0.18
  0
VERTEX
  8
0
 10
74.0008
 20
91.4495
 30
0.0
 40
0.18
 41
0.18
  0
VERTEX
  8
0
 10
74.0008
 20
91.4344
 30
0.0
 40
0.18
 41
0.18
  0
VERTEX
  8
0
 10
74.0269
 20
91.386
 30
0.0
 40
0.18
 41
0.18
  0
VERTEX
  8
0
 10
74.0738
 20
91.3599
 30
0.0
 40
0.18
 41
0.18
  0
VERTEX
  8
0
 10
74.0904
 20
91.3599
 30
0.0
 40
0.18
 41
0.18
  0
VERTEX
  8
0
 10
83.0901
 20
91.3599
 30
0.0
 40
0.18
 41
0.18
  0
VERTEX
  8
0
 10
91.0897
 20
91.3599
 30
0.0
 40
0.18
 41
0.18
  0
VERTEX
  8
0
 10
91.2551
 20
91.3599
 30
0.0
 40
0.18
 41
0.18
  0
VERTEX
  8
0
 10
91.7554
 20
91.404
 30
0.0
 40
0.18
 41
0.18
  0
VERTEX
  8
0
 10
92.407
 20
91.5335
 30
0.0
 40
0.18
 41
0.18
  0
VERTEX
  8
0
 10
93.037
 20
91.7469
 30
0.0
 40
0.18
 41
0.18
  0
VERTEX
  8
0
 10
93.4903
 20
91.9593
 30
0.0
 40
0.18
 41
0.18
  0
VERTEX
  8
0
 10
93.635
 20
92.0418
 30
0.0
 40
0.18
 41
0.18
  0
VERTEX
  8
0
 10
93.7782
 20
92.1261
 30
0.0
 40
0.18
 41
0.18
  0
VERTEX
  8
0
 10
94.1888
 20
92.4126
 30
0.0
 40
0.18
 41
0.18
  0
VERTEX
  8
0
 10
94.6877
 20
92.8508
 30
0.0
 40
0.18
 41
0.18
  0
VERTEX
  8
0
 10
95.1258
 20
93.351
 30
0.0
 40
0.18
 41
0.18
  0
VERTEX
  8
0
 10
95.414
 20
93.7616
 30
0.0
 40
0.18
 41
0.18
  0
VERTEX
  8
0
 10
95.498
 20
93.9052
 30
0.0
 40
0.18
 41
0.18
  0
VERTEX
  8
0
 10
95.5809
 20
94.0498
 30
0.0
 40
0.18
 41
0.18
  0
VERTEX
  8
0
 10
95.7929
 20
94.5046
 30
0.0
 40
0.18
 41
0.18
  0
VERTEX
  8
0
 10
96.0067
 20
95.1329
 30
0.0
 40
0.18
 41
0.18
  0
VERTEX
  8
0
 10
96.1362
 20
95.7848
 30
0.0
 40
0.18
 41
0.18
  0
VERTEX
  8
0
 10
96.1803
 20
96.285
 30
0.0
 40
0.18
 41
0.18
  0
VERTEX
  8
0
 10
96.1803
 20
96.4502
 30
0.0
 40
0.18
 41
0.18
  0
VERTEX
  8
0
 10
96.1803
 20
187.45
 30
0.0
 40
0.18
 41
0.18
  0
VERTEX
  8
0
 10
96.1803
 20
187.617
 30
0.0
 40
0.18
 41
0.18
  0
VERTEX
  8
0
 10
96.1362
 20
188.116
 30
0.0
 40
0.18
 41
0.18
  0
VERTEX
  8
0
 10
96.0067
 20
188.768
 30
0.0
 40
0.18
 41
0.18
  0
VERTEX
  8
0
 10
95.7929
 20
189.398
 30
0.0
 40
0.18
 41
0.18
  0
VERTEX
  8
0
 10
95.5809
 20
189.852
 30
0.0
 40
0.18
 41
0.18
  0
VERTEX
  8
0
 10
95.498
 20
189.996
 30
0.0
 40
0.18
 41
0.18
  0
VERTEX
  8
0
 10
95.414
 20
190.14
 30
0.0
 40
0.18
 41
0.18
  0
VERTEX
  8
0
 10
95.1258
 20
190.551
 30
0.0
 40
0.18
 41
0.18
  0
VERTEX
  8
0
 10
94.6877
 20
191.05
 30
0.0
 40
0.18
 41
0.18
  0
VERTEX
  8
0
 10
94.1888
 20
191.488
 30
0.0
 40
0.18
 41
0.18
  0
VERTEX
  8
0
 10
93.7782
 20
191.776
 30
0.0
 40
0.18
 41
0.18
  0
VERTEX
  8
0
 10
93.635
 20
191.859
 30
0.0
 40
0.18
 41
0.18
  0
VERTEX
  8
0
 10
93.4903
 20
191.943
 30
0.0
 40
0.18
 41
0.18
  0
VERTEX
  8
0
 10
93.037
 20
192.154
 30
0.0
 40
0.18
 41
0.18
  0
VERTEX
  8
0
 10
92.407
 20
192.367
 30
0.0
 40
0.18
 41
0.18
  0
VERTEX
  8
0
 10
91.7554
 20
192.497
 30
0.0
 40
0.18
 41
0.18
  0
VERTEX
  8
0
 10
91.2551
 20
192.539
 30
0.0
 40
0.18
 41
0.18
  0
VERTEX
  8
0
 10
91.0897
 20
192.539
 30
0.0
 40
0.18
 41
0.18
  0
VERTEX
  8
0
 10
83.0901
 20
192.539
 30
0.0
 40
0.18
 41
0.18
  0
VERTEX
  8
0
 10
74.0904
 20
192.539
 30
0.0
 40
0.18
 41
0.18
  0
VERTEX
  8
0
 10
74.0738
 20
192.539
 30
0.0
 40
0.18
 41
0.18
  0
VERTEX
  8
0
 10
74.0269
 20
192.513
 30
0.0
 40
0.18
 41
0.18
  0
VERTEX
  8
0
 10
74.0008
 20
192.466
 30
0.0
 40
0.18
 41
0.18
  0
VERTEX
  8
0
 10
74.0008
 20
192.45
 30
0.0
 40
0.18
 41
0.18
  0
VERTEX
  8
0
 10
74.0008
 20
189.539
 30
0.0
 40
0.18
 41
0.18
  0
VERTEX
  8
0
 10
74.0008
 20
189.531
 30
0.0
 40
0.18
 41
0.18
  0
VERTEX
  8
0
 10
74.0131
 20
189.502
 30
0.0
 40
0.18
 41
0.18
  0
VERTEX
  8
0
 10
74.0336
 20
189.507
 30
0.0
 40
0.18
 41
0.18
  0
VERTEX
  8
0
 10
74.0378
 20
189.527
 30
0.0
 40
0.18
 41
0.18
  0
VERTEX
  8
0
 10
74.0089
 20
189.539
 30
0.0
 40
0.18
 41
0.18
  0
VERTEX
  8
0
 10
74.0008
 20
189.539
 30
0.0
 40
0.18
 41
0.18
  0
VERTEX
  8
0
 10
68.18
 20
189.539
 30
0.0
 40
0.18
 41
0.18
  0
VERTEX
  8
0
 10
68.1701
 20
189.539
 30
0.0
 40
0.18
 41
0.18
  0
VERTEX
  8
0
 10
68.1411
 20
189.527
 30
0.0
 40
0.18
 41
0.18
  0
VERTEX
  8
0
 10
68.1454
 20
189.507
 30
0.0
 40
0.18
 41
0.18
  0
VERTEX
  8
0
 10
68.1662
 20
189.502
 30
0.0
 40
0.18
 41
0.18
  0
VERTEX
  8
0
 10
68.18
 20
189.531
 30
0.0
 40
0.18
 41
0.18
  0
VERTEX
  8
0
 10
68.18
 20
189.539
 30
0.0
 40
0.18
 41
0.18
  0
VERTEX
  8
0
 10
68.18
 20
192.45
 30
0.0
 40
0.18
 41
0.18
  0
VERTEX
  8
0
 10
68.18
 20
192.466
 30
0.0
 40
0.18
 41
0.18
  0
VERTEX
  8
0
 10
68.1535
 20
192.513
 30
0.0
 40
0.18
 41
0.18
  0
VERTEX
  8
0
 10
68.1055
 20
192.539
 30
0.0
 40
0.18
 41
0.18
  0
VERTEX
  8
0
 10
68.0903
 20
192.539
 30
0.0
 40
0.18
 41
0.18
  0
VERTEX
  8
0
 10
62.0903
 20
192.539
 30
0.0
 40
0.18
 41
0.18
  0
VERTEX
  8
0
 10
62.0737
 20
192.539
 30
0.0
 40
0.18
 41
0.18
  0
VERTEX
  8
0
 10
62.0254
 20
192.513
 30
0.0
 40
0.18
 41
0.18
  0
VERTEX
  8
0
 10
61.9993
 20
192.466
 30
0.0
 40
0.18
 41
0.18
  0
VERTEX
  8
0
 10
61.9993
 20
192.45
 30
0.0
 40
0.18
 41
0.18
  0
VERTEX
  8
0
 10
61.9993
 20
189.539
 30
0.0
 40
0.18
 41
0.18
  0
VERTEX
  8
0
 10
61.9993
 20
189.531
 30
0.0
 40
0.18
 41
0.18
  0
VERTEX
  8
0
 10
62.0116
 20
189.502
 30
0.0
 40
0.18
 41
0.18
  0
VERTEX
  8
0
 10
62.0324
 20
189.507
 30
0.0
 40
0.18
 41
0.18
  0
VERTEX
  8
0
 10
62.0367
 20
189.527
 30
0.0
 40
0.18
 41
0.18
  0
VERTEX
  8
0
 10
62.0078
 20
189.539
 30
0.0
 40
0.18
 41
0.18
  0
VERTEX
  8
0
 10
61.9993
 20
189.539
 30
0.0
 40
0.18
 41
0.18
  0
VERTEX
  8
0
 10
56.1799
 20
189.539
 30
0.0
 40
0.18
 41
0.18
  0
VERTEX
  8
0
 10
56.1703
 20
189.539
 30
0.0
 40
0.18
 41
0.18
  0
VERTEX
  8
0
 10
56.1414
 20
189.527
 30
0.0
 40
0.18
 41
0.18
  0
VERTEX
  8
0
 10
56.1453
 20
189.507
 30
0.0
 40
0.18
 41
0.18
  0
VERTEX
  8
0
 10
56.1661
 20
189.502
 30
0.0
 40
0.18
 41
0.18
  0
VERTEX
  8
0
 10
56.1799
 20
189.531
 30
0.0
 40
0.18
 41
0.18
  0
VERTEX
  8
0
 10
56.1799
 20
189.539
 30
0.0
 40
0.18
 41
0.18
  0
VERTEX
  8
0
 10
56.1799
 20
192.45
 30
0.0
 40
0.18
 41
0.18
  0
VERTEX
  8
0
 10
56.1799
 20
192.466
 30
0.0
 40
0.18
 41
0.18
  0
VERTEX
  8
0
 10
56.1538
 20
192.513
 30
0.0
 40
0.18
 41
0.18
  0
VERTEX
  8
0
 10
56.1054
 20
192.539
 30
0.0
 40
0.18
 41
0.18
  0
VERTEX
  8
0
 10
56.0903
 20
192.539
 30
0.0
 40
0.18
 41
0.18
  0
VERTEX
  8
0
 10
50.0902
 20
192.539
 30
0.0
 40
0.18
 41
0.18
  0
VERTEX
  8
0
 10
50.0736
 20
192.539
 30
0.0
 40
0.18
 41
0.18
  0
VERTEX
  8
0
 10
50.0257
 20
192.513
 30
0.0
 40
0.18
 41
0.18
  0
VERTEX
  8
0
 10
49.9992
 20
192.466
 30
0.0
 40
0.18
 41
0.18
  0
VERTEX
  8
0
 10
49.9992
 20
192.45
 30
0.0
 40
0.18
 41
0.18
  0
VERTEX
  8
0
 10
49.9992
 20
189.539
 30
0.0
 40
0.18
 41
0.18
  0
VERTEX
  8
0
 10
49.9992
 20
189.531
 30
0.0
 40
0.18
 41
0.18
  0
VERTEX
  8
0
 10
50.0119
 20
189.502
 30
0.0
 40
0.18
 41
0.18
  0
VERTEX
  8
0
 10
50.0324
 20
189.507
 30
0.0
 40
0.18
 41
0.18
  0
VERTEX
  8
0
 10
50.0366
 20
189.527
 30
0.0
 40
0.18
 41
0.18
  0
VERTEX
  8
0
 10
50.0077
 20
189.539
 30
0.0
 40
0.18
 41
0.18
  0
VERTEX
  8
0
 10
49.9992
 20
189.539
 30
0.0
 40
0.18
 41
0.18
  0
VERTEX
  8
0
 10
44.1798
 20
189.539
 30
0.0
 40
0.18
 41
0.18
  0
VERTEX
  8
0
 10
44.1702
 20
189.539
 30
0.0
 40
0.18
 41
0.18
  0
VERTEX
  8
0
 10
44.1413
 20
189.527
 30
0.0
 40
0.18
 41
0.18
  0
VERTEX
  8
0
 10
44.1456
 20
189.507
 30
0.0
 40
0.18
 41
0.18
  0
VERTEX
  8
0
 10
44.166
 20
189.502
 30
0.0
 40
0.18
 41
0.18
  0
VERTEX
  8
0
 10
44.1798
 20
189.531
 30
0.0
 40
0.18
 41
0.18
  0
VERTEX
  8
0
 10
44.1798
 20
189.539
 30
0.0
 40
0.18
 41
0.18
  0
VERTEX
  8
0
 10
44.1798
 20
192.45
 30
0.0
 40
0.18
 41
0.18
  0
VERTEX
  8
0
 10
44.1798
 20
192.466
 30
0.0
 40
0.18
 41
0.18
  0
VERTEX
  8
0
 10
44.1537
 20
192.513
 30
0.0
 40
0.18
 41
0.18
  0
VERTEX
  8
0
 10
44.1053
 20
192.539
 30
0.0
 40
0.18
 41
0.18
  0
VERTEX
  8
0
 10
44.0902
 20
192.539
 30
0.0
 40
0.18
 41
0.18
  0
VERTEX
  8
0
 10
38.0905
 20
192.539
 30
0.0
 40
0.18
 41
0.18
  0
VERTEX
  8
0
 10
38.0739
 20
192.539
 30
0.0
 40
0.18
 41
0.18
  0
VERTEX
  8
0
 10
38.027
 20
192.513
 30
0.0
 40
0.18
 41
0.18
  0
VERTEX
  8
0
 10
38.0009
 20
192.466
 30
0.0
 40
0.18
 41
0.18
  0
VERTEX
  8
0
 10
38.0009
 20
192.45
 30
0.0
 40
0.18
 41
0.18
  0
VERTEX
  8
0
 10
38.0009
 20
189.539
 30
0.0
 40
0.18
 41
0.18
  0
VERTEX
  8
0
 10
38.0009
 20
189.531
 30
0.0
 40
0.18
 41
0.18
  0
VERTEX
  8
0
 10
38.0132
 20
189.502
 30
0.0
 40
0.18
 41
0.18
  0
VERTEX
  8
0
 10
38.034
 20
189.507
 30
0.0
 40
0.18
 41
0.18
  0
VERTEX
  8
0
 10
38.0379
 20
189.527
 30
0.0
 40
0.18
 41
0.18
  0
VERTEX
  8
0
 10
38.009
 20
189.539
 30
0.0
 40
0.18
 41
0.18
  0
VERTEX
  8
0
 10
38.0009
 20
189.539
 30
0.0
 40
0.18
 41
0.18
  0
VERTEX
  8
0
 10
32.18
 20
189.539
 30
0.0
 40
0.18
 41
0.18
  0
VERTEX
  8
0
 10
32.1703
 20
189.539
 30
0.0
 40
0.18
 41
0.18
  0
VERTEX
  8
0
 10
32.1414
 20
189.527
 30
0.0
 40
0.18
 41
0.18
  0
VERTEX
  8
0
 10
32.1455
 20
189.507
 30
0.0
 40
0.18
 41
0.18
  0
VERTEX
  8
0
 10
32.1662
 20
189.502
 30
0.0
 40
0.18
 41
0.18
  0
VERTEX
  8
0
 10
32.18
 20
189.531
 30
0.0
 40
0.18
 41
0.18
  0
VERTEX
  8
0
 10
32.18
 20
189.539
 30
0.0
 40
0.18
 41
0.18
  0
VERTEX
  8
0
 10
32.18
 20
192.45
 30
0.0
 40
0.18
 41
0.18
  0
VERTEX
  8
0
 10
32.18
 20
192.466
 30
0.0
 40
0.18
 41
0.18
  0
VERTEX
  8
0
 10
32.1538
 20
192.513
 30
0.0
 40
0.18
 41
0.18
  0
VERTEX
  8
0
 10
32.1055
 20
192.539
 30
0.0
 40
0.18
 41
0.18
  0
VERTEX
  8
0
 10
32.0904
 20
192.539
 30
0.0
 40
0.18
 41
0.18
  0
VERTEX
  8
0
 10
23.0904
 20
192.539
 30
0.0
 40
0.18
 41
0.18
  0
VERTEX
  8
0
 10
15.0895
 20
192.539
 30
0.0
 40
0.18
 41
0.18
  0
VERTEX
  8
0
 10
14.9228
 20
192.539
 30
0.0
 40
0.18
 41
0.18
  0
VERTEX
  8
0
 10
14.4239
 20
192.497
 30
0.0
 40
0.18
 41
0.18
  0
VERTEX
  8
0
 10
13.7721
 20
192.367
 30
0.0
 40
0.18
 41
0.18
  0
VERTEX
  8
0
 10
13.1423
 20
192.154
 30
0.0
 40
0.18
 41
0.18
  0
VERTEX
  8
0
 10
12.689
 20
191.943
 30
0.0
 40
0.18
 41
0.18
  0
VERTEX
  8
0
 10
12.5457
 20
191.859
 30
0.0
 40
0.18
 41
0.18
  0
VERTEX
  8
0
 10
12.401
 20
191.776
 30
0.0
 40
0.18
 41
0.18
  0
VERTEX
  8
0
 10
11.9903
 20
191.488
 30
0.0
 40
0.18
 41
0.18
  0
VERTEX
  8
0
 10
11.4901
 20
191.05
 30
0.0
 40
0.18
 41
0.18
  0
VERTEX
  8
0
 10
11.0519
 20
190.551
 30
0.0
 40
0.18
 41
0.18
  0
VERTEX
  8
0
 10
10.7638
 20
190.14
 30
0.0
 40
0.18
 41
0.18
  0
VERTEX
  8
0
 10
10.6812
 20
189.996
 30
0.0
 40
0.18
 41
0.18
  0
VERTEX
  8
0
 10
10.5971
 20
189.852
 30
0.0
 40
0.18
 41
0.18
  0
VERTEX
  8
0
 10
10.3863
 20
189.398
 30
0.0
 40
0.18
 41
0.18
  0
VERTEX
  8
0
 10
10.1727
 20
188.768
 30
0.0
 40
0.18
 41
0.18
  0
VERTEX
  8
0
 10
10.0432
 20
188.116
 30
0.0
 40
0.18
 41
0.18
  0
VERTEX
  8
0
 10
10.0004
 20
187.617
 30
0.0
 40
0.18
 41
0.18
  0
VERTEX
  8
0
 10
10.0004
 20
187.45
 30
0.0
 40
0.18
 41
0.18
  0
VERTEX
  8
0
 10
10.0004
 20
96.4502
 30
0.0
 40
0.18
 41
0.18
  0
VERTEX
  8
0
 10
10.0004
 20
96.285
 30
0.0
 40
0.18
 41
0.18
  0
VERTEX
  8
0
 10
10.0432
 20
95.7848
 30
0.0
 40
0.18
 41
0.18
  0
VERTEX
  8
0
 10
10.1727
 20
95.1329
 30
0.0
 40
0.18
 41
0.18
  0
VERTEX
  8
0
 10
10.3863
 20
94.5046
 30
0.0
 40
0.18
 41
0.18
  0
VERTEX
  8
0
 10
10.5971
 20
94.0498
 30
0.0
 40
0.18
 41
0.18
  0
VERTEX
  8
0
 10
10.6812
 20
93.9052
 30
0.0
 40
0.18
 41
0.18
  0
VERTEX
  8
0
 10
10.7638
 20
93.7616
 30
0.0
 40
0.18
 41
0.18
  0
VERTEX
  8
0
 10
11.0519
 20
93.351
 30
0.0
 40
0.18
 41
0.18
  0
VERTEX
  8
0
 10
11.4901
 20
92.8508
 30
0.0
 40
0.18
 41
0.18
  0
VERTEX
  8
0
 10
11.9903
 20
92.4126
 30
0.0
 40
0.18
 41
0.18
  0
VERTEX
  8
0
 10
12.401
 20
92.1261
 30
0.0
 40
0.18
 41
0.18
  0
VERTEX
  8
0
 10
12.5457
 20
92.0418
 30
0.0
 40
0.18
 41
0.18
  0
VERTEX
  8
0
 10
12.689
 20
91.9593
 30
0.0
 40
0.18
 41
0.18
  0
VERTEX
  8
0
 10
13.1423
 20
91.7469
 30
0.0
 40
0.18
 41
0.18
  0
VERTEX
  8
0
 10
13.7721
 20
91.5335
 30
0.0
 40
0.18
 41
0.18
  0
VERTEX
  8
0
 10
14.4239
 20
91.404
 30
0.0
 40
0.18
 41
0.18
  0
VERTEX
  8
0
 10
14.9228
 20
91.3599
 30
0.0
 40
0.18
 41
0.18
  0
VERTEX
  8
0
 10
15.0895
 20
91.3599
 30
0.0
 40
0.18
 41
0.18
  0
SEQEND
 8
0
  0
POLYLINE
  8
0
 62
     5
 66
     1
 10
0
 20
0
 30
0.0
 70
     1
 40
0.510236
 41
0.510236
  0
VERTEX
  8
0
 10
91.0897
 20
97.8599
 30
0.0
 40
0.18
 41
0.18
  0
VERTEX
  8
0
 10
91.1888
 20
97.8599
 30
0.0
 40
0.18
 41
0.18
  0
VERTEX
  8
0
 10
91.4866
 20
97.8034
 30
0.0
 40
0.18
 41
0.18
  0
VERTEX
  8
0
 10
91.7938
 20
97.6739
 30
0.0
 40
0.18
 41
0.18
  0
VERTEX
  8
0
 10
91.8517
 20
97.6369
 30
0.0
 40
0.18
 41
0.18
  0
VERTEX
  8
0
 10
91.9081
 20
97.6009
 30
0.0
 40
0.18
 41
0.18
  0
VERTEX
  8
0
 10
92.1551
 20
97.3737
 30
0.0
 40
0.18
 41
0.18
  0
VERTEX
  8
0
 10
92.3438
 20
97.0979
 30
0.0
 40
0.18
 41
0.18
  0
VERTEX
  8
0
 10
92.3727
 20
97.0361
 30
0.0
 40
0.18
 41
0.18
  0
VERTEX
  8
0
 10
92.4003
 20
96.9754
 30
0.0
 40
0.18
 41
0.18
  0
VERTEX
  8
0
 10
92.4842
 20
96.6516
 30
0.0
 40
0.18
 41
0.18
  0
VERTEX
  8
0
 10
92.4952
 20
96.3165
 30
0.0
 40
0.18
 41
0.18
  0
VERTEX
  8
0
 10
92.4856
 20
96.2491
 30
0.0
 40
0.18
 41
0.18
  0
VERTEX
  8
0
 10
92.4761
 20
96.1831
 30
0.0
 40
0.18
 41
0.18
  0
VERTEX
  8
0
 10
92.3713
 20
95.8645
 30
0.0
 40
0.18
 41
0.18
  0
VERTEX
  8
0
 10
92.1992
 20
95.5781
 30
0.0
 40
0.18
 41
0.18
  0
VERTEX
  8
0
 10
92.1551
 20
95.5269
 30
0.0
 40
0.18
 41
0.18
  0
VERTEX
  8
0
 10
92.111
 20
95.4761
 30
0.0
 40
0.18
 41
0.18
  0
VERTEX
  8
0
 10
91.8517
 20
95.2638
 30
0.0
 40
0.18
 41
0.18
  0
VERTEX
  8
0
 10
91.5529
 20
95.1163
 30
0.0
 40
0.18
 41
0.18
  0
VERTEX
  8
0
 10
91.488
 20
95.0969
 30
0.0
 40
0.18
 41
0.18
  0
VERTEX
  8
0
 10
91.4217
 20
95.0793
 30
0.0
 40
0.18
 41
0.18
  0
VERTEX
  8
0
 10
91.0897
 20
95.0405
 30
0.0
 40
0.18
 41
0.18
  0
VERTEX
  8
0
 10
90.7577
 20
95.0793
 30
0.0
 40
0.18
 41
0.18
  0
VERTEX
  8
0
 10
90.6928
 20
95.0969
 30
0.0
 40
0.18
 41
0.18
  0
VERTEX
  8
0
 10
90.6279
 20
95.1163
 30
0.0
 40
0.18
 41
0.18
  0
VERTEX
  8
0
 10
90.3277
 20
95.2638
 30
0.0
 40
0.18
 41
0.18
  0
VERTEX
  8
0
 10
90.0688
 20
95.4761
 30
0.0
 40
0.18
 41
0.18
  0
VERTEX
  8
0
 10
90.0247
 20
95.5269
 30
0.0
 40
0.18
 41
0.18
  0
VERTEX
  8
0
 10
89.9791
 20
95.5781
 30
0.0
 40
0.18
 41
0.18
  0
VERTEX
  8
0
 10
89.8066
 20
95.8645
 30
0.0
 40
0.18
 41
0.18
  0
VERTEX
  8
0
 10
89.7033
 20
96.1831
 30
0.0
 40
0.18
 41
0.18
  0
VERTEX
  8
0
 10
89.6952
 20
96.2491
 30
0.0
 40
0.18
 41
0.18
  0
VERTEX
  8
0
 10
89.6856
 20
96.3165
 30
0.0
 40
0.18
 41
0.18
  0
VERTEX
  8
0
 10
89.6938
 20
96.6516
 30
0.0
 40
0.18
 41
0.18
  0
VERTEX
  8
0
 10
89.7777
 20
96.9754
 30
0.0
 40
0.18
 41
0.18
  0
VERTEX
  8
0
 10
89.8066
 20
97.0361
 30
0.0
 40
0.18
 41
0.18
  0
VERTEX
  8
0
 10
89.8342
 20
97.0979
 30
0.0
 40
0.18
 41
0.18
  0
VERTEX
  8
0
 10
90.0232
 20
97.3737
 30
0.0
 40
0.18
 41
0.18
  0
VERTEX
  8
0
 10
90.2698
 20
97.6009
 30
0.0
 40
0.18
 41
0.18
  0
VERTEX
  8
0
 10
90.3277
 20
97.6369
 30
0.0
 40
0.18
 41
0.18
  0
VERTEX
  8
0
 10
90.3841
 20
97.6739
 30
0.0
 40
0.18
 41
0.18
  0
VERTEX
  8
0
 10
90.6914
 20
97.8034
 30
0.0
 40
0.18
 41
0.18
  0
VERTEX
  8
0
 10
90.9891
 20
97.8599
 30
0.0
 40
0.18
 41
0.18
  0
VERTEX
  8
0
 10
91.0897
 20
97.8599
 30
0.0
 40
0.18
 41
0.18
  0
SEQEND
 8
0
  0
POLYLINE
  8
0
 62
     5
 66
     1
 10
0
 20
0
 30
0.0
 70
     1
 40
0.510236
 41
0.510236
  0
VERTEX
  8
0
 10
86.0901
 20
105.95
 30
0.0
 40
0.18
 41
0.18
  0
VERTEX
  8
0
 10
86.0901
 20
103.04
 30
0.0
 40
0.18
 41
0.18
  0
VERTEX
  8
0
 10
86.0901
 20
103.032
 30
0.0
 40
0.18
 41
0.18
  0
VERTEX
  8
0
 10
86.1025
 20
103.003
 30
0.0
 40
0.18
 41
0.18
  0
VERTEX
  8
0
 10
86.1233
 20
103.007
 30
0.0
 40
0.18
 41
0.18
  0
VERTEX
  8
0
 10
86.1275
 20
103.028
 30
0.0
 40
0.18
 41
0.18
  0
VERTEX
  8
0
 10
86.0986
 20
103.04
 30
0.0
 40
0.18
 41
0.18
  0
VERTEX
  8
0
 10
86.0901
 20
103.04
 30
0.0
 40
0.18
 41
0.18
  0
VERTEX
  8
0
 10
83.2693
 20
103.04
 30
0.0
 40
0.18
 41
0.18
  0
VERTEX
  8
0
 10
83.2598
 20
103.04
 30
0.0
 40
0.18
 41
0.18
  0
VERTEX
  8
0
 10
83.2309
 20
103.028
 30
0.0
 40
0.18
 41
0.18
  0
VERTEX
  8
0
 10
83.2347
 20
103.007
 30
0.0
 40
0.18
 41
0.18
  0
VERTEX
  8
0
 10
83.2556
 20
103.003
 30
0.0
 40
0.18
 41
0.18
  0
VERTEX
  8
0
 10
83.2693
 20
103.032
 30
0.0
 40
0.18
 41
0.18
  0
VERTEX
  8
0
 10
83.2693
 20
103.04
 30
0.0
 40
0.18
 41
0.18
  0
VERTEX
  8
0
 10
83.2693
 20
108.859
 30
0.0
 40
0.18
 41
0.18
  0
VERTEX
  8
0
 10
83.2693
 20
108.869
 30
0.0
 40
0.18
 41
0.18
  0
VERTEX
  8
0
 10
83.2556
 20
108.898
 30
0.0
 40
0.18
 41
0.18
  0
VERTEX
  8
0
 10
83.2347
 20
108.894
 30
0.0
 40
0.18
 41
0.18
  0
VERTEX
  8
0
 10
83.2309
 20
108.873
 30
0.0
 40
0.18
 41
0.18
  0
VERTEX
  8
0
 10
83.2598
 20
108.859
 30
0.0
 40
0.18
 41
0.18
  0
VERTEX
  8
0
 10
83.2693
 20
108.859
 30
0.0
 40
0.18
 41
0.18
  0
VERTEX
  8
0
 10
86.0901
 20
108.859
 30
0.0
 40
0.18
 41
0.18
  0
VERTEX
  8
0
 10
86.0986
 20
108.859
 30
0.0
 40
0.18
 41
0.18
  0
VERTEX
  8
0
 10
86.1275
 20
108.873
 30
0.0
 40
0.18
 41
0.18
  0
VERTEX
  8
0
 10
86.1233
 20
108.894
 30
0.0
 40
0.18
 41
0.18
  0
VERTEX
  8
0
 10
86.1025
 20
108.898
 30
0.0
 40
0.18
 41
0.18
  0
VERTEX
  8
0
 10
86.0901
 20
108.869
 30
0.0
 40
0.18
 41
0.18
  0
VERTEX
  8
0
 10
86.0901
 20
108.859
 30
0.0
 40
0.18
 41
0.18
  0
VERTEX
  8
0
 10
86.0901
 20
105.95
 30
0.0
 40
0.18
 41
0.18
  0
SEQEND
 8
0
  0
POLYLINE
  8
0
 62
     5
 66
     1
 10
0
 20
0
 30
0.0
 70
     1
 40
0.510236
 41
0.510236
  0
VERTEX
  8
0
 10
86.0901
 20
117.951
 30
0.0
 40
0.18
 41
0.18
  0
VERTEX
  8
0
 10
86.0901
 20
115.04
 30
0.0
 40
0.18
 41
0.18
  0
VERTEX
  8
0
 10
86.0901
 20
115.032
 30
0.0
 40
0.18
 41
0.18
  0
VERTEX
  8
0
 10
86.1025
 20
115.003
 30
0.0
 40
0.18
 41
0.18
  0
VERTEX
  8
0
 10
86.1233
 20
115.007
 30
0.0
 40
0.18
 41
0.18
  0
VERTEX
  8
0
 10
86.1275
 20
115.028
 30
0.0
 40
0.18
 41
0.18
  0
VERTEX
  8
0
 10
86.0986
 20
115.04
 30
0.0
 40
0.18
 41
0.18
  0
VERTEX
  8
0
 10
86.0901
 20
115.04
 30
0.0
 40
0.18
 41
0.18
  0
VERTEX
  8
0
 10
83.2693
 20
115.04
 30
0.0
 40
0.18
 41
0.18
  0
VERTEX
  8
0
 10
83.2598
 20
115.04
 30
0.0
 40
0.18
 41
0.18
  0
VERTEX
  8
0
 10
83.2309
 20
115.028
 30
0.0
 40
0.18
 41
0.18
  0
VERTEX
  8
0
 10
83.2347
 20
115.007
 30
0.0
 40
0.18
 41
0.18
  0
VERTEX
  8
0
 10
83.2556
 20
115.003
 30
0.0
 40
0.18
 41
0.18
  0
VERTEX
  8
0
 10
83.2693
 20
115.032
 30
0.0
 40
0.18
 41
0.18
  0
VERTEX
  8
0
 10
83.2693
 20
115.04
 30
0.0
 40
0.18
 41
0.18
  0
VERTEX
  8
0
 10
83.2693
 20
120.86
 30
0.0
 40
0.18
 41
0.18
  0
VERTEX
  8
0
 10
83.2693
 20
120.869
 30
0.0
 40
0.18
 41
0.18
  0
VERTEX
  8
0
 10
83.2556
 20
120.898
 30
0.0
 40
0.18
 41
0.18
  0
VERTEX
  8
0
 10
83.2347
 20
120.894
 30
0.0
 40
0.18
 41
0.18
  0
VERTEX
  8
0
 10
83.2309
 20
120.873
 30
0.0
 40
0.18
 41
0.18
  0
VERTEX
  8
0
 10
83.2598
 20
120.86
 30
0.0
 40
0.18
 41
0.18
  0
VERTEX
  8
0
 10
83.2693
 20
120.86
 30
0.0
 40
0.18
 41
0.18
  0
VERTEX
  8
0
 10
86.0901
 20
120.86
 30
0.0
 40
0.18
 41
0.18
  0
VERTEX
  8
0
 10
86.0986
 20
120.86
 30
0.0
 40
0.18
 41
0.18
  0
VERTEX
  8
0
 10
86.1275
 20
120.873
 30
0.0
 40
0.18
 41
0.18
  0
VERTEX
  8
0
 10
86.1233
 20
120.894
 30
0.0
 40
0.18
 41
0.18
  0
VERTEX
  8
0
 10
86.1025
 20
120.898
 30
0.0
 40
0.18
 41
0.18
  0
VERTEX
  8
0
 10
86.0901
 20
120.869
 30
0.0
 40
0.18
 41
0.18
  0
VERTEX
  8
0
 10
86.0901
 20
120.86
 30
0.0
 40
0.18
 41
0.18
  0
VERTEX
  8
0
 10
86.0901
 20
117.951
 30
0.0
 40
0.18
 41
0.18
  0
SEQEND
 8
0
  0
POLYLINE
  8
0
 62
     5
 66
     1
 10
0
 20
0
 30
0.0
 70
     1
 40
0.510236
 41
0.510236
  0
VERTEX
  8
0
 10
86.0901
 20
129.95
 30
0.0
 40
0.18
 41
0.18
  0
VERTEX
  8
0
 10
86.0901
 20
127.04
 30
0.0
 40
0.18
 41
0.18
  0
VERTEX
  8
0
 10
86.0901
 20
127.032
 30
0.0
 40
0.18
 41
0.18
  0
VERTEX
  8
0
 10
86.1025
 20
127.003
 30
0.0
 40
0.18
 41
0.18
  0
VERTEX
  8
0
 10
86.1233
 20
127.007
 30
0.0
 40
0.18
 41
0.18
  0
VERTEX
  8
0
 10
86.1275
 20
127.028
 30
0.0
 40
0.18
 41
0.18
  0
VERTEX
  8
0
 10
86.0986
 20
127.04
 30
0.0
 40
0.18
 41
0.18
  0
VERTEX
  8
0
 10
86.0901
 20
127.04
 30
0.0
 40
0.18
 41
0.18
  0
VERTEX
  8
0
 10
83.2693
 20
127.04
 30
0.0
 40
0.18
 41
0.18
  0
VERTEX
  8
0
 10
83.2598
 20
127.04
 30
0.0
 40
0.18
 41
0.18
  0
VERTEX
  8
0
 10
83.2309
 20
127.028
 30
0.0
 40
0.18
 41
0.18
  0
VERTEX
  8
0
 10
83.2347
 20
127.007
 30
0.0
 40
0.18
 41
0.18
  0
VERTEX
  8
0
 10
83.2556
 20
127.003
 30
0.0
 40
0.18
 41
0.18
  0
VERTEX
  8
0
 10
83.2693
 20
127.032
 30
0.0
 40
0.18
 41
0.18
  0
VERTEX
  8
0
 10
83.2693
 20
127.04
 30
0.0
 40
0.18
 41
0.18
  0
VERTEX
  8
0
 10
83.2693
 20
132.859
 30
0.0
 40
0.18
 41
0.18
  0
VERTEX
  8
0
 10
83.2693
 20
132.869
 30
0.0
 40
0.18
 41
0.18
  0
VERTEX
  8
0
 10
83.2556
 20
132.898
 30
0.0
 40
0.18
 41
0.18
  0
VERTEX
  8
0
 10
83.2347
 20
132.894
 30
0.0
 40
0.18
 41
0.18
  0
VERTEX
  8
0
 10
83.2309
 20
132.873
 30
0.0
 40
0.18
 41
0.18
  0
VERTEX
  8
0
 10
83.2598
 20
132.859
 30
0.0
 40
0.18
 41
0.18
  0
VERTEX
  8
0
 10
83.2693
 20
132.859
 30
0.0
 40
0.18
 41
0.18
  0
VERTEX
  8
0
 10
86.0901
 20
132.859
 30
0.0
 40
0.18
 41
0.18
  0
VERTEX
  8
0
 10
86.0986
 20
132.859
 30
0.0
 40
0.18
 41
0.18
  0
VERTEX
  8
0
 10
86.1275
 20
132.873
 30
0.0
 40
0.18
 41
0.18
  0
VERTEX
  8
0
 10
86.1233
 20
132.894
 30
0.0
 40
0.18
 41
0.18
  0
VERTEX
  8
0
 10
86.1025
 20
132.898
 30
0.0
 40
0.18
 41
0.18
  0
VERTEX
  8
0
 10
86.0901
 20
132.869
 30
0.0
 40
0.18
 41
0.18
  0
VERTEX
  8
0
 10
86.0901
 20
132.859
 30
0.0
 40
0.18
 41
0.18
  0
VERTEX
  8
0
 10
86.0901
 20
129.95
 30
0.0
 40
0.18
 41
0.18
  0
SEQEND
 8
0
  0
POLYLINE
  8
0
 62
     5
 66
     1
 10
0
 20
0
 30
0.0
 70
     1
 40
0.510236
 41
0.510236
  0
VERTEX
  8
0
 10
86.0901
 20
141.95
 30
0.0
 40
0.18
 41
0.18
  0
VERTEX
  8
0
 10
86.0901
 20
139.04
 30
0.0
 40
0.18
 41
0.18
  0
VERTEX
  8
0
 10
86.0901
 20
139.031
 30
0.0
 40
0.18
 41
0.18
  0
VERTEX
  8
0
 10
86.1025
 20
139.003
 30
0.0
 40
0.18
 41
0.18
  0
VERTEX
  8
0
 10
86.1233
 20
139.007
 30
0.0
 40
0.18
 41
0.18
  0
VERTEX
  8
0
 10
86.1275
 20
139.028
 30
0.0
 40
0.18
 41
0.18
  0
VERTEX
  8
0
 10
86.0986
 20
139.04
 30
0.0
 40
0.18
 41
0.18
  0
VERTEX
  8
0
 10
86.0901
 20
139.04
 30
0.0
 40
0.18
 41
0.18
  0
VERTEX
  8
0
 10
83.2693
 20
139.04
 30
0.0
 40
0.18
 41
0.18
  0
VERTEX
  8
0
 10
83.2598
 20
139.04
 30
0.0
 40
0.18
 41
0.18
  0
VERTEX
  8
0
 10
83.2309
 20
139.028
 30
0.0
 40
0.18
 41
0.18
  0
VERTEX
  8
0
 10
83.2347
 20
139.007
 30
0.0
 40
0.18
 41
0.18
  0
VERTEX
  8
0
 10
83.2556
 20
139.003
 30
0.0
 40
0.18
 41
0.18
  0
VERTEX
  8
0
 10
83.2693
 20
139.031
 30
0.0
 40
0.18
 41
0.18
  0
VERTEX
  8
0
 10
83.2693
 20
139.04
 30
0.0
 40
0.18
 41
0.18
  0
VERTEX
  8
0
 10
83.2693
 20
144.861
 30
0.0
 40
0.18
 41
0.18
  0
VERTEX
  8
0
 10
83.2693
 20
144.87
 30
0.0
 40
0.18
 41
0.18
  0
VERTEX
  8
0
 10
83.2556
 20
144.899
 30
0.0
 40
0.18
 41
0.18
  0
VERTEX
  8
0
 10
83.2347
 20
144.895
 30
0.0
 40
0.18
 41
0.18
  0
VERTEX
  8
0
 10
83.2309
 20
144.875
 30
0.0
 40
0.18
 41
0.18
  0
VERTEX
  8
0
 10
83.2598
 20
144.861
 30
0.0
 40
0.18
 41
0.18
  0
VERTEX
  8
0
 10
83.2693
 20
144.861
 30
0.0
 40
0.18
 41
0.18
  0
VERTEX
  8
0
 10
86.0901
 20
144.861
 30
0.0
 40
0.18
 41
0.18
  0
VERTEX
  8
0
 10
86.0986
 20
144.861
 30
0.0
 40
0.18
 41
0.18
  0
VERTEX
  8
0
 10
86.1275
 20
144.875
 30
0.0
 40
0.18
 41
0.18
  0
VERTEX
  8
0
 10
86.1233
 20
144.895
 30
0.0
 40
0.18
 41
0.18
  0
VERTEX
  8
0
 10
86.1025
 20
144.899
 30
0.0
 40
0.18
 41
0.18
  0
VERTEX
  8
0
 10
86.0901
 20
144.87
 30
0.0
 40
0.18
 41
0.18
  0
VERTEX
  8
0
 10
86.0901
 20
144.861
 30
0.0
 40
0.18
 41
0.18
  0
VERTEX
  8
0
 10
86.0901
 20
141.95
 30
0.0
 40
0.18
 41
0.18
  0
SEQEND
 8
0
  0
POLYLINE
  8
0
 62
     5
 66
     1
 10
0
 20
0
 30
0.0
 70
     1
 40
0.510236
 41
0.510236
  0
VERTEX
  8
0
 10
86.0901
 20
153.95
 30
0.0
 40
0.18
 41
0.18
  0
VERTEX
  8
0
 10
86.0901
 20
151.04
 30
0.0
 40
0.18
 41
0.18
  0
VERTEX
  8
0
 10
86.0901
 20
151.032
 30
0.0
 40
0.18
 41
0.18
  0
VERTEX
  8
0
 10
86.1025
 20
151.003
 30
0.0
 40
0.18
 41
0.18
  0
VERTEX
  8
0
 10
86.1233
 20
151.007
 30
0.0
 40
0.18
 41
0.18
  0
VERTEX
  8
0
 10
86.1275
 20
151.027
 30
0.0
 40
0.18
 41
0.18
  0
VERTEX
  8
0
 10
86.0986
 20
151.04
 30
0.0
 40
0.18
 41
0.18
  0
VERTEX
  8
0
 10
86.0901
 20
151.04
 30
0.0
 40
0.18
 41
0.18
  0
VERTEX
  8
0
 10
83.2693
 20
151.04
 30
0.0
 40
0.18
 41
0.18
  0
VERTEX
  8
0
 10
83.2598
 20
151.04
 30
0.0
 40
0.18
 41
0.18
  0
VERTEX
  8
0
 10
83.2309
 20
151.027
 30
0.0
 40
0.18
 41
0.18
  0
VERTEX
  8
0
 10
83.2347
 20
151.007
 30
0.0
 40
0.18
 41
0.18
  0
VERTEX
  8
0
 10
83.2556
 20
151.003
 30
0.0
 40
0.18
 41
0.18
  0
VERTEX
  8
0
 10
83.2693
 20
151.032
 30
0.0
 40
0.18
 41
0.18
  0
VERTEX
  8
0
 10
83.2693
 20
151.04
 30
0.0
 40
0.18
 41
0.18
  0
VERTEX
  8
0
 10
83.2693
 20
156.861
 30
0.0
 40
0.18
 41
0.18
  0
VERTEX
  8
0
 10
83.2693
 20
156.87
 30
0.0
 40
0.18
 41
0.18
  0
VERTEX
  8
0
 10
83.2556
 20
156.899
 30
0.0
 40
0.18
 41
0.18
  0
VERTEX
  8
0
 10
83.2347
 20
156.895
 30
0.0
 40
0.18
 41
0.18
  0
VERTEX
  8
0
 10
83.2309
 20
156.875
 30
0.0
 40
0.18
 41
0.18
  0
VERTEX
  8
0
 10
83.2598
 20
156.861
 30
0.0
 40
0.18
 41
0.18
  0
VERTEX
  8
0
 10
83.2693
 20
156.861
 30
0.0
 40
0.18
 41
0.18
  0
VERTEX
  8
0
 10
86.0901
 20
156.861
 30
0.0
 40
0.18
 41
0.18
  0
VERTEX
  8
0
 10
86.0986
 20
156.861
 30
0.0
 40
0.18
 41
0.18
  0
VERTEX
  8
0
 10
86.1275
 20
156.875
 30
0.0
 40
0.18
 41
0.18
  0
VERTEX
  8
0
 10
86.1233
 20
156.895
 30
0.0
 40
0.18
 41
0.18
  0
VERTEX
  8
0
 10
86.1025
 20
156.899
 30
0.0
 40
0.18
 41
0.18
  0
VERTEX
  8
0
 10
86.0901
 20
156.87
 30
0.0
 40
0.18
 41
0.18
  0
VERTEX
  8
0
 10
86.0901
 20
156.861
 30
0.0
 40
0.18
 41
0.18
  0
VERTEX
  8
0
 10
86.0901
 20
153.95
 30
0.0
 40
0.18
 41
0.18
  0
SEQEND
 8
0
  0
POLYLINE
  8
0
 62
     5
 66
     1
 10
0
 20
0
 30
0.0
 70
     1
 40
0.510236
 41
0.510236
  0
VERTEX
  8
0
 10
86.0901
 20
165.95
 30
0.0
 40
0.18
 41
0.18
  0
VERTEX
  8
0
 10
86.0901
 20
163.04
 30
0.0
 40
0.18
 41
0.18
  0
VERTEX
  8
0
 10
86.0901
 20
163.032
 30
0.0
 40
0.18
 41
0.18
  0
VERTEX
  8
0
 10
86.1025
 20
163.003
 30
0.0
 40
0.18
 41
0.18
  0
VERTEX
  8
0
 10
86.1233
 20
163.007
 30
0.0
 40
0.18
 41
0.18
  0
VERTEX
  8
0
 10
86.1275
 20
163.027
 30
0.0
 40
0.18
 41
0.18
  0
VERTEX
  8
0
 10
86.0986
 20
163.04
 30
0.0
 40
0.18
 41
0.18
  0
VERTEX
  8
0
 10
86.0901
 20
163.04
 30
0.0
 40
0.18
 41
0.18
  0
VERTEX
  8
0
 10
83.2693
 20
163.04
 30
0.0
 40
0.18
 41
0.18
  0
VERTEX
  8
0
 10
83.2598
 20
163.04
 30
0.0
 40
0.18
 41
0.18
  0
VERTEX
  8
0
 10
83.2309
 20
163.027
 30
0.0
 40
0.18
 41
0.18
  0
VERTEX
  8
0
 10
83.2347
 20
163.007
 30
0.0
 40
0.18
 41
0.18
  0
VERTEX
  8
0
 10
83.2556
 20
163.003
 30
0.0
 40
0.18
 41
0.18
  0
VERTEX
  8
0
 10
83.2693
 20
163.032
 30
0.0
 40
0.18
 41
0.18
  0
VERTEX
  8
0
 10
83.2693
 20
163.04
 30
0.0
 40
0.18
 41
0.18
  0
VERTEX
  8
0
 10
83.2693
 20
168.859
 30
0.0
 40
0.18
 41
0.18
  0
VERTEX
  8
0
 10
83.2693
 20
168.869
 30
0.0
 40
0.18
 41
0.18
  0
VERTEX
  8
0
 10
83.2556
 20
168.898
 30
0.0
 40
0.18
 41
0.18
  0
VERTEX
  8
0
 10
83.2347
 20
168.894
 30
0.0
 40
0.18
 41
0.18
  0
VERTEX
  8
0
 10
83.2309
 20
168.873
 30
0.0
 40
0.18
 41
0.18
  0
VERTEX
  8
0
 10
83.2598
 20
168.859
 30
0.0
 40
0.18
 41
0.18
  0
VERTEX
  8
0
 10
83.2693
 20
168.859
 30
0.0
 40
0.18
 41
0.18
  0
VERTEX
  8
0
 10
86.0901
 20
168.859
 30
0.0
 40
0.18
 41
0.18
  0
VERTEX
  8
0
 10
86.0986
 20
168.859
 30
0.0
 40
0.18
 41
0.18
  0
VERTEX
  8
0
 10
86.1275
 20
168.873
 30
0.0
 40
0.18
 41
0.18
  0
VERTEX
  8
0
 10
86.1233
 20
168.894
 30
0.0
 40
0.18
 41
0.18
  0
VERTEX
  8
0
 10
86.1025
 20
168.898
 30
0.0
 40
0.18
 41
0.18
  0
VERTEX
  8
0
 10
86.0901
 20
168.869
 30
0.0
 40
0.18
 41
0.18
  0
VERTEX
  8
0
 10
86.0901
 20
168.859
 30
0.0
 40
0.18
 41
0.18
  0
VERTEX
  8
0
 10
86.0901
 20
165.95
 30
0.0
 40
0.18
 41
0.18
  0
SEQEND
 8
0
  0
POLYLINE
  8
0
 62
     5
 66
     1
 10
0
 20
0
 30
0.0
 70
     1
 40
0.510236
 41
0.510236
  0
VERTEX
  8
0
 10
86.0901
 20
177.95
 30
0.0
 40
0.18
 41
0.18
  0
VERTEX
  8
0
 10
86.0901
 20
175.04
 30
0.0
 40
0.18
 41
0.18
  0
VERTEX
  8
0
 10
86.0901
 20
175.031
 30
0.0
 40
0.18
 41
0.18
  0
VERTEX
  8
0
 10
86.1025
 20
175.002
 30
0.0
 40
0.18
 41
0.18
  0
VERTEX
  8
0
 10
86.1233
 20
175.007
 30
0.0
 40
0.18
 41
0.18
  0
VERTEX
  8
0
 10
86.1275
 20
175.028
 30
0.0
 40
0.18
 41
0.18
  0
VERTEX
  8
0
 10
86.0986
 20
175.04
 30
0.0
 40
0.18
 41
0.18
  0
VERTEX
  8
0
 10
86.0901
 20
175.04
 30
0.0
 40
0.18
 41
0.18
  0
VERTEX
  8
0
 10
83.2693
 20
175.04
 30
0.0
 40
0.18
 41
0.18
  0
VERTEX
  8
0
 10
83.2598
 20
175.04
 30
0.0
 40
0.18
 41
0.18
  0
VERTEX
  8
0
 10
83.2309
 20
175.028
 30
0.0
 40
0.18
 41
0.18
  0
VERTEX
  8
0
 10
83.2347
 20
175.007
 30
0.0
 40
0.18
 41
0.18
  0
VERTEX
  8
0
 10
83.2556
 20
175.002
 30
0.0
 40
0.18
 41
0.18
  0
VERTEX
  8
0
 10
83.2693
 20
175.031
 30
0.0
 40
0.18
 41
0.18
  0
VERTEX
  8
0
 10
83.2693
 20
175.04
 30
0.0
 40
0.18
 41
0.18
  0
VERTEX
  8
0
 10
83.2693
 20
180.861
 30
0.0
 40
0.18
 41
0.18
  0
VERTEX
  8
0
 10
83.2693
 20
180.87
 30
0.0
 40
0.18
 41
0.18
  0
VERTEX
  8
0
 10
83.2556
 20
180.899
 30
0.0
 40
0.18
 41
0.18
  0
VERTEX
  8
0
 10
83.2347
 20
180.895
 30
0.0
 40
0.18
 41
0.18
  0
VERTEX
  8
0
 10
83.2309
 20
180.874
 30
0.0
 40
0.18
 41
0.18
  0
VERTEX
  8
0
 10
83.2598
 20
180.861
 30
0.0
 40
0.18
 41
0.18
  0
VERTEX
  8
0
 10
83.2693
 20
180.861
 30
0.0
 40
0.18
 41
0.18
  0
VERTEX
  8
0
 10
86.0901
 20
180.861
 30
0.0
 40
0.18
 41
0.18
  0
VERTEX
  8
0
 10
86.0986
 20
180.861
 30
0.0
 40
0.18
 41
0.18
  0
VERTEX
  8
0
 10
86.1275
 20
180.874
 30
0.0
 40
0.18
 41
0.18
  0
VERTEX
  8
0
 10
86.1233
 20
180.895
 30
0.0
 40
0.18
 41
0.18
  0
VERTEX
  8
0
 10
86.1025
 20
180.899
 30
0.0
 40
0.18
 41
0.18
  0
VERTEX
  8
0
 10
86.0901
 20
180.87
 30
0.0
 40
0.18
 41
0.18
  0
VERTEX
  8
0
 10
86.0901
 20
180.861
 30
0.0
 40
0.18
 41
0.18
  0
VERTEX
  8
0
 10
86.0901
 20
177.95
 30
0.0
 40
0.18
 41
0.18
  0
SEQEND
 8
0
  0
POLYLINE
  8
0
 62
     5
 66
     1
 10
0
 20
0
 30
0.0
 70
     1
 40
0.510236
 41
0.510236
  0
VERTEX
  8
0
 10
89.68
 20
187.45
 30
0.0
 40
0.18
 41
0.18
  0
VERTEX
  8
0
 10
89.68
 20
187.551
 30
0.0
 40
0.18
 41
0.18
  0
VERTEX
  8
0
 10
89.7364
 20
187.849
 30
0.0
 40
0.18
 41
0.18
  0
VERTEX
  8
0
 10
89.8673
 20
188.156
 30
0.0
 40
0.18
 41
0.18
  0
VERTEX
  8
0
 10
89.9047
 20
188.213
 30
0.0
 40
0.18
 41
0.18
  0
VERTEX
  8
0
 10
89.9403
 20
188.27
 30
0.0
 40
0.18
 41
0.18
  0
VERTEX
  8
0
 10
90.1665
 20
188.516
 30
0.0
 40
0.18
 41
0.18
  0
VERTEX
  8
0
 10
90.442
 20
188.704
 30
0.0
 40
0.18
 41
0.18
  0
VERTEX
  8
0
 10
90.5041
 20
188.732
 30
0.0
 40
0.18
 41
0.18
  0
VERTEX
  8
0
 10
90.5648
 20
188.761
 30
0.0
 40
0.18
 41
0.18
  0
VERTEX
  8
0
 10
90.8886
 20
188.847
 30
0.0
 40
0.18
 41
0.18
  0
VERTEX
  8
0
 10
91.2234
 20
188.856
 30
0.0
 40
0.18
 41
0.18
  0
VERTEX
  8
0
 10
91.2908
 20
188.845
 30
0.0
 40
0.18
 41
0.18
  0
VERTEX
  8
0
 10
91.3571
 20
188.835
 30
0.0
 40
0.18
 41
0.18
  0
VERTEX
  8
0
 10
91.6753
 20
188.733
 30
0.0
 40
0.18
 41
0.18
  0
VERTEX
  8
0
 10
91.9621
 20
188.561
 30
0.0
 40
0.18
 41
0.18
  0
VERTEX
  8
0
 10
92.0129
 20
188.516
 30
0.0
 40
0.18
 41
0.18
  0
VERTEX
  8
0
 10
92.0641
 20
188.472
 30
0.0
 40
0.18
 41
0.18
  0
VERTEX
  8
0
 10
92.2747
 20
188.213
 30
0.0
 40
0.18
 41
0.18
  0
VERTEX
  8
0
 10
92.4235
 20
187.912
 30
0.0
 40
0.18
 41
0.18
  0
VERTEX
  8
0
 10
92.4429
 20
187.847
 30
0.0
 40
0.18
 41
0.18
  0
VERTEX
  8
0
 10
92.4609
 20
187.783
 30
0.0
 40
0.18
 41
0.18
  0
VERTEX
  8
0
 10
92.4994
 20
187.45
 30
0.0
 40
0.18
 41
0.18
  0
VERTEX
  8
0
 10
92.4609
 20
187.118
 30
0.0
 40
0.18
 41
0.18
  0
VERTEX
  8
0
 10
92.4429
 20
187.052
 30
0.0
 40
0.18
 41
0.18
  0
VERTEX
  8
0
 10
92.4235
 20
186.987
 30
0.0
 40
0.18
 41
0.18
  0
VERTEX
  8
0
 10
92.2747
 20
186.688
 30
0.0
 40
0.18
 41
0.18
  0
VERTEX
  8
0
 10
92.0641
 20
186.429
 30
0.0
 40
0.18
 41
0.18
  0
VERTEX
  8
0
 10
92.0129
 20
186.384
 30
0.0
 40
0.18
 41
0.18
  0
VERTEX
  8
0
 10
91.9621
 20
186.34
 30
0.0
 40
0.18
 41
0.18
  0
VERTEX
  8
0
 10
91.6753
 20
186.168
 30
0.0
 40
0.18
 41
0.18
  0
VERTEX
  8
0
 10
91.3571
 20
186.064
 30
0.0
 40
0.18
 41
0.18
  0
VERTEX
  8
0
 10
91.2908
 20
186.054
 30
0.0
 40
0.18
 41
0.18
  0
VERTEX
  8
0
 10
91.2234
 20
186.045
 30
0.0
 40
0.18
 41
0.18
  0
VERTEX
  8
0
 10
90.8886
 20
186.054
 30
0.0
 40
0.18
 41
0.18
  0
VERTEX
  8
0
 10
90.5648
 20
186.14
 30
0.0
 40
0.18
 41
0.18
  0
VERTEX
  8
0
 10
90.5041
 20
186.168
 30
0.0
 40
0.18
 41
0.18
  0
VERTEX
  8
0
 10
90.442
 20
186.196
 30
0.0
 40
0.18
 41
0.18
  0
VERTEX
  8
0
 10
90.1665
 20
186.385
 30
0.0
 40
0.18
 41
0.18
  0
VERTEX
  8
0
 10
89.9403
 20
186.63
 30
0.0
 40
0.18
 41
0.18
  0
VERTEX
  8
0
 10
89.9047
 20
186.687
 30
0.0
 40
0.18
 41
0.18
  0
VERTEX
  8
0
 10
89.8673
 20
186.745
 30
0.0
 40
0.18
 41
0.18
  0
VERTEX
  8
0
 10
89.7364
 20
187.053
 30
0.0
 40
0.18
 41
0.18
  0
VERTEX
  8
0
 10
89.68
 20
187.351
 30
0.0
 40
0.18
 41
0.18
  0
VERTEX
  8
0
 10
89.68
 20
187.45
 30
0.0
 40
0.18
 41
0.18
  0
SEQEND
 8
0
  0
POLYLINE
  8
0
 62
     5
 66
     1
 10
0
 20
0
 30
0.0
 70
     1
 40
0.510236
 41
0.510236
  0
VERTEX
  8
0
 10
15.0895
 20
186.039
 30
0.0
 40
0.18
 41
0.18
  0
VERTEX
  8
0
 10
14.9889
 20
186.039
 30
0.0
 40
0.18
 41
0.18
  0
VERTEX
  8
0
 10
14.6913
 20
186.097
 30
0.0
 40
0.18
 41
0.18
  0
VERTEX
  8
0
 10
14.3839
 20
186.228
 30
0.0
 40
0.18
 41
0.18
  0
VERTEX
  8
0
 10
14.3275
 20
186.264
 30
0.0
 40
0.18
 41
0.18
  0
VERTEX
  8
0
 10
14.2696
 20
186.301
 30
0.0
 40
0.18
 41
0.18
  0
VERTEX
  8
0
 10
14.0243
 20
186.527
 30
0.0
 40
0.18
 41
0.18
  0
VERTEX
  8
0
 10
13.8355
 20
186.804
 30
0.0
 40
0.18
 41
0.18
  0
VERTEX
  8
0
 10
13.8079
 20
186.865
 30
0.0
 40
0.18
 41
0.18
  0
VERTEX
  8
0
 10
13.779
 20
186.927
 30
0.0
 40
0.18
 41
0.18
  0
VERTEX
  8
0
 10
13.6936
 20
187.249
 30
0.0
 40
0.18
 41
0.18
  0
VERTEX
  8
0
 10
13.6853
 20
187.584
 30
0.0
 40
0.18
 41
0.18
  0
VERTEX
  8
0
 10
13.6949
 20
187.65
 30
0.0
 40
0.18
 41
0.18
  0
VERTEX
  8
0
 10
13.7046
 20
187.718
 30
0.0
 40
0.18
 41
0.18
  0
VERTEX
  8
0
 10
13.8079
 20
188.038
 30
0.0
 40
0.18
 41
0.18
  0
VERTEX
  8
0
 10
13.9802
 20
188.323
 30
0.0
 40
0.18
 41
0.18
  0
VERTEX
  8
0
 10
14.0243
 20
188.374
 30
0.0
 40
0.18
 41
0.18
  0
VERTEX
  8
0
 10
14.0684
 20
188.425
 30
0.0
 40
0.18
 41
0.18
  0
VERTEX
  8
0
 10
14.3275
 20
188.637
 30
0.0
 40
0.18
 41
0.18
  0
VERTEX
  8
0
 10
14.6279
 20
188.784
 30
0.0
 40
0.18
 41
0.18
  0
VERTEX
  8
0
 10
14.6926
 20
188.802
 30
0.0
 40
0.18
 41
0.18
  0
VERTEX
  8
0
 10
14.7574
 20
188.821
 30
0.0
 40
0.18
 41
0.18
  0
VERTEX
  8
0
 10
15.0895
 20
188.86
 30
0.0
 40
0.18
 41
0.18
  0
VERTEX
  8
0
 10
15.4216
 20
188.821
 30
0.0
 40
0.18
 41
0.18
  0
VERTEX
  8
0
 10
15.4878
 20
188.802
 30
0.0
 40
0.18
 41
0.18
  0
VERTEX
  8
0
 10
15.5525
 20
188.784
 30
0.0
 40
0.18
 41
0.18
  0
VERTEX
  8
0
 10
15.8516
 20
188.637
 30
0.0
 40
0.18
 41
0.18
  0
VERTEX
  8
0
 10
16.1107
 20
188.425
 30
0.0
 40
0.18
 41
0.18
  0
VERTEX
  8
0
 10
16.1561
 20
188.374
 30
0.0
 40
0.18
 41
0.18
  0
VERTEX
  8
0
 10
16.2002
 20
188.323
 30
0.0
 40
0.18
 41
0.18
  0
VERTEX
  8
0
 10
16.3725
 20
188.038
 30
0.0
 40
0.18
 41
0.18
  0
VERTEX
  8
0
 10
16.4758
 20
187.718
 30
0.0
 40
0.18
 41
0.18
  0
VERTEX
  8
0
 10
16.4855
 20
187.65
 30
0.0
 40
0.18
 41
0.18
  0
VERTEX
  8
0
 10
16.4951
 20
187.584
 30
0.0
 40
0.18
 41
0.18
  0
VERTEX
  8
0
 10
16.4855
 20
187.249
 30
0.0
 40
0.18
 41
0.18
  0
VERTEX
  8
0
 10
16.4
 20
186.927
 30
0.0
 40
0.18
 41
0.18
  0
VERTEX
  8
0
 10
16.3725
 20
186.865
 30
0.0
 40
0.18
 41
0.18
  0
VERTEX
  8
0
 10
16.3435
 20
186.804
 30
0.0
 40
0.18
 41
0.18
  0
VERTEX
  8
0
 10
16.1548
 20
186.527
 30
0.0
 40
0.18
 41
0.18
  0
VERTEX
  8
0
 10
15.9095
 20
186.301
 30
0.0
 40
0.18
 41
0.18
  0
VERTEX
  8
0
 10
15.853
 20
186.264
 30
0.0
 40
0.18
 41
0.18
  0
VERTEX
  8
0
 10
15.7951
 20
186.228
 30
0.0
 40
0.18
 41
0.18
  0
VERTEX
  8
0
 10
15.4864
 20
186.097
 30
0.0
 40
0.18
 41
0.18
  0
VERTEX
  8
0
 10
15.1887
 20
186.039
 30
0.0
 40
0.18
 41
0.18
  0
VERTEX
  8
0
 10
15.0895
 20
186.039
 30
0.0
 40
0.18
 41
0.18
  0
SEQEND
 8
0
  0
POLYLINE
  8
0
 62
     5
 66
     1
 10
0
 20
0
 30
0.0
 70
     1
 40
0.510236
 41
0.510236
  0
VERTEX
  8
0
 10
20.0904
 20
177.95
 30
0.0
 40
0.18
 41
0.18
  0
VERTEX
  8
0
 10
20.0904
 20
180.861
 30
0.0
 40
0.18
 41
0.18
  0
VERTEX
  8
0
 10
20.0904
 20
180.87
 30
0.0
 40
0.18
 41
0.18
  0
VERTEX
  8
0
 10
20.0767
 20
180.899
 30
0.0
 40
0.18
 41
0.18
  0
VERTEX
  8
0
 10
20.056
 20
180.895
 30
0.0
 40
0.18
 41
0.18
  0
VERTEX
  8
0
 10
20.0518
 20
180.874
 30
0.0
 40
0.18
 41
0.18
  0
VERTEX
  8
0
 10
20.0808
 20
180.861
 30
0.0
 40
0.18
 41
0.18
  0
VERTEX
  8
0
 10
20.0904
 20
180.861
 30
0.0
 40
0.18
 41
0.18
  0
VERTEX
  8
0
 10
22.9099
 20
180.861
 30
0.0
 40
0.18
 41
0.18
  0
VERTEX
  8
0
 10
22.9181
 20
180.861
 30
0.0
 40
0.18
 41
0.18
  0
VERTEX
  8
0
 10
22.9471
 20
180.874
 30
0.0
 40
0.18
 41
0.18
  0
VERTEX
  8
0
 10
22.943
 20
180.895
 30
0.0
 40
0.18
 41
0.18
  0
VERTEX
  8
0
 10
22.9223
 20
180.899
 30
0.0
 40
0.18
 41
0.18
  0
VERTEX
  8
0
 10
22.9099
 20
180.87
 30
0.0
 40
0.18
 41
0.18
  0
VERTEX
  8
0
 10
22.9099
 20
180.861
 30
0.0
 40
0.18
 41
0.18
  0
VERTEX
  8
0
 10
22.9099
 20
175.04
 30
0.0
 40
0.18
 41
0.18
  0
VERTEX
  8
0
 10
22.9099
 20
175.031
 30
0.0
 40
0.18
 41
0.18
  0
VERTEX
  8
0
 10
22.9223
 20
175.002
 30
0.0
 40
0.18
 41
0.18
  0
VERTEX
  8
0
 10
22.943
 20
175.007
 30
0.0
 40
0.18
 41
0.18
  0
VERTEX
  8
0
 10
22.9471
 20
175.028
 30
0.0
 40
0.18
 41
0.18
  0
VERTEX
  8
0
 10
22.9181
 20
175.04
 30
0.0
 40
0.18
 41
0.18
  0
VERTEX
  8
0
 10
22.9099
 20
175.04
 30
0.0
 40
0.18
 41
0.18
  0
VERTEX
  8
0
 10
20.0904
 20
175.04
 30
0.0
 40
0.18
 41
0.18
  0
VERTEX
  8
0
 10
20.0808
 20
175.04
 30
0.0
 40
0.18
 41
0.18
  0
VERTEX
  8
0
 10
20.0518
 20
175.028
 30
0.0
 40
0.18
 41
0.18
  0
VERTEX
  8
0
 10
20.056
 20
175.007
 30
0.0
 40
0.18
 41
0.18
  0
VERTEX
  8
0
 10
20.0767
 20
175.002
 30
0.0
 40
0.18
 41
0.18
  0
VERTEX
  8
0
 10
20.0904
 20
175.031
 30
0.0
 40
0.18
 41
0.18
  0
VERTEX
  8
0
 10
20.0904
 20
175.04
 30
0.0
 40
0.18
 41
0.18
  0
VERTEX
  8
0
 10
20.0904
 20
177.95
 30
0.0
 40
0.18
 41
0.18
  0
SEQEND
 8
0
  0
POLYLINE
  8
0
 62
     5
 66
     1
 10
0
 20
0
 30
0.0
 70
     1
 40
0.510236
 41
0.510236
  0
VERTEX
  8
0
 10
20.0904
 20
165.95
 30
0.0
 40
0.18
 41
0.18
  0
VERTEX
  8
0
 10
20.0904
 20
168.859
 30
0.0
 40
0.18
 41
0.18
  0
VERTEX
  8
0
 10
20.0904
 20
168.869
 30
0.0
 40
0.18
 41
0.18
  0
VERTEX
  8
0
 10
20.0767
 20
168.898
 30
0.0
 40
0.18
 41
0.18
  0
VERTEX
  8
0
 10
20.056
 20
168.894
 30
0.0
 40
0.18
 41
0.18
  0
VERTEX
  8
0
 10
20.0518
 20
168.873
 30
0.0
 40
0.18
 41
0.18
  0
VERTEX
  8
0
 10
20.0808
 20
168.859
 30
0.0
 40
0.18
 41
0.18
  0
VERTEX
  8
0
 10
20.0904
 20
168.859
 30
0.0
 40
0.18
 41
0.18
  0
VERTEX
  8
0
 10
22.9099
 20
168.859
 30
0.0
 40
0.18
 41
0.18
  0
VERTEX
  8
0
 10
22.9181
 20
168.859
 30
0.0
 40
0.18
 41
0.18
  0
VERTEX
  8
0
 10
22.9471
 20
168.873
 30
0.0
 40
0.18
 41
0.18
  0
VERTEX
  8
0
 10
22.943
 20
168.894
 30
0.0
 40
0.18
 41
0.18
  0
VERTEX
  8
0
 10
22.9223
 20
168.898
 30
0.0
 40
0.18
 41
0.18
  0
VERTEX
  8
0
 10
22.9099
 20
168.869
 30
0.0
 40
0.18
 41
0.18
  0
VERTEX
  8
0
 10
22.9099
 20
168.859
 30
0.0
 40
0.18
 41
0.18
  0
VERTEX
  8
0
 10
22.9099
 20
163.04
 30
0.0
 40
0.18
 41
0.18
  0
VERTEX
  8
0
 10
22.9099
 20
163.032
 30
0.0
 40
0.18
 41
0.18
  0
VERTEX
  8
0
 10
22.9223
 20
163.003
 30
0.0
 40
0.18
 41
0.18
  0
VERTEX
  8
0
 10
22.943
 20
163.007
 30
0.0
 40
0.18
 41
0.18
  0
VERTEX
  8
0
 10
22.9471
 20
163.027
 30
0.0
 40
0.18
 41
0.18
  0
VERTEX
  8
0
 10
22.9181
 20
163.04
 30
0.0
 40
0.18
 41
0.18
  0
VERTEX
  8
0
 10
22.9099
 20
163.04
 30
0.0
 40
0.18
 41
0.18
  0
VERTEX
  8
0
 10
20.0904
 20
163.04
 30
0.0
 40
0.18
 41
0.18
  0
VERTEX
  8
0
 10
20.0808
 20
163.04
 30
0.0
 40
0.18
 41
0.18
  0
VERTEX
  8
0
 10
20.0518
 20
163.027
 30
0.0
 40
0.18
 41
0.18
  0
VERTEX
  8
0
 10
20.056
 20
163.007
 30
0.0
 40
0.18
 41
0.18
  0
VERTEX
  8
0
 10
20.0767
 20
163.003
 30
0.0
 40
0.18
 41
0.18
  0
VERTEX
  8
0
 10
20.0904
 20
163.032
 30
0.0
 40
0.18
 41
0.18
  0
VERTEX
  8
0
 10
20.0904
 20
163.04
 30
0.0
 40
0.18
 41
0.18
  0
VERTEX
  8
0
 10
20.0904
 20
165.95
 30
0.0
 40
0.18
 41
0.18
  0
SEQEND
 8
0
  0
POLYLINE
  8
0
 62
     5
 66
     1
 10
0
 20
0
 30
0.0
 70
     1
 40
0.510236
 41
0.510236
  0
VERTEX
  8
0
 10
20.0904
 20
153.95
 30
0.0
 40
0.18
 41
0.18
  0
VERTEX
  8
0
 10
20.0904
 20
156.861
 30
0.0
 40
0.18
 41
0.18
  0
VERTEX
  8
0
 10
20.0904
 20
156.87
 30
0.0
 40
0.18
 41
0.18
  0
VERTEX
  8
0
 10
20.0767
 20
156.899
 30
0.0
 40
0.18
 41
0.18
  0
VERTEX
  8
0
 10
20.056
 20
156.895
 30
0.0
 40
0.18
 41
0.18
  0
VERTEX
  8
0
 10
20.0518
 20
156.875
 30
0.0
 40
0.18
 41
0.18
  0
VERTEX
  8
0
 10
20.0808
 20
156.861
 30
0.0
 40
0.18
 41
0.18
  0
VERTEX
  8
0
 10
20.0904
 20
156.861
 30
0.0
 40
0.18
 41
0.18
  0
VERTEX
  8
0
 10
22.9099
 20
156.861
 30
0.0
 40
0.18
 41
0.18
  0
VERTEX
  8
0
 10
22.9181
 20
156.861
 30
0.0
 40
0.18
 41
0.18
  0
VERTEX
  8
0
 10
22.9471
 20
156.875
 30
0.0
 40
0.18
 41
0.18
  0
VERTEX
  8
0
 10
22.943
 20
156.895
 30
0.0
 40
0.18
 41
0.18
  0
VERTEX
  8
0
 10
22.9223
 20
156.899
 30
0.0
 40
0.18
 41
0.18
  0
VERTEX
  8
0
 10
22.9099
 20
156.87
 30
0.0
 40
0.18
 41
0.18
  0
VERTEX
  8
0
 10
22.9099
 20
156.861
 30
0.0
 40
0.18
 41
0.18
  0
VERTEX
  8
0
 10
22.9099
 20
151.04
 30
0.0
 40
0.18
 41
0.18
  0
VERTEX
  8
0
 10
22.9099
 20
151.032
 30
0.0
 40
0.18
 41
0.18
  0
VERTEX
  8
0
 10
22.9223
 20
151.003
 30
0.0
 40
0.18
 41
0.18
  0
VERTEX
  8
0
 10
22.943
 20
151.007
 30
0.0
 40
0.18
 41
0.18
  0
VERTEX
  8
0
 10
22.9471
 20
151.027
 30
0.0
 40
0.18
 41
0.18
  0
VERTEX
  8
0
 10
22.9181
 20
151.04
 30
0.0
 40
0.18
 41
0.18
  0
VERTEX
  8
0
 10
22.9099
 20
151.04
 30
0.0
 40
0.18
 41
0.18
  0
VERTEX
  8
0
 10
20.0904
 20
151.04
 30
0.0
 40
0.18
 41
0.18
  0
VERTEX
  8
0
 10
20.0808
 20
151.04
 30
0.0
 40
0.18
 41
0.18
  0
VERTEX
  8
0
 10
20.0518
 20
151.027
 30
0.0
 40
0.18
 41
0.18
  0
VERTEX
  8
0
 10
20.056
 20
151.007
 30
0.0
 40
0.18
 41
0.18
  0
VERTEX
  8
0
 10
20.0767
 20
151.003
 30
0.0
 40
0.18
 41
0.18
  0
VERTEX
  8
0
 10
20.0904
 20
151.032
 30
0.0
 40
0.18
 41
0.18
  0
VERTEX
  8
0
 10
20.0904
 20
151.04
 30
0.0
 40
0.18
 41
0.18
  0
VERTEX
  8
0
 10
20.0904
 20
153.95
 30
0.0
 40
0.18
 41
0.18
  0
SEQEND
 8
0
  0
POLYLINE
  8
0
 62
     5
 66
     1
 10
0
 20
0
 30
0.0
 70
     1
 40
0.510236
 41
0.510236
  0
VERTEX
  8
0
 10
20.0904
 20
141.95
 30
0.0
 40
0.18
 41
0.18
  0
VERTEX
  8
0
 10
20.0904
 20
144.861
 30
0.0
 40
0.18
 41
0.18
  0
VERTEX
  8
0
 10
20.0904
 20
144.87
 30
0.0
 40
0.18
 41
0.18
  0
VERTEX
  8
0
 10
20.0767
 20
144.899
 30
0.0
 40
0.18
 41
0.18
  0
VERTEX
  8
0
 10
20.056
 20
144.895
 30
0.0
 40
0.18
 41
0.18
  0
VERTEX
  8
0
 10
20.0518
 20
144.875
 30
0.0
 40
0.18
 41
0.18
  0
VERTEX
  8
0
 10
20.0808
 20
144.861
 30
0.0
 40
0.18
 41
0.18
  0
VERTEX
  8
0
 10
20.0904
 20
144.861
 30
0.0
 40
0.18
 41
0.18
  0
VERTEX
  8
0
 10
22.9099
 20
144.861
 30
0.0
 40
0.18
 41
0.18
  0
VERTEX
  8
0
 10
22.9181
 20
144.861
 30
0.0
 40
0.18
 41
0.18
  0
VERTEX
  8
0
 10
22.9471
 20
144.875
 30
0.0
 40
0.18
 41
0.18
  0
VERTEX
  8
0
 10
22.943
 20
144.895
 30
0.0
 40
0.18
 41
0.18
  0
VERTEX
  8
0
 10
22.9223
 20
144.899
 30
0.0
 40
0.18
 41
0.18
  0
VERTEX
  8
0
 10
22.9099
 20
144.87
 30
0.0
 40
0.18
 41
0.18
  0
VERTEX
  8
0
 10
22.9099
 20
144.861
 30
0.0
 40
0.18
 41
0.18
  0
VERTEX
  8
0
 10
22.9099
 20
139.04
 30
0.0
 40
0.18
 41
0.18
  0
VERTEX
  8
0
 10
22.9099
 20
139.031
 30
0.0
 40
0.18
 41
0.18
  0
VERTEX
  8
0
 10
22.9223
 20
139.003
 30
0.0
 40
0.18
 41
0.18
  0
VERTEX
  8
0
 10
22.943
 20
139.007
 30
0.0
 40
0.18
 41
0.18
  0
VERTEX
  8
0
 10
22.9471
 20
139.028
 30
0.0
 40
0.18
 41
0.18
  0
VERTEX
  8
0
 10
22.9181
 20
139.04
 30
0.0
 40
0.18
 41
0.18
  0
VERTEX
  8
0
 10
22.9099
 20
139.04
 30
0.0
 40
0.18
 41
0.18
  0
VERTEX
  8
0
 10
20.0904
 20
139.04
 30
0.0
 40
0.18
 41
0.18
  0
VERTEX
  8
0
 10
20.0808
 20
139.04
 30
0.0
 40
0.18
 41
0.18
  0
VERTEX
  8
0
 10
20.0518
 20
139.028
 30
0.0
 40
0.18
 41
0.18
  0
VERTEX
  8
0
 10
20.056
 20
139.007
 30
0.0
 40
0.18
 41
0.18
  0
VERTEX
  8
0
 10
20.0767
 20
139.003
 30
0.0
 40
0.18
 41
0.18
  0
VERTEX
  8
0
 10
20.0904
 20
139.031
 30
0.0
 40
0.18
 41
0.18
  0
VERTEX
  8
0
 10
20.0904
 20
139.04
 30
0.0
 40
0.18
 41
0.18
  0
VERTEX
  8
0
 10
20.0904
 20
141.95
 30
0.0
 40
0.18
 41
0.18
  0
SEQEND
 8
0
  0
POLYLINE
  8
0
 62
     5
 66
     1
 10
0
 20
0
 30
0.0
 70
     1
 40
0.510236
 41
0.510236
  0
VERTEX
  8
0
 10
20.0904
 20
129.95
 30
0.0
 40
0.18
 41
0.18
  0
VERTEX
  8
0
 10
20.0904
 20
132.859
 30
0.0
 40
0.18
 41
0.18
  0
VERTEX
  8
0
 10
20.0904
 20
132.869
 30
0.0
 40
0.18
 41
0.18
  0
VERTEX
  8
0
 10
20.0767
 20
132.898
 30
0.0
 40
0.18
 41
0.18
  0
VERTEX
  8
0
 10
20.056
 20
132.894
 30
0.0
 40
0.18
 41
0.18
  0
VERTEX
  8
0
 10
20.0518
 20
132.873
 30
0.0
 40
0.18
 41
0.18
  0
VERTEX
  8
0
 10
20.0808
 20
132.859
 30
0.0
 40
0.18
 41
0.18
  0
VERTEX
  8
0
 10
20.0904
 20
132.859
 30
0.0
 40
0.18
 41
0.18
  0
VERTEX
  8
0
 10
22.9099
 20
132.859
 30
0.0
 40
0.18
 41
0.18
  0
VERTEX
  8
0
 10
22.9181
 20
132.859
 30
0.0
 40
0.18
 41
0.18
  0
VERTEX
  8
0
 10
22.9471
 20
132.873
 30
0.0
 40
0.18
 41
0.18
  0
VERTEX
  8
0
 10
22.943
 20
132.894
 30
0.0
 40
0.18
 41
0.18
  0
VERTEX
  8
0
 10
22.9223
 20
132.898
 30
0.0
 40
0.18
 41
0.18
  0
VERTEX
  8
0
 10
22.9099
 20
132.869
 30
0.0
 40
0.18
 41
0.18
  0
VERTEX
  8
0
 10
22.9099
 20
132.859
 30
0.0
 40
0.18
 41
0.18
  0
VERTEX
  8
0
 10
22.9099
 20
127.04
 30
0.0
 40
0.18
 41
0.18
  0
VERTEX
  8
0
 10
22.9099
 20
127.032
 30
0.0
 40
0.18
 41
0.18
  0
VERTEX
  8
0
 10
22.9223
 20
127.003
 30
0.0
 40
0.18
 41
0.18
  0
VERTEX
  8
0
 10
22.943
 20
127.007
 30
0.0
 40
0.18
 41
0.18
  0
VERTEX
  8
0
 10
22.9471
 20
127.028
 30
0.0
 40
0.18
 41
0.18
  0
VERTEX
  8
0
 10
22.9181
 20
127.04
 30
0.0
 40
0.18
 41
0.18
  0
VERTEX
  8
0
 10
22.9099
 20
127.04
 30
0.0
 40
0.18
 41
0.18
  0
VERTEX
  8
0
 10
20.0904
 20
127.04
 30
0.0
 40
0.18
 41
0.18
  0
VERTEX
  8
0
 10
20.0808
 20
127.04
 30
0.0
 40
0.18
 41
0.18
  0
VERTEX
  8
0
 10
20.0518
 20
127.028
 30
0.0
 40
0.18
 41
0.18
  0
VERTEX
  8
0
 10
20.056
 20
127.007
 30
0.0
 40
0.18
 41
0.18
  0
VERTEX
  8
0
 10
20.0767
 20
127.003
 30
0.0
 40
0.18
 41
0.18
  0
VERTEX
  8
0
 10
20.0904
 20
127.032
 30
0.0
 40
0.18
 41
0.18
  0
VERTEX
  8
0
 10
20.0904
 20
127.04
 30
0.0
 40
0.18
 41
0.18
  0
VERTEX
  8
0
 10
20.0904
 20
129.95
 30
0.0
 40
0.18
 41
0.18
  0
SEQEND
 8
0
  0
POLYLINE
  8
0
 62
     5
 66
     1
 10
0
 20
0
 30
0.0
 70
     1
 40
0.510236
 41
0.510236
  0
VERTEX
  8
0
 10
20.0904
 20
117.951
 30
0.0
 40
0.18
 41
0.18
  0
VERTEX
  8
0
 10
20.0904
 20
120.86
 30
0.0
 40
0.18
 41
0.18
  0
VERTEX
  8
0
 10
20.0904
 20
120.869
 30
0.0
 40
0.18
 41
0.18
  0
VERTEX
  8
0
 10
20.0767
 20
120.898
 30
0.0
 40
0.18
 41
0.18
  0
VERTEX
  8
0
 10
20.056
 20
120.894
 30
0.0
 40
0.18
 41
0.18
  0
VERTEX
  8
0
 10
20.0518
 20
120.873
 30
0.0
 40
0.18
 41
0.18
  0
VERTEX
  8
0
 10
20.0808
 20
120.86
 30
0.0
 40
0.18
 41
0.18
  0
VERTEX
  8
0
 10
20.0904
 20
120.86
 30
0.0
 40
0.18
 41
0.18
  0
VERTEX
  8
0
 10
22.9099
 20
120.86
 30
0.0
 40
0.18
 41
0.18
  0
VERTEX
  8
0
 10
22.9181
 20
120.86
 30
0.0
 40
0.18
 41
0.18
  0
VERTEX
  8
0
 10
22.9471
 20
120.873
 30
0.0
 40
0.18
 41
0.18
  0
VERTEX
  8
0
 10
22.943
 20
120.894
 30
0.0
 40
0.18
 41
0.18
  0
VERTEX
  8
0
 10
22.9223
 20
120.898
 30
0.0
 40
0.18
 41
0.18
  0
VERTEX
  8
0
 10
22.9099
 20
120.869
 30
0.0
 40
0.18
 41
0.18
  0
VERTEX
  8
0
 10
22.9099
 20
120.86
 30
0.0
 40
0.18
 41
0.18
  0
VERTEX
  8
0
 10
22.9099
 20
115.04
 30
0.0
 40
0.18
 41
0.18
  0
VERTEX
  8
0
 10
22.9099
 20
115.032
 30
0.0
 40
0.18
 41
0.18
  0
VERTEX
  8
0
 10
22.9223
 20
115.003
 30
0.0
 40
0.18
 41
0.18
  0
VERTEX
  8
0
 10
22.943
 20
115.007
 30
0.0
 40
0.18
 41
0.18
  0
VERTEX
  8
0
 10
22.9471
 20
115.028
 30
0.0
 40
0.18
 41
0.18
  0
VERTEX
  8
0
 10
22.9181
 20
115.04
 30
0.0
 40
0.18
 41
0.18
  0
VERTEX
  8
0
 10
22.9099
 20
115.04
 30
0.0
 40
0.18
 41
0.18
  0
VERTEX
  8
0
 10
20.0904
 20
115.04
 30
0.0
 40
0.18
 41
0.18
  0
VERTEX
  8
0
 10
20.0808
 20
115.04
 30
0.0
 40
0.18
 41
0.18
  0
VERTEX
  8
0
 10
20.0518
 20
115.028
 30
0.0
 40
0.18
 41
0.18
  0
VERTEX
  8
0
 10
20.056
 20
115.007
 30
0.0
 40
0.18
 41
0.18
  0
VERTEX
  8
0
 10
20.0767
 20
115.003
 30
0.0
 40
0.18
 41
0.18
  0
VERTEX
  8
0
 10
20.0904
 20
115.032
 30
0.0
 40
0.18
 41
0.18
  0
VERTEX
  8
0
 10
20.0904
 20
115.04
 30
0.0
 40
0.18
 41
0.18
  0
VERTEX
  8
0
 10
20.0904
 20
117.951
 30
0.0
 40
0.18
 41
0.18
  0
SEQEND
 8
0
  0
POLYLINE
  8
0
 62
     5
 66
     1
 10
0
 20
0
 30
0.0
 70
     1
 40
0.510236
 41
0.510236
  0
VERTEX
  8
0
 10
20.0904
 20
105.95
 30
0.0
 40
0.18
 41
0.18
  0
VERTEX
  8
0
 10
20.0904
 20
108.859
 30
0.0
 40
0.18
 41
0.18
  0
VERTEX
  8
0
 10
20.0904
 20
108.869
 30
0.0
 40
0.18
 41
0.18
  0
VERTEX
  8
0
 10
20.0767
 20
108.898
 30
0.0
 40
0.18
 41
0.18
  0
VERTEX
  8
0
 10
20.056
 20
108.894
 30
0.0
 40
0.18
 41
0.18
  0
VERTEX
  8
0
 10
20.0518
 20
108.873
 30
0.0
 40
0.18
 41
0.18
  0
VERTEX
  8
0
 10
20.0808
 20
108.859
 30
0.0
 40
0.18
 41
0.18
  0
VERTEX
  8
0
 10
20.0904
 20
108.859
 30
0.0
 40
0.18
 41
0.18
  0
VERTEX
  8
0
 10
22.9099
 20
108.859
 30
0.0
 40
0.18
 41
0.18
  0
VERTEX
  8
0
 10
22.9181
 20
108.859
 30
0.0
 40
0.18
 41
0.18
  0
VERTEX
  8
0
 10
22.9471
 20
108.873
 30
0.0
 40
0.18
 41
0.18
  0
VERTEX
  8
0
 10
22.943
 20
108.894
 30
0.0
 40
0.18
 41
0.18
  0
VERTEX
  8
0
 10
22.9223
 20
108.898
 30
0.0
 40
0.18
 41
0.18
  0
VERTEX
  8
0
 10
22.9099
 20
108.869
 30
0.0
 40
0.18
 41
0.18
  0
VERTEX
  8
0
 10
22.9099
 20
108.859
 30
0.0
 40
0.18
 41
0.18
  0
VERTEX
  8
0
 10
22.9099
 20
103.04
 30
0.0
 40
0.18
 41
0.18
  0
VERTEX
  8
0
 10
22.9099
 20
103.032
 30
0.0
 40
0.18
 41
0.18
  0
VERTEX
  8
0
 10
22.9223
 20
103.003
 30
0.0
 40
0.18
 41
0.18
  0
VERTEX
  8
0
 10
22.943
 20
103.007
 30
0.0
 40
0.18
 41
0.18
  0
VERTEX
  8
0
 10
22.9471
 20
103.028
 30
0.0
 40
0.18
 41
0.18
  0
VERTEX
  8
0
 10
22.9181
 20
103.04
 30
0.0
 40
0.18
 41
0.18
  0
VERTEX
  8
0
 10
22.9099
 20
103.04
 30
0.0
 40
0.18
 41
0.18
  0
VERTEX
  8
0
 10
20.0904
 20
103.04
 30
0.0
 40
0.18
 41
0.18
  0
VERTEX
  8
0
 10
20.0808
 20
103.04
 30
0.0
 40
0.18
 41
0.18
  0
VERTEX
  8
0
 10
20.0518
 20
103.028
 30
0.0
 40
0.18
 41
0.18
  0
VERTEX
  8
0
 10
20.056
 20
103.007
 30
0.0
 40
0.18
 41
0.18
  0
VERTEX
  8
0
 10
20.0767
 20
103.003
 30
0.0
 40
0.18
 41
0.18
  0
VERTEX
  8
0
 10
20.0904
 20
103.032
 30
0.0
 40
0.18
 41
0.18
  0
VERTEX
  8
0
 10
20.0904
 20
103.04
 30
0.0
 40
0.18
 41
0.18
  0
VERTEX
  8
0
 10
20.0904
 20
105.95
 30
0.0
 40
0.18
 41
0.18
  0
SEQEND
 8
0
  0
POLYLINE
  8
0
 62
     5
 66
     1
 10
0
 20
0
 30
0.0
 70
     1
 40
0.510236
 41
0.510236
  0
VERTEX
  8
0
 10
18.1667
 20
200.797
 30
0.0
 40
0.18
 41
0.18
  0
VERTEX
  8
0
 10
18.1667
 20
200.697
 30
0.0
 40
0.18
 41
0.18
  0
VERTEX
  8
0
 10
18.1088
 20
200.4
 30
0.0
 40
0.18
 41
0.18
  0
VERTEX
  8
0
 10
17.9792
 20
200.092
 30
0.0
 40
0.18
 41
0.18
  0
VERTEX
  8
0
 10
17.9434
 20
200.035
 30
0.0
 40
0.18
 41
0.18
  0
VERTEX
  8
0
 10
17.9062
 20
199.978
 30
0.0
 40
0.18
 41
0.18
  0
VERTEX
  8
0
 10
17.6789
 20
199.732
 30
0.0
 40
0.18
 41
0.18
  0
VERTEX
  8
0
 10
17.4032
 20
199.543
 30
0.0
 40
0.18
 41
0.18
  0
VERTEX
  8
0
 10
17.3426
 20
199.514
 30
0.0
 40
0.18
 41
0.18
  0
VERTEX
  8
0
 10
17.2806
 20
199.486
 30
0.0
 40
0.18
 41
0.18
  0
VERTEX
  8
0
 10
16.9568
 20
199.402
 30
0.0
 40
0.18
 41
0.18
  0
VERTEX
  8
0
 10
16.6219
 20
199.391
 30
0.0
 40
0.18
 41
0.18
  0
VERTEX
  8
0
 10
16.5558
 20
199.401
 30
0.0
 40
0.18
 41
0.18
  0
VERTEX
  8
0
 10
16.4882
 20
199.41
 30
0.0
 40
0.18
 41
0.18
  0
VERTEX
  8
0
 10
16.1699
 20
199.515
 30
0.0
 40
0.18
 41
0.18
  0
VERTEX
  8
0
 10
15.8846
 20
199.687
 30
0.0
 40
0.18
 41
0.18
  0
VERTEX
  8
0
 10
15.8337
 20
199.732
 30
0.0
 40
0.18
 41
0.18
  0
VERTEX
  8
0
 10
15.7827
 20
199.776
 30
0.0
 40
0.18
 41
0.18
  0
VERTEX
  8
0
 10
15.5704
 20
200.035
 30
0.0
 40
0.18
 41
0.18
  0
VERTEX
  8
0
 10
15.4216
 20
200.335
 30
0.0
 40
0.18
 41
0.18
  0
VERTEX
  8
0
 10
15.4037
 20
200.4
 30
0.0
 40
0.18
 41
0.18
  0
VERTEX
  8
0
 10
15.3844
 20
200.465
 30
0.0
 40
0.18
 41
0.18
  0
VERTEX
  8
0
 10
15.3458
 20
200.797
 30
0.0
 40
0.18
 41
0.18
  0
VERTEX
  8
0
 10
15.3844
 20
201.129
 30
0.0
 40
0.18
 41
0.18
  0
VERTEX
  8
0
 10
15.4037
 20
201.194
 30
0.0
 40
0.18
 41
0.18
  0
VERTEX
  8
0
 10
15.4216
 20
201.26
 30
0.0
 40
0.18
 41
0.18
  0
VERTEX
  8
0
 10
15.5704
 20
201.56
 30
0.0
 40
0.18
 41
0.18
  0
VERTEX
  8
0
 10
15.7827
 20
201.818
 30
0.0
 40
0.18
 41
0.18
  0
VERTEX
  8
0
 10
15.8337
 20
201.862
 30
0.0
 40
0.18
 41
0.18
  0
VERTEX
  8
0
 10
15.8846
 20
201.907
 30
0.0
 40
0.18
 41
0.18
  0
VERTEX
  8
0
 10
16.1699
 20
202.08
 30
0.0
 40
0.18
 41
0.18
  0
VERTEX
  8
0
 10
16.4882
 20
202.183
 30
0.0
 40
0.18
 41
0.18
  0
VERTEX
  8
0
 10
16.5558
 20
202.193
 30
0.0
 40
0.18
 41
0.18
  0
VERTEX
  8
0
 10
16.6219
 20
202.202
 30
0.0
 40
0.18
 41
0.18
  0
VERTEX
  8
0
 10
16.9568
 20
202.193
 30
0.0
 40
0.18
 41
0.18
  0
VERTEX
  8
0
 10
17.2806
 20
202.109
 30
0.0
 40
0.18
 41
0.18
  0
VERTEX
  8
0
 10
17.3426
 20
202.08
 30
0.0
 40
0.18
 41
0.18
  0
VERTEX
  8
0
 10
17.4032
 20
202.052
 30
0.0
 40
0.18
 41
0.18
  0
VERTEX
  8
0
 10
17.6789
 20
201.863
 30
0.0
 40
0.18
 41
0.18
  0
VERTEX
  8
0
 10
17.9062
 20
201.617
 30
0.0
 40
0.18
 41
0.18
  0
VERTEX
  8
0
 10
17.9434
 20
201.559
 30
0.0
 40
0.18
 41
0.18
  0
VERTEX
  8
0
 10
17.9792
 20
201.502
 30
0.0
 40
0.18
 41
0.18
  0
VERTEX
  8
0
 10
18.1088
 20
201.195
 30
0.0
 40
0.18
 41
0.18
  0
VERTEX
  8
0
 10
18.1667
 20
200.897
 30
0.0
 40
0.18
 41
0.18
  0
VERTEX
  8
0
 10
18.1667
 20
200.797
 30
0.0
 40
0.18
 41
0.18
  0
SEQEND
 8
0
  0
TEXT
  8
0
 62
     1
 10
36.6441
 20
240.736
 30
0.0
 40
4.0005
  1
Top
 50
0
  0
POLYLINE
  8
0
 62
     0
 66
     1
 10
0
 20
0
 30
0.0
 70
     1
 40
0.510236
 41
0.510236
  0
VERTEX
  8
0
 10
10.09
 20
194.04
 30
0.0
 40
0.18
 41
0.18
  0
VERTEX
  8
0
 10
70.0899
 20
194.04
 30
0.0
 40
0.18
 41
0.18
  0
VERTEX
  8
0
 10
70.1051
 20
194.04
 30
0.0
 40
0.18
 41
0.18
  0
VERTEX
  8
0
 10
70.153
 20
194.066
 30
0.0
 40
0.18
 41
0.18
  0
VERTEX
  8
0
 10
70.1795
 20
194.115
 30
0.0
 40
0.18
 41
0.18
  0
VERTEX
  8
0
 10
70.1795
 20
194.13
 30
0.0
 40
0.18
 41
0.18
  0
VERTEX
  8
0
 10
70.1795
 20
289.13
 30
0.0
 40
0.18
 41
0.18
  0
VERTEX
  8
0
 10
70.1795
 20
289.147
 30
0.0
 40
0.18
 41
0.18
  0
VERTEX
  8
0
 10
70.153
 20
289.194
 30
0.0
 40
0.18
 41
0.18
  0
VERTEX
  8
0
 10
70.1051
 20
289.22
 30
0.0
 40
0.18
 41
0.18
  0
VERTEX
  8
0
 10
70.0899
 20
289.22
 30
0.0
 40
0.18
 41
0.18
  0
VERTEX
  8
0
 10
10.09
 20
289.22
 30
0.0
 40
0.18
 41
0.18
  0
VERTEX
  8
0
 10
10.0735
 20
289.22
 30
0.0
 40
0.18
 41
0.18
  0
VERTEX
  8
0
 10
10.0266
 20
289.194
 30
0.0
 40
0.18
 41
0.18
  0
VERTEX
  8
0
 10
10.0004
 20
289.147
 30
0.0
 40
0.18
 41
0.18
  0
VERTEX
  8
0
 10
10.0004
 20
289.13
 30
0.0
 40
0.18
 41
0.18
  0
VERTEX
  8
0
 10
10.0004
 20
194.13
 30
0.0
 40
0.18
 41
0.18
  0
VERTEX
  8
0
 10
10.0004
 20
194.115
 30
0.0
 40
0.18
 41
0.18
  0
VERTEX
  8
0
 10
10.0266
 20
194.066
 30
0.0
 40
0.18
 41
0.18
  0
VERTEX
  8
0
 10
10.0735
 20
194.04
 30
0.0
 40
0.18
 41
0.18
  0
VERTEX
  8
0
 10
10.09
 20
194.04
 30
0.0
 40
0.18
 41
0.18
  0
SEQEND
 8
0
  0
POLYLINE
  8
0
 62
     5
 66
     1
 10
0
 20
0
 30
0.0
 70
     1
 40
0.510236
 41
0.510236
  0
VERTEX
  8
0
 10
63.4227
 20
202.207
 30
0.0
 40
0.18
 41
0.18
  0
VERTEX
  8
0
 10
63.5222
 20
202.207
 30
0.0
 40
0.18
 41
0.18
  0
VERTEX
  8
0
 10
63.821
 20
202.15
 30
0.0
 40
0.18
 41
0.18
  0
VERTEX
  8
0
 10
64.1283
 20
202.02
 30
0.0
 40
0.18
 41
0.18
  0
VERTEX
  8
0
 10
64.1862
 20
201.983
 30
0.0
 40
0.18
 41
0.18
  0
VERTEX
  8
0
 10
64.2426
 20
201.947
 30
0.0
 40
0.18
 41
0.18
  0
VERTEX
  8
0
 10
64.4895
 20
201.722
 30
0.0
 40
0.18
 41
0.18
  0
VERTEX
  8
0
 10
64.6769
 20
201.444
 30
0.0
 40
0.18
 41
0.18
  0
VERTEX
  8
0
 10
64.7058
 20
201.382
 30
0.0
 40
0.18
 41
0.18
  0
VERTEX
  8
0
 10
64.7333
 20
201.322
 30
0.0
 40
0.18
 41
0.18
  0
VERTEX
  8
0
 10
64.8187
 20
200.998
 30
0.0
 40
0.18
 41
0.18
  0
VERTEX
  8
0
 10
64.8286
 20
200.663
 30
0.0
 40
0.18
 41
0.18
  0
VERTEX
  8
0
 10
64.8187
 20
200.595
 30
0.0
 40
0.18
 41
0.18
  0
VERTEX
  8
0
 10
64.8092
 20
200.529
 30
0.0
 40
0.18
 41
0.18
  0
VERTEX
  8
0
 10
64.7058
 20
200.211
 30
0.0
 40
0.18
 41
0.18
  0
VERTEX
  8
0
 10
64.5336
 20
199.924
 30
0.0
 40
0.18
 41
0.18
  0
VERTEX
  8
0
 10
64.4895
 20
199.873
 30
0.0
 40
0.18
 41
0.18
  0
VERTEX
  8
0
 10
64.444
 20
199.823
 30
0.0
 40
0.18
 41
0.18
  0
VERTEX
  8
0
 10
64.1847
 20
199.612
 30
0.0
 40
0.18
 41
0.18
  0
VERTEX
  8
0
 10
63.8859
 20
199.463
 30
0.0
 40
0.18
 41
0.18
  0
VERTEX
  8
0
 10
63.821
 20
199.444
 30
0.0
 40
0.18
 41
0.18
  0
VERTEX
  8
0
 10
63.7565
 20
199.426
 30
0.0
 40
0.18
 41
0.18
  0
VERTEX
  8
0
 10
63.4227
 20
199.387
 30
0.0
 40
0.18
 41
0.18
  0
VERTEX
  8
0
 10
63.0908
 20
199.426
 30
0.0
 40
0.18
 41
0.18
  0
VERTEX
  8
0
 10
63.0259
 20
199.444
 30
0.0
 40
0.18
 41
0.18
  0
VERTEX
  8
0
 10
62.9613
 20
199.463
 30
0.0
 40
0.18
 41
0.18
  0
VERTEX
  8
0
 10
62.6607
 20
199.612
 30
0.0
 40
0.18
 41
0.18
  0
VERTEX
  8
0
 10
62.4018
 20
199.823
 30
0.0
 40
0.18
 41
0.18
  0
VERTEX
  8
0
 10
62.3577
 20
199.873
 30
0.0
 40
0.18
 41
0.18
  0
VERTEX
  8
0
 10
62.3136
 20
199.924
 30
0.0
 40
0.18
 41
0.18
  0
VERTEX
  8
0
 10
62.1411
 20
200.211
 30
0.0
 40
0.18
 41
0.18
  0
VERTEX
  8
0
 10
62.0377
 20
200.529
 30
0.0
 40
0.18
 41
0.18
  0
VERTEX
  8
0
 10
62.0282
 20
200.595
 30
0.0
 40
0.18
 41
0.18
  0
VERTEX
  8
0
 10
62.0187
 20
200.663
 30
0.0
 40
0.18
 41
0.18
  0
VERTEX
  8
0
 10
62.0268
 20
200.998
 30
0.0
 40
0.18
 41
0.18
  0
VERTEX
  8
0
 10
62.1122
 20
201.322
 30
0.0
 40
0.18
 41
0.18
  0
VERTEX
  8
0
 10
62.1411
 20
201.382
 30
0.0
 40
0.18
 41
0.18
  0
VERTEX
  8
0
 10
62.169
 20
201.444
 30
0.0
 40
0.18
 41
0.18
  0
VERTEX
  8
0
 10
62.3577
 20
201.722
 30
0.0
 40
0.18
 41
0.18
  0
VERTEX
  8
0
 10
62.6029
 20
201.947
 30
0.0
 40
0.18
 41
0.18
  0
VERTEX
  8
0
 10
62.6607
 20
201.983
 30
0.0
 40
0.18
 41
0.18
  0
VERTEX
  8
0
 10
62.7172
 20
202.02
 30
0.0
 40
0.18
 41
0.18
  0
VERTEX
  8
0
 10
63.0245
 20
202.15
 30
0.0
 40
0.18
 41
0.18
  0
VERTEX
  8
0
 10
63.3222
 20
202.207
 30
0.0
 40
0.18
 41
0.18
  0
VERTEX
  8
0
 10
63.4227
 20
202.207
 30
0.0
 40
0.18
 41
0.18
  0
SEQEND
 8
0
  0
POLYLINE
  8
0
 62
     5
 66
     1
 10
0
 20
0
 30
0.0
 70
     1
 40
0.510236
 41
0.510236
  0
VERTEX
  8
0
 10
62.013
 20
282.464
 30
0.0
 40
0.18
 41
0.18
  0
VERTEX
  8
0
 10
62.013
 20
282.564
 30
0.0
 40
0.18
 41
0.18
  0
VERTEX
  8
0
 10
62.0695
 20
282.862
 30
0.0
 40
0.18
 41
0.18
  0
VERTEX
  8
0
 10
62.2004
 20
283.169
 30
0.0
 40
0.18
 41
0.18
  0
VERTEX
  8
0
 10
62.2378
 20
283.226
 30
0.0
 40
0.18
 41
0.18
  0
VERTEX
  8
0
 10
62.2734
 20
283.283
 30
0.0
 40
0.18
 41
0.18
  0
VERTEX
  8
0
 10
62.4995
 20
283.53
 30
0.0
 40
0.18
 41
0.18
  0
VERTEX
  8
0
 10
62.775
 20
283.719
 30
0.0
 40
0.18
 41
0.18
  0
VERTEX
  8
0
 10
62.8371
 20
283.746
 30
0.0
 40
0.18
 41
0.18
  0
VERTEX
  8
0
 10
62.8978
 20
283.775
 30
0.0
 40
0.18
 41
0.18
  0
VERTEX
  8
0
 10
63.2217
 20
283.859
 30
0.0
 40
0.18
 41
0.18
  0
VERTEX
  8
0
 10
63.5564
 20
283.869
 30
0.0
 40
0.18
 41
0.18
  0
VERTEX
  8
0
 10
63.6242
 20
283.859
 30
0.0
 40
0.18
 41
0.18
  0
VERTEX
  8
0
 10
63.6901
 20
283.85
 30
0.0
 40
0.18
 41
0.18
  0
VERTEX
  8
0
 10
64.0084
 20
283.746
 30
0.0
 40
0.18
 41
0.18
  0
VERTEX
  8
0
 10
64.2952
 20
283.574
 30
0.0
 40
0.18
 41
0.18
  0
VERTEX
  8
0
 10
64.346
 20
283.529
 30
0.0
 40
0.18
 41
0.18
  0
VERTEX
  8
0
 10
64.3971
 20
283.484
 30
0.0
 40
0.18
 41
0.18
  0
VERTEX
  8
0
 10
64.6095
 20
283.227
 30
0.0
 40
0.18
 41
0.18
  0
VERTEX
  8
0
 10
64.7569
 20
282.926
 30
0.0
 40
0.18
 41
0.18
  0
VERTEX
  8
0
 10
64.776
 20
282.86
 30
0.0
 40
0.18
 41
0.18
  0
VERTEX
  8
0
 10
64.794
 20
282.795
 30
0.0
 40
0.18
 41
0.18
  0
VERTEX
  8
0
 10
64.8324
 20
282.464
 30
0.0
 40
0.18
 41
0.18
  0
VERTEX
  8
0
 10
64.794
 20
282.131
 30
0.0
 40
0.18
 41
0.18
  0
VERTEX
  8
0
 10
64.776
 20
282.067
 30
0.0
 40
0.18
 41
0.18
  0
VERTEX
  8
0
 10
64.7569
 20
282.002
 30
0.0
 40
0.18
 41
0.18
  0
VERTEX
  8
0
 10
64.6095
 20
281.701
 30
0.0
 40
0.18
 41
0.18
  0
VERTEX
  8
0
 10
64.3971
 20
281.442
 30
0.0
 40
0.18
 41
0.18
  0
VERTEX
  8
0
 10
64.346
 20
281.398
 30
0.0
 40
0.18
 41
0.18
  0
VERTEX
  8
0
 10
64.2952
 20
281.354
 30
0.0
 40
0.18
 41
0.18
  0
VERTEX
  8
0
 10
64.0084
 20
281.182
 30
0.0
 40
0.18
 41
0.18
  0
VERTEX
  8
0
 10
63.6901
 20
281.077
 30
0.0
 40
0.18
 41
0.18
  0
VERTEX
  8
0
 10
63.6242
 20
281.068
 30
0.0
 40
0.18
 41
0.18
  0
VERTEX
  8
0
 10
63.5564
 20
281.058
 30
0.0
 40
0.18
 41
0.18
  0
VERTEX
  8
0
 10
63.2217
 20
281.069
 30
0.0
 40
0.18
 41
0.18
  0
VERTEX
  8
0
 10
62.8978
 20
281.153
 30
0.0
 40
0.18
 41
0.18
  0
VERTEX
  8
0
 10
62.8371
 20
281.18
 30
0.0
 40
0.18
 41
0.18
  0
VERTEX
  8
0
 10
62.775
 20
281.209
 30
0.0
 40
0.18
 41
0.18
  0
VERTEX
  8
0
 10
62.4995
 20
281.398
 30
0.0
 40
0.18
 41
0.18
  0
VERTEX
  8
0
 10
62.2734
 20
281.645
 30
0.0
 40
0.18
 41
0.18
  0
VERTEX
  8
0
 10
62.2378
 20
281.701
 30
0.0
 40
0.18
 41
0.18
  0
VERTEX
  8
0
 10
62.2004
 20
281.759
 30
0.0
 40
0.18
 41
0.18
  0
VERTEX
  8
0
 10
62.0695
 20
282.067
 30
0.0
 40
0.18
 41
0.18
  0
VERTEX
  8
0
 10
62.013
 20
282.364
 30
0.0
 40
0.18
 41
0.18
  0
VERTEX
  8
0
 10
62.013
 20
282.464
 30
0.0
 40
0.18
 41
0.18
  0
SEQEND
 8
0
  0
POLYLINE
  8
0
 62
     5
 66
     1
 10
0
 20
0
 30
0.0
 70
     1
 40
0.510236
 41
0.510236
  0
VERTEX
  8
0
 10
16.7569
 20
281.054
 30
0.0
 40
0.18
 41
0.18
  0
VERTEX
  8
0
 10
16.6563
 20
281.054
 30
0.0
 40
0.18
 41
0.18
  0
VERTEX
  8
0
 10
16.3587
 20
281.112
 30
0.0
 40
0.18
 41
0.18
  0
VERTEX
  8
0
 10
16.0514
 20
281.241
 30
0.0
 40
0.18
 41
0.18
  0
VERTEX
  8
0
 10
15.9949
 20
281.277
 30
0.0
 40
0.18
 41
0.18
  0
VERTEX
  8
0
 10
15.937
 20
281.314
 30
0.0
 40
0.18
 41
0.18
  0
VERTEX
  8
0
 10
15.6904
 20
281.54
 30
0.0
 40
0.18
 41
0.18
  0
VERTEX
  8
0
 10
15.5015
 20
281.817
 30
0.0
 40
0.18
 41
0.18
  0
VERTEX
  8
0
 10
15.474
 20
281.878
 30
0.0
 40
0.18
 41
0.18
  0
VERTEX
  8
0
 10
15.4451
 20
281.94
 30
0.0
 40
0.18
 41
0.18
  0
VERTEX
  8
0
 10
15.361
 20
282.263
 30
0.0
 40
0.18
 41
0.18
  0
VERTEX
  8
0
 10
15.3513
 20
282.598
 30
0.0
 40
0.18
 41
0.18
  0
VERTEX
  8
0
 10
15.361
 20
282.665
 30
0.0
 40
0.18
 41
0.18
  0
VERTEX
  8
0
 10
15.3706
 20
282.732
 30
0.0
 40
0.18
 41
0.18
  0
VERTEX
  8
0
 10
15.474
 20
283.051
 30
0.0
 40
0.18
 41
0.18
  0
VERTEX
  8
0
 10
15.6463
 20
283.336
 30
0.0
 40
0.18
 41
0.18
  0
VERTEX
  8
0
 10
15.6917
 20
283.387
 30
0.0
 40
0.18
 41
0.18
  0
VERTEX
  8
0
 10
15.7358
 20
283.438
 30
0.0
 40
0.18
 41
0.18
  0
VERTEX
  8
0
 10
15.9935
 20
283.65
 30
0.0
 40
0.18
 41
0.18
  0
VERTEX
  8
0
 10
16.2939
 20
283.799
 30
0.0
 40
0.18
 41
0.18
  0
VERTEX
  8
0
 10
16.3587
 20
283.817
 30
0.0
 40
0.18
 41
0.18
  0
VERTEX
  8
0
 10
16.4235
 20
283.836
 30
0.0
 40
0.18
 41
0.18
  0
VERTEX
  8
0
 10
16.7556
 20
283.875
 30
0.0
 40
0.18
 41
0.18
  0
VERTEX
  8
0
 10
17.089
 20
283.836
 30
0.0
 40
0.18
 41
0.18
  0
VERTEX
  8
0
 10
17.1538
 20
283.817
 30
0.0
 40
0.18
 41
0.18
  0
VERTEX
  8
0
 10
17.2186
 20
283.799
 30
0.0
 40
0.18
 41
0.18
  0
VERTEX
  8
0
 10
17.519
 20
283.65
 30
0.0
 40
0.18
 41
0.18
  0
VERTEX
  8
0
 10
17.7781
 20
283.438
 30
0.0
 40
0.18
 41
0.18
  0
VERTEX
  8
0
 10
17.8222
 20
283.387
 30
0.0
 40
0.18
 41
0.18
  0
VERTEX
  8
0
 10
17.8663
 20
283.336
 30
0.0
 40
0.18
 41
0.18
  0
VERTEX
  8
0
 10
18.0385
 20
283.051
 30
0.0
 40
0.18
 41
0.18
  0
VERTEX
  8
0
 10
18.1419
 20
282.732
 30
0.0
 40
0.18
 41
0.18
  0
VERTEX
  8
0
 10
18.1515
 20
282.665
 30
0.0
 40
0.18
 41
0.18
  0
VERTEX
  8
0
 10
18.1612
 20
282.598
 30
0.0
 40
0.18
 41
0.18
  0
VERTEX
  8
0
 10
18.1515
 20
282.263
 30
0.0
 40
0.18
 41
0.18
  0
VERTEX
  8
0
 10
18.0674
 20
281.94
 30
0.0
 40
0.18
 41
0.18
  0
VERTEX
  8
0
 10
18.0399
 20
281.878
 30
0.0
 40
0.18
 41
0.18
  0
VERTEX
  8
0
 10
18.011
 20
281.817
 30
0.0
 40
0.18
 41
0.18
  0
VERTEX
  8
0
 10
17.8222
 20
281.54
 30
0.0
 40
0.18
 41
0.18
  0
VERTEX
  8
0
 10
17.5755
 20
281.314
 30
0.0
 40
0.18
 41
0.18
  0
VERTEX
  8
0
 10
17.519
 20
281.277
 30
0.0
 40
0.18
 41
0.18
  0
VERTEX
  8
0
 10
17.4611
 20
281.241
 30
0.0
 40
0.18
 41
0.18
  0
VERTEX
  8
0
 10
17.1538
 20
281.112
 30
0.0
 40
0.18
 41
0.18
  0
VERTEX
  8
0
 10
16.8562
 20
281.054
 30
0.0
 40
0.18
 41
0.18
  0
VERTEX
  8
0
 10
16.7569
 20
281.054
 30
0.0
 40
0.18
 41
0.18
  0
SEQEND
 8
0
  0
POLYLINE
  8
0
 62
     0
 66
     1
 10
0
 20
0
 30
0.0
 70
     1
 40
0.510236
 41
0.510236
  0
VERTEX
  8
0
 10
17.8415
 20
293.721
 30
0.0
 40
0.18
 41
0.18
  0
VERTEX
  8
0
 10
24.751
 20
293.721
 30
0.0
 40
0.18
 41
0.18
  0
VERTEX
  8
0
 10
24.7592
 20
293.721
 30
0.0
 40
0.18
 41
0.18
  0
VERTEX
  8
0
 10
24.7881
 20
293.734
 30
0.0
 40
0.18
 41
0.18
  0
VERTEX
  8
0
 10
24.784
 20
293.755
 30
0.0
 40
0.18
 41
0.18
  0
VERTEX
  8
0
 10
24.7633
 20
293.759
 30
0.0
 40
0.18
 41
0.18
  0
VERTEX
  8
0
 10
24.751
 20
293.73
 30
0.0
 40
0.18
 41
0.18
  0
VERTEX
  8
0
 10
24.751
 20
293.721
 30
0.0
 40
0.18
 41
0.18
  0
VERTEX
  8
0
 10
24.751
 20
290.81
 30
0.0
 40
0.18
 41
0.18
  0
VERTEX
  8
0
 10
24.751
 20
290.795
 30
0.0
 40
0.18
 41
0.18
  0
VERTEX
  8
0
 10
24.7771
 20
290.747
 30
0.0
 40
0.18
 41
0.18
  0
VERTEX
  8
0
 10
24.8254
 20
290.721
 30
0.0
 40
0.18
 41
0.18
  0
VERTEX
  8
0
 10
24.8419
 20
290.721
 30
0.0
 40
0.18
 41
0.18
  0
VERTEX
  8
0
 10
30.8419
 20
290.721
 30
0.0
 40
0.18
 41
0.18
  0
VERTEX
  8
0
 10
30.8571
 20
290.721
 30
0.0
 40
0.18
 41
0.18
  0
VERTEX
  8
0
 10
30.9053
 20
290.747
 30
0.0
 40
0.18
 41
0.18
  0
VERTEX
  8
0
 10
30.9315
 20
290.795
 30
0.0
 40
0.18
 41
0.18
  0
VERTEX
  8
0
 10
30.9315
 20
290.81
 30
0.0
 40
0.18
 41
0.18
  0
VERTEX
  8
0
 10
30.9315
 20
293.721
 30
0.0
 40
0.18
 41
0.18
  0
VERTEX
  8
0
 10
30.9315
 20
293.73
 30
0.0
 40
0.18
 41
0.18
  0
VERTEX
  8
0
 10
30.9177
 20
293.759
 30
0.0
 40
0.18
 41
0.18
  0
VERTEX
  8
0
 10
30.897
 20
293.755
 30
0.0
 40
0.18
 41
0.18
  0
VERTEX
  8
0
 10
30.8929
 20
293.734
 30
0.0
 40
0.18
 41
0.18
  0
VERTEX
  8
0
 10
30.9218
 20
293.721
 30
0.0
 40
0.18
 41
0.18
  0
VERTEX
  8
0
 10
30.9315
 20
293.721
 30
0.0
 40
0.18
 41
0.18
  0
VERTEX
  8
0
 10
37.8425
 20
293.721
 30
0.0
 40
0.18
 41
0.18
  0
VERTEX
  8
0
 10
37.8576
 20
293.721
 30
0.0
 40
0.18
 41
0.18
  0
VERTEX
  8
0
 10
37.9056
 20
293.747
 30
0.0
 40
0.18
 41
0.18
  0
VERTEX
  8
0
 10
37.9317
 20
293.795
 30
0.0
 40
0.18
 41
0.18
  0
VERTEX
  8
0
 10
37.9317
 20
293.81
 30
0.0
 40
0.18
 41
0.18
  0
VERTEX
  8
0
 10
37.9317
 20
300.72
 30
0.0
 40
0.18
 41
0.18
  0
VERTEX
  8
0
 10
37.9317
 20
300.729
 30
0.0
 40
0.18
 41
0.18
  0
VERTEX
  8
0
 10
37.918
 20
300.758
 30
0.0
 40
0.18
 41
0.18
  0
VERTEX
  8
0
 10
37.8975
 20
300.754
 30
0.0
 40
0.18
 41
0.18
  0
VERTEX
  8
0
 10
37.8933
 20
300.734
 30
0.0
 40
0.18
 41
0.18
  0
VERTEX
  8
0
 10
37.9222
 20
300.72
 30
0.0
 40
0.18
 41
0.18
  0
VERTEX
  8
0
 10
37.9317
 20
300.72
 30
0.0
 40
0.18
 41
0.18
  0
VERTEX
  8
0
 10
40.8421
 20
300.72
 30
0.0
 40
0.18
 41
0.18
  0
VERTEX
  8
0
 10
40.8573
 20
300.72
 30
0.0
 40
0.18
 41
0.18
  0
VERTEX
  8
0
 10
40.9056
 20
300.747
 30
0.0
 40
0.18
 41
0.18
  0
VERTEX
  8
0
 10
40.9317
 20
300.795
 30
0.0
 40
0.18
 41
0.18
  0
VERTEX
  8
0
 10
40.9317
 20
300.81
 30
0.0
 40
0.18
 41
0.18
  0
VERTEX
  8
0
 10
40.9317
 20
306.81
 30
0.0
 40
0.18
 41
0.18
  0
VERTEX
  8
0
 10
40.9317
 20
306.827
 30
0.0
 40
0.18
 41
0.18
  0
VERTEX
  8
0
 10
40.9056
 20
306.874
 30
0.0
 40
0.18
 41
0.18
  0
VERTEX
  8
0
 10
40.8573
 20
306.9
 30
0.0
 40
0.18
 41
0.18
  0
VERTEX
  8
0
 10
40.8421
 20
306.9
 30
0.0
 40
0.18
 41
0.18
  0
VERTEX
  8
0
 10
37.9317
 20
306.9
 30
0.0
 40
0.18
 41
0.18
  0
VERTEX
  8
0
 10
37.9222
 20
306.9
 30
0.0
 40
0.18
 41
0.18
  0
VERTEX
  8
0
 10
37.8933
 20
306.888
 30
0.0
 40
0.18
 41
0.18
  0
VERTEX
  8
0
 10
37.8975
 20
306.867
 30
0.0
 40
0.18
 41
0.18
  0
VERTEX
  8
0
 10
37.918
 20
306.863
 30
0.0
 40
0.18
 41
0.18
  0
VERTEX
  8
0
 10
37.9317
 20
306.892
 30
0.0
 40
0.18
 41
0.18
  0
VERTEX
  8
0
 10
37.9317
 20
306.9
 30
0.0
 40
0.18
 41
0.18
  0
VERTEX
  8
0
 10
37.9317
 20
313.81
 30
0.0
 40
0.18
 41
0.18
  0
VERTEX
  8
0
 10
37.9317
 20
313.826
 30
0.0
 40
0.18
 41
0.18
  0
VERTEX
  8
0
 10
37.9056
 20
313.875
 30
0.0
 40
0.18
 41
0.18
  0
VERTEX
  8
0
 10
37.8576
 20
313.901
 30
0.0
 40
0.18
 41
0.18
  0
VERTEX
  8
0
 10
37.8425
 20
313.901
 30
0.0
 40
0.18
 41
0.18
  0
VERTEX
  8
0
 10
37.8259
 20
313.901
 30
0.0
 40
0.18
 41
0.18
  0
VERTEX
  8
0
 10
37.7832
 20
313.878
 30
0.0
 40
0.18
 41
0.18
  0
VERTEX
  8
0
 10
37.779
 20
313.875
 30
0.0
 40
0.18
 41
0.18
  0
VERTEX
  8
0
 10
17.7781
 20
293.873
 30
0.0
 40
0.18
 41
0.18
  0
VERTEX
  8
0
 10
17.7739
 20
293.87
 30
0.0
 40
0.18
 41
0.18
  0
VERTEX
  8
0
 10
17.7519
 20
293.825
 30
0.0
 40
0.18
 41
0.18
  0
VERTEX
  8
0
 10
17.7519
 20
293.81
 30
0.0
 40
0.18
 41
0.18
  0
VERTEX
  8
0
 10
17.7519
 20
293.795
 30
0.0
 40
0.18
 41
0.18
  0
VERTEX
  8
0
 10
17.7781
 20
293.747
 30
0.0
 40
0.18
 41
0.18
  0
VERTEX
  8
0
 10
17.8249
 20
293.721
 30
0.0
 40
0.18
 41
0.18
  0
VERTEX
  8
0
 10
17.8415
 20
293.721
 30
0.0
 40
0.18
 41
0.18
  0
SEQEND
 8
0
  0
POLYLINE
  8
0
 62
     5
 66
     1
 10
0
 20
0
 30
0.0
 70
     1
 40
0.510236
 41
0.510236
  0
VERTEX
  8
0
 10
31.1754
 20
301.387
 30
0.0
 40
0.18
 41
0.18
  0
VERTEX
  8
0
 10
31.2388
 20
301.387
 30
0.0
 40
0.18
 41
0.18
  0
VERTEX
  8
0
 10
31.4303
 20
301.351
 30
0.0
 40
0.18
 41
0.18
  0
VERTEX
  8
0
 10
31.6301
 20
301.267
 30
0.0
 40
0.18
 41
0.18
  0
VERTEX
  8
0
 10
31.6673
 20
301.242
 30
0.0
 40
0.18
 41
0.18
  0
VERTEX
  8
0
 10
31.7032
 20
301.219
 30
0.0
 40
0.18
 41
0.18
  0
VERTEX
  8
0
 10
31.8616
 20
301.074
 30
0.0
 40
0.18
 41
0.18
  0
VERTEX
  8
0
 10
31.9843
 20
300.895
 30
0.0
 40
0.18
 41
0.18
  0
VERTEX
  8
0
 10
32.0036
 20
300.855
 30
0.0
 40
0.18
 41
0.18
  0
VERTEX
  8
0
 10
32.0215
 20
300.816
 30
0.0
 40
0.18
 41
0.18
  0
VERTEX
  8
0
 10
32.0752
 20
300.607
 30
0.0
 40
0.18
 41
0.18
  0
VERTEX
  8
0
 10
32.0821
 20
300.392
 30
0.0
 40
0.18
 41
0.18
  0
VERTEX
  8
0
 10
32.0766
 20
300.348
 30
0.0
 40
0.18
 41
0.18
  0
VERTEX
  8
0
 10
32.0697
 20
300.305
 30
0.0
 40
0.18
 41
0.18
  0
VERTEX
  8
0
 10
32.0022
 20
300.1
 30
0.0
 40
0.18
 41
0.18
  0
VERTEX
  8
0
 10
31.8905
 20
299.913
 30
0.0
 40
0.18
 41
0.18
  0
VERTEX
  8
0
 10
31.863
 20
299.881
 30
0.0
 40
0.18
 41
0.18
  0
VERTEX
  8
0
 10
31.8341
 20
299.849
 30
0.0
 40
0.18
 41
0.18
  0
VERTEX
  8
0
 10
31.6659
 20
299.712
 30
0.0
 40
0.18
 41
0.18
  0
VERTEX
  8
0
 10
31.473
 20
299.616
 30
0.0
 40
0.18
 41
0.18
  0
VERTEX
  8
0
 10
31.4317
 20
299.604
 30
0.0
 40
0.18
 41
0.18
  0
VERTEX
  8
0
 10
31.389
 20
299.592
 30
0.0
 40
0.18
 41
0.18
  0
VERTEX
  8
0
 10
31.174
 20
299.568
 30
0.0
 40
0.18
 41
0.18
  0
VERTEX
  8
0
 10
30.9604
 20
299.592
 30
0.0
 40
0.18
 41
0.18
  0
VERTEX
  8
0
 10
30.919
 20
299.604
 30
0.0
 40
0.18
 41
0.18
  0
VERTEX
  8
0
 10
30.8763
 20
299.616
 30
0.0
 40
0.18
 41
0.18
  0
VERTEX
  8
0
 10
30.682
 20
299.712
 30
0.0
 40
0.18
 41
0.18
  0
VERTEX
  8
0
 10
30.5153
 20
299.849
 30
0.0
 40
0.18
 41
0.18
  0
VERTEX
  8
0
 10
30.4877
 20
299.881
 30
0.0
 40
0.18
 41
0.18
  0
VERTEX
  8
0
 10
30.4588
 20
299.913
 30
0.0
 40
0.18
 41
0.18
  0
VERTEX
  8
0
 10
30.3471
 20
300.1
 30
0.0
 40
0.18
 41
0.18
  0
VERTEX
  8
0
 10
30.2796
 20
300.305
 30
0.0
 40
0.18
 41
0.18
  0
VERTEX
  8
0
 10
30.2741
 20
300.348
 30
0.0
 40
0.18
 41
0.18
  0
VERTEX
  8
0
 10
30.2672
 20
300.392
 30
0.0
 40
0.18
 41
0.18
  0
VERTEX
  8
0
 10
30.2727
 20
300.607
 30
0.0
 40
0.18
 41
0.18
  0
VERTEX
  8
0
 10
30.3279
 20
300.816
 30
0.0
 40
0.18
 41
0.18
  0
VERTEX
  8
0
 10
30.3471
 20
300.855
 30
0.0
 40
0.18
 41
0.18
  0
VERTEX
  8
0
 10
30.3651
 20
300.895
 30
0.0
 40
0.18
 41
0.18
  0
VERTEX
  8
0
 10
30.4863
 20
301.074
 30
0.0
 40
0.18
 41
0.18
  0
VERTEX
  8
0
 10
30.6462
 20
301.219
 30
0.0
 40
0.18
 41
0.18
  0
VERTEX
  8
0
 10
30.6834
 20
301.242
 30
0.0
 40
0.18
 41
0.18
  0
VERTEX
  8
0
 10
30.7192
 20
301.267
 30
0.0
 40
0.18
 41
0.18
  0
VERTEX
  8
0
 10
30.9177
 20
301.351
 30
0.0
 40
0.18
 41
0.18
  0
VERTEX
  8
0
 10
31.1106
 20
301.387
 30
0.0
 40
0.18
 41
0.18
  0
VERTEX
  8
0
 10
31.1754
 20
301.387
 30
0.0
 40
0.18
 41
0.18
  0
SEQEND
 8
0
  0
POLYLINE
  8
0
 62
     0
 66
     1
 10
0
 20
0
 30
0.0
 70
     1
 40
0.510236
 41
0.510236
  0
VERTEX
  8
0
 10
33.0895
 20
314.08
 30
0.0
 40
0.18
 41
0.18
  0
VERTEX
  8
0
 10
26.18
 20
314.08
 30
0.0
 40
0.18
 41
0.18
  0
VERTEX
  8
0
 10
26.1703
 20
314.08
 30
0.0
 40
0.18
 41
0.18
  0
VERTEX
  8
0
 10
26.1414
 20
314.067
 30
0.0
 40
0.18
 41
0.18
  0
VERTEX
  8
0
 10
26.1455
 20
314.047
 30
0.0
 40
0.18
 41
0.18
  0
VERTEX
  8
0
 10
26.1662
 20
314.042
 30
0.0
 40
0.18
 41
0.18
  0
VERTEX
  8
0
 10
26.18
 20
314.071
 30
0.0
 40
0.18
 41
0.18
  0
VERTEX
  8
0
 10
26.18
 20
314.08
 30
0.0
 40
0.18
 41
0.18
  0
VERTEX
  8
0
 10
26.18
 20
316.99
 30
0.0
 40
0.18
 41
0.18
  0
VERTEX
  8
0
 10
26.18
 20
317.007
 30
0.0
 40
0.18
 41
0.18
  0
VERTEX
  8
0
 10
26.1538
 20
317.053
 30
0.0
 40
0.18
 41
0.18
  0
VERTEX
  8
0
 10
26.1056
 20
317.08
 30
0.0
 40
0.18
 41
0.18
  0
VERTEX
  8
0
 10
26.0904
 20
317.08
 30
0.0
 40
0.18
 41
0.18
  0
VERTEX
  8
0
 10
20.0904
 20
317.08
 30
0.0
 40
0.18
 41
0.18
  0
VERTEX
  8
0
 10
20.0739
 20
317.08
 30
0.0
 40
0.18
 41
0.18
  0
VERTEX
  8
0
 10
20.0256
 20
317.053
 30
0.0
 40
0.18
 41
0.18
  0
VERTEX
  8
0
 10
19.9995
 20
317.007
 30
0.0
 40
0.18
 41
0.18
  0
VERTEX
  8
0
 10
19.9995
 20
316.99
 30
0.0
 40
0.18
 41
0.18
  0
VERTEX
  8
0
 10
19.9995
 20
314.08
 30
0.0
 40
0.18
 41
0.18
  0
VERTEX
  8
0
 10
19.9995
 20
314.071
 30
0.0
 40
0.18
 41
0.18
  0
VERTEX
  8
0
 10
20.0119
 20
314.042
 30
0.0
 40
0.18
 41
0.18
  0
VERTEX
  8
0
 10
20.0326
 20
314.047
 30
0.0
 40
0.18
 41
0.18
  0
VERTEX
  8
0
 10
20.0367
 20
314.067
 30
0.0
 40
0.18
 41
0.18
  0
VERTEX
  8
0
 10
20.0077
 20
314.08
 30
0.0
 40
0.18
 41
0.18
  0
VERTEX
  8
0
 10
19.9995
 20
314.08
 30
0.0
 40
0.18
 41
0.18
  0
VERTEX
  8
0
 10
13.09
 20
314.08
 30
0.0
 40
0.18
 41
0.18
  0
VERTEX
  8
0
 10
13.0735
 20
314.08
 30
0.0
 40
0.18
 41
0.18
  0
VERTEX
  8
0
 10
13.0266
 20
314.053
 30
0.0
 40
0.18
 41
0.18
  0
VERTEX
  8
0
 10
13.0004
 20
314.007
 30
0.0
 40
0.18
 41
0.18
  0
VERTEX
  8
0
 10
13.0004
 20
313.99
 30
0.0
 40
0.18
 41
0.18
  0
VERTEX
  8
0
 10
13.0004
 20
307.081
 30
0.0
 40
0.18
 41
0.18
  0
VERTEX
  8
0
 10
13.0004
 20
307.072
 30
0.0
 40
0.18
 41
0.18
  0
VERTEX
  8
0
 10
13.0128
 20
307.043
 30
0.0
 40
0.18
 41
0.18
  0
VERTEX
  8
0
 10
13.0335
 20
307.048
 30
0.0
 40
0.18
 41
0.18
  0
VERTEX
  8
0
 10
13.0376
 20
307.068
 30
0.0
 40
0.18
 41
0.18
  0
VERTEX
  8
0
 10
13.0087
 20
307.081
 30
0.0
 40
0.18
 41
0.18
  0
VERTEX
  8
0
 10
13.0004
 20
307.081
 30
0.0
 40
0.18
 41
0.18
  0
VERTEX
  8
0
 10
10.09
 20
307.081
 30
0.0
 40
0.18
 41
0.18
  0
VERTEX
  8
0
 10
10.0735
 20
307.081
 30
0.0
 40
0.18
 41
0.18
  0
VERTEX
  8
0
 10
10.0266
 20
307.055
 30
0.0
 40
0.18
 41
0.18
  0
VERTEX
  8
0
 10
10.0004
 20
307.006
 30
0.0
 40
0.18
 41
0.18
  0
VERTEX
  8
0
 10
10.0004
 20
306.99
 30
0.0
 40
0.18
 41
0.18
  0
VERTEX
  8
0
 10
10.0004
 20
300.99
 30
0.0
 40
0.18
 41
0.18
  0
VERTEX
  8
0
 10
10.0004
 20
300.974
 30
0.0
 40
0.18
 41
0.18
  0
VERTEX
  8
0
 10
10.0266
 20
300.927
 30
0.0
 40
0.18
 41
0.18
  0
VERTEX
  8
0
 10
10.0735
 20
300.9
 30
0.0
 40
0.18
 41
0.18
  0
VERTEX
  8
0
 10
10.09
 20
300.9
 30
0.0
 40
0.18
 41
0.18
  0
VERTEX
  8
0
 10
13.0004
 20
300.9
 30
0.0
 40
0.18
 41
0.18
  0
VERTEX
  8
0
 10
13.0087
 20
300.9
 30
0.0
 40
0.18
 41
0.18
  0
VERTEX
  8
0
 10
13.0376
 20
300.914
 30
0.0
 40
0.18
 41
0.18
  0
VERTEX
  8
0
 10
13.0335
 20
300.935
 30
0.0
 40
0.18
 41
0.18
  0
VERTEX
  8
0
 10
13.0128
 20
300.939
 30
0.0
 40
0.18
 41
0.18
  0
VERTEX
  8
0
 10
13.0004
 20
300.91
 30
0.0
 40
0.18
 41
0.18
  0
VERTEX
  8
0
 10
13.0004
 20
300.9
 30
0.0
 40
0.18
 41
0.18
  0
VERTEX
  8
0
 10
13.0004
 20
293.989
 30
0.0
 40
0.18
 41
0.18
  0
VERTEX
  8
0
 10
13.0004
 20
293.974
 30
0.0
 40
0.18
 41
0.18
  0
VERTEX
  8
0
 10
13.0266
 20
293.927
 30
0.0
 40
0.18
 41
0.18
  0
VERTEX
  8
0
 10
13.0735
 20
293.9
 30
0.0
 40
0.18
 41
0.18
  0
VERTEX
  8
0
 10
13.09
 20
293.9
 30
0.0
 40
0.18
 41
0.18
  0
VERTEX
  8
0
 10
13.1051
 20
293.9
 30
0.0
 40
0.18
 41
0.18
  0
VERTEX
  8
0
 10
13.1492
 20
293.922
 30
0.0
 40
0.18
 41
0.18
  0
VERTEX
  8
0
 10
13.1534
 20
293.926
 30
0.0
 40
0.18
 41
0.18
  0
VERTEX
  8
0
 10
33.1542
 20
313.927
 30
0.0
 40
0.18
 41
0.18
  0
VERTEX
  8
0
 10
33.1584
 20
313.931
 30
0.0
 40
0.18
 41
0.18
  0
VERTEX
  8
0
 10
33.1804
 20
313.976
 30
0.0
 40
0.18
 41
0.18
  0
VERTEX
  8
0
 10
33.1804
 20
313.99
 30
0.0
 40
0.18
 41
0.18
  0
VERTEX
  8
0
 10
33.1804
 20
314.007
 30
0.0
 40
0.18
 41
0.18
  0
VERTEX
  8
0
 10
33.1529
 20
314.053
 30
0.0
 40
0.18
 41
0.18
  0
VERTEX
  8
0
 10
33.1046
 20
314.08
 30
0.0
 40
0.18
 41
0.18
  0
VERTEX
  8
0
 10
33.0895
 20
314.08
 30
0.0
 40
0.18
 41
0.18
  0
SEQEND
 8
0
  0
POLYLINE
  8
0
 62
     5
 66
     1
 10
0
 20
0
 30
0.0
 70
     1
 40
0.510236
 41
0.510236
  0
VERTEX
  8
0
 10
19.7569
 20
306.414
 30
0.0
 40
0.18
 41
0.18
  0
VERTEX
  8
0
 10
19.6922
 20
306.414
 30
0.0
 40
0.18
 41
0.18
  0
VERTEX
  8
0
 10
19.4992
 20
306.451
 30
0.0
 40
0.18
 41
0.18
  0
VERTEX
  8
0
 10
19.3008
 20
306.535
 30
0.0
 40
0.18
 41
0.18
  0
VERTEX
  8
0
 10
19.265
 20
306.558
 30
0.0
 40
0.18
 41
0.18
  0
VERTEX
  8
0
 10
19.2278
 20
306.582
 30
0.0
 40
0.18
 41
0.18
  0
VERTEX
  8
0
 10
19.0679
 20
306.728
 30
0.0
 40
0.18
 41
0.18
  0
VERTEX
  8
0
 10
18.9466
 20
306.907
 30
0.0
 40
0.18
 41
0.18
  0
VERTEX
  8
0
 10
18.9288
 20
306.946
 30
0.0
 40
0.18
 41
0.18
  0
VERTEX
  8
0
 10
18.9095
 20
306.985
 30
0.0
 40
0.18
 41
0.18
  0
VERTEX
  8
0
 10
18.8543
 20
307.195
 30
0.0
 40
0.18
 41
0.18
  0
VERTEX
  8
0
 10
18.8488
 20
307.41
 30
0.0
 40
0.18
 41
0.18
  0
VERTEX
  8
0
 10
18.8557
 20
307.453
 30
0.0
 40
0.18
 41
0.18
  0
VERTEX
  8
0
 10
18.8612
 20
307.497
 30
0.0
 40
0.18
 41
0.18
  0
VERTEX
  8
0
 10
18.9288
 20
307.702
 30
0.0
 40
0.18
 41
0.18
  0
VERTEX
  8
0
 10
19.0404
 20
307.887
 30
0.0
 40
0.18
 41
0.18
  0
VERTEX
  8
0
 10
19.0693
 20
307.92
 30
0.0
 40
0.18
 41
0.18
  0
VERTEX
  8
0
 10
19.0968
 20
307.953
 30
0.0
 40
0.18
 41
0.18
  0
VERTEX
  8
0
 10
19.2636
 20
308.089
 30
0.0
 40
0.18
 41
0.18
  0
VERTEX
  8
0
 10
19.4579
 20
308.185
 30
0.0
 40
0.18
 41
0.18
  0
VERTEX
  8
0
 10
19.5006
 20
308.197
 30
0.0
 40
0.18
 41
0.18
  0
VERTEX
  8
0
 10
19.5419
 20
308.209
 30
0.0
 40
0.18
 41
0.18
  0
VERTEX
  8
0
 10
19.7556
 20
308.234
 30
0.0
 40
0.18
 41
0.18
  0
VERTEX
  8
0
 10
19.9705
 20
308.209
 30
0.0
 40
0.18
 41
0.18
  0
VERTEX
  8
0
 10
20.0133
 20
308.197
 30
0.0
 40
0.18
 41
0.18
  0
VERTEX
  8
0
 10
20.0546
 20
308.185
 30
0.0
 40
0.18
 41
0.18
  0
VERTEX
  8
0
 10
20.2475
 20
308.089
 30
0.0
 40
0.18
 41
0.18
  0
VERTEX
  8
0
 10
20.4156
 20
307.953
 30
0.0
 40
0.18
 41
0.18
  0
VERTEX
  8
0
 10
20.4446
 20
307.92
 30
0.0
 40
0.18
 41
0.18
  0
VERTEX
  8
0
 10
20.4722
 20
307.887
 30
0.0
 40
0.18
 41
0.18
  0
VERTEX
  8
0
 10
20.5838
 20
307.702
 30
0.0
 40
0.18
 41
0.18
  0
VERTEX
  8
0
 10
20.6499
 20
307.497
 30
0.0
 40
0.18
 41
0.18
  0
VERTEX
  8
0
 10
20.6568
 20
307.453
 30
0.0
 40
0.18
 41
0.18
  0
VERTEX
  8
0
 10
20.6623
 20
307.41
 30
0.0
 40
0.18
 41
0.18
  0
VERTEX
  8
0
 10
20.6568
 20
307.195
 30
0.0
 40
0.18
 41
0.18
  0
VERTEX
  8
0
 10
20.603
 20
306.985
 30
0.0
 40
0.18
 41
0.18
  0
VERTEX
  8
0
 10
20.5851
 20
306.946
 30
0.0
 40
0.18
 41
0.18
  0
VERTEX
  8
0
 10
20.5659
 20
306.907
 30
0.0
 40
0.18
 41
0.18
  0
VERTEX
  8
0
 10
20.4432
 20
306.728
 30
0.0
 40
0.18
 41
0.18
  0
VERTEX
  8
0
 10
20.2847
 20
306.582
 30
0.0
 40
0.18
 41
0.18
  0
VERTEX
  8
0
 10
20.2489
 20
306.558
 30
0.0
 40
0.18
 41
0.18
  0
VERTEX
  8
0
 10
20.2117
 20
306.535
 30
0.0
 40
0.18
 41
0.18
  0
VERTEX
  8
0
 10
20.0119
 20
306.451
 30
0.0
 40
0.18
 41
0.18
  0
VERTEX
  8
0
 10
19.8203
 20
306.414
 30
0.0
 40
0.18
 41
0.18
  0
VERTEX
  8
0
 10
19.7569
 20
306.414
 30
0.0
 40
0.18
 41
0.18
  0
SEQEND
 8
0
  0
POLYLINE
  8
0
 62
     0
 66
     1
 10
0
 20
0
 30
0.0
 70
     1
 40
0.510236
 41
0.510236
  0
VERTEX
  8
0
 10
50.2737
 20
293.721
 30
0.0
 40
0.18
 41
0.18
  0
VERTEX
  8
0
 10
57.1832
 20
293.721
 30
0.0
 40
0.18
 41
0.18
  0
VERTEX
  8
0
 10
57.1913
 20
293.721
 30
0.0
 40
0.18
 41
0.18
  0
VERTEX
  8
0
 10
57.2202
 20
293.734
 30
0.0
 40
0.18
 41
0.18
  0
VERTEX
  8
0
 10
57.2163
 20
293.755
 30
0.0
 40
0.18
 41
0.18
  0
VERTEX
  8
0
 10
57.1955
 20
293.759
 30
0.0
 40
0.18
 41
0.18
  0
VERTEX
  8
0
 10
57.1832
 20
293.73
 30
0.0
 40
0.18
 41
0.18
  0
VERTEX
  8
0
 10
57.1832
 20
293.721
 30
0.0
 40
0.18
 41
0.18
  0
VERTEX
  8
0
 10
57.1832
 20
290.81
 30
0.0
 40
0.18
 41
0.18
  0
VERTEX
  8
0
 10
57.1832
 20
290.795
 30
0.0
 40
0.18
 41
0.18
  0
VERTEX
  8
0
 10
57.2093
 20
290.747
 30
0.0
 40
0.18
 41
0.18
  0
VERTEX
  8
0
 10
57.2576
 20
290.721
 30
0.0
 40
0.18
 41
0.18
  0
VERTEX
  8
0
 10
57.2742
 20
290.721
 30
0.0
 40
0.18
 41
0.18
  0
VERTEX
  8
0
 10
63.2739
 20
290.721
 30
0.0
 40
0.18
 41
0.18
  0
VERTEX
  8
0
 10
63.289
 20
290.721
 30
0.0
 40
0.18
 41
0.18
  0
VERTEX
  8
0
 10
63.3374
 20
290.747
 30
0.0
 40
0.18
 41
0.18
  0
VERTEX
  8
0
 10
63.3635
 20
290.795
 30
0.0
 40
0.18
 41
0.18
  0
VERTEX
  8
0
 10
63.3635
 20
290.81
 30
0.0
 40
0.18
 41
0.18
  0
VERTEX
  8
0
 10
63.3635
 20
293.721
 30
0.0
 40
0.18
 41
0.18
  0
VERTEX
  8
0
 10
63.3635
 20
293.73
 30
0.0
 40
0.18
 41
0.18
  0
VERTEX
  8
0
 10
63.3497
 20
293.759
 30
0.0
 40
0.18
 41
0.18
  0
VERTEX
  8
0
 10
63.3293
 20
293.755
 30
0.0
 40
0.18
 41
0.18
  0
VERTEX
  8
0
 10
63.325
 20
293.734
 30
0.0
 40
0.18
 41
0.18
  0
VERTEX
  8
0
 10
63.3539
 20
293.721
 30
0.0
 40
0.18
 41
0.18
  0
VERTEX
  8
0
 10
63.3635
 20
293.721
 30
0.0
 40
0.18
 41
0.18
  0
VERTEX
  8
0
 10
70.273
 20
293.721
 30
0.0
 40
0.18
 41
0.18
  0
VERTEX
  8
0
 10
70.2882
 20
293.721
 30
0.0
 40
0.18
 41
0.18
  0
VERTEX
  8
0
 10
70.3365
 20
293.747
 30
0.0
 40
0.18
 41
0.18
  0
VERTEX
  8
0
 10
70.364
 20
293.795
 30
0.0
 40
0.18
 41
0.18
  0
VERTEX
  8
0
 10
70.364
 20
293.81
 30
0.0
 40
0.18
 41
0.18
  0
VERTEX
  8
0
 10
70.364
 20
300.72
 30
0.0
 40
0.18
 41
0.18
  0
VERTEX
  8
0
 10
70.364
 20
300.729
 30
0.0
 40
0.18
 41
0.18
  0
VERTEX
  8
0
 10
70.3502
 20
300.758
 30
0.0
 40
0.18
 41
0.18
  0
VERTEX
  8
0
 10
70.3294
 20
300.754
 30
0.0
 40
0.18
 41
0.18
  0
VERTEX
  8
0
 10
70.3255
 20
300.734
 30
0.0
 40
0.18
 41
0.18
  0
VERTEX
  8
0
 10
70.3545
 20
300.72
 30
0.0
 40
0.18
 41
0.18
  0
VERTEX
  8
0
 10
70.364
 20
300.72
 30
0.0
 40
0.18
 41
0.18
  0
VERTEX
  8
0
 10
73.273
 20
300.72
 30
0.0
 40
0.18
 41
0.18
  0
VERTEX
  8
0
 10
73.2882
 20
300.72
 30
0.0
 40
0.18
 41
0.18
  0
VERTEX
  8
0
 10
73.3365
 20
300.747
 30
0.0
 40
0.18
 41
0.18
  0
VERTEX
  8
0
 10
73.364
 20
300.795
 30
0.0
 40
0.18
 41
0.18
  0
VERTEX
  8
0
 10
73.364
 20
300.81
 30
0.0
 40
0.18
 41
0.18
  0
VERTEX
  8
0
 10
73.364
 20
306.81
 30
0.0
 40
0.18
 41
0.18
  0
VERTEX
  8
0
 10
73.364
 20
306.827
 30
0.0
 40
0.18
 41
0.18
  0
VERTEX
  8
0
 10
73.3365
 20
306.874
 30
0.0
 40
0.18
 41
0.18
  0
VERTEX
  8
0
 10
73.2882
 20
306.9
 30
0.0
 40
0.18
 41
0.18
  0
VERTEX
  8
0
 10
73.273
 20
306.9
 30
0.0
 40
0.18
 41
0.18
  0
VERTEX
  8
0
 10
70.364
 20
306.9
 30
0.0
 40
0.18
 41
0.18
  0
VERTEX
  8
0
 10
70.3545
 20
306.9
 30
0.0
 40
0.18
 41
0.18
  0
VERTEX
  8
0
 10
70.3255
 20
306.888
 30
0.0
 40
0.18
 41
0.18
  0
VERTEX
  8
0
 10
70.3294
 20
306.867
 30
0.0
 40
0.18
 41
0.18
  0
VERTEX
  8
0
 10
70.3502
 20
306.863
 30
0.0
 40
0.18
 41
0.18
  0
VERTEX
  8
0
 10
70.364
 20
306.892
 30
0.0
 40
0.18
 41
0.18
  0
VERTEX
  8
0
 10
70.364
 20
306.9
 30
0.0
 40
0.18
 41
0.18
  0
VERTEX
  8
0
 10
70.364
 20
313.81
 30
0.0
 40
0.18
 41
0.18
  0
VERTEX
  8
0
 10
70.364
 20
313.826
 30
0.0
 40
0.18
 41
0.18
  0
VERTEX
  8
0
 10
70.3365
 20
313.875
 30
0.0
 40
0.18
 41
0.18
  0
VERTEX
  8
0
 10
70.2882
 20
313.901
 30
0.0
 40
0.18
 41
0.18
  0
VERTEX
  8
0
 10
70.273
 20
313.901
 30
0.0
 40
0.18
 41
0.18
  0
VERTEX
  8
0
 10
70.2564
 20
313.901
 30
0.0
 40
0.18
 41
0.18
  0
VERTEX
  8
0
 10
70.2137
 20
313.878
 30
0.0
 40
0.18
 41
0.18
  0
VERTEX
  8
0
 10
70.2098
 20
313.875
 30
0.0
 40
0.18
 41
0.18
  0
VERTEX
  8
0
 10
50.2102
 20
293.873
 30
0.0
 40
0.18
 41
0.18
  0
VERTEX
  8
0
 10
50.2049
 20
293.87
 30
0.0
 40
0.18
 41
0.18
  0
VERTEX
  8
0
 10
50.184
 20
293.825
 30
0.0
 40
0.18
 41
0.18
  0
VERTEX
  8
0
 10
50.184
 20
293.81
 30
0.0
 40
0.18
 41
0.18
  0
VERTEX
  8
0
 10
50.184
 20
293.795
 30
0.0
 40
0.18
 41
0.18
  0
VERTEX
  8
0
 10
50.2102
 20
293.747
 30
0.0
 40
0.18
 41
0.18
  0
VERTEX
  8
0
 10
50.2571
 20
293.721
 30
0.0
 40
0.18
 41
0.18
  0
VERTEX
  8
0
 10
50.2737
 20
293.721
 30
0.0
 40
0.18
 41
0.18
  0
SEQEND
 8
0
  0
POLYLINE
  8
0
 62
     5
 66
     1
 10
0
 20
0
 30
0.0
 70
     1
 40
0.510236
 41
0.510236
  0
VERTEX
  8
0
 10
63.6076
 20
301.387
 30
0.0
 40
0.18
 41
0.18
  0
VERTEX
  8
0
 10
63.6707
 20
301.387
 30
0.0
 40
0.18
 41
0.18
  0
VERTEX
  8
0
 10
63.8623
 20
301.351
 30
0.0
 40
0.18
 41
0.18
  0
VERTEX
  8
0
 10
64.0609
 20
301.267
 30
0.0
 40
0.18
 41
0.18
  0
VERTEX
  8
0
 10
64.098
 20
301.242
 30
0.0
 40
0.18
 41
0.18
  0
VERTEX
  8
0
 10
64.1339
 20
301.219
 30
0.0
 40
0.18
 41
0.18
  0
VERTEX
  8
0
 10
64.2938
 20
301.074
 30
0.0
 40
0.18
 41
0.18
  0
VERTEX
  8
0
 10
64.4165
 20
300.895
 30
0.0
 40
0.18
 41
0.18
  0
VERTEX
  8
0
 10
64.4342
 20
300.855
 30
0.0
 40
0.18
 41
0.18
  0
VERTEX
  8
0
 10
64.4521
 20
300.816
 30
0.0
 40
0.18
 41
0.18
  0
VERTEX
  8
0
 10
64.5072
 20
300.607
 30
0.0
 40
0.18
 41
0.18
  0
VERTEX
  8
0
 10
64.5128
 20
300.392
 30
0.0
 40
0.18
 41
0.18
  0
VERTEX
  8
0
 10
64.5072
 20
300.348
 30
0.0
 40
0.18
 41
0.18
  0
VERTEX
  8
0
 10
64.5005
 20
300.305
 30
0.0
 40
0.18
 41
0.18
  0
VERTEX
  8
0
 10
64.4342
 20
300.1
 30
0.0
 40
0.18
 41
0.18
  0
VERTEX
  8
0
 10
64.3227
 20
299.913
 30
0.0
 40
0.18
 41
0.18
  0
VERTEX
  8
0
 10
64.2952
 20
299.881
 30
0.0
 40
0.18
 41
0.18
  0
VERTEX
  8
0
 10
64.2662
 20
299.849
 30
0.0
 40
0.18
 41
0.18
  0
VERTEX
  8
0
 10
64.098
 20
299.712
 30
0.0
 40
0.18
 41
0.18
  0
VERTEX
  8
0
 10
63.905
 20
299.616
 30
0.0
 40
0.18
 41
0.18
  0
VERTEX
  8
0
 10
63.8637
 20
299.604
 30
0.0
 40
0.18
 41
0.18
  0
VERTEX
  8
0
 10
63.821
 20
299.592
 30
0.0
 40
0.18
 41
0.18
  0
VERTEX
  8
0
 10
63.6062
 20
299.568
 30
0.0
 40
0.18
 41
0.18
  0
VERTEX
  8
0
 10
63.391
 20
299.592
 30
0.0
 40
0.18
 41
0.18
  0
VERTEX
  8
0
 10
63.3497
 20
299.604
 30
0.0
 40
0.18
 41
0.18
  0
VERTEX
  8
0
 10
63.307
 20
299.616
 30
0.0
 40
0.18
 41
0.18
  0
VERTEX
  8
0
 10
63.1141
 20
299.712
 30
0.0
 40
0.18
 41
0.18
  0
VERTEX
  8
0
 10
62.9461
 20
299.849
 30
0.0
 40
0.18
 41
0.18
  0
VERTEX
  8
0
 10
62.9186
 20
299.881
 30
0.0
 40
0.18
 41
0.18
  0
VERTEX
  8
0
 10
62.8897
 20
299.913
 30
0.0
 40
0.18
 41
0.18
  0
VERTEX
  8
0
 10
62.7793
 20
300.1
 30
0.0
 40
0.18
 41
0.18
  0
VERTEX
  8
0
 10
62.7119
 20
300.305
 30
0.0
 40
0.18
 41
0.18
  0
VERTEX
  8
0
 10
62.7063
 20
300.348
 30
0.0
 40
0.18
 41
0.18
  0
VERTEX
  8
0
 10
62.6992
 20
300.392
 30
0.0
 40
0.18
 41
0.18
  0
VERTEX
  8
0
 10
62.7048
 20
300.607
 30
0.0
 40
0.18
 41
0.18
  0
VERTEX
  8
0
 10
62.7599
 20
300.816
 30
0.0
 40
0.18
 41
0.18
  0
VERTEX
  8
0
 10
62.7793
 20
300.855
 30
0.0
 40
0.18
 41
0.18
  0
VERTEX
  8
0
 10
62.7973
 20
300.895
 30
0.0
 40
0.18
 41
0.18
  0
VERTEX
  8
0
 10
62.9186
 20
301.074
 30
0.0
 40
0.18
 41
0.18
  0
VERTEX
  8
0
 10
63.077
 20
301.219
 30
0.0
 40
0.18
 41
0.18
  0
VERTEX
  8
0
 10
63.1141
 20
301.242
 30
0.0
 40
0.18
 41
0.18
  0
VERTEX
  8
0
 10
63.15
 20
301.267
 30
0.0
 40
0.18
 41
0.18
  0
VERTEX
  8
0
 10
63.3497
 20
301.351
 30
0.0
 40
0.18
 41
0.18
  0
VERTEX
  8
0
 10
63.5427
 20
301.387
 30
0.0
 40
0.18
 41
0.18
  0
VERTEX
  8
0
 10
63.6076
 20
301.387
 30
0.0
 40
0.18
 41
0.18
  0
SEQEND
 8
0
  0
POLYLINE
  8
0
 62
     0
 66
     1
 10
0
 20
0
 30
0.0
 70
     1
 40
0.510236
 41
0.510236
  0
VERTEX
  8
0
 10
65.5214
 20
314.08
 30
0.0
 40
0.18
 41
0.18
  0
VERTEX
  8
0
 10
58.6123
 20
314.08
 30
0.0
 40
0.18
 41
0.18
  0
VERTEX
  8
0
 10
58.6024
 20
314.08
 30
0.0
 40
0.18
 41
0.18
  0
VERTEX
  8
0
 10
58.5735
 20
314.067
 30
0.0
 40
0.18
 41
0.18
  0
VERTEX
  8
0
 10
58.5777
 20
314.047
 30
0.0
 40
0.18
 41
0.18
  0
VERTEX
  8
0
 10
58.5982
 20
314.042
 30
0.0
 40
0.18
 41
0.18
  0
VERTEX
  8
0
 10
58.6123
 20
314.071
 30
0.0
 40
0.18
 41
0.18
  0
VERTEX
  8
0
 10
58.6123
 20
314.08
 30
0.0
 40
0.18
 41
0.18
  0
VERTEX
  8
0
 10
58.6123
 20
316.99
 30
0.0
 40
0.18
 41
0.18
  0
VERTEX
  8
0
 10
58.6123
 20
317.007
 30
0.0
 40
0.18
 41
0.18
  0
VERTEX
  8
0
 10
58.5844
 20
317.053
 30
0.0
 40
0.18
 41
0.18
  0
VERTEX
  8
0
 10
58.5364
 20
317.08
 30
0.0
 40
0.18
 41
0.18
  0
VERTEX
  8
0
 10
58.5212
 20
317.08
 30
0.0
 40
0.18
 41
0.18
  0
VERTEX
  8
0
 10
52.5226
 20
317.08
 30
0.0
 40
0.18
 41
0.18
  0
VERTEX
  8
0
 10
52.506
 20
317.08
 30
0.0
 40
0.18
 41
0.18
  0
VERTEX
  8
0
 10
52.4577
 20
317.053
 30
0.0
 40
0.18
 41
0.18
  0
VERTEX
  8
0
 10
52.4316
 20
317.007
 30
0.0
 40
0.18
 41
0.18
  0
VERTEX
  8
0
 10
52.4316
 20
316.99
 30
0.0
 40
0.18
 41
0.18
  0
VERTEX
  8
0
 10
52.4316
 20
314.08
 30
0.0
 40
0.18
 41
0.18
  0
VERTEX
  8
0
 10
52.4316
 20
314.071
 30
0.0
 40
0.18
 41
0.18
  0
VERTEX
  8
0
 10
52.4439
 20
314.042
 30
0.0
 40
0.18
 41
0.18
  0
VERTEX
  8
0
 10
52.4648
 20
314.047
 30
0.0
 40
0.18
 41
0.18
  0
VERTEX
  8
0
 10
52.4686
 20
314.067
 30
0.0
 40
0.18
 41
0.18
  0
VERTEX
  8
0
 10
52.4397
 20
314.08
 30
0.0
 40
0.18
 41
0.18
  0
VERTEX
  8
0
 10
52.4316
 20
314.08
 30
0.0
 40
0.18
 41
0.18
  0
VERTEX
  8
0
 10
45.5221
 20
314.08
 30
0.0
 40
0.18
 41
0.18
  0
VERTEX
  8
0
 10
45.5055
 20
314.08
 30
0.0
 40
0.18
 41
0.18
  0
VERTEX
  8
0
 10
45.4572
 20
314.053
 30
0.0
 40
0.18
 41
0.18
  0
VERTEX
  8
0
 10
45.4311
 20
314.007
 30
0.0
 40
0.18
 41
0.18
  0
VERTEX
  8
0
 10
45.4311
 20
313.99
 30
0.0
 40
0.18
 41
0.18
  0
VERTEX
  8
0
 10
45.4311
 20
307.081
 30
0.0
 40
0.18
 41
0.18
  0
VERTEX
  8
0
 10
45.4311
 20
307.072
 30
0.0
 40
0.18
 41
0.18
  0
VERTEX
  8
0
 10
45.4434
 20
307.043
 30
0.0
 40
0.18
 41
0.18
  0
VERTEX
  8
0
 10
45.4642
 20
307.048
 30
0.0
 40
0.18
 41
0.18
  0
VERTEX
  8
0
 10
45.4685
 20
307.068
 30
0.0
 40
0.18
 41
0.18
  0
VERTEX
  8
0
 10
45.4395
 20
307.081
 30
0.0
 40
0.18
 41
0.18
  0
VERTEX
  8
0
 10
45.4311
 20
307.081
 30
0.0
 40
0.18
 41
0.18
  0
VERTEX
  8
0
 10
42.5221
 20
307.081
 30
0.0
 40
0.18
 41
0.18
  0
VERTEX
  8
0
 10
42.5055
 20
307.081
 30
0.0
 40
0.18
 41
0.18
  0
VERTEX
  8
0
 10
42.4575
 20
307.055
 30
0.0
 40
0.18
 41
0.18
  0
VERTEX
  8
0
 10
42.4311
 20
307.006
 30
0.0
 40
0.18
 41
0.18
  0
VERTEX
  8
0
 10
42.4311
 20
306.99
 30
0.0
 40
0.18
 41
0.18
  0
VERTEX
  8
0
 10
42.4311
 20
300.99
 30
0.0
 40
0.18
 41
0.18
  0
VERTEX
  8
0
 10
42.4311
 20
300.974
 30
0.0
 40
0.18
 41
0.18
  0
VERTEX
  8
0
 10
42.4575
 20
300.927
 30
0.0
 40
0.18
 41
0.18
  0
VERTEX
  8
0
 10
42.5055
 20
300.9
 30
0.0
 40
0.18
 41
0.18
  0
VERTEX
  8
0
 10
42.5221
 20
300.9
 30
0.0
 40
0.18
 41
0.18
  0
VERTEX
  8
0
 10
45.4311
 20
300.9
 30
0.0
 40
0.18
 41
0.18
  0
VERTEX
  8
0
 10
45.4395
 20
300.9
 30
0.0
 40
0.18
 41
0.18
  0
VERTEX
  8
0
 10
45.4685
 20
300.914
 30
0.0
 40
0.18
 41
0.18
  0
VERTEX
  8
0
 10
45.4642
 20
300.935
 30
0.0
 40
0.18
 41
0.18
  0
VERTEX
  8
0
 10
45.4434
 20
300.939
 30
0.0
 40
0.18
 41
0.18
  0
VERTEX
  8
0
 10
45.4311
 20
300.91
 30
0.0
 40
0.18
 41
0.18
  0
VERTEX
  8
0
 10
45.4311
 20
300.9
 30
0.0
 40
0.18
 41
0.18
  0
VERTEX
  8
0
 10
45.4311
 20
293.989
 30
0.0
 40
0.18
 41
0.18
  0
VERTEX
  8
0
 10
45.4311
 20
293.974
 30
0.0
 40
0.18
 41
0.18
  0
VERTEX
  8
0
 10
45.4572
 20
293.927
 30
0.0
 40
0.18
 41
0.18
  0
VERTEX
  8
0
 10
45.5055
 20
293.9
 30
0.0
 40
0.18
 41
0.18
  0
VERTEX
  8
0
 10
45.5221
 20
293.9
 30
0.0
 40
0.18
 41
0.18
  0
VERTEX
  8
0
 10
45.5373
 20
293.9
 30
0.0
 40
0.18
 41
0.18
  0
VERTEX
  8
0
 10
45.5814
 20
293.922
 30
0.0
 40
0.18
 41
0.18
  0
VERTEX
  8
0
 10
45.5856
 20
293.926
 30
0.0
 40
0.18
 41
0.18
  0
VERTEX
  8
0
 10
65.5849
 20
313.927
 30
0.0
 40
0.18
 41
0.18
  0
VERTEX
  8
0
 10
65.5891
 20
313.931
 30
0.0
 40
0.18
 41
0.18
  0
VERTEX
  8
0
 10
65.611
 20
313.976
 30
0.0
 40
0.18
 41
0.18
  0
VERTEX
  8
0
 10
65.611
 20
313.99
 30
0.0
 40
0.18
 41
0.18
  0
VERTEX
  8
0
 10
65.611
 20
314.007
 30
0.0
 40
0.18
 41
0.18
  0
VERTEX
  8
0
 10
65.5849
 20
314.053
 30
0.0
 40
0.18
 41
0.18
  0
VERTEX
  8
0
 10
65.5366
 20
314.08
 30
0.0
 40
0.18
 41
0.18
  0
VERTEX
  8
0
 10
65.5214
 20
314.08
 30
0.0
 40
0.18
 41
0.18
  0
SEQEND
 8
0
  0
POLYLINE
  8
0
 62
     5
 66
     1
 10
0
 20
0
 30
0.0
 70
     1
 40
0.510236
 41
0.510236
  0
VERTEX
  8
0
 10
52.1892
 20
306.414
 30
0.0
 40
0.18
 41
0.18
  0
VERTEX
  8
0
 10
52.1243
 20
306.414
 30
0.0
 40
0.18
 41
0.18
  0
VERTEX
  8
0
 10
51.9314
 20
306.451
 30
0.0
 40
0.18
 41
0.18
  0
VERTEX
  8
0
 10
51.7317
 20
306.535
 30
0.0
 40
0.18
 41
0.18
  0
VERTEX
  8
0
 10
51.6957
 20
306.558
 30
0.0
 40
0.18
 41
0.18
  0
VERTEX
  8
0
 10
51.6587
 20
306.582
 30
0.0
 40
0.18
 41
0.18
  0
VERTEX
  8
0
 10
51.4999
 20
306.728
 30
0.0
 40
0.18
 41
0.18
  0
VERTEX
  8
0
 10
51.3789
 20
306.907
 30
0.0
 40
0.18
 41
0.18
  0
VERTEX
  8
0
 10
51.3609
 20
306.946
 30
0.0
 40
0.18
 41
0.18
  0
VERTEX
  8
0
 10
51.3415
 20
306.985
 30
0.0
 40
0.18
 41
0.18
  0
VERTEX
  8
0
 10
51.2865
 20
307.195
 30
0.0
 40
0.18
 41
0.18
  0
VERTEX
  8
0
 10
51.2808
 20
307.41
 30
0.0
 40
0.18
 41
0.18
  0
VERTEX
  8
0
 10
51.2879
 20
307.453
 30
0.0
 40
0.18
 41
0.18
  0
VERTEX
  8
0
 10
51.2932
 20
307.497
 30
0.0
 40
0.18
 41
0.18
  0
VERTEX
  8
0
 10
51.3595
 20
307.702
 30
0.0
 40
0.18
 41
0.18
  0
VERTEX
  8
0
 10
51.471
 20
307.887
 30
0.0
 40
0.18
 41
0.18
  0
VERTEX
  8
0
 10
51.4999
 20
307.92
 30
0.0
 40
0.18
 41
0.18
  0
VERTEX
  8
0
 10
51.5278
 20
307.953
 30
0.0
 40
0.18
 41
0.18
  0
VERTEX
  8
0
 10
51.6957
 20
308.089
 30
0.0
 40
0.18
 41
0.18
  0
VERTEX
  8
0
 10
51.8901
 20
308.185
 30
0.0
 40
0.18
 41
0.18
  0
VERTEX
  8
0
 10
51.9328
 20
308.197
 30
0.0
 40
0.18
 41
0.18
  0
VERTEX
  8
0
 10
51.974
 20
308.209
 30
0.0
 40
0.18
 41
0.18
  0
VERTEX
  8
0
 10
52.1878
 20
308.234
 30
0.0
 40
0.18
 41
0.18
  0
VERTEX
  8
0
 10
52.4013
 20
308.209
 30
0.0
 40
0.18
 41
0.18
  0
VERTEX
  8
0
 10
52.4439
 20
308.197
 30
0.0
 40
0.18
 41
0.18
  0
VERTEX
  8
0
 10
52.4852
 20
308.185
 30
0.0
 40
0.18
 41
0.18
  0
VERTEX
  8
0
 10
52.6796
 20
308.089
 30
0.0
 40
0.18
 41
0.18
  0
VERTEX
  8
0
 10
52.8479
 20
307.953
 30
0.0
 40
0.18
 41
0.18
  0
VERTEX
  8
0
 10
52.8768
 20
307.92
 30
0.0
 40
0.18
 41
0.18
  0
VERTEX
  8
0
 10
52.9043
 20
307.887
 30
0.0
 40
0.18
 41
0.18
  0
VERTEX
  8
0
 10
53.0158
 20
307.702
 30
0.0
 40
0.18
 41
0.18
  0
VERTEX
  8
0
 10
53.0821
 20
307.497
 30
0.0
 40
0.18
 41
0.18
  0
VERTEX
  8
0
 10
53.0888
 20
307.453
 30
0.0
 40
0.18
 41
0.18
  0
VERTEX
  8
0
 10
53.0945
 20
307.41
 30
0.0
 40
0.18
 41
0.18
  0
VERTEX
  8
0
 10
53.0888
 20
307.195
 30
0.0
 40
0.18
 41
0.18
  0
VERTEX
  8
0
 10
53.0338
 20
306.985
 30
0.0
 40
0.18
 41
0.18
  0
VERTEX
  8
0
 10
53.0158
 20
306.946
 30
0.0
 40
0.18
 41
0.18
  0
VERTEX
  8
0
 10
52.9978
 20
306.907
 30
0.0
 40
0.18
 41
0.18
  0
VERTEX
  8
0
 10
52.8754
 20
306.728
 30
0.0
 40
0.18
 41
0.18
  0
VERTEX
  8
0
 10
52.7156
 20
306.582
 30
0.0
 40
0.18
 41
0.18
  0
VERTEX
  8
0
 10
52.6796
 20
306.558
 30
0.0
 40
0.18
 41
0.18
  0
VERTEX
  8
0
 10
52.6426
 20
306.535
 30
0.0
 40
0.18
 41
0.18
  0
VERTEX
  8
0
 10
52.4439
 20
306.451
 30
0.0
 40
0.18
 41
0.18
  0
VERTEX
  8
0
 10
52.2524
 20
306.414
 30
0.0
 40
0.18
 41
0.18
  0
VERTEX
  8
0
 10
52.1892
 20
306.414
 30
0.0
 40
0.18
 41
0.18
  0
SEQEND
 8
0
  0
ENDSEC
  0
EOF
