<?xml version="1.0" encoding="UTF-8" standalone="no"?>
<!-- Created with Inkscape (http://www.inkscape.org/) -->

<svg
   version="1.1"
   id="svg2"
   xml:space="preserve"
   width="24in"
   height="18in"
   viewBox="0 0 2304 1728"
   sodipodi:docname="gauge_plate_2022_04_29.svg"
   inkscape:version="1.1.1 (3bf5ae0d25, 2021-09-20)"
   xmlns:inkscape="http://www.inkscape.org/namespaces/inkscape"
   xmlns:sodipodi="http://sodipodi.sourceforge.net/DTD/sodipodi-0.dtd"
   xmlns="http://www.w3.org/2000/svg"
   xmlns:svg="http://www.w3.org/2000/svg"
   xmlns:rdf="http://www.w3.org/1999/02/22-rdf-syntax-ns#"
   xmlns:cc="http://creativecommons.org/ns#"
   xmlns:dc="http://purl.org/dc/elements/1.1/"><metadata
     id="metadata8"><rdf:RDF><cc:Work
         rdf:about=""><dc:format>image/svg+xml</dc:format><dc:type
           rdf:resource="http://purl.org/dc/dcmitype/StillImage" /></cc:Work></rdf:RDF></metadata><defs
     id="defs6"><clipPath
       clipPathUnits="userSpaceOnUse"
       id="clipPath18"><path
         d="M 0,1296 H 1728 V 0 H 0 Z"
         id="path16"
         inkscape:connector-curvature="0" /></clipPath><clipPath
       clipPathUnits="userSpaceOnUse"
       id="clipPath66"><path
         d="M 0,1296 H 1728 V 0 H 0 Z"
         id="path64"
         inkscape:connector-curvature="0" /></clipPath><clipPath
       clipPathUnits="userSpaceOnUse"
       id="clipPath114"><path
         d="M 0,1296 H 1728 V 0 H 0 Z"
         id="path112"
         inkscape:connector-curvature="0" /></clipPath><clipPath
       clipPathUnits="userSpaceOnUse"
       id="clipPath126"><path
         d="M 639.733,602.209 H 712.82 V 515.643 H 639.733 Z"
         id="path124"
         inkscape:connector-curvature="0" /></clipPath><clipPath
       clipPathUnits="userSpaceOnUse"
       id="clipPath142"><path
         d="m 719.43,602.471 h 96.184 V 512.306 H 719.43 Z"
         id="path140"
         inkscape:connector-curvature="0" /></clipPath><clipPath
       clipPathUnits="userSpaceOnUse"
       id="clipPath158"><path
         d="m 827.326,599.003 h 55.747 v -83.36 h -55.747 z"
         id="path156"
         inkscape:connector-curvature="0" /></clipPath><clipPath
       clipPathUnits="userSpaceOnUse"
       id="clipPath174"><path
         d="m 894.851,599.003 h 37.558 v -83.36 h -37.558 z"
         id="path172"
         inkscape:connector-curvature="0" /></clipPath><clipPath
       clipPathUnits="userSpaceOnUse"
       id="clipPath190"><path
         d="m 943.466,599.003 h 51.756 v -83.36 h -51.756 z"
         id="path188"
         inkscape:connector-curvature="0" /></clipPath><clipPath
       clipPathUnits="userSpaceOnUse"
       id="clipPath210"><path
         d="m 1082.6,582.097 h 64.12 v -64.115 h -64.12 z"
         id="path208"
         inkscape:connector-curvature="0" /></clipPath><clipPath
       clipPathUnits="userSpaceOnUse"
       id="clipPath226"><path
         d="m 1094.14,570.557 h 41.04 v -41.034 h -41.04 z"
         id="path224"
         inkscape:connector-curvature="0" /></clipPath><marker
       id="DistanceX"
       orient="auto"
       refX="0.0"
       refY="0.0"
       style="overflow:visible"><path
         d="M 3,-3 L -3,3 M 0,-5 L  0,5"
         style="stroke:#000000; stroke-width:0.5"
         id="path1087" /></marker><pattern
       id="Hatch"
       patternUnits="userSpaceOnUse"
       width="8"
       height="8"
       x="0"
       y="0"><path
         d="M8 4 l-4,4"
         stroke="#000000"
         stroke-width="0.25"
         linecap="square"
         id="path1090" /><path
         d="M6 2 l-4,4"
         stroke="#000000"
         stroke-width="0.25"
         linecap="square"
         id="path1092" /><path
         d="M4 0 l-4,4"
         stroke="#000000"
         stroke-width="0.25"
         linecap="square"
         id="path1094" /></pattern><symbol
       id="*MODEL_SPACE" /><symbol
       id="*PAPER_SPACE" /><marker
       id="DistanceX-7"
       orient="auto"
       refX="0.0"
       refY="0.0"
       style="overflow:visible"><path
         d="M 3,-3 L -3,3 M 0,-5 L  0,5"
         style="stroke:#000000; stroke-width:0.5"
         id="path1133" /></marker><pattern
       id="Hatch-1"
       patternUnits="userSpaceOnUse"
       width="8"
       height="8"
       x="0"
       y="0"><path
         d="M8 4 l-4,4"
         stroke="#000000"
         stroke-width="0.25"
         linecap="square"
         id="path1136" /><path
         d="M6 2 l-4,4"
         stroke="#000000"
         stroke-width="0.25"
         linecap="square"
         id="path1138" /><path
         d="M4 0 l-4,4"
         stroke="#000000"
         stroke-width="0.25"
         linecap="square"
         id="path1140" /></pattern><symbol
       id="*MODEL_SPACE-7" /><symbol
       id="*PAPER_SPACE-9" /><marker
       id="DistanceX-5"
       orient="auto"
       refX="0.0"
       refY="0.0"
       style="overflow:visible"><path
         d="M 3,-3 L -3,3 M 0,-5 L  0,5"
         style="stroke:#000000; stroke-width:0.5"
         id="path1173" /></marker><pattern
       id="Hatch-8"
       patternUnits="userSpaceOnUse"
       width="8"
       height="8"
       x="0"
       y="0"><path
         d="M8 4 l-4,4"
         stroke="#000000"
         stroke-width="0.25"
         linecap="square"
         id="path1176" /><path
         d="M6 2 l-4,4"
         stroke="#000000"
         stroke-width="0.25"
         linecap="square"
         id="path1178" /><path
         d="M4 0 l-4,4"
         stroke="#000000"
         stroke-width="0.25"
         linecap="square"
         id="path1180" /></pattern><symbol
       id="*MODEL_SPACE-1" /><symbol
       id="*PAPER_SPACE-93" /><marker
       id="DistanceX-9"
       orient="auto"
       refX="0.0"
       refY="0.0"
       style="overflow:visible"><path
         d="M 3,-3 L -3,3 M 0,-5 L  0,5"
         style="stroke:#000000; stroke-width:0.5"
         id="path1272" /></marker><pattern
       id="Hatch-12"
       patternUnits="userSpaceOnUse"
       width="8"
       height="8"
       x="0"
       y="0"><path
         d="M8 4 l-4,4"
         stroke="#000000"
         stroke-width="0.25"
         linecap="square"
         id="path1275" /><path
         d="M6 2 l-4,4"
         stroke="#000000"
         stroke-width="0.25"
         linecap="square"
         id="path1277" /><path
         d="M4 0 l-4,4"
         stroke="#000000"
         stroke-width="0.25"
         linecap="square"
         id="path1279" /></pattern><symbol
       id="*MODEL_SPACE-6" /><symbol
       id="*PAPER_SPACE-0" /><marker
       id="DistanceX-4"
       orient="auto"
       refX="0.0"
       refY="0.0"
       style="overflow:visible"><path
         d="M 3,-3 L -3,3 M 0,-5 L  0,5"
         style="stroke:#000000; stroke-width:0.5"
         id="path1318" /></marker><pattern
       id="Hatch-17"
       patternUnits="userSpaceOnUse"
       width="8"
       height="8"
       x="0"
       y="0"><path
         d="M8 4 l-4,4"
         stroke="#000000"
         stroke-width="0.25"
         linecap="square"
         id="path1321" /><path
         d="M6 2 l-4,4"
         stroke="#000000"
         stroke-width="0.25"
         linecap="square"
         id="path1323" /><path
         d="M4 0 l-4,4"
         stroke="#000000"
         stroke-width="0.25"
         linecap="square"
         id="path1325" /></pattern><symbol
       id="*MODEL_SPACE-0" /><symbol
       id="*PAPER_SPACE-1" /><marker
       id="DistanceX-0"
       orient="auto"
       refX="0.0"
       refY="0.0"
       style="overflow:visible"><path
         d="M 3,-3 L -3,3 M 0,-5 L  0,5"
         style="stroke:#000000; stroke-width:0.5"
         id="path1358" /></marker><pattern
       id="Hatch-0"
       patternUnits="userSpaceOnUse"
       width="8"
       height="8"
       x="0"
       y="0"><path
         d="M8 4 l-4,4"
         stroke="#000000"
         stroke-width="0.25"
         linecap="square"
         id="path1361" /><path
         d="M6 2 l-4,4"
         stroke="#000000"
         stroke-width="0.25"
         linecap="square"
         id="path1363" /><path
         d="M4 0 l-4,4"
         stroke="#000000"
         stroke-width="0.25"
         linecap="square"
         id="path1365" /></pattern><symbol
       id="*MODEL_SPACE-65" /><symbol
       id="*PAPER_SPACE-06" /><marker
       id="DistanceX-6"
       orient="auto"
       refX="0.0"
       refY="0.0"
       style="overflow:visible"><path
         d="M 3,-3 L -3,3 M 0,-5 L  0,5"
         style="stroke:#000000; stroke-width:0.5"
         id="path1560" /></marker><pattern
       id="Hatch-80"
       patternUnits="userSpaceOnUse"
       width="8"
       height="8"
       x="0"
       y="0"><path
         d="M8 4 l-4,4"
         stroke="#000000"
         stroke-width="0.25"
         linecap="square"
         id="path1563" /><path
         d="M6 2 l-4,4"
         stroke="#000000"
         stroke-width="0.25"
         linecap="square"
         id="path1565" /><path
         d="M4 0 l-4,4"
         stroke="#000000"
         stroke-width="0.25"
         linecap="square"
         id="path1567" /></pattern><symbol
       id="*MODEL_SPACE-03" /><symbol
       id="*PAPER_SPACE-4" /><marker
       id="DistanceX-3"
       orient="auto"
       refX="0.0"
       refY="0.0"
       style="overflow:visible"><path
         d="M 3,-3 L -3,3 M 0,-5 L  0,5"
         style="stroke:#000000; stroke-width:0.5"
         id="path1193" /></marker><pattern
       id="Hatch-02"
       patternUnits="userSpaceOnUse"
       width="8"
       height="8"
       x="0"
       y="0"><path
         d="M8 4 l-4,4"
         stroke="#000000"
         stroke-width="0.25"
         linecap="square"
         id="path1196" /><path
         d="M6 2 l-4,4"
         stroke="#000000"
         stroke-width="0.25"
         linecap="square"
         id="path1198" /><path
         d="M4 0 l-4,4"
         stroke="#000000"
         stroke-width="0.25"
         linecap="square"
         id="path1200" /></pattern><symbol
       id="*MODEL_SPACE-09" /><symbol
       id="*PAPER_SPACE-7" /><marker
       id="DistanceX-1"
       orient="auto"
       refX="0.0"
       refY="0.0"
       style="overflow:visible"><path
         d="M 3,-3 L -3,3 M 0,-5 L  0,5"
         style="stroke:#000000; stroke-width:0.5"
         id="path1395" /></marker><pattern
       id="Hatch-3"
       patternUnits="userSpaceOnUse"
       width="8"
       height="8"
       x="0"
       y="0"><path
         d="M8 4 l-4,4"
         stroke="#000000"
         stroke-width="0.25"
         linecap="square"
         id="path1398" /><path
         d="M6 2 l-4,4"
         stroke="#000000"
         stroke-width="0.25"
         linecap="square"
         id="path1400" /><path
         d="M4 0 l-4,4"
         stroke="#000000"
         stroke-width="0.25"
         linecap="square"
         id="path1402" /></pattern><symbol
       id="*MODEL_SPACE-10" /><symbol
       id="*PAPER_SPACE-8" /><marker
       id="DistanceX-66"
       orient="auto"
       refX="0.0"
       refY="0.0"
       style="overflow:visible"><path
         d="M 3,-3 L -3,3 M 0,-5 L  0,5"
         style="stroke:#000000; stroke-width:0.5"
         id="path1565-3" /></marker><pattern
       id="Hatch-07"
       patternUnits="userSpaceOnUse"
       width="8"
       height="8"
       x="0"
       y="0"><path
         d="M8 4 l-4,4"
         stroke="#000000"
         stroke-width="0.25"
         linecap="square"
         id="path1568" /><path
         d="M6 2 l-4,4"
         stroke="#000000"
         stroke-width="0.25"
         linecap="square"
         id="path1570" /><path
         d="M4 0 l-4,4"
         stroke="#000000"
         stroke-width="0.25"
         linecap="square"
         id="path1572" /></pattern><symbol
       id="*MODEL_SPACE-8" /><symbol
       id="*PAPER_SPACE-5" /><marker
       id="DistanceX-31"
       orient="auto"
       refX="0.0"
       refY="0.0"
       style="overflow:visible"><path
         d="M 3,-3 L -3,3 M 0,-5 L  0,5"
         style="stroke:#000000; stroke-width:0.5"
         id="path1387" /></marker><pattern
       id="Hatch-5"
       patternUnits="userSpaceOnUse"
       width="8"
       height="8"
       x="0"
       y="0"><path
         d="M8 4 l-4,4"
         stroke="#000000"
         stroke-width="0.25"
         linecap="square"
         id="path1390" /><path
         d="M6 2 l-4,4"
         stroke="#000000"
         stroke-width="0.25"
         linecap="square"
         id="path1392" /><path
         d="M4 0 l-4,4"
         stroke="#000000"
         stroke-width="0.25"
         linecap="square"
         id="path1394" /></pattern><symbol
       id="*MODEL_SPACE-16" /><symbol
       id="*PAPER_SPACE-3" /><marker
       id="DistanceX-2"
       orient="auto"
       refX="0.0"
       refY="0.0"
       style="overflow:visible"><path
         d="M 3,-3 L -3,3 M 0,-5 L  0,5"
         style="stroke:#000000; stroke-width:0.5"
         id="path1427" /></marker><pattern
       id="Hatch-36"
       patternUnits="userSpaceOnUse"
       width="8"
       height="8"
       x="0"
       y="0"><path
         d="M8 4 l-4,4"
         stroke="#000000"
         stroke-width="0.25"
         linecap="square"
         id="path1430" /><path
         d="M6 2 l-4,4"
         stroke="#000000"
         stroke-width="0.25"
         linecap="square"
         id="path1432" /><path
         d="M4 0 l-4,4"
         stroke="#000000"
         stroke-width="0.25"
         linecap="square"
         id="path1434" /></pattern><symbol
       id="*MODEL_SPACE-2" /><symbol
       id="*PAPER_SPACE-84" /><marker
       id="DistanceX-10"
       orient="auto"
       refX="0.0"
       refY="0.0"
       style="overflow:visible"><path
         d="M 3,-3 L -3,3 M 0,-5 L  0,5"
         style="stroke:#000000; stroke-width:0.5"
         id="path1473" /></marker><pattern
       id="Hatch-7"
       patternUnits="userSpaceOnUse"
       width="8"
       height="8"
       x="0"
       y="0"><path
         d="M8 4 l-4,4"
         stroke="#000000"
         stroke-width="0.25"
         linecap="square"
         id="path1476" /><path
         d="M6 2 l-4,4"
         stroke="#000000"
         stroke-width="0.25"
         linecap="square"
         id="path1478" /><path
         d="M4 0 l-4,4"
         stroke="#000000"
         stroke-width="0.25"
         linecap="square"
         id="path1480" /></pattern><symbol
       id="*MODEL_SPACE-87" /><symbol
       id="*PAPER_SPACE-03" /><marker
       id="DistanceX-33"
       orient="auto"
       refX="0.0"
       refY="0.0"
       style="overflow:visible"><path
         d="M 3,-3 L -3,3 M 0,-5 L  0,5"
         style="stroke:#000000; stroke-width:0.5"
         id="path1513" /></marker><pattern
       id="Hatch-30"
       patternUnits="userSpaceOnUse"
       width="8"
       height="8"
       x="0"
       y="0"><path
         d="M8 4 l-4,4"
         stroke="#000000"
         stroke-width="0.25"
         linecap="square"
         id="path1516" /><path
         d="M6 2 l-4,4"
         stroke="#000000"
         stroke-width="0.25"
         linecap="square"
         id="path1518" /><path
         d="M4 0 l-4,4"
         stroke="#000000"
         stroke-width="0.25"
         linecap="square"
         id="path1520" /></pattern><symbol
       id="*MODEL_SPACE-9" /><symbol
       id="*PAPER_SPACE-98" /><marker
       id="DistanceX-01"
       orient="auto"
       refX="0.0"
       refY="0.0"
       style="overflow:visible"><path
         d="M 3,-3 L -3,3 M 0,-5 L  0,5"
         style="stroke:#000000; stroke-width:0.5"
         id="path1559" /></marker><pattern
       id="Hatch-83"
       patternUnits="userSpaceOnUse"
       width="8"
       height="8"
       x="0"
       y="0"><path
         d="M8 4 l-4,4"
         stroke="#000000"
         stroke-width="0.25"
         linecap="square"
         id="path1562" /><path
         d="M6 2 l-4,4"
         stroke="#000000"
         stroke-width="0.25"
         linecap="square"
         id="path1564" /><path
         d="M4 0 l-4,4"
         stroke="#000000"
         stroke-width="0.25"
         linecap="square"
         id="path1566" /></pattern><symbol
       id="*MODEL_SPACE-73" /><symbol
       id="*PAPER_SPACE-04" /><marker
       id="DistanceX-73"
       orient="auto"
       refX="0.0"
       refY="0.0"
       style="overflow:visible"><path
         d="M 3,-3 L -3,3 M 0,-5 L  0,5"
         style="stroke:#000000; stroke-width:0.5"
         id="path1303" /></marker><pattern
       id="Hatch-53"
       patternUnits="userSpaceOnUse"
       width="8"
       height="8"
       x="0"
       y="0"><path
         d="M8 4 l-4,4"
         stroke="#000000"
         stroke-width="0.25"
         linecap="square"
         id="path1306" /><path
         d="M6 2 l-4,4"
         stroke="#000000"
         stroke-width="0.25"
         linecap="square"
         id="path1308" /><path
         d="M4 0 l-4,4"
         stroke="#000000"
         stroke-width="0.25"
         linecap="square"
         id="path1310" /></pattern><symbol
       id="*MODEL_SPACE-3" /><symbol
       id="*PAPER_SPACE-19" /><marker
       id="DistanceX-21"
       orient="auto"
       refX="0.0"
       refY="0.0"
       style="overflow:visible"><path
         d="M 3,-3 L -3,3 M 0,-5 L  0,5"
         style="stroke:#000000; stroke-width:0.5"
         id="path1613" /></marker><pattern
       id="Hatch-13"
       patternUnits="userSpaceOnUse"
       width="8"
       height="8"
       x="0"
       y="0"><path
         d="M8 4 l-4,4"
         stroke="#000000"
         stroke-width="0.25"
         linecap="square"
         id="path1616" /><path
         d="M6 2 l-4,4"
         stroke="#000000"
         stroke-width="0.25"
         linecap="square"
         id="path1618" /><path
         d="M4 0 l-4,4"
         stroke="#000000"
         stroke-width="0.25"
         linecap="square"
         id="path1620" /></pattern><symbol
       id="*MODEL_SPACE-4" /><symbol
       id="*PAPER_SPACE-2" /><clipPath
       clipPathUnits="userSpaceOnUse"
       id="clipPath18-2"><path
         d="M 0,1296 H 1728 V 0 H 0 Z"
         id="path16-1"
         inkscape:connector-curvature="0" /></clipPath><clipPath
       clipPathUnits="userSpaceOnUse"
       id="clipPath66-3"><path
         d="M 0,1296 H 1728 V 0 H 0 Z"
         id="path64-1"
         inkscape:connector-curvature="0" /></clipPath><clipPath
       clipPathUnits="userSpaceOnUse"
       id="clipPath114-0"><path
         d="M 0,1296 H 1728 V 0 H 0 Z"
         id="path112-7"
         inkscape:connector-curvature="0" /></clipPath><clipPath
       clipPathUnits="userSpaceOnUse"
       id="clipPath126-5"><path
         d="M 639.733,602.209 H 712.82 V 515.643 H 639.733 Z"
         id="path124-5"
         inkscape:connector-curvature="0" /></clipPath><clipPath
       clipPathUnits="userSpaceOnUse"
       id="clipPath142-6"><path
         d="m 719.43,602.471 h 96.184 V 512.306 H 719.43 Z"
         id="path140-7"
         inkscape:connector-curvature="0" /></clipPath><clipPath
       clipPathUnits="userSpaceOnUse"
       id="clipPath158-9"><path
         d="m 827.326,599.003 h 55.747 v -83.36 h -55.747 z"
         id="path156-9"
         inkscape:connector-curvature="0" /></clipPath><clipPath
       clipPathUnits="userSpaceOnUse"
       id="clipPath174-2"><path
         d="m 894.851,599.003 h 37.558 v -83.36 h -37.558 z"
         id="path172-2"
         inkscape:connector-curvature="0" /></clipPath><clipPath
       clipPathUnits="userSpaceOnUse"
       id="clipPath190-4"><path
         d="m 943.466,599.003 h 51.756 v -83.36 h -51.756 z"
         id="path188-5"
         inkscape:connector-curvature="0" /></clipPath><clipPath
       clipPathUnits="userSpaceOnUse"
       id="clipPath210-7"><path
         d="m 1082.6,582.097 h 64.12 v -64.115 h -64.12 z"
         id="path208-6"
         inkscape:connector-curvature="0" /></clipPath><clipPath
       clipPathUnits="userSpaceOnUse"
       id="clipPath226-9"><path
         d="m 1094.14,570.557 h 41.04 v -41.034 h -41.04 z"
         id="path224-9"
         inkscape:connector-curvature="0" /></clipPath><marker
       id="DistanceX-53"
       orient="auto"
       refX="0.0"
       refY="0.0"
       style="overflow:visible"><path
         d="M 3,-3 L -3,3 M 0,-5 L  0,5"
         style="stroke:#000000; stroke-width:0.5"
         id="path1087-9" /></marker><pattern
       id="Hatch-537"
       patternUnits="userSpaceOnUse"
       width="8"
       height="8"
       x="0"
       y="0"><path
         d="M8 4 l-4,4"
         stroke="#000000"
         stroke-width="0.25"
         linecap="square"
         id="path1090-3" /><path
         d="M6 2 l-4,4"
         stroke="#000000"
         stroke-width="0.25"
         linecap="square"
         id="path1092-4" /><path
         d="M4 0 l-4,4"
         stroke="#000000"
         stroke-width="0.25"
         linecap="square"
         id="path1094-0" /></pattern><symbol
       id="*MODEL_SPACE-04" /><symbol
       id="*PAPER_SPACE-08" /><marker
       id="DistanceX-7-0"
       orient="auto"
       refX="0.0"
       refY="0.0"
       style="overflow:visible"><path
         d="M 3,-3 L -3,3 M 0,-5 L  0,5"
         style="stroke:#000000; stroke-width:0.5"
         id="path1133-9" /></marker><pattern
       id="Hatch-1-5"
       patternUnits="userSpaceOnUse"
       width="8"
       height="8"
       x="0"
       y="0"><path
         d="M8 4 l-4,4"
         stroke="#000000"
         stroke-width="0.25"
         linecap="square"
         id="path1136-0" /><path
         d="M6 2 l-4,4"
         stroke="#000000"
         stroke-width="0.25"
         linecap="square"
         id="path1138-3" /><path
         d="M4 0 l-4,4"
         stroke="#000000"
         stroke-width="0.25"
         linecap="square"
         id="path1140-4" /></pattern><symbol
       id="*MODEL_SPACE-7-4" /><symbol
       id="*PAPER_SPACE-9-5" /><marker
       id="DistanceX-5-8"
       orient="auto"
       refX="0.0"
       refY="0.0"
       style="overflow:visible"><path
         d="M 3,-3 L -3,3 M 0,-5 L  0,5"
         style="stroke:#000000; stroke-width:0.5"
         id="path1173-8" /></marker><pattern
       id="Hatch-8-1"
       patternUnits="userSpaceOnUse"
       width="8"
       height="8"
       x="0"
       y="0"><path
         d="M8 4 l-4,4"
         stroke="#000000"
         stroke-width="0.25"
         linecap="square"
         id="path1176-4" /><path
         d="M6 2 l-4,4"
         stroke="#000000"
         stroke-width="0.25"
         linecap="square"
         id="path1178-1" /><path
         d="M4 0 l-4,4"
         stroke="#000000"
         stroke-width="0.25"
         linecap="square"
         id="path1180-5" /></pattern><symbol
       id="*MODEL_SPACE-1-8" /><symbol
       id="*PAPER_SPACE-93-2" /><marker
       id="DistanceX-9-7"
       orient="auto"
       refX="0.0"
       refY="0.0"
       style="overflow:visible"><path
         d="M 3,-3 L -3,3 M 0,-5 L  0,5"
         style="stroke:#000000; stroke-width:0.5"
         id="path1272-9" /></marker><pattern
       id="Hatch-12-1"
       patternUnits="userSpaceOnUse"
       width="8"
       height="8"
       x="0"
       y="0"><path
         d="M8 4 l-4,4"
         stroke="#000000"
         stroke-width="0.25"
         linecap="square"
         id="path1275-1" /><path
         d="M6 2 l-4,4"
         stroke="#000000"
         stroke-width="0.25"
         linecap="square"
         id="path1277-0" /><path
         d="M4 0 l-4,4"
         stroke="#000000"
         stroke-width="0.25"
         linecap="square"
         id="path1279-7" /></pattern><symbol
       id="*MODEL_SPACE-6-4" /><symbol
       id="*PAPER_SPACE-0-9" /><marker
       id="DistanceX-4-3"
       orient="auto"
       refX="0.0"
       refY="0.0"
       style="overflow:visible"><path
         d="M 3,-3 L -3,3 M 0,-5 L  0,5"
         style="stroke:#000000; stroke-width:0.5"
         id="path1318-5" /></marker><pattern
       id="Hatch-17-0"
       patternUnits="userSpaceOnUse"
       width="8"
       height="8"
       x="0"
       y="0"><path
         d="M8 4 l-4,4"
         stroke="#000000"
         stroke-width="0.25"
         linecap="square"
         id="path1321-1" /><path
         d="M6 2 l-4,4"
         stroke="#000000"
         stroke-width="0.25"
         linecap="square"
         id="path1323-1" /><path
         d="M4 0 l-4,4"
         stroke="#000000"
         stroke-width="0.25"
         linecap="square"
         id="path1325-65" /></pattern><symbol
       id="*MODEL_SPACE-0-9" /><symbol
       id="*PAPER_SPACE-1-6" /><marker
       id="DistanceX-0-8"
       orient="auto"
       refX="0.0"
       refY="0.0"
       style="overflow:visible"><path
         d="M 3,-3 L -3,3 M 0,-5 L  0,5"
         style="stroke:#000000; stroke-width:0.5"
         id="path1358-0" /></marker><pattern
       id="Hatch-0-8"
       patternUnits="userSpaceOnUse"
       width="8"
       height="8"
       x="0"
       y="0"><path
         d="M8 4 l-4,4"
         stroke="#000000"
         stroke-width="0.25"
         linecap="square"
         id="path1361-4" /><path
         d="M6 2 l-4,4"
         stroke="#000000"
         stroke-width="0.25"
         linecap="square"
         id="path1363-9" /><path
         d="M4 0 l-4,4"
         stroke="#000000"
         stroke-width="0.25"
         linecap="square"
         id="path1365-4" /></pattern><symbol
       id="*MODEL_SPACE-65-4" /><symbol
       id="*PAPER_SPACE-06-0" /><marker
       id="DistanceX-6-6"
       orient="auto"
       refX="0.0"
       refY="0.0"
       style="overflow:visible"><path
         d="M 3,-3 L -3,3 M 0,-5 L  0,5"
         style="stroke:#000000; stroke-width:0.5"
         id="path1560-6" /></marker><pattern
       id="Hatch-80-1"
       patternUnits="userSpaceOnUse"
       width="8"
       height="8"
       x="0"
       y="0"><path
         d="M8 4 l-4,4"
         stroke="#000000"
         stroke-width="0.25"
         linecap="square"
         id="path1563-7" /><path
         d="M6 2 l-4,4"
         stroke="#000000"
         stroke-width="0.25"
         linecap="square"
         id="path1565-2" /><path
         d="M4 0 l-4,4"
         stroke="#000000"
         stroke-width="0.25"
         linecap="square"
         id="path1567-8" /></pattern><symbol
       id="*MODEL_SPACE-03-8" /><symbol
       id="*PAPER_SPACE-4-9" /><marker
       id="DistanceX-3-1"
       orient="auto"
       refX="0.0"
       refY="0.0"
       style="overflow:visible"><path
         d="M 3,-3 L -3,3 M 0,-5 L  0,5"
         style="stroke:#000000; stroke-width:0.5"
         id="path1193-6" /></marker><pattern
       id="Hatch-02-7"
       patternUnits="userSpaceOnUse"
       width="8"
       height="8"
       x="0"
       y="0"><path
         d="M8 4 l-4,4"
         stroke="#000000"
         stroke-width="0.25"
         linecap="square"
         id="path1196-1" /><path
         d="M6 2 l-4,4"
         stroke="#000000"
         stroke-width="0.25"
         linecap="square"
         id="path1198-8" /><path
         d="M4 0 l-4,4"
         stroke="#000000"
         stroke-width="0.25"
         linecap="square"
         id="path1200-3" /></pattern><symbol
       id="*MODEL_SPACE-09-5" /><symbol
       id="*PAPER_SPACE-7-2" /><marker
       id="DistanceX-1-3"
       orient="auto"
       refX="0.0"
       refY="0.0"
       style="overflow:visible"><path
         d="M 3,-3 L -3,3 M 0,-5 L  0,5"
         style="stroke:#000000; stroke-width:0.5"
         id="path1395-9" /></marker><pattern
       id="Hatch-3-7"
       patternUnits="userSpaceOnUse"
       width="8"
       height="8"
       x="0"
       y="0"><path
         d="M8 4 l-4,4"
         stroke="#000000"
         stroke-width="0.25"
         linecap="square"
         id="path1398-8" /><path
         d="M6 2 l-4,4"
         stroke="#000000"
         stroke-width="0.25"
         linecap="square"
         id="path1400-7" /><path
         d="M4 0 l-4,4"
         stroke="#000000"
         stroke-width="0.25"
         linecap="square"
         id="path1402-7" /></pattern><symbol
       id="*MODEL_SPACE-10-4" /><symbol
       id="*PAPER_SPACE-8-8" /><marker
       id="DistanceX-66-6"
       orient="auto"
       refX="0.0"
       refY="0.0"
       style="overflow:visible"><path
         d="M 3,-3 L -3,3 M 0,-5 L  0,5"
         style="stroke:#000000; stroke-width:0.5"
         id="path1565-3-6" /></marker><pattern
       id="Hatch-07-7"
       patternUnits="userSpaceOnUse"
       width="8"
       height="8"
       x="0"
       y="0"><path
         d="M8 4 l-4,4"
         stroke="#000000"
         stroke-width="0.25"
         linecap="square"
         id="path1568-4" /><path
         d="M6 2 l-4,4"
         stroke="#000000"
         stroke-width="0.25"
         linecap="square"
         id="path1570-3" /><path
         d="M4 0 l-4,4"
         stroke="#000000"
         stroke-width="0.25"
         linecap="square"
         id="path1572-5" /></pattern><symbol
       id="*MODEL_SPACE-8-2" /><symbol
       id="*PAPER_SPACE-5-6" /><marker
       id="DistanceX-31-9"
       orient="auto"
       refX="0.0"
       refY="0.0"
       style="overflow:visible"><path
         d="M 3,-3 L -3,3 M 0,-5 L  0,5"
         style="stroke:#000000; stroke-width:0.5"
         id="path1387-4" /></marker><pattern
       id="Hatch-5-9"
       patternUnits="userSpaceOnUse"
       width="8"
       height="8"
       x="0"
       y="0"><path
         d="M8 4 l-4,4"
         stroke="#000000"
         stroke-width="0.25"
         linecap="square"
         id="path1390-2" /><path
         d="M6 2 l-4,4"
         stroke="#000000"
         stroke-width="0.25"
         linecap="square"
         id="path1392-3" /><path
         d="M4 0 l-4,4"
         stroke="#000000"
         stroke-width="0.25"
         linecap="square"
         id="path1394-7" /></pattern><symbol
       id="*MODEL_SPACE-16-7" /><symbol
       id="*PAPER_SPACE-3-7" /><marker
       id="DistanceX-2-0"
       orient="auto"
       refX="0.0"
       refY="0.0"
       style="overflow:visible"><path
         d="M 3,-3 L -3,3 M 0,-5 L  0,5"
         style="stroke:#000000; stroke-width:0.5"
         id="path1427-6" /></marker><pattern
       id="Hatch-36-6"
       patternUnits="userSpaceOnUse"
       width="8"
       height="8"
       x="0"
       y="0"><path
         d="M8 4 l-4,4"
         stroke="#000000"
         stroke-width="0.25"
         linecap="square"
         id="path1430-7" /><path
         d="M6 2 l-4,4"
         stroke="#000000"
         stroke-width="0.25"
         linecap="square"
         id="path1432-5" /><path
         d="M4 0 l-4,4"
         stroke="#000000"
         stroke-width="0.25"
         linecap="square"
         id="path1434-1" /></pattern><symbol
       id="*MODEL_SPACE-2-5" /><symbol
       id="*PAPER_SPACE-84-2" /><marker
       id="DistanceX-10-4"
       orient="auto"
       refX="0.0"
       refY="0.0"
       style="overflow:visible"><path
         d="M 3,-3 L -3,3 M 0,-5 L  0,5"
         style="stroke:#000000; stroke-width:0.5"
         id="path1473-0" /></marker><pattern
       id="Hatch-7-1"
       patternUnits="userSpaceOnUse"
       width="8"
       height="8"
       x="0"
       y="0"><path
         d="M8 4 l-4,4"
         stroke="#000000"
         stroke-width="0.25"
         linecap="square"
         id="path1476-6" /><path
         d="M6 2 l-4,4"
         stroke="#000000"
         stroke-width="0.25"
         linecap="square"
         id="path1478-9" /><path
         d="M4 0 l-4,4"
         stroke="#000000"
         stroke-width="0.25"
         linecap="square"
         id="path1480-8" /></pattern><symbol
       id="*MODEL_SPACE-87-7" /><symbol
       id="*PAPER_SPACE-03-0" /><marker
       id="DistanceX-33-6"
       orient="auto"
       refX="0.0"
       refY="0.0"
       style="overflow:visible"><path
         d="M 3,-3 L -3,3 M 0,-5 L  0,5"
         style="stroke:#000000; stroke-width:0.5"
         id="path1513-9" /></marker><pattern
       id="Hatch-30-3"
       patternUnits="userSpaceOnUse"
       width="8"
       height="8"
       x="0"
       y="0"><path
         d="M8 4 l-4,4"
         stroke="#000000"
         stroke-width="0.25"
         linecap="square"
         id="path1516-4" /><path
         d="M6 2 l-4,4"
         stroke="#000000"
         stroke-width="0.25"
         linecap="square"
         id="path1518-3" /><path
         d="M4 0 l-4,4"
         stroke="#000000"
         stroke-width="0.25"
         linecap="square"
         id="path1520-3" /></pattern><symbol
       id="*MODEL_SPACE-9-6" /><symbol
       id="*PAPER_SPACE-98-5" /><marker
       id="DistanceX-01-4"
       orient="auto"
       refX="0.0"
       refY="0.0"
       style="overflow:visible"><path
         d="M 3,-3 L -3,3 M 0,-5 L  0,5"
         style="stroke:#000000; stroke-width:0.5"
         id="path1559-3" /></marker><pattern
       id="Hatch-83-2"
       patternUnits="userSpaceOnUse"
       width="8"
       height="8"
       x="0"
       y="0"><path
         d="M8 4 l-4,4"
         stroke="#000000"
         stroke-width="0.25"
         linecap="square"
         id="path1562-3" /><path
         d="M6 2 l-4,4"
         stroke="#000000"
         stroke-width="0.25"
         linecap="square"
         id="path1564-2" /><path
         d="M4 0 l-4,4"
         stroke="#000000"
         stroke-width="0.25"
         linecap="square"
         id="path1566-5" /></pattern><symbol
       id="*MODEL_SPACE-73-7" /><symbol
       id="*PAPER_SPACE-04-8" /><marker
       id="DistanceX-73-6"
       orient="auto"
       refX="0.0"
       refY="0.0"
       style="overflow:visible"><path
         d="M 3,-3 L -3,3 M 0,-5 L  0,5"
         style="stroke:#000000; stroke-width:0.5"
         id="path1303-3" /></marker><pattern
       id="Hatch-53-4"
       patternUnits="userSpaceOnUse"
       width="8"
       height="8"
       x="0"
       y="0"><path
         d="M8 4 l-4,4"
         stroke="#000000"
         stroke-width="0.25"
         linecap="square"
         id="path1306-9" /><path
         d="M6 2 l-4,4"
         stroke="#000000"
         stroke-width="0.25"
         linecap="square"
         id="path1308-4" /><path
         d="M4 0 l-4,4"
         stroke="#000000"
         stroke-width="0.25"
         linecap="square"
         id="path1310-1" /></pattern><symbol
       id="*MODEL_SPACE-3-1" /><symbol
       id="*PAPER_SPACE-19-2" /><marker
       id="DistanceX-21-0"
       orient="auto"
       refX="0.0"
       refY="0.0"
       style="overflow:visible"><path
         d="M 3,-3 L -3,3 M 0,-5 L  0,5"
         style="stroke:#000000; stroke-width:0.5"
         id="path1613-6" /></marker><pattern
       id="Hatch-13-1"
       patternUnits="userSpaceOnUse"
       width="8"
       height="8"
       x="0"
       y="0"><path
         d="M8 4 l-4,4"
         stroke="#000000"
         stroke-width="0.25"
         linecap="square"
         id="path1616-8" /><path
         d="M6 2 l-4,4"
         stroke="#000000"
         stroke-width="0.25"
         linecap="square"
         id="path1618-0" /><path
         d="M4 0 l-4,4"
         stroke="#000000"
         stroke-width="0.25"
         linecap="square"
         id="path1620-9" /></pattern><symbol
       id="*MODEL_SPACE-4-0" /><symbol
       id="*PAPER_SPACE-2-7" /><marker
       id="DistanceX-59"
       orient="auto"
       refX="0.0"
       refY="0.0"
       style="overflow:visible"><path
         d="M 3,-3 L -3,3 M 0,-5 L  0,5"
         style="stroke:#000000; stroke-width:0.5"
         id="path3904" /></marker><pattern
       id="Hatch-34"
       patternUnits="userSpaceOnUse"
       width="8"
       height="8"
       x="0"
       y="0"><path
         d="M8 4 l-4,4"
         stroke="#000000"
         stroke-width="0.25"
         linecap="square"
         id="path3907" /><path
         d="M6 2 l-4,4"
         stroke="#000000"
         stroke-width="0.25"
         linecap="square"
         id="path3909" /><path
         d="M4 0 l-4,4"
         stroke="#000000"
         stroke-width="0.25"
         linecap="square"
         id="path3911" /></pattern><symbol
       id="*MODEL_SPACE-75" /><symbol
       id="*PAPER_SPACE-36" /><marker
       id="DistanceX-8"
       orient="auto"
       refX="0.0"
       refY="0.0"
       style="overflow:visible"><path
         d="M 3,-3 L -3,3 M 0,-5 L  0,5"
         style="stroke:#000000; stroke-width:0.5"
         id="path4137" /></marker><pattern
       id="Hatch-9"
       patternUnits="userSpaceOnUse"
       width="8"
       height="8"
       x="0"
       y="0"><path
         d="M8 4 l-4,4"
         stroke="#000000"
         stroke-width="0.25"
         linecap="square"
         id="path4140" /><path
         d="M6 2 l-4,4"
         stroke="#000000"
         stroke-width="0.25"
         linecap="square"
         id="path4142" /><path
         d="M4 0 l-4,4"
         stroke="#000000"
         stroke-width="0.25"
         linecap="square"
         id="path4144" /></pattern><symbol
       id="*MODEL_SPACE-45" /><symbol
       id="*PAPER_SPACE-045" /></defs><sodipodi:namedview
     pagecolor="#ffffff"
     bordercolor="#666666"
     borderopacity="1"
     objecttolerance="10"
     gridtolerance="10"
     guidetolerance="10"
     inkscape:pageopacity="0"
     inkscape:pageshadow="2"
     inkscape:window-width="1920"
     inkscape:window-height="986"
     id="namedview4"
     showgrid="false"
     units="in"
     inkscape:zoom="0.8359833"
     inkscape:cx="74.762259"
     inkscape:cy="275.12511"
     inkscape:window-x="-11"
     inkscape:window-y="-11"
     inkscape:window-maximized="1"
     inkscape:current-layer="g10"
     inkscape:pagecheckerboard="0"
     inkscape:document-units="in" /><g
     id="g10"
     inkscape:groupmode="layer"
     inkscape:label="MyMaker_LasercutTemplate_Illustrator"
     transform="matrix(1.3333333,0,0,-1.3333333,0,1728)"><path
       d="M 1719.072,1287 H 1719 v -16 h 0.072 z m 0,-36 H 1719 v -20 h 0.072 z m 0,-40 H 1719 v -20 h 0.072 z m 0,-40 H 1719 v -20 h 0.072 z m 0,-40 H 1719 v -20 h 0.072 z m 0,-40 H 1719 v -20 h 0.072 z m 0,-40 H 1719 v -20 h 0.072 z m 0,-40 H 1719 v -20 h 0.072 z m 0,-40 H 1719 v -20 h 0.072 z m 0,-40 H 1719 v -20 h 0.072 z m 0,-40 H 1719 v -20 h 0.072 z m 0,-40 H 1719 v -20 h 0.072 z m 0,-40 H 1719 v -20 h 0.072 z m 0,-40 H 1719 v -20 h 0.072 z m 0,-40 H 1719 v -20 h 0.072 z m 0,-40 H 1719 v -20 h 0.072 z m 0,-40 H 1719 v -20 h 0.072 z m 0,-40 H 1719 v -20 h 0.072 z m 0,-40 H 1719 v -20 h 0.072 z m 0,-40 H 1719 v -20 h 0.072 z m 0,-40 H 1719 v -20 h 0.072 z m 0,-40 H 1719 v -20 h 0.072 z m 0,-40 H 1719 v -20 h 0.072 z m 0,-40 H 1719 v -20 h 0.072 z m 0,-40 H 1719 v -20 h 0.072 z m 0,-40 H 1719 v -20 h 0.072 z m 0,-40 H 1719 v -20 h 0.072 z m 0,-40 H 1719 v -20 h 0.072 z m 0,-40 H 1719 v -20 h 0.072 z m 0,-40 H 1719 v -20 h 0.072 z m 0,-40 H 1719 V 71 h 0.072 z m 0,-40 H 1719 V 31 h 0.072 z m 0,-40 H 1719 V 9 h -18 V 8.928 h 18 0.072 V 9 Z M 1681,9 h -20 V 8.928 h 20 z m -40,0 h -20 V 8.928 h 20 z m -40,0 h -20 V 8.928 h 20 z m -40,0 h -20 V 8.928 h 20 z m -40,0 h -20 V 8.928 h 20 z m -40,0 h -20 V 8.928 h 20 z m -40,0 h -20 V 8.928 h 20 z m -40,0 h -20 V 8.928 h 20 z m -40,0 h -20 V 8.928 h 20 z m -40,0 h -20 V 8.928 h 20 z m -40,0 h -20 V 8.928 h 20 z m -40,0 h -20 V 8.928 h 20 z m -40,0 h -20 V 8.928 h 20 z m -40,0 h -20 V 8.928 h 20 z m -40,0 h -20 V 8.928 h 20 z m -40,0 h -20 V 8.928 h 20 z m -40,0 h -20 V 8.928 h 20 z m -40,0 H 981 V 8.928 h 20 z M 961,9 H 941 V 8.928 h 20 z M 921,9 H 901 V 8.928 h 20 z M 881,9 H 861 V 8.928 h 20 z M 841,9 H 821 V 8.928 h 20 z M 801,9 H 781 V 8.928 h 20 z M 761,9 H 741 V 8.928 h 20 z M 721,9 H 701 V 8.928 h 20 z M 681,9 H 661 V 8.928 h 20 z M 641,9 H 621 V 8.928 h 20 z M 601,9 H 581 V 8.928 h 20 z M 561,9 H 541 V 8.928 h 20 z M 521,9 H 501 V 8.928 h 20 z M 481,9 H 461 V 8.928 h 20 z M 441,9 H 421 V 8.928 h 20 z M 401,9 H 381 V 8.928 h 20 z M 361,9 H 341 V 8.928 h 20 z M 321,9 H 301 V 8.928 h 20 z M 281,9 H 261 V 8.928 h 20 z M 241,9 H 221 V 8.928 h 20 z M 201,9 H 181 V 8.928 h 20 z M 161,9 H 141 V 8.928 h 20 z M 121,9 H 101 V 8.928 h 20 z M 81,9 H 61 V 8.928 H 81 Z M 41,9 H 21 V 8.928 H 41 Z M 9,37 H 8.928 V 17 H 9 Z M 9,77 H 8.928 V 57 H 9 Z m 0,40 H 8.928 V 97 H 9 Z m 0,40 H 8.928 V 137 H 9 Z m 0,40 H 8.928 V 177 H 9 Z m 0,40 H 8.928 V 217 H 9 Z m 0,40 H 8.928 V 257 H 9 Z m 0,40 H 8.928 V 297 H 9 Z m 0,40 H 8.928 V 337 H 9 Z m 0,40 H 8.928 V 377 H 9 Z m 0,40 H 8.928 V 417 H 9 Z m 0,40 H 8.928 V 457 H 9 Z m 0,40 H 8.928 V 497 H 9 Z m 0,40 H 8.928 V 537 H 9 Z m 0,40 H 8.928 V 577 H 9 Z m 0,40 H 8.928 V 617 H 9 Z m 0,40 H 8.928 V 657 H 9 Z m 0,40 H 8.928 V 697 H 9 Z m 0,40 H 8.928 V 737 H 9 Z m 0,40 H 8.928 V 777 H 9 Z m 0,40 H 8.928 V 817 H 9 Z m 0,40 H 8.928 V 857 H 9 Z m 0,40 H 8.928 V 897 H 9 Z m 0,40 H 8.928 V 937 H 9 Z m 0,40 H 8.928 V 977 H 9 Z m 0,40 H 8.928 v -20 H 9 Z m 0,40 H 8.928 v -20 H 9 Z m 0,40 H 8.928 v -20 H 9 Z m 0,40 H 8.928 v -20 H 9 Z m 0,40 H 8.928 v -20 H 9 Z m 0,40 H 8.928 v -20 H 9 Z m 0,40 H 8.928 v -20 H 9 Z m 30,10.072 H 19 V 1287 h 20 z m 40,0 H 59 V 1287 h 20 z m 40,0 H 99 V 1287 h 20 z m 40,0 H 139 V 1287 h 20 z m 40,0 H 179 V 1287 h 20 z m 40,0 H 219 V 1287 h 20 z m 40,0 H 259 V 1287 h 20 z m 40,0 H 299 V 1287 h 20 z m 40,0 H 339 V 1287 h 20 z m 40,0 H 379 V 1287 h 20 z m 40,0 H 419 V 1287 h 20 z m 40,0 H 459 V 1287 h 20 z m 40,0 H 499 V 1287 h 20 z m 40,0 H 539 V 1287 h 20 z m 40,0 H 579 V 1287 h 20 z m 40,0 H 619 V 1287 h 20 z m 40,0 H 659 V 1287 h 20 z m 40,0 H 699 V 1287 h 20 z m 40,0 H 739 V 1287 h 20 z m 40,0 H 779 V 1287 h 20 z m 40,0 H 819 V 1287 h 20 z m 40,0 H 859 V 1287 h 20 z m 40,0 H 899 V 1287 h 20 z m 40,0 H 939 V 1287 h 20 z m 40,0 H 979 V 1287 h 20 z m 40,0 h -20 V 1287 h 20 z m 40,0 h -20 V 1287 h 20 z m 40,0 h -20 V 1287 h 20 z m 40,0 h -20 V 1287 h 20 z m 40,0 h -20 V 1287 h 20 z m 40,0 h -20 V 1287 h 20 z m 40,0 h -20 V 1287 h 20 z m 40,0 h -20 V 1287 h 20 z m 40,0 h -20 V 1287 h 20 z m 40,0 h -20 V 1287 h 20 z m 40,0 h -20 V 1287 h 20 z m 40,0 h -20 V 1287 h 20 z m 40,0 h -20 V 1287 h 20 z m 40,0 h -20 V 1287 h 20 z m 40,0 h -20 V 1287 h 20 z m 40,0 h -20 V 1287 h 20 z m 40,0 h -20 V 1287 h 20 z m 40,0 h -20 V 1287 h 20 z"
       style="fill:#231f20;fill-opacity:1;fill-rule:nonzero;stroke:none"
       id="path236"
       inkscape:connector-curvature="0" /><g
       inkscape:label="0"
       id="g4179"
       transform="matrix(0.75000002,0,0,-0.75000002,-134.10808,-496.64517)"
       style="stroke:#ff0000;stroke-opacity:1;stroke-width:0.096;stroke-miterlimit:4;stroke-dasharray:none"><path
         d="M 444.1441,-2378.2895 H 206.03386 v 619.8425 H 444.1441 Z"
         style="fill:none;stroke:#ff0000;stroke-opacity:1;stroke-width:0.096;stroke-miterlimit:4;stroke-dasharray:none"
         id="path4151" /><path
         d="m 231.24898,-2284.3682 a 8.16,8.16 0 1 0 -16.32,0 8.16,8.16 0 1 0 16.32,0 z"
         style="fill:none;stroke:#ff0000;stroke-opacity:1;stroke-width:0.096;stroke-miterlimit:4;stroke-dasharray:none"
         id="path4153" /><path
         d="m 435.24898,-2284.3682 a 8.16,8.16 0 1 0 -16.32,0 8.16,8.16 0 1 0 16.32,0 z"
         style="fill:none;stroke:#ff0000;stroke-opacity:1;stroke-width:0.096;stroke-miterlimit:4;stroke-dasharray:none"
         id="path4155" /><path
         d="m 275.01024,-2125.0611 a 6.614173,6.614173 0 1 0 -13.22834,0 6.614173,6.614173 0 1 0 13.22834,0 z"
         style="fill:none;stroke:#ff0000;stroke-opacity:1;stroke-width:0.096;stroke-miterlimit:4;stroke-dasharray:none"
         id="path4157" /><path
         d="m 388.39607,-2125.0611 a 6.614175,6.614175 0 1 0 -13.22835,0 6.614175,6.614175 0 1 0 13.22835,0 z"
         style="fill:none;stroke:#ff0000;stroke-opacity:1;stroke-width:0.096;stroke-miterlimit:4;stroke-dasharray:none"
         id="path4159" /><path
         d="m 366.66379,-2096.7147 a 13.22835,13.22835 0 1 0 -26.4567,0 13.22835,13.22835 0 1 0 26.4567,0 z"
         style="fill:none;stroke:#ff0000;stroke-opacity:1;stroke-width:0.096;stroke-miterlimit:4;stroke-dasharray:none"
         id="path4161" /><path
         d="m 309.97087,-2096.7147 a 13.228346,13.228346 0 1 0 -26.45669,0 13.228346,13.228346 0 1 0 26.45669,0 z"
         style="fill:none;stroke:#ff0000;stroke-opacity:1;stroke-width:0.096;stroke-miterlimit:4;stroke-dasharray:none"
         id="path4163" /><path
         d="m 334.96337,-2068.3682 a 9.874394,9.874394 0 1 0 -19.74878,0 9.874394,9.874394 0 1 0 19.74878,0 z"
         style="fill:none;stroke:#ff0000;stroke-opacity:1;stroke-width:0.096;stroke-miterlimit:4;stroke-dasharray:none"
         id="path4165" /><path
         d="m 309.97087,-2040.0218 a 13.228346,13.228346 0 1 0 -26.45669,0 13.228346,13.228346 0 1 0 26.45669,0 z"
         style="fill:none;stroke:#ff0000;stroke-opacity:1;stroke-width:0.096;stroke-miterlimit:4;stroke-dasharray:none"
         id="path4167" /><path
         d="m 366.66379,-2040.0218 a 13.22835,13.22835 0 1 0 -26.4567,0 13.22835,13.22835 0 1 0 26.4567,0 z"
         style="fill:none;stroke:#ff0000;stroke-opacity:1;stroke-width:0.096;stroke-miterlimit:4;stroke-dasharray:none"
         id="path4169" /><path
         d="m 388.39607,-2011.6753 a 6.614175,6.614175 0 1 0 -13.22835,0 6.614175,6.614175 0 1 0 13.22835,0 z"
         style="fill:none;stroke:#ff0000;stroke-opacity:1;stroke-width:0.096;stroke-miterlimit:4;stroke-dasharray:none"
         id="path4171" /><path
         d="m 275.01024,-2011.6753 a 6.614173,6.614173 0 1 0 -13.22834,0 6.614173,6.614173 0 1 0 13.22834,0 z"
         style="fill:none;stroke:#ff0000;stroke-opacity:1;stroke-width:0.096;stroke-miterlimit:4;stroke-dasharray:none"
         id="path4173" /><path
         d="m 231.24898,-1852.3682 a 8.16,8.16 0 1 0 -16.32,0 8.16,8.16 0 1 0 16.32,0 z"
         style="fill:none;stroke:#ff0000;stroke-opacity:1;stroke-width:0.096;stroke-miterlimit:4;stroke-dasharray:none"
         id="path4175" /><path
         d="m 435.24898,-1852.3682 a 8.16,8.16 0 1 0 -16.32,0 8.16,8.16 0 1 0 16.32,0 z"
         style="fill:none;stroke:#ff0000;stroke-opacity:1;stroke-width:0.096;stroke-miterlimit:4;stroke-dasharray:none"
         id="path4177" /></g></g></svg>
